<mxfile host="app.diagrams.net" agent="Mozilla/5.0 (Windows NT 10.0; Win64; x64) AppleWebKit/537.36 (KHTML, like Gecko) Chrome/131.0.0.0 Safari/537.36" version="25.0.3">
  <diagram name="changeScene流程" id="J2ehZ6sOsOv02fXm8Qkl">
    <mxGraphModel dx="944" dy="1243" grid="0" gridSize="10" guides="1" tooltips="1" connect="1" arrows="1" fold="1" page="1" pageScale="1" pageWidth="827" pageHeight="1169" math="0" shadow="0">
      <root>
        <mxCell id="0" />
        <mxCell id="1" parent="0" />
        <mxCell id="9KCve38od3s6Ke8yRSOH-17" value="" style="shape=image;verticalLabelPosition=bottom;labelBackgroundColor=default;verticalAlign=top;aspect=fixed;imageAspect=0;image=data:image/png,iVBORw0KGgoAAAANSUhEUgAAAdoAAAAbCAIAAABURdldAAAKkElEQVR4Ae2cS2scRxCA8y8CebhB4IeMFZREipFwpINuOSk5+GRCWJagv7BGmIACEliQY8BIhLAIGTm3XLSXgME5RQs6+SDvj5D/gB2qurse/ZiRhll7V25jvL3dXdXV1dPfVNfM+iNT/hQPFA8UDxQPTIAHPpoAG4oJxQPFA8UDxQOm4LhcBMUDxQPFAxPhgYLjiViGYkTxQPFA8UDBcbkGigeKB4oHJsIDBcfjWoZOf380erw9LvXVejvHo6OR+5u0wXbYP+hW6+FWnI7Tedpf44YrUbr47PLL+utnv739ZOPXK+GPyZ5E98Xu6M3mjjdy6d9P/nj1uf821Z9XGMeHm6M3e8MXd/363O2f743e7Pa3fMV4P/P7Vo1rQXBM15axoEwyVAnCl27vdHQkZMMOeRtSOEZtHuJA3pRmEHyPON4eHI2GvU4w0Z3HLd356meXc+nnm28//u3fa9qwuYcv7+/+eUNXlm9JD9jtuTd6w3/F5lUiAY6NAedfCSJfdRyPzjdcALi1MYSVnkwcjwaeMECWo4vCpTmO1eXtvgTa0JKIvPXASqlurQ5omMRxXNlkzPrZJXF8beN1EgcFx5dfBIiiOPJNykc4NgaOJh9vPk12n6LKq4tjWLOzjf6542/3xe7gcH0wcTjeHhyd9nvHPq2xPdg/2Omd+q81V1IA0Kh3kh1RL18RaUuFovXA8urG8pmcUZrRTcavn13CADgsv/30h8R4BccJp9RUNcOxMflVqBlwkprHgmN97qD41M17fUDnkaDJBbB4WhFNANbzja5oHRwqH+6c8QGHmhDH690Xu3jkWR/ALReGVh3IEls4Wwe9MBBAnNUKY9TA0Rckmjjvy5wDbHXfxElbxPHa9gAzA93e6bDXASW2w9rB8IgDZ2OIjwgF0kYFORzYlmCHS4ZYEd0/wnFOPAqZjXFBfaAWp0yBP3qLpmB9B1+9W2RuBIaGgJed5gZN5SV8Z6uSRUbOjbYenAlK2FReBdvD4HCJ2VUtq4HQOExTbK3uvbwf/f3u55/sQDd+/g+TGNyNmgKCQ8+9v+e8fcb89M0uaf7vmyVuaF7i6xx2QRiZitbgZCk2spBqtlvZ+hyOxfbHhEZop01ZhAsBeh/8/vzk5OT57w94kEktjQHHsH45flmfWuoh+AaU24Vl4PWWSmCBxYWC1wctBqJfKBx64FocA1vPN7qHmyPowzhGnTQcXlhaCYzoaqA1l8aS64r7nJiiWIb7mfY5NrnMrMUxMGLQ6fT3oc8FcOyGjQAqzcng2HVR5tm6SFuATuwFsKOJOF3d3ikzF28hPnUQjQLi3kX6ZqNHty7i/DX4FunJOGZV0NkagErIPKtEDScSQRedXcWywvyrjskBW527jEHIAlVXv8e67/++v+fYGohoHAO+CdxGSJHmSxdwI9BuCsRtXEWtd/tnKvWnIxvXrdlu5YGTOIbKIJAiq1j0h1fJlNGU4fjO3J2l5aWFxQWemCh99fVXy8vL169fF3VQdFILoZTmoxLCpjSpoUkhz4eo8MBKP0g1EtzR4gGsEaO+cLd/vjs428VLh3EscW8MBsJkGN4zhDEVMxLT03DRkWm086kzFBAfnePR4+MBEgeYUhMdu3E1woQxrhjRkLskmrQ2zTISTOGYGrGgNCf46ENyBquTBy95rKMSEb2SbcRlrLH9STDvZ2MM+tzfJzL3qnh2tFLOSDU7qHv6aSZTYYwJ2OpUOByL2Hbpz+88mgMRiWMoqweDECkznUl7qnDz5s2V1ZWV1ZUbN/WTxWAjSFkdssgW3C8UvkAL76xmu5W1RzvamHADhkN44enPV0B0vLi4uLK6cu/be35a/DkzM2NXcX5+nmuxlJfCWxlElwQ4J1oRZkIThsDqX3v7Db0vcIxNSoTG9Tg2iG97L2UDUFBFx8xfxDHd+YNpZ79ysGa7iH1LzGVhaAU0cJOvke9LhCwIcUOQYsWqJGxQ9WkYWcD51EHmcWIMLNAMhrGgehQpbObJegMCKX5rIms5GAmY7vT3j/suye5OGMKZNFv2qsWxxz110IV4dhXLiqKVCAjYSmNJyFKlLQQisic0RQmQ+w8v9KbQ7Oys3ci3bt3SI9oDqzh9UnOe1MjHaMPaHdRst9KgYrdSHbPeVoVD+I6Va+E7TfQn4Hjui7ml5aX5L0PgGmNmZmbmv5xfWFy4fft2MI8KKeyZWGamYaDL3l0ZiLo59H6I48SxxQW86gZu7G3WjUL3DHtVyZ7vB8dizoSA94Bjf7QX5qhiDCzLYo5kQ5KqeNaHxvr0oEbAL6ES6uFwvHYw3D/ogn+Od8AAPGEo3FuJseO4eXQsM8I0vTCgDnGsomOWqi3Nzs4u4p9bswGOnSjFQxSj6COjGiEMV2Vjs93KGmBjBjv6Mjh+/Vkr+XS2552WxpA7VvYrtFWsYkVTbbKCLyAxNCiM+E6VVBASVFQ2U21dIeQUBoyOPiJCtGqIs0ReqZ4qqZtrDfWMITq+PI5DIyOSOkq6zDhNlDBNNaIQKaE2dE4fn3lapg96PuHDjzp9b2mbLPv28DNcxPjhnlxWlG6cO740jiWaQ8Nb+q4CphCsYox84NxstwrVGRzLvQyjh8gGDZncsVA+6cVx41hEsuAKjEnZs1sb+lFeDFAQCi8LpRM5nlibJHCpEqVkRCzXqR7Hj/46gT9/PZJicqNiWZzZAT38BAxZY8NJIq/UxJWSv06nyH5aWFC+Vaqw5TzUUi9d1MEddcbAUhDEEcXErQz8QPFIv+fgk7mZV/rylqMBQ3zm6X8Io5/4Jf3sh7t0ssLG/uK2Kh4GWifnXjo2cY7YCrj6NI4lc7H8UrxZgW9iVAXIj57Bdfn8yY9+pMt9hlc+hsyccgwf5fln3WqQRrtVaEjg2L7j5EJmZHESx8lf4tCbFcFuFSNOULF9HNOpx6Z0o9AVl9yliXml0SUIa84g+9bKBXYpCJZyT2CJvNLZgsLSDJcF80ek8KKUGrD84Mk/CRy7h0WYQoWzMyCYz+b2F3Q+wUr1TF4xikQelK3UaX8NIKVw7BLNoVoEq69kcRiirikXHfsbjMz2qlm44Ya9TjBxGBVnkUAhRqx+gkzVqlSGE/F2Bl+DCZKFNTiunB0bmVhW4954zf08WiZ86bGbZK5Yd1sUr7I93MLXJyS4+d04zCOL54Egnbsyo0F8Be4IkQWOHpnIDnovhzvIbZ9GuzWxi1M/qQWkQDCXQnZF4vgXvEmdPFPRk/fARH22j+OJml7OGHUow054F8nFyzk1pf6CHkjedS4oOwXdKgLkd209omcq3rFt1TNVKSN/lyo4btXl7SnDGzvnTNxPP9KpkvZG/VA1YXSZCI2vkj8QB+//v02w0fEUcKfdta/5Pyum5xb1gUbHLosdpTjavUo+dG2UGLniLLbrDETOpSzewZVgf+xw8s+TKfjxWbvugDRF5n90+/EJ/CDv5OTZL+0OOS5tHyyOx+XQord4oHigeKCZBwqOm/mtSBUPFA8UD7TsgYLjlh1a1BUPFA8UDzTzQMFxM78VqeKB4oHigZY9UHDcskOLuuKB4oHigWYeKDhu5rciVTxQPFA80LIHCo5bdmhRVzxQPFA80MwD/wM7ZbvTPJ+BbQAAAABJRU5ErkJggg==;" parent="1" vertex="1">
          <mxGeometry x="1685" y="22" width="368.59" height="21" as="geometry" />
        </mxCell>
        <mxCell id="9KCve38od3s6Ke8yRSOH-18" value="当changeScene回调执行doMutiPlayerWorld。则表示场景切换 &amp;amp; .map加载成功了。&lt;div&gt;即可以在doMutiPlayerWorld方法中，开始创建主角 &amp;amp; 可自由行走的假人Avatar，因为这些都需要.map文件。&lt;/div&gt;&lt;div&gt;而除此之外的avatar，其实在调用changeScene方法后，就可以创建添加了，因为它们只需要sceneId、map的宽高等信息即可。&lt;/div&gt;&lt;div&gt;而这些，changeScene方法调用后，就可以确认了。map的宽高信息，是在配表中，这个游戏登录就已经有了，&lt;/div&gt;&lt;div&gt;当changeScene调用后，sceneId就立马确认了，因此map宽高信息也就哟了，AreaMgr就可以接管了。&lt;/div&gt;" style="text;html=1;align=left;verticalAlign=middle;resizable=0;points=[];autosize=1;strokeColor=none;fillColor=none;" parent="1" vertex="1">
          <mxGeometry x="1683" y="49" width="694" height="84" as="geometry" />
        </mxCell>
        <mxCell id="9KCve38od3s6Ke8yRSOH-19" value="" style="shape=image;verticalLabelPosition=bottom;labelBackgroundColor=default;verticalAlign=top;aspect=fixed;imageAspect=0;image=data:image/png,iVBORw0KGgoAAAANSUhEUgAAA5MAAAC7CAIAAAB3ml0YAAAgAElEQVR4Ae29XZBVx5UuqOd+8oMj3GFTlXWqivovoP6gqkAFsimrG+siUAsNtCQbMLKqQcYyjTDyRSWqIQRtUCC1m0tLQlIApiUkzR1k2W5KinHbElxbAyikkUe6AxUT1+GJ8dyeuQ7p7T5JM5krc+XKn73PPrvOOXVO1SIqOLkzc/3kl7l3fmfttfe5RfA/RsAgcNttt3XxP0YgGYElS5asXLkyuZ1bGIE5QICX5RyAziYZgblD4BZDWviTEWAEGAFGgBFgBBgBRoARqGkEmLnW9PSwc4wAI8AIMAKMACPACDACiAAzV4SCC4wAI8AIMAKMACPACDACNY0AM9eanh52jhFgBBgBRoARYAQYAUYAEWDmilBwgRGoDQS6C9dPtH34rabR2nCHvciIQEffj459/4OXH5l+bOzO1owy3I0RYAQYAUagRASYuZYIGHdnBCqKQHfh+smOPx5b/Mfn2m8yea0o1GVU3rp11/arr09+8Mw9h7fd868vT3788kNnN3d3ldECq2IEGAFGgBEABJi58kpgBGoGAaCtPyjcK8S932j5/XPtH26pGd/YkSgChTs33zV9zqWqrd37H3voA0Vk9y8vRMW4khFgBBgBRiAnAhVlru1fu/1r7Vkce+jEhQsndqqeO09cuPDC1AZZ3jD1woUzB1WxuJLMtoqrqkaPOnO3GpDMTxslTDShrYKZ6xwthxLmS4j+W88+s//j1/f/ayw9oGv5mGm99S+yjaakK15MJbmQxprnrm7j1JkLF048VDkHUqGrWVgqhwdrZgTmNQKVZK6rd/74/Pkf7/lGcfJKriw5mWt2WzUxnbfufPr8+R/vzQCNcXfo0dueurjO/bvtm7cL0dq68cmvHldNx8+MbPyqEUj8lAjbf/oLQ2LvcjWorct8J/GVKpfOTG306+v/OPNEx2hrnmwBwNnMb+YvfrNFGhZVnJqAS9VaaLMbSeb5EkIU9h/74cevPfijNSlR1cJf73rwg9d/+LNti7P4lUq/rAL3DKaMkFxIbffMpQ0Hz5iFA5+znDPpp14SyFylh96ZLkdtAhfaV+VJSdZToZsdLJnx446MACNQJQQqyVyFaP/G3kzkNX5lSb0YBfhktRUIzk2FdjczeW2/o+fu7/Xe/b0Vh9/c+OzFW7fKcs9ob+s3//nOZ99cN3W07+69Q1MX73z256s2DCSPyN8kdp4oaXtIVly0RW5dZ8684G1aIAY7cbSpqN5qdiA7cXaz2SZ637cX/+mZ1vPdUq/KE+i4+e3IE1qjo803n+v446HmA1G25NGCjVMnst6yyD6eeM+dJy6ceeGMxz+gq+ZD1Vpocf+y12abL6lv4Oy5gx+/Pvnx63t/tmvw1uCRrK7ewR8d26s6HLz6WMpJaX3LeMVz16GcdEMQ4xdSa8CUXA2yVp2D+maX7rXzxCxPydCKNuR8w9HftZz1oSThJpxxuchnKnRZYSlig5sZAUagRhCoLHMVGclr/MqSejGK4TfPyasacs/+Nzc+++rgsB6/OjzTB4+CFB4Yferiuu9tjWGj6uQm4ewQiT3L3qCZqx9ckUkhB89cOHHihB+JKbsHs1cY3YkzqM1ChgpNPz3U/qdjLS9savn9cx1/eq7jehCBBtr6++82/+pYx58ONU8EliV9rBZV9YxLaF44cyYyidKpEyfmbN15fmY6zDJfmrn+7IHWrbu++Z/gkaz7epeB/o5eyHP9+Nz2H423Hn6qoswVWCec1vELaThobyWXfKUNNcZqPCu6i6q1rFSe/nLlGPIte8UFYyawLnUIWWFBbVxgBBiBmkYgxlzleW7+wQVR0Y6ph2SuElIPHUqBjql0CDaCE7uTc17JlYVc1/TFiBhKNaNwLm5Lpc+a4dmgArGCQ1SkynS1cQLwVocKFCIkf4vqsSJJa0C7+3AyNL6kx1ybNp2+89k37zx2anD9xqaidySVz4le0XnH6AsZpiW9sB42yrmCfw5hShGRS8ibRDnLJx6S/AazBSiGVnMq7NYVZwukM3hGLWBrRRTx0y51OQcUHGMiyag/Z/gF7kTqRBeaLv19+5+eb7/5rcKlJzv+dKrtjz92/57r+P2DTaMmr2BTYEb6gxPnt0qc8R+uATIEREafd7bJ0WmrqS1Ze2JnhDo/dOLCC1M75ZcTQ1Yo7FZzmtH4epADJM4o69aK0+YNbSdA4SNEj7OcmDLm+rMHlFRr9/79D1x9/eDH57b/h73bZeHlv8F3C6QyV4LGmYPSMbvgnStVGrGT+ACScI7gQOiiRahpJaxkTwrFTUHqx+kTQp04CCmZAqeTS0DlMLWImk2rTq0Zd+COP1Q/GjU+2C1Jrx/jsrsyHIXYhQuMACNQrwgEzJVcYuTFH64wcHnFa5/eFfDqY7olg9D+tYdPnD+fSF7JlQW2QKVJ77V4KVfXMDSaaCzdFtEvNhw8AWzJ1ayHY/cDfbE2m4f01lIEeiFOFEl0VgjtbiqnIeIec9V5rk+9ufHZNzf+08+//r0HmqP3kY0G5S3dHXWDqseNYcPUCfWQnLMY1HTQ9YAblQTEyKaJyD4+uVHMZoOqNsyVLCe18DTNSoZd0NvixBk6NYbJZPHTTq6BDT7V2jHfUpy5fugEckFXhBxlmeiC2N4rRkXTpSfbrm8rnN+Ef83Xn+744yOF24G2/lC+fCD2Ty1knBfbw13gxls1HkMoLW76vDMjkr3MOagkDALywFwTtCo5X/QMlapOPARhdW2IzC5ZUYalxY2iSroeFDkxjpmvKKan9gcQ8Idm1oDFJ1YqOl+EuYJ8R9/hv/veB6//4Ge7+nTwVdUnM1dnOJpsmRHJEVgsVU/aZICSFuxg5Ug1BO4ZDcoNOiBB5xFbYkhIVbSDdEZjiJdQ7YZZD0qN8gusEJGA+EpV9GyyZWfU+tujHrhqwuXnPc4rDaMn0NMZQGyQXMcIMAL1g0DAXMm1z45Cnfz2WikPs139rQrRc8/U80mXD2LUXoVhM6NXTPeCS3T7xWRbcrM0G4CRig/HiQIG2wMdPl6gk0WMqfjnkrslNGYjifcxtQFzhYbWptEHBv/9xTufffMv/ya4zWxk9ae+lFMccAhO1wjLhBn01oOaKUA1VUSBpqmqNrTzBAzch874QebL8g9ojPus93EJZtCBTHSqn0lz4ShUB4b2GXeLfGad6KZLTy6+NOIoGx2VL8n60zMdf0ykrbq/dEz+s2eOpQJUpUTD9iF7PyWUUgDFZYFKuHiqJilrV/LGqTOKQPiCxg3UDNapctJkeitf8PwNO9gZyTw0qjpSTp+vgLkKIcbvufr6A4ddVYnM1TqsBexqD0dHapScuVzIerwa2wup00eppzW0LM8TeklUCmEJ6amUNQnz7ozUWodqYoUsFbLSgIwq1baDBUHJO6eYrZH9yUojlyCXGStPfMccr/mAEWAE6g6BgLma4Ae9lvnXApd8ZBkzxC9OPXp3/D0D5Mpir030YqRt2ItaitEMtpx9Xd4Ixi/oqFddGfX1Gz/g8k28Vd3NBTpFBNWGBXD3n/YnQOMLuMz1q32PX1z31D/06DjrzlXPvrnx2KGiWQNSKXgLA5dlujWBUYl28M/bZmxPtWCyiMg+JHACdj3mKiHFf3opJsEOLrjgS/3hoGQNfOXI4ifopf+biXYs0u8wtHNQLmGiI8xVCHH76ub/9GDhe93i3gwTDAgCzh410Z5JPP1/OIn09EfO5MyKFtXDV9AokkHOJrTrUR9Hjz715IxEjSpvHQnohsoRaMcHf2Sg3LeCspFC0fmaLXMlJ4I2b90LR0fWs4MG/YqiclrwDPXPaKJTQWW4r8XNQcH28abP2w5kq/1HjVoNERE178S0QcM9Se23IPANV5ftBg0Wusj13L90OOPkA0aAEag7BELmCkOQl5QLeJfQu0zg5SPbcItQSZ1EqC953rWMbmbOl/UE08VtKUFztVVGo8ORQ6ZXYWLPvw6aC3SKCJF2ikV3R6e3PHCZq1i87dU7n33z9n9/qO/u7/XuOH3Hs2/e8f3kJ7R8bemem73ElzJJZja2i9tGNpGHTgC0Gw6eMfMrd1XIFoCpMTsWaibhGe2PcV7nASCDNPXhdNhlnM1Pf+BGM63X/A+t0zZSLm2i48xVvnZgXD2/dazlafUWAmIgUpRIGn5gcCbdostethPMVfcielQfBQ2ExzZM6TdIyHi6rsKgnZwCy7VQc4rRpPVAeJgelPUh89C0ZPiRZb7mlLmaE8R1HS9N4eJXp4lZBs5KJrNAtdk+sgO9FtrzSPaxX/vRulZjNXjM1Rw6p6HqvdOSb7UO/WHizFofwBhZtNgHR+M7hg1cYAQYgbpEIIm5ysHYK5p3mfAOUweutoALzz+WGlIkVxZ9/VL2vTCMud4l2stky0qbC2t8OKbV9jcl4q2qwp5YMD3TP8HdZ9Oh8VV0fe/iuqfO9A9hfefiu/9h7T/8XD6n9R9+vnbvztbUPFcUUwW83Mc9V7XO3Tot7iOGeuAOfVERIDeW2cCuqpirVeV6mMJcPefNoXTSBHfBbzlxQYxQD8l8+EMz9fLTaKZ1suz57DdDKvOFEiY6zlwVbW3/8K8LlxLeLeAbNgvVnsi0R+JI/eGgOBaoGig7S0V9MyFfS9SVRFEfTwM5TDLq1dtDaVHHa8EF2aQJVuahhQORNVlPzLv3fk+9EotktXrZAh196sVYe06PRywRh3WrHBOQS4KMbiM1SeuQniNhH1pDy0kL2/YhppUzeB6ZBaZd9A7pLNCy7K2UH3SjA0r8hM3UjVxMlJi6vPgK7cJQ3Nf5Jin9d6i39pc/GAFGoE4RCJireXojjbnChcdeC8hDFy4MWakkueTZa5MiBDJAo+9qqQu9s1c5xrLZMs8eSVF7aZalYDhupX2ci0QFwIEkPUTE8VQdZN0dQ8lZ1NAnmXSoW1/i1cUdL/cGJTkviL8Mter3gxbZNoqLSFrzAgZcYS4inFJ5ZW4ik0WiIEDYyaalV6Z2wJ1BdWSYq5rE4n6qL0vYzTOEYSin3p+ePBPdJLnp8+Ff+81vNd0+1PzhyY4//qAQe7cAuqT5tFnULhL6HPdPKHMa+8OxxEXOu5kOOU4joc8l/MYi46FnXrDOSA1wRCdRaTPsM9Gommat2VkPrjPQZMabdWj+ZJVAW5Vo4c7N9/zry5Pw9itZY5lr69Zd6iUD5745mfgDsO75pReofq+ZO2VqsOZKqCAx9/qdIRB4FSB4RquLnb14+mjD6WAisqCSWAms62+Ash5NgPvupKNFp6fUL5fIC+aVCHoMoAFPN53RZL2SozPmfIV0RO7sK+fJ5d0BjA8YAUagHhGIMFebs5R83dG8z3Q1l1QXgf7vnDhfLNoKEuSCq66XsFHBxUi/wkaaQn9cO/Ioqy11UYu5ra+aqgmHQyvNpkgDG+CHctlsJHER3+G+7zx5vpQgnC+f81hfxM347ZCkPr33q0Z3twj6p20bgE9REZseoMZCDy2EznuCyCIxImaTI+NSL9gy9YbIKm9O7PTclgrxn9lxvT5KM64H2OCBzVsvHTLnzUzOiR5tFxNL6V/hVyc6/vRoYdPSwnVFW6PvFqAu2VQf7RFtNIM1Xw4BBTPplARIYbkw8NQjUFsa4TNXG2QF41KDsWn9gLdlac0pRq2Esx4wV1t5f+bgBtnPWIFAOM5u0tC82RIiz3y1dsPbW6+evGf/5s1XX3/gR+N/+bNz8AsFJBwb2FIVZBGeeMgDwQ6cQq3BNhccR617jtAzmiDj2LVr210MEjoLJr04OOcRMXFip7ZurrG4ZvwXaVkHzLzAIECQWHWn2HHIO0/9+x7GB9g1XFgcxPiAEWAE6hCBgLmWcwzt37izhN83nZ3latqanadKuv0bG6oGTRncnR8q/N2uGqMq10Trdws8J6OtUdpajcHUtg2Xueb0Ne98dS0fO/vM/o9fP6j+Jq8e+8utHTldYDFGgBFgBBiBNAQqylzTDHMbI1BlBJzYYZVtl8PcvbcWzt/ZxLQ1AUtFXKORyASB8lcX7ly/9ke7/nL/ePBTsOW3xRoZAUaAEVioCDBzXagzvwDG7fzwurotS+6NLoDxz+8hbpw6Y28sq7vD9Pb0/B47j44RYAQYgQWMADPXBTz5833oJAlPpe3NbUBuvqNd9fHRNNDUJPiqe8YGGQFGgBFgBCqHADPXymHLmhkBRoARYAQYAUaAEWAEyokAM9dyosm6GAFGgBFgBBgBRoARYAQqhwAz18phy5oZAUaAEWAEGAFGgBFgBMqJwC3NLa0Z/m7/qz2P7dx8e1LPJev27Nzz4EhU1dLN39zz2F+tymJlVn3W3PbVzq7uJA+5nhFgBBgBRoARYAQYAUag3hG4pbm5JcPf1+/+28mHNn/d77nywYf+dhL+7l7p6VEi0BoKZjLqKSxyeNttX+3o6PQ9rIAhNsEIMAKMACPACDACjAAjMCcI3FJobs7w9/W79z7+0JavJ/dM6zC85fGH9j44nMlQFmfifdbcdlt7R0eyh3Ep7s8IMAKMACPACDACjAAjUC8I3NJUKGT4+/rdjxz87pavp/VcOfHdR/52fElUmxTf+o2BNPFMbkSV60pgrhU1wcoZAUaAEWAEGAFGgBFgBOYQgVtEU1OGv6/fvU8y17SeKye+u29iOK5Nit+9Mouh/H3W3HZbW3t7modx3/JbZFuMACPACDACjAAjwAgwAtVE4JamTP/GN+07uHvLeGLfns3b9h3ctq4/1qF/fOLg7onNPbG2MtatWbOmvb29jApZFSPACDACjAAjwAgwAoxATSFQJOY6vGXqu/u8v71re2Wc0m3SlZp0y/irldq6bqAKZHz1mjUcc60CzmyCEWAEGAFGgBFgBBiBuUJg/rzPdc2aNW1tbeV8YxjrYgQYAUaAEWAEGAFGgBGoJQSYudbSbLAvjAAjwAgwAowAI8AIMALJCDBzTcaGWxgBRoARYAQYAUaAEWAEagkBZq61NBvsCyPACDACjAAjwAgwAoxAMgLMXJOx4RZGgBFgBBgBRoARYAQYgVpCgJlrLc0G+8IIMAKMACPACDACjAAjkIwAM9dkbLiFEWAEGAFGgBFgBBgBRqCWEGDmWkuzwb4wAowAI8AIMAKMACPACCQjwMw1GRtuYQQYAUaAEWAEGAFGgBGoJQSYudbSbLAvjAAjwAgwAowAI8AIMALJCDBzTcamQi0jZ9ad/mj1xrj2tu9cvef0R/C37jtbI502viFbj5+pxM+FHZl+Zeb6o9sjVitetf3c8zMzr8Df++e+FrF39JhsLcG9r52/rhXOzDx/fkdEZT1XlTC6xGntOfPew1d/0pMFhkMT1z87PQN/n0zUI5hHbxj/Pzs9/VLamHdcPj7z2YGjaV24beEgsGH6s9PXL6+otQFPPrX+3bMD95fZrSc2ffTe7bF9p8x2Mqp7YPTdi8WGKfusPTmeUaPsJq97H914uKZGWoL73FUIkYm59qzbu3vf1O4t7uIYnZCV5m/TaBTP8U2qQ0JrVCRnZd38+msqczWDP7T69Ee1yly3X3IZJJDOON0048HPRBale0jlcVVR5gqVhvLGGarsM4fMVVHMaf/rgAStBBaO+AWFDKNLwPzQL3JcuyX/qzBzjZt46UB52KSi4JmZ64pzn5x27Eo3Ts/c2BDMw9xXZLqwzL2bteEBzCN+GZOFpO8qC4q5AqurGfJaCeaa67pXG6uWvUAEijHXns3b9k1tW7dZElCPuaIOIYRisSE91ZR331TYRKXLUl4ozLUsYCUoSaA4Xm/FXC0X1MG/ON30RIUoZiKZuQaqZIXL24BDX/KiZW6fqJqKVsohR5lrUJnHjQyji2G+9Sff/ujGpkMlW4zTypLVpAnIkGdIjl86EKlMU5PQloe52hitDtwyc01At96q5TeTYvHUhcVchRAjb9zIeiumFua7xJirHN0bT9SC4+zDLBBIZ67jm/btHZc3E1XoNIW5iv7xiYDaKta7aVTKMnO1c5QpNJIcc7WKyl+KUZzAyo5H3585dv7c85qq7nj0/entR6YTAqWBdDETs2KuQsQCnBm4XeBmOSuiQ5aVc8dct91+Neflu0rMNQiAxelsjmkqjblumP7s+LnLB0yQdcP0JxNHLx83hznMV1Ak04WlgvbrUTUz1+isPbHpoxvfPrMt2lZzlcxca25KquBQOnNFBzIx123r+lFACDG8ZWr3xOYexXrnJXPt/eFH9/zwkIDEU5mcenX5iAFAVpJDuqnI8tXlI1uXH9f5rFKJ/y/GXK0hZdcXEcSThEyDUESHLTEf1EkkpbmnlmYp5npkx6Pvq5vdR6ZfuXRURVKBh3k0UXaWHYSASC0xpG7xB5HaGHOVOo2gx/Y8c9GYbtAHYHBGhzfulS03auu5lJRgKuvlcKy3OkUhmhjgMFcr4uAPoF06Koirx454k5gwOuKGgg4HKMVlwDXxhqAOK8r7p8fPBSszzlxpFqxPOuGGu8kxdYOpKqNUN9nQVywxwGGuieYMEbH3goMhJDFXRyfeO1bM9dCGaTWoHZePX7+8wvFEOKOzQxAyUDf9krBgugP3JnF2hzQ5HrPk7zn9Rq9WKy8mqzcK0s000euS7Bxcdopec0r23MWZIKY00VY3sB1fKkVxpgojU2AWTDAMO3Eqo8Dz8/Drv/vd7373078LxBIq7n9srcxJHR946+J6mbh5cf2FB0xXVWkPRfeFi+vfemyxEEJmsj7VLf+/KAvCvXUOrbpS6vRyPaUesPXuxdFJY02IxSfPKv2gLSIou6pM0F/gdmal/06N/PWsIw+TcSUUxFU9OuUqjFrbsu6psVsPoERHF47d702POeZK0ajbcnmYq8oKmBimKMj8ARuvnbfMVRJWvQ1IImvKikSmMFfJWfVDWv7mASAGW4jFVlHegOzCtoQPfrV95w1Lo62sX1KUyOaA0uigLM8gT1K8E9gPMFcZ3Xz+/I7tl1Qfy8M8ImWZqzZNTfjeyGOPJtIuWeKpWfoonUePEdKsRqc5caBBjsjBwQo6g1WCkmHrzjhSy1wlGhptjFK7UwBKHHPkubTAtyBfAvBydQYZGonbkuZhmPC34twN/2GsCHNVNBEzR9WWb/lipL+ZU7eJ3JO1zFXzPyGEJC5AZdLMIY/UQ3BNKMOKyqC32hdXpyJJoAGYqySg0y+tOPeJHBdlrkdv2JEKR4n0nGTEqkOXihkYyvYZv5JoPkoe6yQXEF/EueyoS4rhuIJIzcJjMsuhFgWg5YgvHcBpcueRKtE4ayk1uVQD/fblKgHzUeaqVpGludScdjoPc5XkTDNIRdcMm0xnrsBiHxh99+zatwz3BZqrOZ95SMvhiK5ORRaNOcVcFaMlzhgldk6SvtyWyFyBWBNeLnmzZOHynyqjaaD1ugkdof1NpeppaS7HXA0wC+lzdsyVPKTlclOaPFDtbIGenp6R0ZGh5UPReezv7x9dOdrW7j+a393TPTI6snz58qhUX3/f6MrR9vZ22upQVZkeRF4aUCTmamirUqdjt1R1GPywrbEtRJmOP9GlBBcvXjy2emxs9VhnZ6fVFNBEJFsiYJw2o9Qwue3nnn9/+tj7ivDVCHOVbhhqaIfp8EtbTUt24AICnMjmHbJoOagWlq2GyKqeJLSp6KPkoFiAOKjqj4IBU3eQp5RamqR+ahcio/N1+lJJUQfF2AgVowiZcrD9q23e4WR0pw9bjSJJMhxblhFKBqOaIGCmlEu7shAqDMxZzqFYphcDjjBXX6dlrujkSwdmbhyYVpqtn2Yo5pN6Iss0qcDqNL2FGBoaWr5ieaFQsFVAiWRAj/y78uK3bA8xODToS0Ervf6Q/hBJpTd25AUHXk7ii1DmKsv4TVjqk9c0JLKOgejB0qVLR0ZHentN5Fd2ioCPsj5i2KCkEpaKirlaquosDzmtpAmsO3pgOTl9hFDfQGg3Oq3WqYRSc3Pz8hXLV65a2d0D9Ez1c7mjUHzOhEhdlim8mCuQXRWAlPyPdHaoqszoG3jLxDJlk0MBZYTS0EeXLwrh+6YHliNhYHBwcHhkuKWlhWLjUk/ivwNCFCVZ6Yqrbv7AI8y1vb0d9ru2Nn+jl+PKkd9Ph8TlGkBgdszVDsBJJ3BDsNVmrgODA7BqrXemVCgUoKmvv8/U6c8UqaZCU1TKbgBaB7nul8JcZWzDf8sVUeU5Gg1+eOZ8EdHW1gZD6Okl70AiIUCQsBTH0FOiSfIheRvdNpkayqg8IuXwMKnMmiCqSdFnXaTJIZG6XpoziQTuGw+soOeSblDa4rLEBxci6TwVgXJSsBY9MIgdmX7+/Llj6pUC0roE09WvJJDUpkegjfZwdIFOD/PEJNeAlRob5DPoI/d1jI1BR8My1ZEKpMnoIyGUsgHrITap/1eRTsMXd1w+Pn154rqinkdvAAtJN+dzUOK4KUbIk6/TskzjCaU4ttVQMf2yMOe2ckB3kI5rRzo6OuCU7OruMr4V/0yT8mkoaku+mPgipKdqIrkHkNpE7iOh+oTCyOjI2Oqx4WHnVpxNn/D5YmRejOKUpZLGXOUU0KmBsrtWA3YL0X1nrQZTafxK+IRpHRgcsO0+O6Rki5I5KeFmC0BIEvuTzj6BU4KKniq2Z1MFdM6ACVJGuKB11JZKZa6tra0w8CVLllgtwmXGEgcTZKVlLUDIt1EReitrzFhULwTHyAjR1dUFztBIjRzRwx/FUiCsIJfqBYFyMVd4vYBNDyA5r9Vmrr29vSOjI319PjcVQrS0tCzrWzY4NBjuFilSzS3NINXdTb5GCxFlrjpK4VFJukPQslomgZ5YwpldULGYq2fOdtaljo6OwaHBoaGhri6yTaZQHEO2iCbDUyNNKqwI4UaPSEkTkOeqNXksiuiHImGNflsSc8X4qC+gjz2XZC3QVrwp7/NpdFKGS0lmLdbHLMXcg34aMcis2H5JRoVl57lirurZ4djTtQErjQwz6OPTPlinAqgAACAASURBVJnAoOOjRFzxEkUdTCqCz+S8zsfPHYK785JbQMKo4jrp5irHXIl70nNk2DSwSikOLStZlNKa2tra+gf6BwYH2jucOznEUKSYJhVcWIw84aOmSn/6IqSn3+RJFj+EmOuSpS6PATnF/mk2RWo4NmWpFGOuPj/23S47c128eHFfX9/g0KATbK4Gc7WkNmR7dNjprdiz1Nhka2trX3/f4OBgR2cHKoECRnwd0llJ5trZ2Tk0NDQ4NNjR4TtTKiP3xsKHNYJAeZmrSnUlKQT4tlcouBkFZUag+m/F8hmnvNabmIRHJek2QMsSgxgTzZUt4Nzay4KuTysV97LJrA7jxGyB4I65tGQrPZrom/A5YuBmdZirb8WnpJrTQy6v9dHe97d1WEpmrqDt3DEgwSrD9VEdwA4SNtw8Dd9PNGYLHuAyJdT7tkCmFcSS8lydaKK14JQC5hqSxYC0oQIaV6Nl7KALip5enriOd+dvTJg7v+nmwlZfdeyGte+wHCNwU59uKm1Y6TMqqoeWpZTE1onkBY6pigzZAnFBL1vJ6UT4qFPvJjjJJtqTlj2xMh26681HzBoptlQIPaULgJatMrck+xBx2eh6pSm118dVUvyoGsyVhB6DcCz1MBtzTcpzpZoyl3X2guTWmG7rpkwoVT5KsjL01q9RUib1IoNLSblSGUS5S+0gUCbmql/76rxbwAyy2jFXY7finy5zlRd6m0xG6akqJz2SpR6DMHzXupyybUSZrgoAI28WItsTWpTTqLK94Q6HGJWUFAqIlyWp1lvCXCltUuUZN+aqyF9KlDSFqymXSARU2g95G/FKFyN9HFWSttqBg5CHBipVOJBkVmyIv5ALmhVzfR+CrPZlDvZRLZKbq+xa/SloGMtJo9NKogNJfJmrZA+EYGV6Qkvt9DZhwNI+46H9dKme6kkTCrGjIjGfyAf5ZZWJ18J93lRzGchKjAZRn1U5G3N1VCno7I8tuTxMDtxChOMsc8G9BFnlKRcT2qTEyQ+geA99Wn2mdN+pX1+7du3aa+TBddOU6VNCTdi8N7PCe0LLzYo2BlycnTxXnZGSSjojzBXWm7f2PCW5ntBKIm02PQBSBd6l7xbImi0gldjcVhV/tYcGLPXpMz+n0RwkfbkVpT6hBQolqx49+dha1yXls0kegBReJw1Ayka8pVRVlfndAmbaFtBnEeYq32xlfiXLFCAlQL30yjbpyhhy85q5ml9qvYdc8QEEuO6rRLE3elUww8RE9Q5hcsichx4kGyY6jbhUSRRiH4fy0g4pT2u5c6SomMrX1G9fsrRJxUdNWqd5DomQVKKIBiNVGfJBjx1RMUX3JVNxtZo+GnMqnVTzZqIQ00wN943wNnTLDs0mpyLxNaxaNk1vlybIwKUKqdmNOmvFnlrjSfRVso4I9gQNeKggxYGjh1JW9kTktTJHJwKiClbWOhlOqxBCpbrGf/dVkT+dIEhopeJeXtagTRmkrYSLCHUzl0gRhWoYhiZ6L8bSPhj93qGbI+uYUz2dx8UQNDouk/5oZW2r5ChyOCofAAuoxn2CB8iWSaCUSgzF0UTWjN0fONVXxrL5kkyvG24kNTAm7w5hDqv8VkwvHfSSIrt5rzQ5+Kpkrtd+/ew3A7XxCrpOnO9Ipjvt4M5jwlJJZa5hOjXOODVEc6zBEdt64Khiw2ZatZ9lZa4QfYRs1LUnxyVXAwJnQ6cYT7UpAfBkFb73yk391A9s2VZ8rUGUCxr08TP5lno+5goE1DxAhma0MyYl1zxDJtsNJaVDsIFViQxIPdVNH00jmhOLHHNNhKaeGoow1zoaytxnC9QRWOxqUQQkc8WQc9HeddchMexadyOpTYc9RlWbTs7aq/ue/eW1a9dezRt0nbV9VlAJBCS3i3+trYS1autk5lptxCtij5lrfljdbIH8eliy5hCgOQ8151yZHFI3BPkFMWVC01ezIJirirn++tR9/uD5uH4RUJeFxJ8pqd9xoefzfoA40nldYOaaf3qZuebHrlYlMTPBy3CoVX9n55e8iM/f4MrssJml9HxnrpOQKPDqwVnixOK1hcATm5J/Xa+2PJ2FNzLsKt+QNZ8J+izgqQtRZq51MU3sJCPACDACjAAjwAgwAoyAYObKi4ARYAQYAUaAEWAEGAFGoD4QYOZaH/PEXjICjAAjwAgwAowAI8AIMHPlNcAIMAKMACPACDACjAAjUB8IMHPNOU/VfwlXTkdZjBFgBBgBRoARYAQYgfmCADPXnDPJzDUncCzGCDACjAAjwAgwAoxAXgSYueZEjplrTuBYjBFgBBgBRoARYAQYgbwIMHPNiRwz15zAsRgjwAgwAowAI8AIMAJ5EWDmmhO5OWOuf3HmyhO/uvLo01vijv/g/BO/kh3k3y9ODsY7xWvvuvmlF282xNu8Wvu73qdn3J8X9zrW6qH9nfqZz9J/U171rOwYGw58/uWJw7mhajjw+Zde/Dzz3OW2w4KMACPACDACjMDcI5CJufas27t739TuLeOOv6MTstL8bRqljeObTL3uMLG5h7ZXoFxlKlllcxawNOa6+eSjv7qy8we2c/bSyJUvv/j5V+7KLiB7VoHVxX+L6OiNMjFmScGzM1fpzMwnEzsMSjsuH5/57PT1yytMRc5PBX4+8to48Slz1pywsxgjwAgwAoxAHSJQjLn2bN62b2rbus2SiXrMlY5WsVhCXiVzJYe0a6XKVaaSVTaXCbXBp98qNc6q9b78lRfzhP2qwFyliZAaHr0RqcyEkdcpB3O1TFcNvxzMVQghA96fLhrx3Ct6eHjRiTwTV1Qvd2AEGAFGgBFgBGoTgXTmOr5p395xGSxVMdQU5ir6xycotWXmOhfTLcOxJWYIKDfl7eYTVxpLd7lKzDVISIjT2dL9F6Ik5npo4vpnB85dPq6Z9KGJ6zc2lI1Di1yzwMw1z6yzDCPACDACjED9IpDOXHFcmZjrtnX9RoCZq0GijJ+QJwA5rNGUgJzMVQZck/IE1P3xz07PuHfJzaASmCvNgiX31qWUJH9Km/rfC6bKHADTOv2SNhJLDHCZa5I5aUtmAli1njMikblCGgA6o6mzYq5HD01cV3qO3jg9/ZJSjlmwzuhIEoL2RMEFA0QRA6UQIk/CBjNXAiAXGQFGgBFgBBYAAuVhrioRdmLY4qWYLqa6Vj7JVQhR5dv3VTZnoRVhMit9Kgsfz8qc8Jp4nxp4GHKsQxPTfkJnhLkqzoekDbjagaPa/XjSqmp0VSnTQF4tc5UMFVTJztCaZg55pB5CzHos5qqYLvpMHJMKDxyV2b3Hzx3aMK2cse6JDdOEGTtKjCc2WBvNMchBQ3OIkKXERUaAEWAEGAFGoN4QmB1zJQ9pJWe1qkSCfZTXVgQkpJK9vb0joyPL+paFZlpaWpb1LRscGuzq7vJaQaqvr8+rF0I0NzeDVHd3N7aiuY7OjoHBgf7+/sWLF2OrllombXX3WCns0NGhpAZ8KeiwZMmSkdGRJUuXYH9SCJmraUyOuba3tw8MDgwNDdEhgJh8xCeWKqAYG6Fixgj9JKxOVwfskHBQCLhiMJUqUnftkSzKFmSEsqDcgDioEpdWsOAEbgNzpDX0NhZzpRqkI0TKUOcdl49fv3HguiLE6KczHC+aq3QST9ToIthGEwY6OzuH1L/Ozk7fiAzT5siO9dXwMSPACDACjAAjUC8IzI652lGmphOox7ySqa3VMpsSUsnBocGx1WO3jt0aaisUCmOrx8ZWj4UMdWBwAJpCqaamJmjq78d0CBvi7entgda2tjZPFuoHBga8eiFEd083tLa3t4etK4ZXjK0eG13pvK/BdMvDXFtaWsDc0qVLjR79GWVLQoiAg3py8pCwOmiVFA0DrlAl+yBpU5FImRKANdDJvzsPt9SRsMrCinOfyBxTdeN+wzRYSTfnc1Aw5f4fxlwNPTX9yBhtE1Jnh4MGozBQBJ6ong5TV+aic9HZ2Qlz5zBXlVoQ/cphHOdPRoARYAQYAUZgHiJQLuYqhIy/wuNcAUz6BQWW9gU9ylCBzLWnt2dkdGRwKP4u0/6B/tGVoyHL7OmRUkPLh6Ku9PX3ja4cpSwTzTU3N68YXjE0FBHs6+9buWplR0dHqBOkkpyEIZQx5trSKpnrrbfe6rAf5VZSzLUizBWAsAzPpCIkMDnZXTZ9MrEDskslBTxwVLJqRQrnjLnaCdXugZ86EqxaKSeOMteEmOuBl61yVWpvb0/8kpMnNdZTz4eMACPACDACjEA9IVBe5pqQEpBCasuHFVLJ8qlM01Rlc8SVPDFXIh4UE/JcSawxEDEVYZ+A7wakzcgqSqrzVmN37bGfinSaJ/qlxenLGNlNNZdsGnVH3i1AGafsJ03AE1pIUq04EmtIb6BklOoJPInnGORIWs0hQr3nMiPACDACjAAjUGcIlIm5pkRVVVPau2DLhFiVqWSVzRGQys1cRdLLXCX3Irf1sz2hpfIBzF1ySCegfI6MQ/a0TYoEI5El3YBcXpcPRclaFZ09bR7VUjfrbX6CUoI6A75Iteoy5Ze6ylJVTVuzMVflmEkAUNDZ3zhwPVE9ESLrVJ4AKjNXix+XGAFGgBFgBBYCAkWY6/AW+ytZ5ueydEqA2+TmCQBb1e8WcJsqBmqVqWSVzQkhtvz1L8zPuuILBNy3tyY/oZWOukyvjP/uq6Jc+uVQyAgtfbQvsbIszWs1+QDSA83njBRRqPwD8mpa8c679sGQQu8wxZzLF10IFD01b+DSA0RX7aglv8T4aGLMVRNu6v8B+fIspNRWIYzOjMXxKZrk6vSIHDBzjYDCVYwAI8AIMALzGIEizLWORl5lKlllcxWeiKSwa4XNLhT1aRxaY5CQs1EMIWauxRDidkaAEWAEGIH5hQAz15zzOb+YK/z6KP+OaM7FUEysGHNVeQJfnjhcTE+kPTleHunMVYwAI8AIMAKMQL0jwMw15wzON+YqgLzebMiJB4ulIFCEuTYcmM13Bhl2/dKLSfkeKV5xEyPACDACjAAjUH8IMHPNOWfzkLnmRILFGAFGgBFgBBgBRoARqBICzFxzAs3MNSdwLMYIMAKMACPACDACjEBeBJi55kSOmWtO4FiMEWAEGAFGgBFgBBiBvAgwc82JHDPXnMCxGCPACDACjAAjwAgwAnkRYOaaE7kqM9cqm8sJCosxAowAI8AIMAKMACNQSQSYueZEt8pUssrmcoLCYowAI8AIMAKMACPACFQSAWauOdGtMpWssrmcoLAYI8AIMAKMACPACDAClUSAmWtOdKtMJatsLicoLMYIMAKMACPACDACjEAlEWDmmhPdKlPJKpvLCcqCFvva+euvzMzA3/Pnd1QVi5d/fsvnP//zSpocH3jr4vp34e/swP0pph4Yfffi2pPjKT3msmnyKTmKtx5bXHknXv75LZ++uKjydtgCI8AIMAILC4FMzLVn3d7d+6Z2b3F3o9EJWWn+No2GwPWPT2CHieGwvaw1VeZ289ucuP+xte+6BEXWXBydlHO2+ORZQ2IMmzFUoPvCxfVUUElVhyiUdTXNQtnRYzMzVWWuh1/8s88//sLL2mVFMS884A1ATpmZI6+ptEPJ/NyF4csT5gqzT5xRy0OvIl8u2zGsPViHSkKaW//uU93ZxEWJzDXETTmgzcFwnHOBDFZs/+KnHzN5zTgx3I0RYAQYgawIFGOuPZu37Zvatm7zppC5UhOKxTrkVQv2014VLc9vKlnl0aUzVzOPkjQQDiGrYS/HkBvwjPJwJmO11j+rzFyf+MLnH//Zle0WFTkFlD+pFjkRQaWVyV7KwVwtrQSW6a+Z7MbttyYcCzBRa6IkZcU7pzNXLR9+zUPFwexgCxcYAUaAEWAE8iGQzlzHN+3bO94jhBgvwlyFCq/aoKzsv21d9WirEKLK3G5+m8vLXGXAb/TkY2t1eG984K2nuiefYuaa7+TMIPXnN4OonmSuQXg1Smcz6A+6lMRc1dQPXDBUdfKptScfkCtERe4D1Zkqui9cXHvysVFDVbsvnB2YfGytOcykopROs2WuQshEjt9+8XApRrkvI8AIMAKMQAoC6cwVBTMxV0tVZQi24ukB6BwU5jeVrPLoZsVcJ8cH3lI3lCefknE+yXXwZi5Nl6TZkLJ+7clxHaMN7//q0BokJ6A2NfNwS1qnYPodIAYM93MpYTKMREcB15eUmimjqjql9f1zX/PWoUiIuW4/9zxKzUyTGKkQSgRzZF+5dJSqTE2flSE9zBPQUmZoVImKhftxSoWVw3F1ED1xFoRQsxnJFqA4WzDhSwssAwGrQk+0di5pWvWaicyOYq7j3cCG71ffkdyQJ3HeZfDUFkIBfiSbC8FU+sMVGMFEj1HlDNx8wpkOdTD56rVr1669OgsaH+rkGkaAEWAE5j8C5WGuKhHWUlV5OLF5GLJjVSKsk0hQGVSrzO3mt7nZMVeZCLv2pKEXmhbIWZcRMny4RzEJwyYNo9WUQlEWpBf3P7YWy5IAEUaiaCsmJyj+hKxC9URB1dOYs6m6ukY6Q3xLXqJAQJFcbj93zH8YK8Zcj0y/MjNz7IhWu/3SzCsz1x/V7HXHo+/PeGwVzcuelhwHmqPxPEu2CKUDwmfutuNIAXZEzDBFGzIPEg8iQLkzIqQSPSM63P6ADJECy1TTp1tTplWtjfWYi0KWih6IYsOwzJy1KsO6mI7vriINqrsqoFKb07AobkrKDrmHlYOIKXmCM84cKSy68ttotiszVwISFxkBRoARyIzA7JgreUiLctPhLfLBLDcEO0U7ZHavhI5IJXt6e0ZGRwaHBqPC/f39oytH29vbvdbu7u5Vq1YNDw83Nzd7TUKIZX3LRkZHOjs7sQnNNTU1LV+xfGj5EDZhYemypSOjI11dXVhDC0PLh5avWN5UaKKVUO7o7BgZHenr68MmNNfc3LxieMXKVSu7u/2HUtra20ZXjvb3x5M0BocGR0ZHenpl8of3r729fWz12NjqMQtLuBm7zE9pkMwAuaBTI2nKU6NvqQ1e0gJ3p9fmCcUBPoosE/JlXcaAPjtBL6kceZgbEQzs0jvmlJ1IzZHRoUFSUCzTUknSYosBvxQhN6V9aNlqkSXJkpHgygoZfyXW45TI4qMImWJykq6pAsVcGXMG7lM9iZg3Cx7gkSisNSE9UeIyRHoBOCV64g5VP/Zn1onynCwtpJsoLtnwKHwRCteq0R3xP1hpsq83KIIJDsGozMFcOWEAweMCI8AIMAJlQGB2zNU64KQTSOY6sZlQJC8L1oqVsYTcbmhoaGz12K1jt4bKC4UCULS+fksKoVv/QD80NTVFqCQ0DQ5aNozmurq6oJXyWtC5ctXKsdVjUVLb0dkBUlFeOzg4CK04BDTX1NQETf0DPkPt6++DpkKhgIJYuHXsVunMUIRhd3Z2gqAdQsgGyHZudEqOQuiFECreBjWWJlJaoJTQZ7FNhAypidbtcQ55GM0HUAqNEnVP3DAtReA8KcvDLL0zg8n0mcwyrXjY5+ixf/7nPf9ubGyc/zECjAAjwAgwAlVEYGxsrKeH0DG7V9VxqVzMVQgZf4XHuUTAXCM1ZccMuV3vkt6R0ZFlfctCEy0tLcv6lg0ODYYBy57enqGhob7+vra2tlAQoqd0+tFce3v7wMBA/0B/KLh0qYy59vb2hgrb2tr6B/oHBgZsmJN06umRYeNly+wQ0NzitsV9/X1DQ0Nh9LSru2twaHBZ37KWlhaiTBchbNy7JOJMZ2fnkPpXRuZqHUASDLTVBlZtcE4EkTDKXBVttYFVl3SqMKEltSZo58XwrDe65CoJmpMqQlYa9gz69Dy85xvf+Hr0K0oozTWMACPACDACjEC5EOjq6lqzZg1lL+XSPId6ystcTaqr/4RWVWOu1UETqeS8NBe5ey5Dp5YXqlEHMVckqRQUrKTBV9khI3P1w7GUdMqyCbJSm7Lsm3PaqRKnIf0gvO8f9g+Y69hffINpa4gT1zACjAAjwAhUAQF5Z3hsrAqGqmaiTMzVf3urkzygnt/S4djKDWx+U8kqj06/mdWSQhXatOFSmMYSmauKuZrsAqUQH+UpGnM1nijGad88n0pAFeX12bZegKmCss99p3597dq1a7989j53yapnrewPDWR5Qmt8HJ8ZcnXxESPACDACjAAjUHkE5tk2VIS5wrNW+ENZqkBSAswPaGGeAMFfkVfdwcRiSXPZi1XmdvPbHMwOzS7FXFLzfLqbQgrMEsOrdHYJYTW8U8qOypdnmYfQU5krRGd1nutbjy12or9ATx1nDDmW7yEmv1kKRrVnRZnr5GuSuIbMVT84FXkrlnpjgKnXL8BSb7+aZ5cMOrdcZgQYAUaAEah9BObZNlSEudb+fKCH85tKVnl0iGqNF2g6LLiq2LaX1TDHg5hnl4w5RpPNMwKMACPACJSIwDzbhpi5ljj/pnuVqWSVzZlR1vinCqmaRALla1gz90OYZ5eMuQeUPWAEGAFGgBEoBYF5tg0xcy1l8knfKlPJKpsjA63xos6Xte/M8pNx597/eXbJmHtA2QNGgBFgBBiBUhCYZ9sQM9dSJp/0rTKVrLI5MlAuzhaBeXbJmC0cLM8IMAKMACNQXQTm2TbEzDXn8qkylayyuZygsFgMgXl2yYgNkesYAUaAEWAEaheBebYNMXPNudSqTCWrbC4nKCwWQ6DUS8auXbvefvvtXbt2xZTNw7rJycl/+Zd/WbVq1TwcW+Yh3bNn6pmP//uOI88UlXjk7PTpmc/g75Gz00X7cwdGgBFgBErdhmocMWauOSeoylSyyuZygsJiMQRKumSsX7/+7bffPnXqVExTrdftOPLMMx//93v2TJXk6KpVq/5F/SuJvA6uHn/yyh+Qw2XhfCV5lbEzMM7Dlz7E/ocvfXh65rNS/cnOXMHQbXfdd/KDT+uUuabPXb5VBDrpROCM5Ch4Hp6e+axcmnM4k1vEG0WpazK33agg/cblgVnq4kf9hy99+OSVPwyuLsMLs+GEotrA4To9xRAiLJS0DaFUzRaYueacGqaSOYFbeGLZLxnA4V599dU6BSkf5xBClMrXYZuh+9/jr18tlTGXBWTYdE9+8Oltd8nfrADHmLmmYFt07vKtokowV1xgIa1JGWCNNBXFuZp+Hr70IZ4jQogdR56hjLB2mCt+8UbST/2sJmJlt5V9Gyq76UooZOaaE1VmrjmBW3hi2S8Zp06devvtt9evX1+nIOXjHDDYycnJ3/zmNxlzJGZjqLzY7jjyzJNX/nD0lzchoLXjyDM/vPD2k1f+UGp8q9TNG3hJPW6rReeuaIfoDFaUuQLZQloTdaDWKvPBWIlRFF2rpS5+dLKMMdd79kw9ffXfHn/9KpxT9+yZevz1q4cvfViPpxjiQwvZtyEqVbNlZq45p4aZa07gFp5YxksGBFzDPIEdR545+cGnm75/8OQHn3rZjbBbP3J2eseRZ6DJ21yT7tAdvvTh4UsfJklhvOH0zGdUYYo5uEWO9+6hALfewAplctGdrKR4c6jTW1Z0CDTYI4SAbZJ6CLIpOEMHOkYcDjDXnU/95PClDwdXjx/95c37H3vyySt/wA0PQT498xm9FymEoE6CP6hWCBE1h8OMYoit0QKI4BxhQBE6U1i8JjoE2pRvFaXMHR0y+klBo57gtFLPUQrD3h6B80iSNwVoC+rpYKkgLJU7vv0w5qvQnhRnevrA6HBhQDcYxSNnp2lPXKV0PUxOTl67di37DZkUnGHG6dgRzHAxICZA35OuRSBIZxCdh5FSiKCzEIJeoHDuqDMUTJxTrxIFAdtw7jyCS1cR6gTmuuPIM0d/eXNw9ThcHmGFg7eeURzdPXumTn7wKZz14Ik3UjpGCmZ0+ChLZ4euDahPueYjtl4h4zbkSdXsITPXnFPDzDUncAtPLOMlY9euXb/5zW8mJyc9hPA6C9dKuiHh1Q2v9fQaTe/QwWUXr5uwwVApLENP3F/pxp9uLikuBVJ4Rcb9D26v08GeOnUq46Na6AmOiOrxBnvbXff98OVfQwc6HGCHqAGAxU2CkglvCB6JefLKH4DEwLZ32133IXMNlXg4IyxUZ4o5HKY3TVifVPB0et1g7HTScWN+5Ow0+uwpgVUEAEITgum5R2GHniGPR5doZ6wEMvf461ehxjOHXwMQTxT0tFGcvQWAIlFtVA+ekoAY1QllRBJYC4J5+NKHuMDC0xOlgNMgmOBYqcw1HedqniNI0XDsFOooTYcOwCDxQkHPJuhAL3eoEwZOVwLtRicLRcCHp6/+2x3ffhjunzx55Q+33XUfMtcUT0AhMmB6fYZrHU4rYI6O0eF4TVlOHzwr6ejoiLxyxm3Ik6rZQ2auOadmDpjryJUvv/j5l178/MsTh3M6zWJzgUDGS8bk5GQ0VcC7FNLrcrh/I88IL9B066W7prdzPHJ2mm6ZYAIuvinmAFdqgiJNr9HUf9pHCFFSwgBuh15gGOgIXtapCToWqId4CSTIes5TACHGhjsomIAdCOGCTe6Rs9Noxdt+QpypkxnN4XBC5dgULaT0hybcUKk4NCHx8r51eFsmrr2QeCEmqBwDUSGb8SYCRbwCNRflmtDf00ZxTlmKXhNIIUTeKUmx9TDx9MDhk1f+sPOpn3gDp6ckVeiNutTDJJypOaoTPESyBYv25AefzuYcAf2AIUQlqX7vvKDOeGU6d9DkoQ2VHube9xNvPaAJPMcfOTt99Jc34TsSMlfsBgXqCS1jprs3QBSnDtOy5yReVUCQTgouIXwuzTsR0JZXyLgNeVI1e5iJufas27t739TuLe4TfKMTstL8bRq1YxzeYuuxgy9uu5enVGUqWWVzFiPFX79yl63gUo0jkPGSkZTkGl5q8ZIXXqMRCrwQYw1lIagBWulOSe/34W042LNTzIGe0NVQPyWL6BsUSmWuVDnGPFKchGHioLCAwWxKJuiGhNs/imDIEPcYHBc6gDU4TGiCXc3broGnhgAAIABJREFUFDOaQ1V0yrAyvYCjQAYG/alpTwM00VHT7wneKqI7aMoqoiZwRjxyTCeC9vfUUuqPsNP+4X0Ab7AYPaXf1pAH04Fn8ZDOL7qBKwRqcMgeuaGOhScvastXQKMwiiSskHjRgUN5NueI5zNMIl2EdOxeZ5wgdIlOhLcCQTYcHe0GrXRQIIWYA1ZghQomeeI5D+I4udQcGMWVRr/Pe1LeOgfBjBdhD0A8zLgNYf8aLxRjrj2bt+2b2rZu86aQudKRKRZLySttFGJ8k1TS71aW+ajKVLLK5ihYDQc+/9KBl2kNl2sZgYyXjJSYq7eRI+kJr9GIA16IsSbpiozbVXixRlkopJiDDknMlUYUHjk7TTctaiIJAdonWgbHYEtIcdLbHjxVnvN0Q6KczJPyeAm0wgTNhrlSTuZZhMP0sURFoBI3YNxB6Ug9wZQmOqcgRVGiW76n0zukcwdN3kRgf3qrHcK6FKWkefe0RUcEladnPkOFSdrSPQQpZC3Q2VshaMs7C6jFSjwYBPrn5BzBGcQCJW0pMVdYq4hnOHfRZUaRBIvRbsgOQX94waS3DlI88byiJyZ4govKO2XwTKTENMVhaApHh6imFzJuQ+lKaqc1nbmOb9q3d7xHAPVMDZr2j08EQVkzShWynRg2hxX6rDKVrLI5ChozV4pG7ZczXjJS8lwpc4UrF1xtU65i3vXUCz55l3LKsSj/8LBNMQc9PZZAxcHE/Y89efSXN5NeX5U9z5VqxggZUjFvdNg53X/PeQqg14QKYSvyKAhW0j0MRKhOz0nYxqKRLWoOy6FybMpSoCNKUZXS5G3DHpVMWUWeezApOHfeQsXO4dx5JsIOIEtHmkKSvKYkbVGd6GSIiacH8Dx86UO6ElAcyNOm7x+EJEusL0sBPEGcveWHJjyHsR4KKWB6TZ6gd5iRuXpTHIIWHUU4hGg3cAmbvC8Y0IqVKZ54XtFThpY9c+AkkvIQH8p3aWs4OtqaUs64DaVoqKmmdOaKrsqgaVHmmhBVrUbAVQhRZSpZZXM4E0IIZq4UjdovZ7xkJD1c720JNEEt5SoGTXj5wy0T4MLrNQZckX5BT9zhKLwp5qAbXMSjl2OQxZvsVC2Uk4Yf9gSSRG8aUtqHFISOiD6hdXrms6iHHs50Q/LApC5h/DtaScOEoASBpT5j9AUGlWIOrYSbIjadOnXq2rVr6c+6eTsxJBIgpDuOPINlrwmthCyN6kxZRfBYNOqhOEBl0iqiixa8wuUNgvTUQP10HqGMiSXYBwp0AcAU4BJK6Rk20QXmUTTqodeEZ2LSrx6U+oRWOs4ABQ7Qe4qRDoEOkEKEJ1rRRQtvmEI93rUIB47OYE9qLjp3IYYgS5cKxFbxvEPl+I0X7CJJpR2wMsUTusBwLNHIAvUkfYGlnD7pgtR5r5xxG/KkavawPMw1JaqqmiBwW1kQqkwlq2yOYsfMlaJR++Xsl4xTp06F7zRFWuOlSXlX3igOeEfM24povdeEF18wR/Mas1w0qbfebhFyFOpzqUmudAg0Jg064dIPQ/D4DfWQMmm6OXm7MkKNmCD7SWKuOHbMLg0ZCTbB2wlOfvAp8kWAOjQHfJHW03vcMPZXX301ZK648UcxgUgnqvU4BPoJHbCV8gMv5pqyirwhhHPnOYNI0jmFh5y8mfVAQzDRf3yjEzRRhXSd43TjSOlCTYoKYx8KNXqIvqFXUOMNP4mKwfOLJb0VqyjOdPjoJ4yivOeIN6HhBQdPt3Bx4mkOv41MzxFwFTtQtXRoj5ydRgIKqxTXOT0laR+cSvplDA15nqQwV29ckASC65muk3DgdAh0ccKySVqZ6HlYyL4NhbI1WDM75koe0kpIck3LIigvHEgllyxZMjI6snTZ0lB/a2trX3/f4OBgZ2en17p06dKR0ZElS5d49UKIxW2L+wf6BwYH2tvbsRXN9fb2SnNLfXPtHe0DgwP9A/2L2xajFBaWLFVOBlJCiM7OzsGhwaGhodBJLX7XzS+9+OmiEVTGhZpGIPslIxp39BhVWYbqcY6y6CyqJJpJBlKl/oZWUVvcgRGoRwSi/KkeB8I+pyMAxJTe/IGaHJQ03RC2Zt+GUKSWC7NjrnZkCekEktpWI+BKswWGlg+NrR5bdesq650ptba2jq0eG1s91ruk19Tpz+GR4bHVY8MjkXTcjo4OkOrq6kIpZK7a3CrfXFdXF0i1d1i+i+KlmkNBU3j5K/INWTcbzDF/1iwCJV0yINuVvm98fjBXLzJBJwv4evrdbdqfy4zAvESgEmf6vARqHgwKroeUuYY15R1mSdtQeU1XQlu5mKsQEZJavYArZa4QBO3vj7/KYHBwcHhkuLm52UNTx1yXRGKuQoihoaHlK5Y3FZpQCplrV1dXNMRbKBSWr1g+ODSIIrQAgeFoiLetrS2F8gohGic+Zc5KwazxcqmXjF27dr399tv4O6iV2M+qGXPFe7V4n9Sbr8nJSaatHiZ8uKAQgDvRXubAgkJgAQ7WS8nABKQKQVHqNlQhN8qltrzM1X2BQJFXZZVrCFoPUsky601QV2Vz1AvOc6Vo1H55nl0yah9w9pARYAQYAUaAIjDPtqEyMVf92lca5lQB14nN8p1aVflXZSpZZXMUQmauFI3aL8+zS0btA84eMgKMACPACFAE5tk2VIS5xn4NS+etuk1BMmt1A640W4DOVuXKzFwrh+080zzPLhnzbHZ4OIwAI8AIzHsE5tk2VIS51tF0VplKVtkcnQiOuVI0ar88zy4ZtQ84e8gIMAKMACNAEZhn2xAzVzq5JZTnjrnKtwp8eeJwCb5y1zlFYJ5dMuYUSzbOCDACjAAjUDIC82wbYuZa8goAgTlgriNXvizfhPX5lw68nNNpFpsLBObZJWMuIGSbjAAjwAgwAvkRmGfbEDPXnEthDphrTk9ZbI4RmGeXjDlGk80zAowAI8AIlIjAPNuGmLmWOP+mOzNXgwR/FkFgbGyM/oZFkd7czAgwAowAI8AIlA8B+btIY2Pl0zf3mpi55pwDZq45gVt4Yj09PWvWrGHyuvBmnkfMCDACjMAcI9DV1bVmzZqenqq9obQa42XmmhNlZq45gVuQYj09PWNjY+P8jxFgBBgBRoARqCICY2Nj84y2CiGYueZkUsxccwK38MQK3UP8V6cILLzVyiNmBBgBRqDWEWDmmnOGmLnmBG7hidUpaWO3C91DC2+18ogZAUaAEah1BJi55pwhZq45gVt4YkwB6xeBhbdaecSMACPACNQ6Asxcc84QM9ecwC08sfrlbez5wlutPGJGgBFgBGodAWauOWeotpjrxjfuOX11+UjKWLYuP/7RPac/Wr0xpU/OphXnPjk9c2NDTun5L8b8r34RmP+rs7IjPLzohPODf/dv3fne0/vf2dorVqx75+n97x1ad/8sHbjj3vee3q//9qwqUVnvc4ek7Gt3ZJablbnMVuZdR5j390qeoKoBseo1uYrufVyIx/eUuCSK+vjEFz7/+JbPP77l5hNFu9Zrhw3Tn52+fnlFcfcXXfmthOLz334x8iug8reWbjYUVyJ7ZGKuPev27t43tXvLuKNzdEJWmr9No06jEOObTNPufVNBq9e5DIdVppJVNqcBGjmzLso+64e5Zl7i7pI4euP0zGf6L9MZ4orP6VHN8bZNF9f/43v674kz7c4DZLsGn3hv/f6/L9lnqfPy4JoyPYtGPZSulk+zM9ji3lZs4Xzt/PVXZqa3l1P/0WMzM6/ov+uPllV1TjcbDnz+pRNXGqm0Yn6KKSqugMwViCxhNiUSCMVBibixmVQP7VHmqitTCXG6WmO84p/At4C473wuA3Eov0d2QqluH58yMldQRb5sWNJJPSixrBxWqzHQX6Imr/v2L35ar5z1pQO455rCgaPe8PRhidu64q8///NQl7xiZCOvxZhrz+Zt+6a2rdssaajHXKlZxWIJPZW0ddu6ft3Fb6WSZStXmUpW2ZyGKT9zLRvOoaKSYq4lLnFpTen/ZGKHsbzj8vHpl8xBHXyWzAJLZFcl6W9/8LJDBNecWevw1NphrpatKp/fW7mpONEsCYosnSu2vMrMXLefe35m5vnz9hx59P3y0uLSgWic+DSyCVmiowgHck1griropUxpTkYISroHPlUyvZPqTXvk0xNRniDD1v29PhEtFa9SiMnotXVJhgyr/s+dRzCvfMs8d6W57JNgHQWf5djVhFrmWravAYdf/LN4fLG0Qc9lb7n/FosWlbytyzj0F2K/Yi/v0mT5fft05jq+ad/ecfn+WhVATWGuon98glBbSVUnhi3aLpG19eUsVZlKVtmcRmohMtdDE9c/O11XVNVb1lkYUrX6FCWmRTsk0Mfyx1wtcy105/Vq1t8BvKks32F5mWt5tZVjlPLG3+dfuStQZZmrS/7uuPe9Q+ue22Nu3N9x7ztbVz13yBwGaoIKV5ttTqq3PYJSICJ99qhM0CfQUukKReBmSdfK46OKjjueVNS3x/fsf2frutfMl5zH9+x87o5175jDvENSEwrfTyLTnVerEMxc49glMlchki4drqJ05op9MzFXN8gKlFdpUIFbEpFFteUsVJlKVtlc23eu3nNaJqq6f2/ob9wyW+CNXnFotelA8ll1hqsSDHNhaetH9xw/05ZxTnZcPm7uIKib+DTP1bnLYO4vOJV46//4uUNoUMVWw5QAxVzTvvNRzW5oduYzY10IIbuhOfM90spiE/gjv0TqARKdsk35E2/CoTgFYKUQODS36Sktk1ywZ7+5fe/fGVekTd/cJ1JrzqyVPUmrEzodKtAb7rZJ9fczBBQZlQrRB1sgkU5i6x/fW/vgLhgX8dxKrdcmlIi1roZJrVMn/5FEVQMeLK0QndK6lSWwdA85OKNpPbqLPYbLQjc1ir9f+Y9+ggSacyYyekDv0ZMw55FplQxgW01AdMej7+M9fVK4RG7DSVnTROtlYFWmAWy/ZFrfP/c15ZRirukZAtaTV4yUHk+COanz/XNfU9Fc8OfYEYoAHUhgWgZcvTwBKhuWFXO9/457VSpk73OHdj63QpIJiClKbkSinjFiFFBJHcQ1KbAmF9YEAlV/XVmMlUYiiIE5PSIdKoZMA8cW8V8I4Q9BBw6VtxiHFkLI+nsfF8Rb06o0eJ67sFIEjJTukWBO4rxnlTIazUAgblAqr7SZwQoB3hqLyk89CyRCbFylTiJEsjIcmsT2tTtkHuo7W3sfhy85K9a9c2jd/U5/ZwrURGhV0hNpwnaI+GP8KtdnLuZqdyW5B3lRG7rzek00p440yb1s+iVhW0vb0cxeGUBiFaq9Mm2PDmRTmKsQkSwjpeC+U7++du3ar0/dlzXPtWjMVSXC0iCrCsHq9FbFeic2V/qnx5BKdph/AVqyoqurq7u7u7W11Ws1Qh1ePRyGUmiupaWlu7s7+tueoRQqT5H6/0lWe3t7R0dHZ2cn9teFtJjrR/iQlqK5AUmN5cL2/rAUtoreqCWLpFAxTmSuhyauYzm40S9E4m2FozcId1SnLp575gxBi+iIUKcxCgL31d1UExEJmKtin7qDNIHnM3BTHMWhiWnMPXeUqGsBSlmnvJJkeAEVI0FWYIRIqnYN7sfcU0mqkCM6SgzR1MxS0ThkmYqWEYU0ddUQPuxMPBlKiW727CcE0TWXPMBU5qqGEHfDh4vqAbjeW/+PeoDIMs0XABy4oqRIlAEx4LKqjMC6cA0VuqUgOOZNpXeoWB3yOSfwqemgpnQhs3Q6E7VuvWKHSF6RROoaSUYNITbEFDsTnQIEsWn7uWMmryDFnGqawWRcRZeRmlPTQsjBOuQ16y0/6yQwV8kq7n0c6IgiQPmZq1adRDGNZcm6PJIUiGTpI/X1PnfIhh4dZulrkCaQNqmeKOhaV6RQP9MmE6fkY22GIxoGZjiiGZL6VIJoQtxxr5HySLNjDnKLzZcE1YRsUhE+qpDgpjxBNxwn0SnZx4pDtQuL/X4S1WDoKTBXSa/3rLp/606p0zQJYKXGE2cK9LcFyaE1FK51dDRHYXHb4vh+nRpzTZBKvceotkLc78TRG7jBBbuwpbw6CqOZpRcJKr6jRZmrMmf3vui2LnlRd1ccz1TmKu66GUk0EqJ8zJU8pBWGVPVzXTThNT6I8tQilVzWt2xs9djY6rFQb1NT08jIyNjqsWV9y7zWIlKjSmqZlUJz8oc9V4+tXLWyubmZ6pS2lNTSZUtpPZSTpKAV/B8YGPAF05groarRbhHmqgKuP7RRT99c/Ng/tdxzxpXx6WMyc3XlgjNBcVmIdCKjjfBg4ptv2jlFvRMPGDBcBfwm4phscr5ZSnP2OkJ60mJBBwKRUTk33BVtIqTQBAW1FBIvWS9Jm+ZbPu2jHNcSL81KJRGk1hWlgwgrRiW1XcoRHT9dgkvNqW4+1wRZXxtlmQ4RJ6MOebCUsqFopZPAYnmnj0nwhUETbt+rQjKRpfMYlCWZQzooWyWf00TWI3MuxxVCuJQRVRMNUCf1GL6olBiqKoRwea0gsVgUkUpUNy/Oqg2mmfM9JCOSTY5CaYI4Jl7+SjRVAIcZFEw8TEbUXttzr6I4lt5ZTqMEXaoHuhwGRtQn1ZsuEfriiigWFTwU7/YxypxPh3653M4xKpuQVkoNstUQWVmmrT7/01zTPBdvHHDNmVr1mWYuBWecIKNMIoBMVLmhfY7NjgBOif2VEkeDrHEJKGAiNQMT1bCglPyS89oe9a0DBR3MPaIPlJ18S/E6m4Hl+Fy+YvnY6rGh5eEPl8hHkT59cVFUZ4KUs0+5gmoTJNsfaZVNyGJlveS4OvjibaZ0v86yowV9/BuYIrIRi46ODqAxbW3R+7h/fvPjRGSyJAyUK1vASyeAmKuKwqpUATftlQBeviJSySIctDLMddWqVeVnroOVZq5CSDqrMhCy5wmo2+70JKFngjln8Fa7LNDO3llE5l+RTn0XPvHug7KFL+CIEEd7mhVnrhhVJV7ETkJsls5TDwMmjT1pQXE+JIs+SXXInEvgFGMjt+Ap1/RZGqGSqsmkJaC4b9fwabwLH+ealrAGajFmGXJNI+VzRHewqlUNyo+8Kopph0B4akpUWFFhStCd6Cm4pGiujdcaP2kag/QKh0bn0S8rRoi39U1BEzjC86RcRuYKwVGjyuQMmHBmoMT3CI61EiOl+DSllVYq1VwKc7XpCtRVS+KzZapZPyAeBuE9ZCHkpnMKozJKkqhkUr2Rc0gkVCoRk13gEkcjRXzDKllQRNO+lICQTsrnLBszYVQqQm9wK4WEbDnGyIEiYTYImsLJdE99+97Y1SZScJZNBBNdNtFNGLjimkmA+5xbx0cDnahE0VxFwYHH66i81A8M2JJpO16HslPMIxkaBL9ZFoGDLl++nOiB1z/92ZXkd3wkMFe4Uak2Go+k+jsasaaagr1Jx0S9PZfu11l2NLulokFpzgZcczFXqevlnye8LCzDBaRczFUIGX/Vua1B8oDHaxGAchaQuZZ63x+cKFUKzaXc969utkCOmKvBX8VoFYU1ibOmJfbpf72jZwIk09gwZHCyeWeR0Q+01VLJhG6qu7pjotjwXDBXJ+Zq3E/9RHqkWZfL1Vwy54Q5U5ogTEgIn89cSZOjkzij6nUYEvv4XFP3B9pqA7TEHLDtHDFXQ9ORoCNfTAvHpjytJX0owlyNrYDHo/9ypFZJ2sT6IU+n7yyYK6YfOApj9NfvYI9lMNXEg2U5hbkmmSvCXJ2YqzUMpfwxV6oJGV4KozL9kwhTUr2RS2KuyMlMR/czplbRVhtWtHRKidrDVa/R/ARb71qAo4h7sW6yjpC2FJ0pTfAqU5se4OQVeFMQOGGIaaJ+08FKhjW2TU/9inXv7FkFKa2Gp1rmanursSPlJQzbIf0ekSXisy0m3PcXQiS+/kkIkSyl/FHbnCSjuOMEm6n1O6UpiMXQ/TptnzXa8zFXIURatkD6y8Ikc/10Udr76bO9z7VonqscI3mfwPCWqd1OYqv75gGDSHk/kUqWV22Stiqb025E0wAEhE5nwVxBe5JyHwL/dob63qZJJz0rpFxwRiWcKjGdeMZ6DljmGuYeKAYMX1V9044J309iIl8TUeAXfbLoci97s9swOeyf0pTGXFWapmWBgVrULwsZmSsSO62tnMwV/HFoum8OiXVaJm6AiZ8toPCUnNWxpUekQ63tD16m0Plz6RzL0GMSgcvHXFPio/mZawrDTia1YT4DGZFPah1U5EHJea5IUqkqrPRoU4yCxKik1JVUb+xEqGExkQS1vlcBh9PD0U+hGQe8/FGshkLEPa8HHhLmmqazGF9MYK7+6NCsKcAcPS5/acKkOpgm9RnaTcNZmlNprJKPKsTMYpB6FEml2k2lhCtqXXYuOgSqsVzlXE9oEeNys8PoprOFkU6R2/e01dtz6QZHy1SElmUfby/291a17Xp9qIqwnCvPlaopU8xVv/bVeYGr+6qBiv8YQZWpZJXNmTlTbw8IM1O9HNYoB/X6GI32M9Zh8rVr8t9rk7YbfIejOTTyprkJl9IzTa1vL1tAnSp4KqJWwji1fvyu+dIB55RwTxLFYjHE6yqn57ksn/beLYA+oxe6oDpbo/4TWv5p7IhPvqoAe/WgrXWYouRJHu2Th+bBecXM3Ce0SBMhcCoISgKrjk64J05aUfDvV4Z33p0aeMuBDTpq5x1zymH66Fj3kJcqikOmHFHHO11zpqcb683HXOErgY2YKj8xTqyGYFip26TIK4BGEmolaGYWI9NqqKQJbZqu8El4nqwIb/TLDiYplogqUhipjysxgtsvYW6ArFJKSI2yZcOu/hNacXM+PXVGpGK6SaxdCBF/matxN/w0vMRpwUrKOVR5f0BQEmmQVJLMZmK34xNVEedifSjLVLTVzzSQHcgTQkYdjChgY6qZ6jT94fNxSPE0lUqJDTH6Ov0ntELyJxVJrBKYq47pklZj2Xya0QU5wdAhZK46ucJGqY0m+SlzA3aad13JKPU7OknAkFTaGWOuyXDNlrl+81n5WPu1V52N0PEhfjBL5uoxS3VIsu/8J7RIE3EnhbnCK3dSdzSVvWB3Q9BLd2FVprFhYjqxmMpc098tAGykCHOV0VPyU1iqrFMC3CbyDixwljy8xb+hlTh/ORrsnf2P1JuwlAqPdDrM1b4qy75RS3Nfr4lEbbVj9z37ywhzpW+GkqxR0kfDXJF3Sqb4ycQOyQJpnqvOiYEMUUIlITqrM3WmX5KnKJ4thgFjqwOb02rdkH0Ur1VSn0zskCeYy3Hdzo5SczbqUdA2TYK1M/YLseqjL3DXPOaqSRskqnqcT9Imxdt0q3cjW9NEk/RpWh0qGbJh9+VQ9K1PStBo898GpXgkdca+qcoQO5k4u3KTjlAa3qmYsQrfas2Wnlr/1z64SyoxTVShlEKKmeVVDLSzDppqdk6hNjxVh5bRtHQbvHX0ROisnvjYtEKTnypqnqZyeF6MuWp+ad5vZZNEgXeaenvTP67ErEwv6da4YZr16wUgLdVlnMCVTU4t5hgEz5B5I1LhYSvlvltAv5TxyxORn3hEl2gBSapfqamSYoqQE6lf20SfB/JSMC2BU9qIrA3XSQJEbiurss4QiLFS45bhzVTWmlMsGZp2Prci5FhKc4z8+WoxVyGNijnjirBzpJJPm4eckkZhzKUyV5OQYHGzA1eKNaQeBSeYIGgkLEqdpL8GDNSfOqbnLkTVefwrNIfMWIFMTBs0sn3q767wSqZsIrJXyczV2c5ISAhN2k3Nvj0AGoHXmo3JtqYyVx2vtVJ2R/N2Ohn6IVu5bT1wNMpu0eNYIYW5piS5HtRxocmMv/4as1xzdVUOglbZXM3BzQ5lRsChdy7N4qZaQkAyVy9QnXmSuaOPQKlhV19+Hh5LrolEah6Ob66HFHJTVeMx7JxewiuZaEgii6KSmWsWpfOgTyJzTU80glCajHwXibnWEURVppJVNldHE8GuUgR6xtbbAKeJuXJNTSGg2LOTrgDujXz7CTqVXC4RAbUJZfsV8hI112V3L6JZl2OobadVwNWJqoY1eUegYq6/fFa+BL+kf5Ki3XKTLyQuaPKtAr/9YnhHRuYJpFwxVMy1pF8icM3W5FGVqWSVzdUk5OxUJgRqKayICa9cMAhg+oSTOaBbM00wd0pEQJLX7DkDiWrqu8FkJsTyBOp7ZDXnvZdB4aTt5nY2+rBHdm0y7PpxwuufsmuZJz3hZWG3fP7xF14ORyTzBG42hPVCiCBfi2OuUZyKVzJzLY4R91AIMHOtXwR4CTMCjAAjwAjUGgLMXHPOCDPXnMAtPLH65W3s+cJbrTxiRoARYARqHQFmrjlniJlrTuAWnhjzv/pFgK7Wv2ks7G0sDDfSOi4zAowAI8AIVBsBZq7VRpztMQKMQN0hsL2x8N8WtcLfu4tajjc239nY1Fx3w2CHGQFGgBGofwSYudb/HPIIGAFGoMII/A1hrkhh/49FLecamr/T2NRbYeusnhFgBBgBRgARYOaKUHCBEWAEGIFEBHY0Fn7a0PJHE3lF/vrfFrX+26LW/62h9VRD8/7G5s2NTcONopCopo4beoX4fmPh5w0tP25snpcDrOO5YdcZgYWEADPXhTTbPFZGgBGYHQIdoumbjYVnG5r/86IWSl698v+1qPU3DS0vNTQfaShMNBb+QjR1iqbZWZ4z6cVCbG1serWh+f8mrH1bI3PXOZsRNswILHAEmLnOYgH0nHnv4Y9uPPzRe7dvnYUWFmUEGIH6Q6BJiNsbmw43Nv+6oeX/JZTOo7D08ONFLYrOtpxqaH6iobCvsfCdxqZ7Ggtfb2xaLpoW1xgGBSE2CsnR/0swuv+8qGW0bol4jcHM7jACjEDJCGRirj3r9u7eN7V7y7ijfnRCVpq/TaNOoxDjm0zT7onNPV5jBQ7n7GF/xV9/MVKBIbFKRoARqAcE+oS4t7Hphw2S573V0DLToJ/lorQfqS2XAAAGUElEQVQ1S/n/XNTyu4bWy4taftYgM2h/3FA41Nj8typqe39j4e7Gpjsam9aKplWiaUA0dQvRUgFwuoT4q8amZxqbP4wFlS8vanm0obCMX7BQAeRZJSPACGREoBhz7dm8bd/UtnWbJQ31mCu1oFisJa9Kyhz2j09MVYG8zhlzFeKJTR/d2HSI4sFlRoARWMgI9ApxR2PTQ42F4w2F/9jQcr2h5b/GiGAWOpve578uavn9otb/fVHL+4tafruo5dcNLf9zgyS+P21oudjQ/D81NP/HRc3/Y0PLqw3NrzQ0v9zQ/FJDy/mG5p80NJ9taD7T0HymseXFhubnG5qfa2h+Z5H0Mxo//l1D648amtdwnHUhr2keOyNQMwikM9fxTfv2jst4qQqgpjBXoeip6TC8xaW5DpGt1NCZuVYKWdbLCDACs0agRYixxqb/obHpwcbCDxoLRxsK/6So5HSDZJw3FrVWiNqmE9/01v+yqPXZhuaNosA5rbOef1bACDACZUMgnbmimUzMddu6fiXgsFhVI8VNK+osc4GZa5kBZXWMACNQRQSahOgWYpVo+kZj032NhYcaC4+pkO3zKlz604aWNxta3l7U8r8savlfF7XcXNT6h4bW/yfIQE1nolla/21R628bWp9vaN7WWKi11NsqzgabYgQYgdpFoDzMVSXCTgzrYYbMVdYwc63dVcCeMQKMQB0i0CTEYiF6hRgSTbeKpvHGpn+nHvn668amexub7m8sfFMUvtXYtLWxaXtjYUdj4QH1TNhEY2Gn+tvV0PTdxsLuxsLDjYU9jYXvNxbubGxqr0Mc2GVGgBFYUAjMjrmSh7RMVqtETxFZSDPAw+ox197e3pHRkb7+vuhEDg4ODo8MNzf7P3+zdOnSkdGRJUuWxKWGBpevWN5USHivzcgbNx6++pMqPIYWdY4rGQFGgBFgBBgBRoARWBgIzI65Woz8dAL9OgL1eoFt68arGXMdWj40tnps1apV1jtTam1tHVs9NrZ6rHeJ/6s3wyPDY6vHhkdM4NiICCE6OjpAqquri1R7xUO/kG/IeuMJr5oPGQFGgBFgBBgBRoARYATKhEC5mKsQMv5q46yue5LX0qCs21qeI8xzXbJkycjoyNJlS0O9ra2tff19g4ODnZ2dXquOuS6NxFwXty3uH+gfGBxob4/fSdt2+1XmrB6efMgIMAKMACPACDACjEDZESgvc8VUV8dPGX+t/Ctdkbk6tqtywG/FqgrMbIQRYAQYAUaAEWAEFjoCZWKu+rWv8G4BB1P5hqzEWKzTc5YHzFxnCSCLMwKMACPACDACjAAjUOMIFGGuinfaH8pSv5ilUwLcJjdPQBFZ/fNa5iWvlQaCmWulEWb9jAAjwAgwAowAI8AIzC0CRZjr3DpXknVmriXBxZ0ZAUaAEWAEGAFGgBGoOwSYuc5+yuRbBd67fevsFbEGRoARYAQYAUaAEWAEGIEUBJi5poBTrKnnzHvyTVgf3dh0qFhXbmcEGAFGgBFgBBgBRoARmC0CzFxniyDLMwKMACPACDACjAAjwAhUBwFmrtXBma0wAowAI8AIMAKMACPACMwWAWaus0WQ5RkBRoARYAQYAUaAEWAEqoMAM9fq4MxWGAFGgBFgBBgBRoARYARmiwAz19kiyPKMACPACDACjAAjwAgwAtVBgJlrdXBmK4wAI8AIMAKMACPACDACs0WAmetsEWR5RoARYAQYAUaAEWAEGIHqIMDMtTo4sxVGgBFgBBgBRoARYAQYgdkiwMx1tgiyPCPACDACjAAjwAgwAoxAdRDIxFx71u3dvW9q95bxuE+jE7J138Sw09w/PjGl6sMmp1+5DtasWdPW1lYubayHEWAEGAFGgBFgBBgBRqDWECjGXHs2b9s3tW3d5k2JzBUZKmWuqtIw3eEt1SCvzFxrbW2xP4wAI8AIMAKMACPACJQXgXTmOr5p397xHiHEeBJzVeHYiWEZdrXMVVdaT6X4tnX9tqICJWauFQCVVTICjAAjwAgwAowAI1BDCKQzV3Q0ibkaSuoyVxlkNQFXqQLSCSY2Sw5csX/MXCsGLStmBBgBRoARYAQYAUagJhCYFXOVDBX4qMNcZaoARlhl/HVi87DMlLVB2UoMnZlrJVBlnYwAI8AIMAKMACPACNQOAv8fklGEzzLLZQIAAAAASUVORK5CYII=;" parent="1" vertex="1">
          <mxGeometry x="1685" y="133" width="462" height="94.42" as="geometry" />
        </mxCell>
        <mxCell id="9KCve38od3s6Ke8yRSOH-21" value="&lt;span style=&quot;background-color: initial;&quot;&gt;ScneStatusManager.enterScene：&lt;/span&gt;&lt;div&gt;&lt;span style=&quot;background-color: initial;&quot;&gt;1. 如果sceneViewMgr相同，即使sceneId不同，也是走reEnterScene。&lt;/span&gt;&lt;/div&gt;&lt;div&gt;&lt;span style=&quot;background-color: initial;&quot;&gt;&amp;nbsp; &amp;nbsp; 因为这里表示的是否进入相同的SceneViewMgr。&lt;/span&gt;&lt;/div&gt;&lt;div&gt;&lt;span style=&quot;background-color: initial;&quot;&gt;2. 如果不同的sceneViewMgr，要退出旧的sceneViewMgr，然后进入新的sceneViewMgr&lt;/span&gt;&lt;/div&gt;" style="text;html=1;align=left;verticalAlign=middle;resizable=0;points=[];autosize=1;strokeColor=none;fillColor=none;" parent="1" vertex="1">
          <mxGeometry x="1683" y="476" width="483" height="70" as="geometry" />
        </mxCell>
        <mxCell id="9KCve38od3s6Ke8yRSOH-23" value="" style="shape=image;verticalLabelPosition=bottom;labelBackgroundColor=default;verticalAlign=top;aspect=fixed;imageAspect=0;image=data:image/png,iVBORw0KGgoAAAANSUhEUgAAAtwAAAJGCAIAAADnNsUbAAAgAElEQVR4Aey9XZBVx3nvretzlYtUKWWBF8N8zzAzzPfsDewZCRAGYxgUQ8myhCQCCia2RGxVjGyERwIBJXGMFEf2EQzCQDDCUp0DUpwIKyeWX0FOCKDYMUY5iDouX507Fz65fE/gfZ/+fLpXr7U/Zs+e/fGnpthrre5++ulf917Pf3f32vueCP9AAARAAARAAARAoAoI3FMFPsAFEAABEAABEAABEIggSjAIQAAEQAAEQAAEqoIARElVdAOcqAMCX97Q/NvDLe9m66ApaEKlCDStf3jThVO7fvnmlpdXtlSqUtQDAlVMAKKkijsHrtUOgS9vaPnfR9t++0rb716HLqmdbptLT7tGciff2PXJ+Wf/5s8mXn7l2U/O77nyyuonOubSJdQNAnNPAKJk7vsAHtQ6AalIrm2gdvzgG22/O9rydl+ttwn+zyKBjv6XDzzzS1eFLF65+m9O7REapX/xLNYN0yBQ3QTuiaL25auWt1e3l9y7GnOXu47jmiFQxCjjigSipGZ6uJyOLlq1almh9poe2bblyvmpT04F12tanvgznTrRVKhJ5AOBeiJwTzS+43unT3/v65+vEV2ybMdrp09/79ki3B1+7v5Xz61x/+7fvCqKWlo2/OcHDomkQycyGx7I2687Dp9l/w7vyFugXBk2vHCCVXxiarJchvPamZyimhNqFDzefKFy3uR1t1wZCn5TBBRJScs3krPu5BMviEmXcrUm1c6cDepIjuqE8SPcqiSHVEjpiZteOHHm2P7HC9IlSyZ/dn7qH18cS8vcM3bm1NQnp/74ifRqK5I6d8OjIs1DJVVIgJZv2j//bC3pEuVuwbqkfe2iLz7T88VnRvf9dMORc8ueoONF2Z6WzT9af+Sna1442P/FZ4dfOLf+yE+WTg4m99DkC2+ePct0yI7D7CS5WBlSvnr47Fl2d97wwmElSuh+cfireWsgzxNURd6yEQXLN0+cCEYOcuzs2WBSfsMVzEF+Ft1Zhb0pFrz/SsfvvtP0ZdEaWrg51vrucKBpu/+k9XfH2j99fEFwFyx1JMM4OXW4QqJEyAI2hMygrsTQEqLkxIk32di25GQsDCbZTNVztOzx/ccK0yXbtn1yfs8n5/f88o1Nu5bEd7a2fPHRTT97izJ8cn7bvnI1ULyLi//wkDg8yuUX7IBAgIDaU1LYLThQfm4uFatLhJeLdv10w5G3h8aUy+L0RH+XOG3aln313Jpnkj+a0Puz6MBWFjg7DidJikpEDiVKAuqHtM7hw4d5NC1Le8tvpCRRUqBYz2YXfvp6x2+/1nSatpJ0/O5Yy5uxBpAiOdr64SPNvz3a/qsvxZIj6uEKqRC3curc8KCuxNDSoiSgGIVjh+cKiwup0LMCdcm2bZ+c2vTUSG76VbWz9akeuUzTtGy13FPyzQvP59av3nRlzkVJ8vAolAnygUAJBOxGVxnoDz+dsr9EzBaoKWZ7G6Wxa/7pexy/aD+KyfAgp21FEZsUiQ/l2g6/Hm6VcndnirteQU+ULNg4vf7IT9e/8oOhdRsWtHp5Y6f+hwY3g5wzkM6bj7ysmfbWTxdPvLBBfhCkAs4cRqgIZTU2TbW8Rq0YOHNllhtUdfkhUMQftRJl3eI233xhRzx6keXDO77KRYlT2qxtSfvMNz1EqC3hIm6CqMUSTBgncmhJLAwXr0BHv/AwNmj5QQFvioh0ydEOeujmj5t/e6z9f3+vzf1r/93R1vezES30HGu/9gVuXh6Tj84wcLLwFpg3HbtoGlv80BKdwrtDVDw7QyviZmWd0uGvxuW+0LtfdQYqazCbHZSdzgY5u284JcxojJz7zIkXqHZDNVIrSvKNbMDIWqT/b77gdI57InXJCw8vci87Z0KUyA8/i1eu/q9v7vrk/K6fvfjQGXoM5/l/NE/frEwVJaxt1nm6eHhH7I3GR7u9k7BsMZ66pd+gG7uh4LSCTmQ296aXZjbcTQlv51htuNA4BKwooY+Gy3cePn06SZfIQS/RmBlm8fYwA1dN/9LQdO6Vetzr4S53IYgRrMomFknpCuVuobrEEyVqT8mrP91w5Kcb/stPHnxm28LUnWXy/RYPHuK6uTVMvnBYTJOqCKFo2aUf9c7UxAiILptUREVuXcQCER1il2/M3Lu6t+obNN2VmNvOvV6Ff2Hb6YKvHpbF9cVAKbLJRIkZEsqmHgBihBgHxC1SNyWtiC6u44Qqo/0RFARM1Uw5tLRlC0ndPW1CcBg7+d2T9DeFzJttj7a0R1Gm+bffa3l3Y9Np8/c4CZF/XK0VSdJOkSTnRQNN32lcTr/TiWRVytCSEUuPQNtwpwrSjoYfZx4VOrTkpIieDdLWyBRVTWOLb5NSg4oNObtkKWOhdjjtfmKXwCwipUhMYygl/xswqXcsLnu06OEXjp05lqJLmCgRpZrWr/vC37w19cs3H941wu4/KaJE9I1WWeSboqEao0h6bzR2Q5YQ3PdXwpsoaXhIJaF7IVI3vTzvTV0jZdNaJ7GIJYqjhiPgiJIoihZteuGYHjEuDO8GJBL1bcXNye4mIsG+i9hbyKZQWE0u4pr2z3q/SO7awOyn8/OYKJGJLQuy24a+fW79kZ+u/kpS0NBm1H2f30NF42IOBO6zkqpzT6ePbUYxJBYRlcs7jnkzm2sJbbdmeRW6lLmb0AXTO+ZAZFP/mbuG696Ow7I5TJTwUuJTlLr1k1l9P6I8NAZMVGCFzPX4oDJJKePEH1ohy3SNk2F5Ug+T3xRusUzzb/9z82732u4/bf3d0fbfHW2XDwy7ifws0MOJPcL5GVylDi0RJFhsJqdEzbFRLdzlAPlx6rvY9iBrsvHcHUU0tkL3BF2S+eZ3OkvSuenV1h7LYHyQ9yBPG5lBrgM/t5p0nHn6e86Ad/P5ooRS9706deV5dz9boighh3n32y6gtiW80cy7WPiSfLP1eVL2godH4WZNLyQXcaHhrKEIOKJEfij8wXNfDD+JQ0P2rBNR3LuJAidujnJWz/4v30f27iDz6tGZUiSlN6S7/2VXgrt+SVeUPND/nXNrXv3LRerTyY6lR3664ZW9eZdxyKj0Vr7//XuErJTuFLF/AgHl55rA3FOSi7B2EC+9sBKKHDJd1aw/fZoqpKHkG4HqBe6euCXFWkr3KdOh7D6o71/SAXXrFH2sP9g5EYL8CRSJDyozbJSHLlrjiXOzZtRMcXktPoxZ3vhhnjcFLxASJVEU7X2k+f3PR1/ui1bxzOFj1cOCF3VcXHQ6fay7miYhZja0ZEfoMSM6zRElTrU6W8FDS2jB0GKlHGyspdQK2aPuQHW7XmHxetbVUoGhZY1r+hYa+RD7Jzzxa9FlQ69ipuTEK9sSH66ZqShRo9fxVHaH6LPwG41QmPepS1IZyvcmcoZHHKO5Kzp+6VjhA9SjK8WTEFtcaxACVpQUePPVb3X9djVj3QALDlmZmjY65dvCWMl3UKQioUkgd6Nr65Nvrz/y01Xf3tv/xWd6tk6vPfLTtX+evNHVd4e/r+Kes5usV5Dg8KhvbuvJRVwL7P6ifRAZZL/oGGbMxucG3Hs9mylR9ai7nnKSVUe3fGF/8gXzxIQVEOSMvfGxjhZeBu+VCUWsTd1yY62IoaXLxmSQTHCGMcvrHRb4plClEkRJFEWvfa31d8c6fvu1BfI5Ha8W99T0XXhIUP/xD/Sm8IyHVtKMQtmGlhANVppwh7+qpt4mp07o1tmBKgaKedeIASUFkxkYCoJJShha8fFjfQjTJsN+LYa4f5BXkURRVAZREr/lCkdE44NvNPbRQqmH+C1LmEhvqUmNYyzOrO6moB0fKs4bjoASJeLme/bY8wVOOvBRZW4Whp1ONRfMgRnW6orJaQ5M1tQD6e6RQt2VtrqeObfm1RMD9onNztYv/uWKv/wJbXf9/k9WPLujha3pplbPI33Yc3GV3SCMOXsTlJdMBJKf8kJFTFl5YBnyqq0dkYuf8uP4zDylxqYYbBEuSuiz+JsvTOr4QRUZAWG9EvWzUx+FSTIHXrvoujOoRFCUt1HeZFlM/+9Z05fpNTEp2ZooXuSbQuwpiS3fKEXyesvb65t/e7Tj00e4Z+FjQ8wc8HxOj/CEmQ8ta4GTsYNB1MZP+XGBQ4sFSFudfEPJDeAmXhpRwp1xa/F7Vuf0rptTqtGdfKIkNdiCtKnJpjinHTsWiuT04a8mzpHIEi0T//Ud8Tww20HiLt/Qr+H87K09v3x1eciUA81xwvefue2OGU3JKS1OWJF4IpuKC1oIXgyaNTnNQaA2XGpYAiRKCrv56i2chMoOJjqyMU1tYXMvRnqDXvztnWSHFYn3TEmKJG6muCt8q526T6l7mQiZJohqSvT2Zrc/U9y/p7DbekIRvS1Q+kv5NW9W1p3wEC7Zz9OCspU7dKo/bMmc0iCryFp2b2c0R+J8sYQRJU67RP9rL73a7S0+sYhoo/ZQLZZxa/pYrP7o/Yzu/VS0S4c3pyLdQYRTuOYsUthBUdibwuano+GFvz3W8bv4n/g6tb/4Ev04TvjpG+0pGSFv9cgRx3rmQL8p3IvUClncaSbXzfJ9p22KKuRX3dg3pmgHGxh2AGhMavyUNrQivW9adJleSnAdpjmSN800iaxWvq1izhg+bqfbDnUsx0ajHT8ySb95E96AdsS6vc3PClQkskhHv/ilm10/ez63XnxTiREl+tdwdv1s11jSN8277w7b/bFPNRwOP5aYLAQ9rmLyK3l4yFVXzU1vdBU07VC2xd3abTeleMLh4rjBCNwTDTx1+HQhcyTizaCXDPUyAdGS72yZYq7zi3b8J49Oz44t4vdH/1P/+fTZIudIfBslnItIoFvPdRjZUqFdJJsQIu5lpoR+rzq3SzdyqJuCX8Qh6T07Sjzpn8BuM56Y2mH2z5J/2nntG885SSfCO3uV1eKKEhHejFyQDutTBsF5iNfYV9TZGEgqIrejKhByboYNCO6nvczM6h7RzO0QPbxDb25g3EKjodA3hV92Y0+0vY/9raKHhK+tj7b/sVAk4Y3UToPMB3dlWvcdOaxRmw4VrdCxofihxfgLSxaY0jHlGlrOe8FphXaeWmumRmTT2SmDcJgeFdYCy+102c/yFsSa5oxG9z5zeIcHTb+hHBx+LX6nR194/tiZ/HMkbjH1SzfvfP1v/qz/Zdromtv1/Fd/Kb9UjU2iuIXUmXMr1m/qVFFihr2G74w50+9uSxlDh4f0gqc6Poi89F+CWd5NbnewIsF242JjEKDfvvn8+iK+tH3OsbR/frKW3J1zXnXggHuvrEiDyvam0E/ftOV7+qYizUIlHgFPlHiphZ4um1wfWmrJW1z/0s35qU/OT33y1ldPPtwtv8wxb0lkAIG6JWA3utZtE9GwGicgPhrb5aeaa83e9U1vlhSzaq6lNecwfdzXkwdz5XxH/64/W/3yk2NyKWeuvEC9IFAtBCBKqqUn4IcmMPnCm2bm11u91lnwCgIlEdhxmC0YicUas+Jckj0UAgEQKDMBiJIyA4W5mRNwFrz1wxEzNwsLIMB3QugdM6ACAiBQRQQgSqqoM+AKCIAACIAACDQyAYiSRu59tB0EQAAEQAAEqogAREkVdQZcAQEQAAEQAIFGJnDPwuaWifsf6Fvc39W9CH8gAAIgUIsEXty7L+mvFpsDn0GgYQncs3Bh8/33P9DXt7irqxt/IAACIFCLBPbte6l9cUf8b9++l2qxOfAZBBqWwD1NCxdO3H9/b19f08KF+AMBEACBWiTw0v79n+2I4n8v7d9fi82BzyDQsATuWdDUJEXJgqYm/IEACIBALRLYf+DA/I7Pxv/2HzhQi82BzyDQsATuiRYsmLj//p7e3mjBgmr/y/5wzdHr4xvCfrY9dXnj0evyb81TTwTasuE8pb7yw7bqb2kdeNjzwys7L5/sCXdWoHfqoMkzbsL6v/t/j1z5f0ZnbCcF79T5f/3lv9Lff9tbvV2zb+P1K58LvYWTyew/cGBe+3z5t/fh65/svP7JzvN72+fvP3AghQaSQAAEqo3APQsWLJiYmOjp6VlQ/f8ySpSkevri+NHra556IpBnw7ubjl7f9MoP2wNpFby09bl/uXn27w6Us8YtJ6dv3jyr/t7fUk7TJdp68Sc7r19bFeqFEg02RLHJ9//v0asfjRbU1he3X/2/R9//UUF545n2nvvVr371q/MvxFOq4sqiH14rcvwcOHBgfvv8+e3zH1/zz/+28/w+cTy/ff6BA2V9p1UFHTgBAvVMgGZKxicmamSm5MTq6V8nzZRoubd3fPrXq4MzJckfs3TZinx23Prcx5/++O8Olq2u/Rd+fPPTV/ab1h185eNTyyvaIlO1Onji1J/8+t827p1TH8qGt5KtWH/hP6QoKaDSvX969T+OXjhTQM4EFPvO/+uvfnVuX0Kq36cVz5Z97992/vOpgmfaDhw8KKZJNp/c+uurazabWZMDBw+WjmjOIcABEGg8AvQ9JXKmpAYejKaZkl+Ph3//3bj/4vjRX9PyTdX+2/rcv3x69u8OlMu/LX/36dl/Obm8XOZmbufJVf/8P3e++9LMDTWehcn3hSgpqOEvbr/6H0ff/1FBeYOZnnzzn371q3+afjyYWA0XX9r46//5Jz98sjBXDhw4MK9t3rw2EiXX1mwWx/Pmtc07cKBs77TCHEEuEACBGRGYG1HS860bm761N9rw3qbpG+LvykhGN4MustPMiTXTN5QQoeMrI5knRg7JUsKILqdf945P3/BFia0oWCRinsTKaruB14Ov3Lr1Y/V3YYvOsPz0tR//4tTyLaeO6dRX5H2RXdGlqLhKFcWprC517PRWbTJSNiNbo0nd8v6tH9+ytZsi9uDAhaDNKBJmA9Vtfe4Xt46d3sqc8exbN+JVP/HXf3Lj41VBUXhm96070/pv90Hj4d7t1+4cOrU3OnhTp97ebtseTV6wpWQGymz+7Tt//fr16+++aC4UcLBy8INz6y6rvxWvr9RF6PqK11e2vn5Sp77aLdP2vLru8rnsHp2RXrdlL1NmfqmUY9tq0cxrF0eNFSfp5qS8vvXiIc1Q46KCHk+T5LAylqMoEtzO7+OXosePXb5+/frlY0UpFeKgcTFEjz2/4vLJwccY6rPbZGUC78nBx1jVlJmVlSmLTny888bfmjsDyx4/PHjwoBQlp7be+JiJkoMH7TiLl8IVEACBaiMwd6KE5Mh7PYIHaRR9LPRBiighOcI0ij62XEOiRKUKNfMtFs/E9banrlibUdT21HtWIVmz/pFQGEZPiPitIreO5eo0Jhoo5P/4/cCtknL+4pSe86DAb5SHtqkVDOmMa89JHaS1jsnMXZUFmZ8XVKkoSq5OeHjLOCkkiHE4ueGi3sRAsnf7NR1Wo2j01O3pW0Z5kCgRQVRlIBWiY7NQJLqgiMd+lC1elHSfZRHRURs6gqrwKcKtOhZJOqxSU6mgliwceTHHLgchv3TDo60XD104o40JRCaJroorNoPOGEWTFwzYSOo8pleiKHr8+CVScUHxUbwoWTn4gYXgqA2hM6ySczj7eo4KfvB8q22EPEoRuH5WiBKfCM5BoDYJOKJk0aJFmWxmeHg42JaBwYHskmxbW5uXKksNDQ951+XpwECglKNCoiji0yF5ZkocFaJmXJyKixQlomp/ZoUZbG1tzY3ncuO5jo4OdpkiuonTdJ0it4z9XKBQChcQdJ4gSijYa50hKiI7WqMImyzVVQbKppzz0EXIhsgWFCsiiRmUsyaqrO8hly8pDRdeZ967ufO9/eIw7T8hL3Sw9COuCNVSiHih1ztNqyGKoq7urqXLlmaXZJubm5Oz8gDpK4/us+dMsHQibuTnTLavUuTbpLevl+WkqSOusbgaY9nokDGRKQWi8KuQoqTIuRDly+LFizPZTGdnp+ebPeUTHvyYcnDOEYG1ks5JstaiaP/GGzf/5IS3grNgwYKRkZHhEec2pUTJwA8/3nnl1AAt3Mg/zJRwnjgGgeon4IiSoeGh3HhuWW5Z3O+mhU0yNi/uX+ylppVqUqX6+/t5KRITh04wdcOURDGihCY5HDv0CTKwfKPqDs2UeNVxL8Vxe3u7bHj3IjWRT5f1XIJe+5DrIzL8lyhK2CKLWW0xiyO+zZib6oIyoldbfD3EiqVVlyJK0hpO1p9cdSVRlDiLEXzFIS2+xmdKtJRhjUk47B/ol33X1NTkZNEf4s2ig16F8aUGFyVOWCULbLrFsR4+GR0dzY3nskuyNpmUGZvVoEkOO0UUyVNnpUbPGJGJZGix9R2ue2YiSpYuW5obz3lqQMwY2eUbOzWSKkoinpo85xQUJZ2dnepzQqf9nHDwpZ99vPPGza0/fFzLEYgSO9JwBAK1Q8ARJT09PZlsJi47oihauHDh4v7FQ8NDXV1dXutSSjU3N6tS3U6poChRizKeSuCTKPxYOBGzU35R0tHZMTQ8NDw87DTcD9sciS8gfGWQUNbPxk3KzR9aajgpsRM+O5JiMyUpNpfDZkoSnLdeJM2UCEVio2N8piS0EqFnCOTiDv1vLdgqE48WLVo0PDw8MDDgTO9JRWIXYvjH9HRRIj7fi1UGmjWxFhId4Am9vb2ZbMaZKUkVJUKNWclS6EyJVCQWZjlnSvoW92WymUU9i2y7xKKMlnSRIzW47KACnHMUsamm7rOJW3NIlGz011vb29sHBwcHBgfa2u3nGjZTcuMnOcyU2C7CEQjUFgFHlFTMdV9MkNrQ+0iKECWhmY9iZ0piQqcwCCxO+wVKFCX+ioxj1rfpJLonXJSk2ExJShMl3k4Ut2o6S9hT4sfUQkUJxdTCp0bi7gSuUBzlkxw8WOYRJSLoys2b3EKgkoIuORD05IfaOOJPhPgAk2ZKSPxZKRNFcVFSkGsFZhJLWnZPSTGixGzK2Za16zhetdhT4gHBKQjUP4FqECW04EIP48h/XCWIY7sLlSfRjtQrznM6qnyRyzdRRArJSKLiNrq620qUA76AiM1JkKAJPS8jrjv7PJRF9ZhMcKZk63O/cK57xj2by0+7G13dXSy6On86hIyYrSpCzQQbLotTIIl/uhU7LnWwlJ/mrdrwA7D2Iyoopha70dX5BE+KZJ19iCafKJGf7y/bjSbM1SjafOTnV69evfq284yOk8M7EQ3nKuSWXb7hSzlCkdyZvsWXb+RDSc4Vsu4IHVIksemlF+lppUvHgw/YFL3RlSs8OQVlHqJxOMdnStQVWkFLmnNKELgeRHmKja5BLLgIAjVHYO5EiXoYmJ6m8faZysdhxKPC7/WImQ/93SRCvtiC6uEdCV1oC/2osMqjMjCDJoOemBGFeQbPmZQeleHZbitR4iCvKPG2pJhHY2hnKukV+2f2qPo2Ha/4A7pMPeg8oqyyaQzKxITqUkWJ3j/L/HRUkdxWcuWv2Ry/rEysR8iFmNvbt/IpkBRRop4fMQ+40oHzEIp6tLWoR4LF53u1DSK7h4SIXoDIK0rk5/vYw6uK9Z63SZRc/fkPHtXw874q3SCf6SXxYVtnk+giTYF4EkRw05tOzHySVjCEevdByuOseT15nJ76LZcoieSWVQnz5OBjJPLUg9P5RUnk7h32WQU3lPiZ9DlEiSaBVxCobQJzJ0r8Daq1zRHeMwIJkyUsR6GHzud+UUhccaJsobbKlC95V2YURY/+gOZK3p4qU131boZESeBJYNFs2pwUkLZJSCBKksjgOgjUFgGIktrqrxrxVky8BxZxinVfbI81cwBUOn6lWJszye9/+vdsiZmSfzhS+DyJV76xTvnSj9dyMX4SvoLPy6pOtSiZ99LDN27ufPcl/QwOHgkO88JVEKhWAhAl1dozte4XxZUiPukmNZcvRohFHL0xJanA7Fw3Kz7ul7rayva8I1Zu3il4P4kt2nBH4ktKzrnbjR0I+zcmfSmwk42fGFEyr23zqa03bu5U0gSihFPCMQhUP4G5ESXVzwUeggAI1BABJkrs88Dz2uZBlNRQJ8JVEIiiCKIEwwAEQKDmCUCU1HwXogEgIAhYUdKBfyAAAiBQmwQOHjzY0tsS/zt48GBtNgheg0CDEoAoadCOR7NBoJ4IHEz+V0/NRFtAoO4JKFHifA/3LE8i7dy5s6+vb5YrgXkQAAEQAAEQAIEaIwBRUmMdBndBAARAAARAoF4JQJTUa8+iXSAAAiAAAiBQYwQgSmqsw+AuCIAACIAACNQrgcYQJfTLw/pXb8wv/9VrlxbYLvfXDQssVI5s/AeMnF8gKofxqrUhflXH/C5MtbqpviPO+4U8+upV9VNBiT+eV60tKodf38n+1cfr/uqjwdFyGIMNEACBVAKNIUoUgidGDrGfI07lYhLpd/7q8md65kaUlNIFpi9q+aBaRAl9m2rSz81E8hfykn621/+1whl2R+uWj9ZRsBd/z35nhtZKKv7Y4Esfr3vpaKtXeN07rgQpoygRpliNEsKKLY95LhR+6mA0PP/q45nYLLx25ASBshOAKMmDFKIkD6CikkkJNc7sSFFoKpQ5XZSkOlFOUdL97Mfr/uqdblPfunfmJIiKiO5PgZBvTDcYH8tx4OkboYrKJSBGj67AdE45Ogk25pYAREke/hAleQAVlUzraBAlRSErc+bqECUUm+dEhfg0KZB7nsymb1TdO4NbPlJtHz264tnvdD/rOeD7WOg5REmhpJCvqglAlERRJNYU1KYTEzL51ge9H2X6xpqnnsjbn5MX7kxfOCN/zzbwG3Lid27F9TvTt25OKnNndt+6s/sg/T9NBxEZuXXn0Km9pjp5RRZ0fjhX5Hj82OXr169fPva4yZ/nwF2+Ie017SxUqSsCy/gGZaztqSu+qnDtRHz7TnzZqyRRYn4MT+xsODnoTnXrX3eL/8CbWjHxS9Ev/Z4cfIylznQLRWAKQXj1qpgJYBVRvbFuCe3YoCbHF1kop7QZM2IueD+9a3/WeFvW7AthByteXymLcsjmorEqDgLNFNddyx5M1+juCxQAACAASURBVIQ+ExMGqUs2YipFLu54MxlqdkGs+7AkFZJZqmefFmXiq0WxFRxn7UZObMhSbF5HN4M5+XF2nbpKF72qo4imZF462ipESffo0RViJqb7WSrl5KcM2kl1IOslP0nK2Fawtsuak0SJLeLOTkVRlFidtPjokX+4evXqz49s1g3GKwjMPgGIEhIfVmrEomYJMyVKPVy7KDbG7d1+7c60Oo6irRcPXTiju5UnSTlCP4E7eeHOoWu3D53aK34gV6oWkdMU3HrxkBAu2g69zkSUCP1h1JhWaWZHsCM7XFxRRDJFiw9Xskip914PeRdWeJtMFbwl3rEXZZ1UGe9NnF45ePZ5vT+AIqUNrtyIiNPrzJ5TSjpnfvtXxGZm8IOkDRaOH6IUFxxu7TIv90GXTqrOva5y08W4UtGm1KtXixUlKj3fTEnIc1U0KEqCFz2fAqd6J0QsslJeKSyMCHhs8Fmz7cOdxuACQsdXJQ5EJDZCQVTHDL5kdYO3gkMSIbZ24xaXzRFOGvEhapfVBS0o5UHZ3ummBn40OPqdrFjAsqJEGDETSHTdrnBJJvZKoBYqHuMpJmN0BwgjpnVp1ckSECWaHF4rSMARJT29PZlsZnH/4rgDCxcuXNy/eGh4qKury0tNL9Xf3++VMt/o2tnZOTQ01D/Q39zSzG0uXLgwXspkSColM/T19WWymd7eXpOfHQR2WfKYKnJSHqtRoihdlKi2L3aIkSgxKiSKmLZgvohDliREiZAdQtOQFrGpNLli5lSoJOUxGsW36p9bYs2Ms5IaXDrogqTMpJhQVwiCFhBCwZhUrlH4sSjoqBlxJab5dJVRR2fHsPjX2dlpLkZq66VRCTxF7srkUsCmxuI3xU6lUfw4zcMwHRuBQuYoxodrt5XRETciS8Uc8+SCLhWuztZrXSI9kXcewqvFb2xUblHiNtyFkudMBEU5e2EiMfU4bYCNBVdhi5JMTKUrFGXtUshf2emKKOLyhY6NQKFyJFm0RnFiMy9l3Q+IEm5BZDTawjppVYL2U5dq3fLRimffWSE0jSkovGINp8zm1NUTipJugvTUVmc9946chjj2JRNTnVcOpyBQOQKOKBkeHs6N55YuWxqvf+HChbnxXG48t9gNwFEUFVvKiJK+vj5ps5kHyyhKqSuKoqRS0uclS5fkxnMjoyPxJqhlGh1cZQYRYu3qjHpymOVJFyVDw0NxYumiRGgOWprRf1JtkCiRizWmuBEl4sDk1wdM94Qaa6/19vUGOAvFINrL50iolJjwiDHR0yERlxpcvtB1z5Sv8MTijpdH+dnR2SGd9ESJjPf+EowolBJfKYktUqhjGdH9OM3CqkiKFYzJC4vWHnFn6DiuHjy5QCH1+RVxJ+USDyWJeqmUstZ9VusqW23syKvFb2zZRYl+YEc7GXMo/wUxJWCnLgJzANqGyuktcMjpCqEtmPJg8kIk2bUbVdwEYBbvvTit63ViubgornjrLHqKhSmPdWrDClVBvukkqZn8mRXhp9FnLgfhpJmY0Y45rwmiJAZNS5m06hzDOAGBShJwRMminkWZbGZoeCjowcDgQDabbW3VE+Q6kyo1lFgqk83wUkaUNDc3j2XGBocGtSX7OjA44JUyaSmloiha3L84k8309IpFA1NGHQRmStI1R5RvpkS23WuCURWyWqMt1AzHLVqjiSXlFSXOTIkqX9hLS0tLJpvxnNTaIjBTIkSJmQuJ12Ex9nyLzSrNTJS0t7dLUdLe3h6vMorkSg1JDTO1wHWAVyQlSUoBY8SZ5IiFcM9s2qmREWLWhNnXhTy5oEVJICeVUBMkra+fzO7ZlqXZGjbZo00GXr1aYi1KI6PrtcteTgWpKzVSPF1Oe97YMeaeiBivVIIbjJ18KUlye0SKKGFJjk09N0OhOsl+gijR0d2zp8VB97MfDa6T20f0VI0VJbYMGVfTP5SNiSduv0RRIhSJkV9yFsqYTanOuocjEKgwAUeUVKZuI0oqUx2rxUZTczFfAM6zfGPs8INkUeJuDeELNFGaKBF7Zq2U4XWVfmwnPMSGDzMREkUp8xmqOjVBsnfcWeWZ0fJNYQ1x4mJw44W0k5KUJkq8VZjCfNK5tGjY82p454cnF6gYm6TRVvQrWcvuWTn4AS0edZ89J6SJFWQ6W+zVq6ViokQ64tUe8y7pAhclcQVgSqUkpYkSZynHGGMHYs4gu45NrrBErlrs5YQ5FZHhO1ladvlOlqSG2D6yTu32YPrDWjIXzYFNs0eliRK/FAeYWp2tGEcgUGECjS5K1B5MHpLdHhCqJbzi4Ga0Z8miROwF0csuelEm//JNFAk1424rsfWJo5lsdJWzJma/qn4cKWWyROiYabvRRDoj1sIMKyEBPbDJe0q85iScelGcTpkC8De6siRmz4/Tjk2hZgqI/cyeOZQbWQaTFllCATulOlqs+eCkWgYioXNSLeiY+oIHvHXimM8t6T06KQtSDg23BkcRuknqLKQF97x9lf69PcVKOLsvI7mWwZ5YEZ/g7d4Rf6OrnldgBvWDJGw6xFEYIhi720qc0iJ40yyFnVTg6TyW6+uyiJl10JfplZJWvKSe+xWx/yOxv1U/g8PzmgdzgttEbE5fXtgUc6RnaMyFyJ37kRDMZppQo3jRKIrkRle377wsOAWBchNoCFES2iRhYmf82RCeRLz5vhO+BzapL1JESSRmRNRukmsXR+0O1tSZEqpJ6hK9oaSsT9+QeZILN9j+VrmsY3eWmKeCZauTtJqDmm3NUayKFyW03MA2XsRWFkSkVBm8WCskiy2rU3nYJrf8MCyFgq00vjtENSb+Imv0NsZ6bojmMJtJ1bl6JWg57gBdYQZf7dbLQDwrR2p48ou67aohzKDpCwemzn8usCl485Gfx0WJ2mpqlyrMRgrtp1EJcaHgLTpoGaFmO7SB2OyIDsm6Und/hkq1SkjYETbZegqVZa5yJynJSCJn0UQaEZapFq8KR4v4BpnNEkWJEnxyVeilo63O+lFKdQrjnndE572zx2DFAQjMNoGGECWzDbEB7ZP48GZBGpACmgwC5SMQ39EixE1wMqYMtRZUndSUECVl4A0ThRKAKCmUFPJZAsVPeNiyOGpsAh3DE97cA07FiBDzFs48ir1SXkR5qzMjVMyU4MvTDA8cVIIAREklKNdNHXoly1/hqpsGJjQktASjF4YSHp9JsDTjy6F1Fr2qwlaFZlwPDFSegLcyZR+Tnh1X0qp79Adq2Q0rN7MDH1YTCUCUJKJBAgiAAAiAAAiAQCUJQJRUkjbqAgEQAAEQAAEQSCQAUZKIBgkgAAIgAAIgAAKVJABRUknaqAsEQAAEQAAEQCCRAImSsZUb2gbHm3qzlfn70lNfX5RZWZm6UAsIgAAIgAAIgECtEIAoqZAUq5UBAT9BAARAAARAYK4IQJRAlIAACIAACIAACFQFAYiSquiGudKkqBcEQAAEQAAEqodAI4mSDT+6tP/DS99+45Hw7pm9p/d/SBno7/3vTxQjVr78m3uP/yYKmy3GzuxZeOR98dM24rdsvnu2Y/YqqgXLm//06Y9f2/XRn65oWv7wR6/t+vilhzfPntuiinc2lnkYTP3Fro9f20VmN279+LVdH//FOntPWXn1vpmMRip+997jd+975nvW5uzxgWUQAAEQYAQgSmS02PH9b3946em9pdyFxU183pfdqLPy7JrpGxOPuBcZ91IqKrl4VTlTcivKWFAEciEU1r1Tm6JE6Kqnp5dnla7ioqQ3G03dLVUlvzcPcqSMIw2mQAAEiiTQSKIkBc3EGx8UOzuirCXcxKtJB3R87dqmhp8dcVSgJ0rciO7kTBkzBSbNzkyJJ0po1sfx53vzX7t779R77sUCJHL1z/k5zSygRcgPAiBQUwQgSsR9jVZ2ilyyEd1MH0lfu7og3uXVJEp699yAKHHCsxUlK6Zfctc+4l05wyuzLUp6abInJkqyTcEJvLxtgSjJiwgZQAAEZpNAY4gSuZtE7hcJrtGUKEpomsRbuKFpiWmxdcP5//1e6sXDE9M3Nu05zAOkVQy07eP9XplHlF3zta/7ObVNb2HIqdS139SbtVUUMZL+8iv/cmf6lvo79NZfGk8yb/2f6X+5kul99/mkVH1dFf/7d03Zqj8gjfLRn66Qm05or8ZrW6c0NNrGwXafiDwylWTBOxvFSpDY5yE3fCihQKLk6enlQv2QwZgGkptC4kl0fetUb3JB7VgS1UTFnFIQoiQFDpJAAARmn4AjSjpH7u8aub9zZCJ4m1s0tqIns6JtMOelFlvKfHla60CuJ7Ni0Zg380xTF0l1NfVmU0o19WY7h6kJXaMPeE6K0/jGEb651exy9TeXdI8u7x5bHjBId/B/n78yNIecMFMi1IMUKLIUyRSlMPReVH6qxcfXR7/L1IxrnDQHqRlrUM2LaIOeSNI2ldtBYhv+/v985Wu6Xd/9X9O37jz/XXVKokTIDnWFUlVmkWQKCtXiKpJgXQGwZRr3naNiPA/fX3AVWgGoBR2hM/TiTroo+ZiUR3bqL3Z99NLTWtYIySJmStSm1F61BcTse2XKJtsk9YeuTu1gNbMgJcy4JCiM7rGE8dybbUooUjBAPWbK1IOoFwRAoNEIOKJkcHzNxNqNE2s3xiks7FuyZNXkxNqN/bnPeamDEwWUWmZLGVHSu2TlxNqNS1c/1NK/jNu0dbFSJkPfkgeDpWQG6f/wxOdNfnYQFyX6Hpo8U7JobIW02ZPxxdOCZ/49vHbTm21ydYP1QVw3UyCORhEagikGJkTUJIr2Vk5+yBmReEWU+dook0rpMyWydUMTa6yTfkQheWEmS1zlkW362pVDWrJs+Ps7YhJF+emdNvVmw3W9/LfX4//+x5knyI3vno8nXb/ywx3Zpt4//+H/CKSdf9lSGkoezwmNFaLEyIJeEhlmdoQfN/VmmZ6w2kXMkZAWsakxMUF5mOgxAoVcUrMjogl2jUm2iGoJLNP4nWWbH1zBWZRR43lRbDw3yR2yqTtRHvzK1NTUNx8e17Wsf3pqamr7en06vuUbU1PfeMy+2RM46/wpziMJBECgIQlAlIj7Y0miJG16PK4V9PBiEoFkhxEoTcliwlmd0Ss4bDrETJPIez2bfRGVshoDwSAsFITUMMs3074o+V8bdHN41HH1iiNlZLZwXSFT3GzJx5UUJVIuGOGSIkooSS4D6UkUsU4kVnZoEUc8U6MEij4uDVFoW0mSKBEP7PhrkXHyECVxJrgCAiBQRgKOKCl2IUb6UWwpM1OSshBTqeUbHaSTRUlTbzZp+aaUmZLerBUfJFyYngiKEjEd4kyoePEpNokid66wGZc8e0oCSypSkdiVF0deCOURFiVNYqHHShlrQXEO1OU1p6ynJS7flDRTUrgoMcJFPs3rzJTw5tNMycxFSWB5MWX5Jk1nc99wDAIgAAKzQ8ARJWUUOymmjChJyTM7SaUs36R5UvyeEmFNTZB0fO2anSbhYkX1NJtHiekV61V8SiaWOX2mxJoyI4xtExGpBYoS2htrVnkCZo1972DWlm+K8EG5VPryTcGihFeRuiIzc1FSwgaREop4vYlTEAABEJgBAYgS8SE+daYkObYlfEkJ9UfgQRtjRy/HODs/7AyK6E5SEnYeRewvsad6godyekmBeosWJWybSJN+ysaojeSZEvHATmx2xLS6Fg64YiDIdlaDbxNRx+bZHKstTP6k5Rtx3c5/iFPxxazx9/CMRUkp0x4QJfGOwBUQAIEKEmgIUfLIk+/r7483j9i430pSoihJ/epMMYehn3xhyzTUuwHpIEQJe5bY/7ozKT5sBn+BRu81cWZfxEgqWpT0ZoXyUM8DP/9dZwokWZSoTa92+YYe0klY6KngEC9GDKWJEvV0jHl2l0SDfSQ4caZEfI8I2zUii1hZKXWJzWAWj2YoSkIbSvKjgCip0pFpB0z+TkQTQKCWCTSEKJnNt3HKZEnKfcTfi0oexpZdZtPtFN9KTnJWeYTzdGW6tudOSqYxtwXxja5zyx+1gwAIlEgAoqREcFYx0IfLon69TMx5xL7irOZFiVj0Mas8xCd+pZb1u+3xqm+FeJSmpF+IFPMr+Cm+GupruAoCdUYAomTGoqTwr5wyCzpxRVIPMyVZ/+kb/f0ldfaeqfbmkLAoSZFIsSVEdpE6uxxvoqqXetXe7wAIAnVBAKIE91MQAAEQAAEQAIGqIABRUhXdgA9hIAACIAACIAACECUQJSAAAiAAAiAAAlVBgETJxMREW1tbVKl/O3fu7Ovrq1RtqAcEQAAEQAAEQKA2CECU1EY/wUsQAAEQAAEQqHsCECV138VoIAiAAAiAAAjUBgGIktroJ3gJAiAAAiAAAnVPoDFESebSZ47fvff43c9s31f3PYoGggAIgAAIgECNEmgMUSI7R0iT+x6q0Z6C2yAAAiAAAiBQ5wQaSZRE0fzdd+/d/VaddymaBwIgAAIgAAK1SQCipDb7DV6DAAiAAAiAQN0RgCipuy5Fg0AABEAABECgNglAlNRmv8FrEAABEAABEKg7Ao4o6enpyWQzAwMDwWYODQ2NZcYWLlzopfb29Waymd7eXu+6PB0aHhoZHVnQtMCkmm907erqymQzfYv9b3dtamoaGR0ZGh4yRfhBb6+ori9QXVtbW248lxvPtXe08yL2+KFP7z3++3kZewFHIAACIAACIAACVULAESXDI8O58dzSZUvjzrW0tMh439Pb46WOZcZy47mxzJh3PYqijo4OWaqrq8ukGlGiqlvqV9fV1ZWiLYqtztSrD966jx4P/nS+PscrCIAACIAACIBANRBwRImchIhPXURR1NLS0j/QPzQ01NnZ6fnd19dHMyWhqYvWttaBwYHBocH2djt1YUSJnJiJ/w5Oe3v74NDgwOBAa1urV1cURbK6eKkoijo7O4eGh4aHh+NOSjuf3f57yJE4UlwBARAAARAAgWog4IiSyjhkREllquO14JFgTgPHIAACIAACIFBVBCBKqqo74AwIgAAIgAAINC4BiJLG7Xu0HARAAARAAASqigBESVV1B5wBARAAARAAgcYl0FCihJ67wW/yNe5gR8tBAARAAASqm0BjiBL9K8H44ZvqHo3wDgRAAARAoKEJNIYoaeguRuNBAARAAARAoDYIQJTURj/BSxAAARAAARCoewIQJXXfxWggCIAACIAACNQGAYiS2ugneAkCIAACIAACdU+ARMnYyg1tg+NNvdnK/H3pqa8vyqysTF2oBQRAAARAAARAoFYIQJRUSIrVyoCAnyAAAiAAAiAwVwQgSiBKQAAEQAAEQAAEqoIARElVdMNcaVLUCwIgAAIgAALVQwCiZO/p/R9eUn8/+nalNtY0rbx63/G79x6/e98z36ue0QBPQAAEQAAEQGAOCUCUqJmSR558/9L+iomS9+ZBjlRM/6EiEAABEACBGiEAUTIXouTLv7n3+G+iGhkicyiZUTUIgAAIgEBDEYAogSjBrhoQAAEQAAEQqAoCDSNKJt74wOwd+fYbj8RmKRKWb3Z8/9tmx8mHl9yC337aJp3eUEx3YqYkxr+hPgqgsSAAAiAAAkECjSFKNvzo0v73vz+hdAOJCVdeNPVmg6IkmFNwFGLl6b2KqVA8RegSiBKIEhAAARAAARCIEXBESd/SB5esmhzIrY7rl5b+ZYPja0YeWLtobIWXmlZqIFDKfKNr99jykfvXDk6saR3IcZstoVImQ1IpmaE/97klqyYXL11l8jf1koD44Mkd9gppCKtR5PWQKHGVB2dHKsfZFUvyxWiU3mzX2AMjD3xh5IEvdI8tt/VqC9HU3Xun3otfN1ce/MrU1NQ3Hx7Xsy/rn56amtq+Xp+Ob/nG1NQ3HvucyY8DEAABEAABEKgDAo4oGVn+hYm1G3Nr/jjesObFSyfWbpxYuzEuWdJK9atS/TkbQY0oWbx0lbTpiZLmUCnjUlIpmWHp5x6aWLtxbMU6k7+plz/0m7jgEhIl2SYSH6KIO7MiMltT8Txdow/IpnWPOqKE5Mjxu/O+rOWFlinMW0qCKPGA4BQEQAAEQKARCDiipHfJyiWrJkfuXxts+dDEmuyqyfYh/1dyZKnh+z+fVGqJW8qIktaB3JIHJ4MFhybWeKWM8dbBxFJNvdnBcSrYt/RBk1+KEmemJCQFwqJE5rT7UdTsSFpmUaRjeEKKks7h+5knSouQNHnt6oKQG/HMuAICIAACIAACDULAESWVabMRJZWpTi7f8LWVYL15dUYT3zjiblIJGky7iD0lEGQgAAIgAAIgECPQCKJErcKkT5bkFyWOEJFP5TjbStJUiMcdosQDglMQAAEQAAEQ6M02hijpZbtDvD0idmnG7hHR8sXbjOLtjZW6xJbC0zdFyDK890AABEAABEAgRqBhREms5XMZQTFTUlXdAWdAAARAAASqgwBESZ4HYWZFu4hf48NP8c0K2+p4X6FpIAACIAACJRCAKJkLUdKbbaLJEvxK8BzBh3ABARAAARCoSgIQJYiLIAACIAACIAACVUEAoqQquqGEOS4UAQEQAAEQAIE6IwBRAlECAiAAAiAAAiBQFQQgSqqiG+pM6qI5IAACIAACIFACARIlExMTbW1tUaX+7dy5s6+vr1K1oR4QAAEQAAEQAIHaIABRUhv9BC9BAARAAARAoO4JQJTUfRejgSAAAiAAAiBQGwQgSmqjn+AlCIAACIAACNQ9gcYQJZlLnxHfVPaZ7fvqvkfRQBAAARAAARCoUQKNIUpk5whpct9DNdpTcBsEQAAEQAAE6pxAI4mSKJq/++69u9+q8y5F80AABEAABECgNglAlNRmv8FrEAABEAABEKg7AhAlddelaBAIgAAIgAAI1CYBiJLa7Dd4DQIgAAIgAAJ1R8ARJT09PZlsZmBgINjMoaGhsczYwoULvdTevt5MNtPb2+tdl6dDw0MjoyMLmhaYVPONrl1dXZlspm+x/+2uTU1NI6MjQ8NDpgg/6O0V1fUFqmtra8uN53LjufaOdl7EHj/06b3Hfz8vYy/gCARAAARAAARAoEoIOKJkeGQ4N55bumxp3LmWlhYZ73t6e7zUscxYbjw3lhnzrkdR1NHRIUt1dXWZVCNKVHVL/eq6urpStEWx1Zl69cFb99HjwZ/O1+d4BQEQAAEQAAEQqAYCjiiRkxDxqYsoilpaWvoH+oeGhjo7Oz2/+/r6aKYkNHXR2tY6MDgwODTY3m6nLowokRMz8d/BaW9vHxwaHBgcaG1r9eqKokhWFy8VRVFnZ+fQ8NDw8HDcSWnns9t/DzkSR4orIAACIAACIFANBBxRUhmHjCipTHW8FjwSzGngGARAAARAAASqigBESVV1B5wBARAAARAAgcYlAFHSuH2PloMACIAACIBAVRGAKKmq7oAzIAACIAACINC4BBpKlNBzN/hNvsYd7Gg5CIAACIBAdRNoDFGifyUYP3xT3aMR3oEACIAACDQ0gcYQJQ3dxWg8CIAACIAACNQGAYiS2ugneAkCIAACIAACdU8AoqTuuxgNBAEQAAEQAIHaIABRUhv9BC9BAARAAARAoO4JQJTUfRejgSAAAiAAAiBQGwQgSmqjn+AlCIAACIAACNQ9AYiSuu9iNBAEQAAEQAAEaoMARElt9BO8BAEQAAEQAIG6JwBRUvddjAaCAAiAAAiAQG0QgCipjX6ClyAAAiAAAiBQ9wQgSuq+i9FAEAABEAABEKgNAhAltdFP8BIEQAAEQAAE6p4AREnddzEaCAIgAAIgAAK1QQCipDb6CV6CAAiAAAiAQN0TgCip+y5GA0EABEAABECgNghAlNRGP8FLEAABEAABEKh7AhAldd/FaCAIgAAIgAAI1AYBiJLa6Cd4CQIgAAIgAAJ1TwCipO67GA0EARAAARAAgdogAFFSG/0EL0EABEAABECg7glAlNR9F6OBIAACIAACIFAbBCBKaqOf4CUIgAAIgAAI1D0BiJK672I0EARAAARAAARqgwBESW30E7wEARAAARAAgbonAFFS912MBoIACIAACIBAbRCAKKmNfoKXIAACIAACIFD3BCBK6r6L0UAQAAEQAAEQqA0CECW10U/wEgRAAARAAATqngBESd13MRoIAiAAAiAAArVBAKKkNvoJXoIACIAACIBA3ROAKKn7LkYDQQAEQAAEQKA2CDSGKNnw3qbpG+rvW3vnsmf2vLru8jn1d3bbXHrS6HWvHPyAOiK7p7pByAHzwfOtjpvbsmYUXX6120lqhJMzu2/dmb51e/vWGm3sW/cdv3uv+vt0/hw2InPpM8aTw5c+O4eeoGoQ0AQaQ5So1j4xcujGpiJFSc+3bmw6dKJN8yr8tfusFh+Xz614faVbUEREiBIXSmXPqkaUkOw4OfhYQuvDokRlbn395Lq6EiV7t1+7M33t4qgH4+BNV4KUUZQIU6zG0VO3p2/dOXRqVj+6kCi57yGvkXN5+tntv78XomQuewB1WwIQJZZF8KgkUSI+yLJPt62vn3Q/kUOUBGE35MV0UZKKpO5ESSQ0gT8FMnkhpFRSyRSc6OkboYogSgrGh4wgUHYCECV5kJYgSsQcSfqkOkRJHuwNlAxRwjt768VDviYg3TBbUxdU3c3tp24r+1svHrpwZvLCrFWnWoqZEt7lOAYBhwBESRRFYllHbTq5MpKRgPaOm20o7GDNU084/AInNE0SW6/x8iWJEr5XgG93cK7LLSlm6oWvE1Vmt4r4gG4Wp/ylB+aPl6RWTISTLOmx51fQ+gVL9Ra25BKG3EXhJXlc1WkAL1OKrKLgukmoOmoym/pS9VDOdPUZRdQ6vyvl8GCgDMxztpaQG15zE2ZK3NFSEDEyLFcupmm7RmDHBk1XhJPU7IJfiuL97e1bWeqFM47/tCijbdqk2AqOs3YjJzZkqZuTjjk6YU7e2X1QJdNFa19dpMZeuzgqRMnk1ouHxArO5AUq5eQXIsn6aojffQAAIABJREFUSQ7LeslPkjK2Fc4ETyrMBFFCpm5ORraNrhRjJJlKkw2ZFKtOukXGSdFY3gS2UKVAiJeE5ZtHj/zD1atXf35kM8+LYxCYXQKOKOkQ/9o72oN1dnV1dXd3t7S0eKmyVEdHh3ddnsZL7dy5s6+vL4qi5ubm7u7urq6ueMHOrk6qq9Wvy5bqDpSKoqitvU36E7epxIe/p4TEh5UatCXW6BKykT5T0t7R3t3d7bTdD0IhR6JA1Izooo1wIt6wyG3NUNkk0ROOnVFEnBOIWcOxo27xz79MwTLoWCSacI7F6ZWDZ80OTVercSOCmN1zKoKxkVxu3A1y8x2MoihGz61dluA+aBtJ1bnXVW66GFcq2pR69cdDzJOQG8xGWpNDXqXlZ2Zjh07s91JlODQiYO/2C2bbhzuNwY3oWKjEgQjeRiiImM0MXrO6QSTZAE8SIRZK3eLSW+GkER+idlld0IJSHpTt5mS0d/u129u3ntktBIcVJcKIUQZ0XSmSKKIijjZyauEcPJZ0miJKrByMcbBMpBKSrRPZBD3y9vaha0rWKLddTxwnmWMQJQwGDueYgCNK+gf6c+O53Hgu7tSCBQsy2UxuPNe3mPQE/9ffn1oqQ6UWL15sihhR0r2oOzeeW7psaXNzs0mVB2OZsdx4rr+/37seRVFXd1duPLdk6ZLmFr9UFEXLcsty47mh4aF4waAoaXvqiruPlWZNrEbJJ0r6+voksbY2vRfWD0IhR8KixM2ZYCctEFKRgFzo6OiQTra3W7n5+LHL1+P/3n3RONHe3q5KuSI1FAhVIZEUcECpBCd+M2nlt5SHbTo2AoWqoRBupZvxNnbAjchSMccCaiC5OluvzUNTHXnnIdJaJ7wOuMFbkyYyQn3hNpxbSj0OhXlVwIuO3AwlOYqBQrUKh0wWiCJcvtCxESiUSrFTaxRHCvBStuaAt9yCyGi0hXVShG3xzI72U5caPXX70IWbh4SmMQWFV54UMKdClLC2c5f4sXXaHqWIEmM/inyAtnwkZlMkZ1GXKGW5GWi6maaoJWAu0UGCKHHy4AQEKkOg0UUJTYSw1Zn4Y8PpMyVlFiUUn9hMvhePI7kWEAuuaqSwMO+OnaAocbMEzpJESRRR2POXYIQBCtKO8rBmw0sVMqKnhG2R5DFJnqex1UVRxJ0Jq4e4GkipjpIEedlHwvPus4lTVtaVlNbJTHE3bGE9+ZQgfUKiRM4SiQ5KKOWYtycUyfwlGJGa9PHaWy6xaxxyusKPqSZSqnBr8/v1snjvftA3zsajvriiF4PMqpAUDUx56CdrqApSRTpJhnl/ZsWGearZ5SCcNBMzxjN1kAhTpJckSoQzHBoTJULPWeAGtXHDIePIQeEQRInfgTifOwKOKGnA5Zt0zVHK8o2I2UnLK7qjQx9/RbSzBf1gpuKTzaBtyVeKTwmCgCJ0GZdvVL2iCUKdmJkMrgNc7xyJ4CWl7LqIJflF086NjBA9Ypy0ReJqIMDcZFcTJOJBqm1Zmq1JVIGmDB34NmMzGXE3nPKhoaIzBEWJShTDifRc8qjQZviriLUiqJvQ5QZjntmL005S7IO+iZTpcwBkxGiOpKpNBlNl/IpJEp7QXMLkhdvbD8rtI+SMK0psdjKlpkC8oK7ncihvuiiR1gIwRULxokQqEquBLEzb8ARRoiaubPsCRxAlASi4NEcEHFFSGR/M8k1lqmO1BL6nhJZvpt/rYZm8w7yqxcuvPqPnWWIIRBo/wPjBTMT1pM++FIEKWdSwzuZdvrFZ046chvhNYAVTklLDdiyEM5v5DrVo2PNqODAH1EBKdWQtu0ft++k+ey67R8mUPG74/RirIuAGN+kQ5gl660xqv+cx7tkzp07EtWHPpOuDlKQ0UcJWH7Ql91XFVxt63WSrWuz1hDkVkeHMbtpye2Y3SQ2xfeSg3IQr7LAlGGnNiBJzYGuxRw4iezlwFM9ZvCjxW2fJ2C4IiJJ41QH/sHwThoKrc0Sg0UVJFImnbJK/Hk2oFmfra/6eEnGIB8KCvqeExw9pgS/fUGpS+CksOub3u4QcXoilU9Zwf6MrS2J1pYZtoWbcbSWsaPohlf3g+cGkRRYOXBtKqY4Waz44qTaRkNA5GdzBoy2ZV45I8PEezhLNT5oAU3uHE8RomtQT9Ycy7Hn7Kv17e8p4GD+wMU+k0amePBCTBO5GV5bETNkYKS86NkUodbeVsKJsGynbY8Ey2EhsL4oAbDam2OtqVuPQNfXcr5Aat8X+1gJESdhggTMl0gmn4eJS8aLEgSm6Qz+AY1HYPKxGUjN6l4/DxDlJmCmRT9+kDxXHDk5AYOYEGkKUCGHh7R3hOsN7+pcnEWG+74TvgU2lLz7g6g0iJuTImOdukrB7RNjGi5ODj1EA04sOKpg5BXWgYqXMfpQk+ZLqcmGJXnWmabo0b7htmkj1WqFTU0WJng8wTStgb6l2RW9/8Wh4bvjbL/w+0pzldbdHPMu2YueI1I/0Xz357EOzGayk890gCw4xbVORUTa1nNWpMQ83H/l5SJTQQonZihEIYzLkBzedqBipi2sZYWOkhMEipbggdYkuZZ++kblVqjeNIWzaIsJhtjzBnSRXnRUo87X00oiwLASKeZJIdZoN8/YRGwtH20ybhMgHs3hR4j6wvfsg1V7AnhLRIqFLLDQPqciSIEqiPe+IsfJOlf8Wg+o4vNQHgYYQJfXRVWgFCIBAJQnEd7QItcF3lpTmToIoKc1YOUoliZJISliIknJAho0CCUCUFAgK2UAABBqKgJgLceYV4ldKA1IzokTMlODL00rrZZQqkQBESYngUGxOCYSWYPRimV5hqZCD3nqWXjfxV4Uq5A2qKScBb2XKX2MqtSoSJVX+K8GP/kCt8mHlptReRrkSCUCUlAgOxUAABEAABEAABMpLAKKkvDxhDQRAAARAAARAoEQCECUlgkMxEAABEAABEACB8hIgUTK2ckPb4HhTb7Yyf1966uuLMisrUxdqAQEQAAEQAAEQqBUCECUVkmK1MiDgJwiAAAiAAAjMFQGIEogSEAABEAABEACBqiAAUVIV3TBXmhT1ggAIgAAIgED1EGgkUbLhR5f2f3jp2288Et49s/f0/g8pA/29//2JYsTKl39z7/HfRJ7ZHWcuX79++eSfF9zZXxr67+orw9dd/uuhp4pxwKu6wNMv/+be164uKDBzPBu1mr5uYd6XZ9/VeO24AgIgAAIgUHcEIEpkQN3x/W9/eOnpvQULCBaGV169LxiYU0TJvu/br9j67/vbvVFFqRURJb3fm//a3RJ1SVKrvbbgFARAAARAAAQKJtBIoiQFysQbHxQ7O6KsvTfv+N37nvleQM0kiJJF75xzNMdT+1e88w2neOVESbapN9n/FFy92QXP/HuJaibVrMMBOUEABEAABBqMAESJmPOglZ0il2zEQImmkmcagqJEzJEs2ccmWuIDrqKiJNtEqzD/Pn9lqksxJyFKoJ9AAARAAATKTqAxRIncTSL3iwTXaEoUJTTNkLyj4rvnY3tKaJokvl7jhfywKOE7Ts6tOPIlMxTE1IvZjCIO9NRL+5G/tutE8qdhArWLRZyp94zBQg4gSgqhhDwgAAIgAAJFEWgMUaKifnzjCN/cana5Fry5JM8cQ1yUCGGhFUNiP4VEyaJ32C6T5OkWUiEB2SFmQajU9xd5AkiclqAwSiiS2N6QS8gMAiAAAiDQgAQcUdK7ZOWSVZMjD6wNghiaWLPkcxs6hia81N6sKLX8C951eTo07pcy3+ja0r8su3L9cKi6QVFX5/D9cZst/csyCaWaerOLl65asmpy8dJV8YJNvXFRotcskmdK2oZyE2s3jn/+i12jD3g28wVmEiXnX9ZVUOgtXZS4VX9jyWVnskSlPrV/ReIOWSqSuGyUoK5GV3xhdMUXFvYtcWvPNokdsuGdNFphPPiVqampbz48rpu//umpqant6/Xp+JZvTE1947HPxSzrDNoOMoAACIAACDQOAUeUjDzwhYm1G3Nr/jje/pbFSyfWbpxYu3FgfLWXOvLAWhm2vetNvdlmXWpwfI1JNaKkb+mD0mb7kPMl9wsXL5HXh1gpU7xviSoVl0dNvdklD05OrN245MFJk58dlCJK2ofGpTN9Sx5kpih2pm0ooZhaVlFCgsNZo+ErOMIxUjyxiyrG0xJPygxNSJR0jT0gG949tpw1XKz1FLAHBaKEQYPSAgEQAAEQKIiAI0r6lj64ZNVkXHY09WZb+pcNjK8eeWDtorEV3t22b0meUsMPrF2UsaWMKOkafWD4/s8PTqxpG8xxm839SwfGVw8/sLYn9BM5stTQ+Jq2IaeUtFD2mZKukftHHlg78sAXeBNkXcXPlGRL3FMiFYlVFYGZktIWbhR2EiX+96x0DE8MT3x+eOLzofmqUrah8C7GMQiAAAiAAAjECTiiJJ48G1eMKJkN46k2S5kpSTMYmmBIy9+bbUreDmILxveU+FdioiR5v0hT2pqO0q351FVA3pZQxDYQSzMgAAIgAAIgECIAUSIibvKektRQmvolHy//7fXr16//5LuuBfkQDdu1Wsj3lIiZEr0jhBTJOmdPCV3RqZ6ASFvT0Y6VMu0BUaLpecBxCgIgAAIgUDqBhhAljzz5vv7+ePOIjfutJCWKErGtJLbwocJVWJRQVzlP6tqHZZTacB7i1Us2vMiSfY7UCDwSrJ+y4aW0WaaHpEotYb4HX54WEviQKSAAAiAAAjMk0BCiZIaMUounTpbUQOgq0X/MlKSOitI/JcAsCIAACDQyAYiSGccPmmlI+Kb5ahclYuGmtN/kE61O/uK4GVOtdnRoIAiAAAiAQPkJQJSUgylFaP/plRqQujP7lWCaLMGvBEM8gQAIgAAIlI8AREk5REn5+qMGpAwaCwIgAAIgAAKzQwCiBKIEBEAABEAABECgKghAlFRFN2CCBARAAARAAARAAKIEogQEQAAEQAAEQKAqCJAomZiYaGtriyr1b+fOnX19fZWqDfWAAAiAAAiAAAjUBgGIktroJ3gJAiAAAiAAAnVPAKKk7rsYDQQBEAABEACB2iAAUVIb/QQvQQAEQAAEQKDuCTSGKMlc+oz4mq/PbN9X9z2KBoIACIAACIBAjRJoDFEiO0dIk/seqtGegtsgAAIgAAIgUOcEGkmURNH83Xfv3f1WnXcpmgcCIAACIAACtUkAoqQ2+w1egwAIgAAIgEDdEYAoqbsuRYNAAARAAARAoDYJQJTUZr/BaxAAARAAARCoOwKOKOnt7c1kM32LA1+32tLS0j/QPzQ01NnZ6UHo6+vLZDO9fb3e9SiKWttaBwYHBocG29vbTar5Rteenh6qLvbtru0d7YNDgwODA61traaUOejtE07GSkVR1NnZOTQ8NDw8HHdSFX/o03uP/35exhjDAQiAAAiAAAiAQLUQcETJ8Mhwbjy3dNnSuHctLS258VxuPNfT2+OljmXGcuO5scyYdz2Koo6ODlmqq6vLpBpRoqpb6lfX1dUlS7V3WCljihdbnSmoD966jx4P/nS+PscrCIAACIAACIBANRBwRImcuhgYGAh6NjQ0NJYZW7hwoZeqZkp6AzMlURQNDw+PjI4saFpgShlR0tXVFZyYaWpqGhkdGRoeMkX4gZzOCU7MtLW1paiZKIo+u/33kCMcJo5BAARAAARAoHoIOKKkMm4ZUVKZ6ngteCSY08AxCIAACIAACFQVAYiSquoOOAMCIAACIAACjUsAoqRx+x4tBwEQAAEQAIGqIgBRUlXdAWdAAARAAARAoHEJNJQooedu8Jt8jTvY0XIQAAEQAIHqJtAYokT/SjB++Ka6RyO8AwEQAAEQaGgCjSFKGrqL0XgQAAEQAAEQqA0CECW10U/wEgRAAARAAATqngBESd13MRoIAiAAAiAAArVBAKKkNvoJXoIACIAACIBA3ROAKKn7LkYDQQAEQAAEQKA2CECU1EY/wUsQAAEQAAEQqHsCECV138VoIAiAAAiAAAjUBgGIktroJ3gJAiAAAiAAAnVPAKKk7rsYDQQBEAABEACB2iAAUVIb/QQvQQAEQAAEQKDuCUCU1H0Xo4EgAAIgAAIgUBsEIEpqo5/gJQiAAAiAAAjUPQGIkrrvYjQQBEAABEAABGqDAERJbfQTvAQBEAABEACBuicAUVL3XYwGggAIgAAIgEBtEIAoqY1+gpcgAAIgAAIgUPcEIErqvovRQBAAARAAARCoDQIQJbXRT/ASBEAABEAABOqeAERJ3XcxGggCIAACIAACtUEAoqQ2+gleggAIgAAIgEDdE4AoqfsuRgNBAARAAARAoDYIQJTURj/BSxAAARAAARCoewIQJXXfxWggCIAACIAACNQGAYiS2ugneAkCIAACIAACdU8AoqTuuxgNBAEQAAEQAIHaIABRUhv9BC9BAARAAARAoO4JQJTUfRejgSAAAiAAAiBQGwQgSmqjn+AlCIAACIAACNQ9AYiSuu9iNBAEqodA2/KXN27e1lY9DsETEACBqiIAUVJ6d3RvW73j5ZHu0g2UULLge/pkLnDrn8zt2NUTr3UuGhL3Ingl1t6xkc1vrF4+Fsxc2sWeh97Y+NCkVzZ4UeaJueQVnatTj8zYyGZvcCb0fpn99dzwrRdAL8ECjdI3cqO+wWh0l9997nguoMaYTVwAARCYKwIQJaWTH921MRjjEy1O5na8sTHvHw+Q3dtWu9oifofteSh0p+6ezG32Yy0F2s27euIqit3EyX6ChyweUNhIymauB6UD+UD2vXiZhCwWn5irSWWiKKJWcIwpWcMGJ3PJHrIuSOHAxV9KNosxiCvF8ViSz0p0peEsfHhoW1u892OGki7ovrM+U1f6nK0bKWPJDBJ24LgapCEGcHyWhd5WTn63T1l/BVrW85BbNpAFl0AABCpIoBFFiXvPcmHbW6p7PXBGNzvvjkyW3Vu2c7ukuycL7RF9yHNlDd12XZsiEtgI591hRerLq5f7H/TJXde4iBDWjtOefEA2Oq2Ioig/JX6vF1VrLK7GctyIn2jHRDO1hRjh+HJAW/ckySaXZMy8iNOuNRnbHId1BtNxXhc4ZtUAMPFVJhaHyzFYxEmgFtML8XFVhGGd1VjTFyJrVvdU3rGRRk/ZZQ1RPJO6Xo9nGuqMuXWGLKbWONbWHdM0pnk4AAEQqDyBBhQl9k4ax+0G8ng6XUm4UVLQcu+GsRt0KaIkisStX99z2R1WxlR9X052jH0Y9W7uuqzvtmo31bXjjXjIl+1KNqtqcT68CpMeeWVfR31lkKkWL3+MZ7h/9NUYbZ2gXwmgkRrMeGyZw+XDukBbolfZHcGP3SopnVgcF7eedhwbkKuXb0uZkyu5IiNKTL+YAzbyqbEpVSTQk+3zQUk7bctfZt1EOeOzg8o3ev96g5yfMuHCgbr9y1NwDAIgUGkCjSdK0mKVvcnm7wc+w69t+nc37wZN2VJvmiI18Pne2jH3dHOQ39OUHP5N3Ny1pavm1DNh/fESzKkJYOaKUlesdfEmuFfIBye8+Xi57dBxHolJrWDRTjUq4Lmul4YH70GjnyRGc+r7UiIu30ye8xgulZ+us2bmsZKSbMiYt4k5SBElPjQOUB17wyyGS/OXvtEg2bFrpDt5X1E8f2LXqOa6Ay+FAZJAAARmmUCjiZK0u497L8sD3gl4WqD4Frzbayw8OEaoQnuXT6g+zf/EyRJ507e1+0Zct1UUYeoh5gu1ywnPgUhj9ERC5ocmfTfcmXZKlaJEhvxQFcYHR7tod60FfcV9JcdYtBad9dCu1e6CGhVx+bhuE9WNeaJ+AgG3RcEmuA6nnglKISO231PL508sXZSkjCWXrXBCdIS7l7lt+cuqaYH8Mc/dPG5/xTKLC3LMs8EQzoarIAACs06gwURJ4H5nEBdy8wpnppugWApx74ZsRUCWi4WHPKKkoGAmArP+rOk7wAOqrd1vKS+VqgCS7trinq4Xgwwj74BqcfZ5+G5wUUKZd+WcTYiCRkp486qT6ymbXw6IDJWTDLIW2bHhrxdwPtxJtbKWpM8SgRSEy29OnnOCueON1Q/tWu0jsv2ex0S+5IqLkvzjP7fKrNcw2sn9ldBEQrR6M55VTsCDyyBQSQKNJUoo4ur47VMWNyb385mfxZ7bAObspHPvhkFRYj7cJx74QcXWGj7ilfJjmdtescHJVwM2j66Brsi7vIncejYoVbXEGmVpy6jJN5/6brB4LzcNmCgo3LL+ay9TX1WjnJ5yC5imycs2Z9voLudhb5dP2G3Za4bb6C61F6doXNTMGMa0K2IKgR4AXq2nr3Kjch9SsJTtEZdG/jPTHfxAdahFZDFKi2riLa1RnkvSwjb38XXfrOMuQZ6BKFHFixxgjgc4AQEQKBMBR5T09PZkspnFixfHjS9cuLC/v39oeKirq8tLTSvVHCi1c+fOvr6+KIo6OzuHhob6B/qbm5u5zebmZllXZ1cnvy6Pk0rJ1L7FfZlspre3N14wfXHEu6+Z4h2dHcPiX2endYZuwfZDNt12bUzid1jvThq768UqtaaMA3kPbDxI2oQrXbK1+2GVWxDVUQa/RVqU5PUnnEHHWoqd6qlO3w0rStSXrJjgRyaJFWcbrsZcJZKyohhknYd6xwv/ZvmDfDNxjvjYmBdzm+zIGRebZESJrmx2X+m7OrbJHaa24apK2+8z9MF0Bz+IjRNvzOdbkYyNPfKfFIwFTm4ndqJok0oNdKjXv4m7tsVot903Q1IoDgIgUDIBR5QMjwznxnNLly2Nm1u4cGFuPJcbz/UtJj3B/6WVag6UMqKkr69P2oyLkqS6oihKKiVdWrJ0SW48NzIywj2Ux3T7s0rCTRe3MxmG3QRSTtIZLkrU0oAMruym799h/Ru0ZzvPrdbPnXDOK+XHMru9Yv30b74qj/m6rVBOa4fskoW0z74UV9jKiAgqm7eN2I2iFHJ8N2JXTPCjKinw+BpCXnEqsq02DiT1Al1nZb1sdKoirhsRldvmK2RsqrXgNa1oXLIVBf8vJpZM7aYfZXnbmwXbC2fU3UEVSW5WQ9vhYdxQRrTICPed6EGjNaWr2gLZTCnFvu3GdkGgyV5f+G2jsp4DfhacgwAIVI6AI0oW9SzKZDODQ4PB+gcGBzLZTGtrq5dabCkjSppbmjOZcHWDg4PBuqIoSikVRVF/f38mm+npjX9vadq9yd5SvbZFUVt7mxQl7e3tbqK42+4a8T9Smxuc830eBdyanfuvCpZ0x3SuJ5zqSuMNsVdscPJR6Lu/H2kiW0Rs9rQfXn0LLpmIF6QkZUfHMIo6G/NtdJXbfs3UhV8DnQs7et6FZ6CK+HULgeei4smiRE47iSa7MY/aTp0iaTBELBvlYRq3SFzcyQKOlTzSsdwvwTz0k4o716LEGtQdyrcu+W7YPMHaAl2TzwIVsUORrDLy8dNU+FQX7ynfVNBnXAQBEJg9Ao4omb1quGUjSvjFWT/273S8wtTbFs/oH1NB/tiqf4dNqVTc2R+itfBc8CtZ/aqSz3mldBwXMVKy2FjC20sxgzVBtEjd8Z3Q7kYC2fAEhaQcMPGeMosI7cUn7oZsnndFR0FK9Mrq7wVxg5O0QiFKqzSNzWmLuki9Y5yMbQDSJZ2YRwyZcR7SKMlIKNNkaYVOA/3i9BTzhFVdyOHoLr2tRDlAjU2rLgStkIpkHsJL9hMc9sd8Pmc4T1mBY0Gg473ppCqvHVHCO4XSvUGliogXYdyj4Rfn+XEMAiAw6wQaRZQ4ty2Pqo3WXkK+Uxmi2F2V6wMqHLqBqkc2xK1QexUKmfkqN+m8Un4sM8SvsNu0d7/mAYAfkyV3k4RX0Hto1kyNCBfGRjar+z41M3X+wDPLRYnSJSoWisjhfVy27bXiQF7TbnjXyQiLrOHOorKq7V4G4YOaj+HHVMLz3GtXKi7mcnGHnnumcOrwphHIQ74plXSgahHDw+Mpi/hueJ3u2w2MT8dCG30fiX2j0WZePgcmzen3UVCq+vCNB1SKDwCTkErM5MIBCIDAbBBoEFGSdme0d7SiAIsbpbw/mrsb3WH9D6nm07O+Y7L7IK9alfU+txXgEr+t82NZNH6FiRLHOnOGcLmxiu7sTE/IgiIyCYdNLQaFY1qdeL0gA5v/mZ6FHC+0CysmPoVAkRvBSCmKilRPhXinrLNsA4JRjbWFjQRViMIqs6yuFovLelDQkRPLWYm0EEutYMBZqfChk1/0day47wYDFbJpRo5N9C3IFDZaXBUlulXJC3LJTU0b7YE+Ul6E7FgHcQQCIDB7BBpClPjRiOOkO2A83PIcgWN5H+RBmu5iu3r8O6y5vYpa4h/LZCmnAhV0KTpSqi9xEq7oGzFzgIKBLG6iDjMYD5nGCxs71aSOtKOroHyqOWJfxRj9xhvVq1WChENV8yJUzItP8WDvXQmJErIj45MvIETr/IumVfJA+KbzmFZoUGFBI7LxvnZs8lQjmLxIbyra1RMVgcupJ/8J1aKbxnOniBIqkjISuBXd6bqXZZrgSRZsp5vdNqbVFm/C6FUZtPN+Q/RIVlXL3ldiyHS6OXCdDp5JC3kaLgzmyRO0josgAAIzIdAIosQLdQ4uupn6sdPJEDhJvsv71vzbq2+MbnzuXd7PUcC5X2kBRWaSRYYfHaR1wAgIO5HktK5cokS4T72gw5h6NqewECKkA/nvhWTeWSKPVYROK4qDNwNcxVWUsFboLqW5Jsm3AptGcIrW7m5tBZyJWrScVeIjLuWFIZG6qyeazOmhqGVTqgbavG0R7e8p7C0v+s6OsQIagCwgAAIzJdAIomSmjFAeBEAABEAABECgAgQgSioAGVWAAAiAAAiAAAjkJwBRkp8RcoAACIAACIAACFSAAERJBSCjChAAARAAARAAgfwEIEryM0IOEAABEAABEACBChCAKKkAZFQBAiAAAiAAAiCQnwBESX5GyAECIAACIAACIFABAhBXalFGAAAgAElEQVQlFYCMKkAABEAABEAABPITgCjJzwg5QAAEQAAEQAAEKkCgkUTJ505c2v/hpede+1KY6zdP7/+QMtDf374+FM4UvvrQp/ce/3R+OM29uuG9TdNXRjLuReds7/j0jXx5nAIFnWy9eOjW7e1bC8pbhZlGT92evnVn+sKZKvStAJdePH9d/bt87HEv/4vv6rRLx/00L2shp5kTa6ZvjG9Iy9r21JVN0zc2fWtvWqai0/Zuv3bn0Kny2izaidILHLxJA+zaxdHSTTRKydbXT667fE7+rXh9ZaM0u+7a+dZP7rn7kz9izZp36Z/u+XQ/u8AO5++++5nt+9iF4g7n77577/G7BUZJiBIJ9+HXn/vw0o5vFkda5s5c+szxu/c95BZNig1zJUronntz0vWxKs5EMNh90POFIhyXIGUUJdIUq/HM7lt3ZhPO48cvXb/+7ovUwiePX75+/Tx7az9+jC6INJbNgxE+fWLkUEhYJA08ZmR2RAlhZFRZfXN8KPo3JmfFMGDviDKKEvoA4IzeyQt3pqsUTmrfPPb8Ci0+1l1+tdvPuy17+VzNipLlp6/9+NaFLX6boi3v3/rxLffvff/uFCuU/0JSdflLzlKOfcf/091P/uAtz/r+P7j7SYIuEWGuNF3y2e2/L1COSHcaSZR4HcBPh177oNjZEVX8rfuOhyRkUmzIL0q4W2U4VuGc4q74i92dy1DHjEyEYoa4rc9ShPP1jYxGs6jYaJpECxE65pMlNE0i9UoU0XERkyWli5IZdVe8sIzBZoDNIsl43QVdEZqA6Q8q5KveggwVmEkBMTVK1Vudii2xSXI6JLvHZNiW/eD5VnNGB3UpSlQLt5w6duvac3HN4gAo4qTKRAmJj/90KdS8sFiRLaUFgd/PS5vmDxLZN+9wKEQG84qLECUCA63sFLlkI8rRrNThS5+N860OUWJuxxSJq06OKGrGSUPR/xRrEspxMHnhzqFTF3fr2Dl54fb2gxcP6dNy1ODZYEJkHy3jaIFC2ZgQEUs8WqB4JkKn1SFKzEQXRWIThkP+zuE146TxYTZVb3Tw5vS1i9svaBVy8OahU2e2X9OnxodqPhBzJPlmQSBKCu/CqhIlf/TpJ/f8/vi8BO9pEcdd1rEZE+OdzRI/giiJM4miSO4mkftFgms0JYoSmibxFm7U3DjtC+F/7/VIx2im5L2eSG4coQxs+d9eFHm8loggZGweOtHmpQdO6SOaXOYXkTi+3q8+w4UnUfgnYE/QqNkFf+qF5MWFM3RTVp+bvV0s4uNpPMmPGc6nWD7TE9iywJ00GwLoold1FEXU2N0HI4liUsaMrRcPXbs46uYXIklPLAlvVb3k581J+SFbtsLDEugCuiR2jVw+/+5l2jziyQ4hUy6/e16kyXWcBCvmstC77uhiA4lSr4xk7GhZ89QTpigfnPy6zMBTC9zVRKwkdhGJYxsyeI/rnMYbTtITNMFujSIxtG5Oiq6UY8wbErzv2EybGOessxzVa4ers+ai3eRNMINKjSWdR75STvJHojh4U3wM2Lv92u3tW3WSyMiHtPvWU2ZZhrnReWKaJL5e4zY3aaZkz6tmx4mz6OMsBsktKScHHxM2U5K8OmOnBy74qy2/OLVc5dr63C/MQoyZ9uAXTeqtH3trNKGZEhIWvzi1nJJUwVcOcH8OvqKvk0vKYP7qhF7Rnljno3zVRRFr+7HTzn5BbtNLiiKaJokt3PCGJM+jRMG9Crxs4HhmoqRD/wtYjqLOrs7u7u6WlhYvVRfq8K7LU1Wq1ZbauXNnX19fFEXNzc3d3d1d3V3xgvFSJk9KqSiK2trbpD8mPzuIbxzhm1vNLld/c0lHZ0dXV1dbW0wGpExnpc2U2H2sIgz4+17FRS1itPc937qxqSAhogvQq7yfqjjK7tEyj0hld2peUgoLe8c/eNMUd27o7jS4CglKHAj7RiiIQMINTlvd4MYMEZBMddorymOLy6sUTkycILWhAmTQglYeSp+JmDF66jbZ1ElRJIyYACns2Ep19FJXQrUkjGcxC3L98vEndWvYq5AszpoOS4xa21o7Ojo6Ozv5RXGcNlNixS6JYC58pRmSv74oKWlhUYbP3QcjOoiNJdsjMe+lRmQbS8/sNsWTulWJkjum00XtZgC449ntHTEyTYB3cyrfghfdUWcdc68rC3SRxq3SZ2doNk6qXvE2kcPG9ZmKMG7i1O639V1qa2vr6urq6AjfaQOMC7jU0Un3S+/m1n323Dp/sSZuKzRT8tjzK85u01lXDn6QZIfKsrUhXYJeU5J4NjoWUVkrAxH+bVAniWDjMeU0uoSKirAd2FOiqkgSJSQ7VCmx+8RYELV7yoa5m1jdgQvWyUjIGm1EC4tgddL/W7rt0fLTF8xiEzmWxCGKItrf+k9/yDa2MTfVIU2lJOx4TVQYnV2dodtUFEWJReIVyyvO8s3i/sW58VxuPBfMPZYZy43n+vv7vdRiSxlR0t3dnRvPLVm6pLm52bOp6hrw64qiqKu7S5Vq8UtFUbQstyw3nhsaDj48ExclutrkmZKOjg7JpKdHTXboMhHt3wmu3URRlCZKmAoJZQuJkoQIZFxJPNC3ucA+O0qyEdex4N0reRolOYqB7tTqdu8FIXH/VUl0bAWKEkymdh4zeClWcdxbumUbC5TTagvrJFmW0U75aUpRzNh9QYQ0W9ALA+4pWeBt910yQ6W9vd16Lja3Xr90+bLeTeJvbr1++fIlvZskthN2ZHQkN54bHhm2BtVRwpDwR1RIf4iJOk+UhEZdrM7QBdF3/pyZyOjSc8vyHndTTAfpy7Z35EyJUSGyx3WPsHEoS9qu12pGjVtXr+hqAt4mD1rrpM2j/TRXaDbuwk0xRG1+8oq9EdxTGlFMozCdLbzs6emR9yL37i8lr36GSz/mJRSw2D3tpbgLiEPDQ7nx3NKlSzUHei1dlHArUZQ040L2rXZxyqQkOfnoxIv0/JSObWCmm8Nzv2AaJVbWt50oSowKkZLICB1XA/nmfFdj6eoC1xO8OZTMdZWYrWFqhtmLee6hoNWZ5LUbaajoFRwZynPjua6u2BQDTa4UtxMFokR0Q0miJG2BzY8NetR4n0dD2cLhQXzkpUn7oudL1L07Pt0twn8onITv2qIJIkmvzpg1DhUn3Dus+PTM9YpauDGl2P3XxvtAbBAV+wpAfdSO2RSBx8QAcZeXPqjPryZJuCfDA2svNUH7LFSOjnkqsLGIqLvUvIZEiYgKYvuq0CK0oYQO7BUxfSKFy7svisdznAmViomSyC4pMtFs2pbnQPSa7AsWceV8G40WfpFMJfWyWmWLDTDdCzROWBewjrODmQ8JW6+N9yKnmTUxDQu4JAYDG67SstC4lEQHsuHCJXKGzBpRwlSyNS5qN03wRrV3anxTBwmixM9W1HnZRQmpCvvMzjlnBUd6Rus7CWtDKUmhVsVnSvQ0Q+AhGrukQqb8kO+Zj4X2QBGuEpRBsQqjfeAmk6uLre9oLeUX4dXxY16Nnj3yl7T07E4URekbSqSxMokSsdaT+Lnd85udOqKkoIWYulq+0SSSRcn/P9+VtHxTwZkS7acQMWI/gb++o3OEXvntkt/TZV4hCJzIwe71vrmUJLn2YcNATJSwJN+sWdxJtB+/X8evWKsqZmy9eOjCGbl9RIcKCg/O/AoVIlPyY7SIGTYOOTm9iGhrs0ex5Ru2y1VvLqF5EbGzhO1yjSK5ueSSeUJY2Sxt+cbbqORNikj9Ebsoa7SbUZgR28CEI6JKAEX3OdDUDJZEaqSADdIxg2ndKlSOiejOTInoOGM/ZtUOzqSqA9dpFCUMWj2czuy+dnFSLgLS8HBFCfNCixg52WMHGJ8XkePQp8eMVGz5JmmGg/kSfvpGKBK9UyQ8U5KyOpOS5Nasz8SEgQ3AOpxHkXiyl53qAvbVD/k2RRwVL0qUAaGTyCW39oTqpCKxsy+FzpTkESVm/sZrFZ0WOlOSNJtCH8V3+48SR2J3hzuBp+sufhuKI0q0mdl9Ncs3s1tNwHopyzcBM+ZSiXtK2CfRwmdKTKUpa0M8Dz82mxATQ743MZ4SGFKS/NlmHif4MXfNHMsAMElfkhYMLfF6A1HEWKPqLpwZPXWbIqXYPqKjAtmR+sNkZqIkmKozFiBKdFbz6oiSKHI2lziiREmWxM0lxqI+KPPyjTYrXxOMu5nY2ZndSuwmd4o79pLjfbKF+GQVt5m3d2QGetIqPgDCkzdpg1bvZiUNITaO0NAVCkaPNIZHSiI9s5IsO+KD3DGScDKj5ZuwzRKfvhGbSNi6TEzcUIaEh3pSksI+SuURmpYIzGrETCSoBJ2vZFEiDcREQ0J1/qJPoaJEqDGzoUQ7LV5TkmS+WdpT4jjhnMxsT4ljatZO6keURAlfUkLoxKM08S/NLHn5hneHZ0Qk7XnnKv17x36xgCkhI7S/i9MkiwPv/itO2b3b3+jKkpgdL9K4NumGm/S5k2xQzBCfIOUWEGZWHIbu16JI+BZPMeO2fkiVQuYhNUESlB3mYqgW40nesGdysgP56I3e4qrX+OUzOHJ2RH/Hq1zf0d+lxkwkHNLeZ3qSy/3ny9xC95S4VgKlHv3Bz2mA/cORR92sdEbiQEhJ0SMxzScKePSEnmDzBN5G1/hsVqIRXZ1QM2FFKz2mzhVjLKh6g2JIFAlOlpD/tw/RkzV6g9Q1tdU3ryhhrZaOmf9Th5/JVZEDuQrD9qIW9D0lVErvkBWKxFm+oSs61WtESpLIuedtcXt7e4qX4yGcXxfHYtOoO13h5BFTGuG4TjMtge8p8YVFTHkY+35OvaoSq87ZHquWnLTPvhG3OpHZzoj4G13dXb3GMXGQ8nCNzJiSofhpj5ludHV9n62zyouSLz3yt/r7480jNu63kqQu36SAoLmspC+Yt0stLHh4eoKHECe/epxYz7ELiWOeBw58Uf2jR/4hLkrMXVhPF/Pbq4wKdgE+dqcWASYoFKRkUUlsa16qKIlvF2Dz8IRYeatjjKJONq2TsaDCneSix4150oiwTLV4VTjT5p5BbtMLqynDwk2Sz9fI7YZqT4l5NljoErUTUe0poa8yEd/x6loJnNmlFvuIDR9RVMSRF0LH8CfV7cj0kvTAs7Uq1euKkljv8D71hh9PkmZ5Bnf4eb1gxq3XBaKXWW9KXWIHDEuiGpW3rur1BzMNNu4qd5InievaMWlE6mOqxa1CVS0z++87tofJLGJa6nN6lPBwb2zXCFcetASj9pR88Hwr3yMSeO5Xz5qkJEkAm48IRXzVFSWRfFyFP4jrBGOhS2yqDeHSqIj6+llcPeOilIEtZR7ujW1D4SpBzE/YhSS2h8P0YLA6oX6sD5SnMFGiZ4NUWW/Tq9cKL5W2lSR9E4lc30lKTdtGaRrqH2CmxCcy2+cpkyWzXXWB9ulOHZ5OKNBA42Tzg1zCJonGAVJYSykk6/BcWImGzUVSxn0zCnETEzENC6iIhjvTDKKcuKKDehGWGi5r8lwIvtG1LgYD7Swp7mt0K9tsuut5Hxkr60Dt1CY+oDus4ldqpzUV8zQ4N1Cx2mupIqF6HVESv1JL7ZlTX8VEiJ7hEJ7Er8ypg9VcOe0siX/TPImVhG8oEQs3pf32Tdp6QohRQ210DQEoyzXSJYX9SnBZqoORWSMQm8znM/mzVisMNw4Bb2UKHxhm0PX+oonzTSQzsNsYRSv4K8G0goNfCW6MYYVWggAIgAAIgEAdEcBMSR11JpoCAiAAAiAAArVMAKKklnsPvoMACIAACIBAHRGof1EyMTHh/dxUHXUfmgICIAACIAAC9UMAoqR++hItAQEQAAEQAIGaJgBRUtPdB+dBAARAAARAoH4IQJTUT1+iJSAAAiAAAiBQ0wQgSiraffRl3odOtKXVKb9Rnv1oX1rmgtPoO5pq+Cs31NeH4IsvC+7wBsiY/nun8e9OLTeSLX/4+0/+IPB7qeWuB/ZAoKEIQJTMTnd7v3GjK5kzUUJf2eT+vIh2aY5fw1+Z6v86WhlFiTTFvrZVfM939cGJfTHUj0M/qBHsPf+nvIKZirvIf0bE/w2R4iyVK3e+HzstRpTEf16gMC/F12JClxQGC7lAoDACECWFcSo2V+mipNia8uT3v6K06iYbhCbwvCo1SORhIZJ9faO+YbPqFJsQJbGfFS2khbFfDiuoUHIm4Qn7Ta+tz/3iwpbk7JVISfuFDlV/JURJ+q+XVQIE6gCBuiMAUTI7XVodokT8LCqFW4rEXuCfnXaXYNU4acoK3TBbKmHywp1Dpy7u1lMjkxdubz948ZA+NT7M+UHViJJZmHeZIVxaN0n4hQ5ruTKiJIoKcsa6hSMQAIF0AhAl6XyKTvV+An7TtPileL2PhFK/tTciySJ/Qf69HluD3E0Svy5zOL9Tn29jiixi78siEu+1VakjMUtBv9Uu/jzVIqYrwkn89ztYKfXDbDbV28XCf1meJfkrOM7aDZ/pcX7JTDaBO2l+qJYuMvussbsP0u/XHzq1d/KC+JHCrRcPXbs46uYXIkkzEWRUveTnzcmItYK1PcbWXNA/R25XQNisQxTRD6Db3y43peRvmodnSqjIhS3sd9u1QfErqcaaOeA/WpZWHa3L2B8917+2KkRJ+pKNbZr54XXVkITqFBO2ROW2lDckVjVNk/zTH+6zqOyR13d8wPCBZH7T2Llo3giOQnXeI2zVz1aatJD06A9+fvXq1Z//4FGbFUcgAAL5CECU5CNUWnrKTMm02esqdIbWK6aetqeubJrmYoVSCtiMYgyYAxk+VRyN3U+d2G/KqAMhFOw9/eBNU9ydxnCMqJCgxIFIMkIhsgqJqiD7RjeI+74J8EJnmOq0Y25xedUxQmpDBZugBa08lD47eHP6wpnRU7epjTopioQRE5OEHQ5BSjR1JViLdpe9iqBOskPFXYrTKtCKJLMU4v4Ue8pMiYr03IgTuV2z1hX3eqA6kkdKwZDO0FpHaw4uboxVKSxM0pZTr5zeKhNTqhNJt8wuGaGEDAdetRRtTutof+vdn/zR/9feub3IfWR5fp7naR8WPHTbHaqLsiqzKisrszKrKktSVoN2YeSHoVpg0zN4tY2xGuEnvY1sak2z9nQXtqBnHprBQo3XIxp5bD/MrpmmiwbTBhl2sLT4YdGAXH+E/A/Yu+fE7cTl98uL6pKXbyGckb+IOHHiE+k83zwRv0zngC30eb35deSXYpA4LFzKt2888hk7fuW7F60dVilFv62aOVkCUSIYoQgCgxIIRMlqfbW702132tnerVZr58LO0tJSVLuysnLx4sXt7e35+fmoSim13lzv7nSr1aqrunnzZqPRUEqdO3duc2uzs9lxVa7QWG90d7q1Ws1dkYXOZmdza/Pc3Dl5UZeXq8vdnW6z2XRV7htd5+fnt7a3Lly8sLKy4mp1obJU2bmw02q1ouv6abvT7u50V+urae3S0lJvt9fb7cVYSkSJUCFZ/ZG7yPLlzTTVkXoUXfGf8wYK86Z3qBICk1QVmDL5A2rkZQF3kfKFyl6gKMX5BhcnWM2Yd3/ZS4ycihIKQs4CtfTawjtJlrXcMX66Xvf3j57sH3KM8R05sDl5pJMi7ilZkHNPXRL++iIHYBFWvdqg6BtkCEht2NgssggmlWJTF5xcyRo0g4ZqwHnSfzirQgjmG187gUIWfAbFeUiXuZlzzA1FhbLhYg8joRYYpCGEY+ovvsnu3YQKVUUiOPAsfqHyK0eubNjaPSvSLtjBcYhQAIFnJhCIkk6n09vtXepdSs3Ozc3p6Nts+Xivm7U2Wrrq3LmMStBV7bYXOk6U1Go1XSsli7Z54eKF3m4vq1eWq8u6V1aytNttXeum4ETJuXPndFVrIxYfzVZTV83NzbmOrnCpd4mc6WTEU7Va1R3jKRyzKFF+x0doGudhnwK/mQaf8rkDh//CjZtAebgBhCmzs0NJb/PxsUSUsOwI9kSoeybeR7LADZwqALoifDBldlsqj+/MbUcHT1gVuSo+Z6N1kgg2Uh7FsSoOe8638kIcgF3rVHbQhotVG167uA62IEI4XUpa5kcceTg7rBvLO8nKQyoG37Z0uNhDMSOhfuyuls/f0GzzB0oS1Ru9YPh1JV8wUiKLF4CfgC6xEpUvs8z/FwUuxabwHARAYAACgSipr9W7O9315nracWFhYb253u600zTDan210+k0W83sT8zonMfqqk8zOFGytLS0sbHR2milHRsNypTU6+LEhfWpUqm0NlobGxtxcoIbrK5Ssmd93U/BiZLzlfPNVrPT6aQ5j9pKrd1przfXFxYW7Dj+USd76msZZ6rVaof/TlyUaHe6H76YOYziXc2X6D3XHne1AsK3dG+77m265D26pKo0UxLpFT+6KdkQUmjfNvA90yu+joY7vE+q4vC+Pj5ig5YXJb41f6rWwcYLNQ5gQSbmRERJkCkRLqVSw1eKEE4XhxElowznB9YlSoHkdnnCdolXsrqPKAkyJbIflfOZEru+rrV8eWhF4jdi4ldj0auO/9fwr4GiZiRK/vzLM74hyU0cBRCYbAKBKDmdqThRcjrDOVFyOsOZUY49UyK9Z2my+xN5qbRskgR6g6MgTR1EXPmGHlkuqYqz4hzgyzdlvHEdJ/buPS34PpV0XI40LtfiLVGJhj6kIyMkNfj4iJEpQn+IHmScRYkriEpXDBC5q30LcQD2HSi659MMOanh+40mSkqyGuXD+YF1SYqSeJdHtC2bXcxEzCiuEhZ1MX+mRL7YqB0LCKsn4hfPgKIkazOTKSk4U5J4jgsgAAL9CUCU9Gc0SgvWDS/+/GdR3+i8au74iMpeDOzkFM9bnz6kv0/fClryEx2h41OcYbvo/ZefCvkSH3QVVcJO9F4f2qTAEB4rET3N0dfcXpJpFccVuhx9kJX2SIc9tTf63t8/enrbHEDJyg53MTeKM9tXlFy7Q7dbPPzizjXXR6mybw3hABweK3E9SzINIoRT87QlNciYHW24V/9gd5TYNzYirvBYXlrFB10zbmSYBDNi0VOSLMl/SYlUIVy+e+SOHAX6lV6l8UuR1t1vJro1kCtubaaipPzum+z/km4EFEAABCICECURkON7StJB39/rbreJb6IJ9IffmrG97j62skbeLfz45bvpl9C/cufzVJTwW23pPrrYLPfJbYOAQ75pECYktGTxfW1tqShR+uyh7xVvJBlvozd9E0LkLNzdMVaXeJvhDpQLM9pIcS5EaBE5az2osylDVPZl8otPeA0GFyU2POcOT7DU8HcL03ETewY2COE5UWKUkDXrbo2JrvtdmLwRO0lOh7gbjJ0btlqrovg0LtdqGeRnYT3h63Y6Kr3FhnWJH1FoIDLLZzi+/eB554Ap+LUzd5zZTIlJnLgXM72A3bLqzlZzcBv//4J4+T298Rq9TqLXZ9EZF7JqXg+fZD4oxK7jOQiAgCEAUTL1L4XsKYqpn/VIE+TIFEQdvuJj20hW0enYCeSTJcc+TH+D+b0k209/VIAosTzwCAIDEIAoGQDSZDfJfbyb7BmdmPf8UTsQJemVExschochwGog9+0gwxh51rZ9fvuGMyX48rRnpYz+M0YAomTGFhzTLSUQ70zFe0ylnVF5qgRIl2Q2cU7NB9pFynxnGo1vThc9/OQXp+YNBgKBKSEAUTIlC4lpgAAIgAAIgMCkE4AomfQVhP8gAAIgAAIgMCUEIEqmZCExDRAAARAAARCYdAIQJZO+gvAfBEAABEAABKaEAETJlCwkpgECIAACIAACk04AomTSVxD+gwAIgAAIgMCUEIAomZKFxDRAAARAAARAYNIJQJRM+grCfxAAARAAARCYEgIQJVOykJgGCIAACIAACEw6AYiSsVrBn/7mjT99+frfjpVPcAYEQAAEQAAETocARMnpcB5wFIiSAUGhGQiAAAiAwBQSgCgZq0WFKBmr5YAzIAACIAACp0oAouT4cf/13/z+yzf+4a/V3/7ul3/6kv/98W9+6odp/8Mf7XVuxjXyoqv95Z9+95e+1pTpAll2NkuGe/N13gz6yw+1G1/+8ve/aXtHuPTWJw8fPnyIX1ePsOApCIAACIDAGRCAKDl+6KQSWFgYGUGawKoBWVaKRAPJF/dXkClhyVImSgqGI/u/dEOw8WA4pRREiYOPAgiAAAiAwBkTCERJfa3e3emuN9dTpxYWFtab6+1Oe2VlJapdra92Op1mq1mpVKIqpVRjvdHd6a6urrqqmzdvNhoNpdTS0tLGxkZro5V2bDSoV71ed71coVKptDZaGxsbS0tL7qIrrK6u0hTW/RR+/OMfa/vnK+ebrWan01mte2d0x9pKrd1przfXFxYWnClXWG+ukzNrGWeq1WqH/6rVqmvPosSqEKWUlxQkC1yGg9pTlWipRhYlwogfLhY97NiHbzpHUQABEAABEACBcSIQiJJOp9Pb7V3qXUo9nJub6+32eru9ZqsZ1bY2Wrrq3LlzUZVSSle1237bwImSWq2ma2VE1xYuXLzQ2+11NjupweXqsu5Vq9XS2na7rWtdlRMl586d01WtjZar1YVmq6mr5ubmoiql1KXeJXKmk3GmWq3qjnIKxbHfb+jY/RTKZIgUyMiiJC81okxMsWPppHEFBEAABEAABE6bQCBKVuuUZmh3vICQ7rRarZ0LO5WlOB2ysrJy8eLFre2t+fl52V6XdZpBxmwnSs6dO7e5tZlVHjq/kpUdSqnOZmdza/PcXEYDLVeXuzvdZtMrJydK5ufnt7a3Lly8kCZ7KkuVnQs7rVYsVvQU2p02JXuS/IpO9mhRItM2xbE/OAuSslKjZ0ogSnI4cQ0EQAAEQGCiCASi5HQ8d6LkdIZzouR0hlNKFYuSgkSI96yggdiR4baBuCkeDts3nixKIAACIAAC408AouT416hEJSi+ESY4VhKOz0dT07SHVCFmD8gZKRlugO0bfdD1izvXQj/wDARAAPzg3HYAACAASURBVARAAAROnQBEyfEjL1EJNJi/QVfeGuPc4GSJvSvYHzfxvX7/mza1OSZR8sqdz+me4C/+8RXnAQogAAIgAAIgcCYEIErOBPs4DfoL+qYSiJJxWhL4AgIgAAIzSgCiZEYX3k5bZ0rw5WmWBx5BAARAAATOjgBEydmxP+uR3/qUNm4efn4HOzdnvRQYHwRAAARAgAhAlOB1AAIgAAIgAAIgMBYEIErGYhngBAiAAAiAAAiAAEQJXgMgAAIgAAIgAAJjQQCiZCyWAU6AAAiAAAiAAAhMvyjBGoMACIAACIAACEwEAYiSiVgmOAkCIAACIAAC008AomT61xgzBAEQAAEQAIGJIABRMhHLBCdBAARAAARAYPoJzIYo6X75gw++f+6D739w453pX1LMEARAAARAAAQmk8BsiBK9NixNfnh1MhcKXoMACIAACIDAtBOYJVGi1Av73z+3/9G0rynmBwIgAAIgAAITSQCiZCKXDU6DAAiAAAiAwPQRgCiZvjXFjEAABEAABEBgIglAlEzkssFpEAABEAABEJg+AoEoqdfr3Z1uq9XKzrPdbm93t+fn56PatcZad6e7trYWXddP25325tbmublzrvbmzZuNRkMpVavVujvdxjqV5d/c3Nzm1ma705YXXXltjYdrZIarVCq93V5vt7e0vOTaB4Wr3zz3wbfPd4NreAICIAACIAACIDAOBAJR0tns9HZ7Fy9dTD1bXFzU8b6+Vo9qt7vbvd3ednc7uq6UWl5e1r1qtZqrdaLEDHcxHq5Wq5Voi2GHc+Pawkc/pNuDv3nBPscjCIAACIAACIDAOBAIRIlOQqSpC6XU4uJis9Vst9vVajXyu9FoUKYkl7o4Xznf2mhttDeWlnzqwokSnZjRWRNpc2lpaaO90dpona+cl9d1WQ+X9lJKVavVdqfd6XRSJ3XfH934FnIkRYorIAACIAACIDAOBAJRcjoOOVFyOsPJUXBLsKSBMgiAAAiAAAiMFQGIkrFaDjgDAiAAAiAAArNLAKJkdtceMwcBEAABEACBsSIAUTJWywFnQAAEQAAEQGB2CcyUKKH7bvCbfLP7YsfMQQAEQAAExpvAbIgS+yvB+OGb8X41wjsQAAEQAIGZJjAbomSmlxiTBwEQAAEQAIHJIABRMhnrBC9BAARAAARAYOoJQJRM/RJjgiAAAiAAAiAwGQQgSiZjneAlCIAACIAACEw9AYiSqV9iTBAEQAAEQAAEJoMARMlkrBO8BAEQAAEQAIGpJwBRMvVLjAmCAAiAAAiAwGQQgCiZjHWClyAAAiAAAiAw9QQgSqZ+iTFBEAABEAABEJgMAhAlk7FO8BIEQAAEQAAEpp4ARMnULzEmCAIgAAIgAAKTQQCiZDLWCV6CAAiAAAiAwNQTgCiZ+iXGBEEABEAABEBgMghAlEzGOsFLEAABEAABEJh6AhAlU7/EmCAIgAAIgAAITAYBiJLJWCd4CQIgAAIgAAJTTwCiZOqXGBMEARAAARAAgckgAFEyGesEL0EABEAABEBg6glAlEz9EmOCIAACIAACIDAZBCBKJmOd4CUIgAAIgAAITD0BiJKpX2JMEARAAARAAAQmgwBEyWSsE7wEARAAARAAgaknAFEy9UuMCYIACIAACIDAZBCAKJmMdYKXIAACIAACIDD1BCBKpn6JMUEQAAEQAAEQmAwCECWTsU7wEgRAAARAAASmngBEydQvMSYIAiAAAiAAApNBAKJkMtYJXoIACIAACIDA1BOAKJn6JcYEQQAEQAAEQGAyCECUHNc6VS6/+9LVvX7WtjevvX/l8nZZs61bL127XpEtVq5feV302rr10uvvbq7IFsOUydqtemmP+lUxXGnLwSr3eq+/39vKti2pUopcTWaavWhsk7V0FWhpUjtZd8bq4sr1K9ErQbu3dSueY3olpEQEsqbGar5wBgRAAAQgSo7rNVDZunUlFxFD+3s9io4cO19//yXxz8fsRJRwTBUy4uRFCauBvIyoXw3c5lCXmY6empnUynaFfM7IBaXKRAmNlei8EvEX+8Z4r1zldRGo2bdbLVIqwVx6l0n8RRftU8Of1yJowxKTtKZtqQuJlgpfBwM9W9neJNpi6ZUWau9fuXY9lJWEMRC7w4iS49agA00OjUAABEAgQ2AWRUn4fh1CGSCToZTSIbYwgIXxSX5CpY42xhS5EYuSxKVElNSvagGREQde67h50rjWB7qYBtTQfzlNKxFKlIEbJy7QuKnQKRAlGcLa58wcdQ6A5YIVfNZPpVTl8rsUrdlgHxpyRSQlsWo0il9QtzRU8MalnZjCsM95dfx0ePr+qbAWvSpCH0K3RS8qbldYJQeaJmqCpyAAAiBwOgRmUJRkP38b2iL8lPEfsJmWLz6GqWDoyIh7GokSd905RFf8B3EOxpmMglYbPlK67jLc0kUXWV2L/gUaNBsa+3cllRAmFUINpHEVQDAKQ4xikAaU7Izoos8f8LhSjbEVSUMGcnldGCcjfkHtQMzQo5Z2hKuDFtntMkQ5magUvbqc/Cru7l85gT/P6HNgC09AAARAYFQCsydKCj6aM8BANJQgdVHKFUxjilI+OEWihN73fYyksXx409kXDplBPCaDcfinQU1o0QHejWhTJtobvVXEFmQY82UdoV1k9RMOQ6+/7krUYGBRUtq4YDkCCBaOFArWFbdkVPBT61N2xHijyioVXqACI6aNBi7bcIIhhVwQ+63bAz5m0OUgZKxRM+8D2ZEvtkwHFov92uT64RoIgAAIHB+BWRMlZe/O4fv4oIz151oToSk4+YAXmtBR0ybJw22Iq3u8vxCLEhMCo/BvRUlokAfjsGociAWT9SaOakaUBGSivtIsm6HGkVfWfPK4Xd+6TudPRYwUbYYQJb3c8VspSixbYT5TDEeUNKhsA7m8LmgElHySyax7ZYWPMEs7GQeGuJThLB0rsRT6ELqd76ZfTkWv3nwfXAUBEACB4yUwY6LEBOAsw0HeuLMddeacg3SJKDEqxAROKyx8Xxf5fJKAuly5loR/amkyAWkIoVlwZHXRmpIBUkDEUc0yES5FB13ZpkkV6NDlHHjp6vXkjGeQpbAe0ig5HRNKBMfXQ+BLDo7a64Wf5v00qSGPYuF4J+0V64wbRp8blZmSPqJE9LRF76pZ4swotu2wj0Rerp056God1ub860FcH1qU2BdbiHdYh9EeBEAABJ6JQCBKlqvLy8vLS8tLWZO1Wm1lZWVxcTGqHbbXzZs3G42GUmphYWFlZaVWq0UGlVJFY1GvxcJeSqmlpaXl5eVqtZraNAdUbdSJG/CbcvZm3WqtWq2lBsNwqM0VhFje79fx22f7TbCRmoCDig1y2n4mLJkgVDQRPrnCYdhER4pPIn9TJEqCG2ECGuRJGKsSr8TEw3AYY46fi46yykIw15wo0TekiDgdrgLBLNAESZWP5VpFvbu51e/um7hLIL9SDTRY5kZOOy4nnEMVJZs7RPpiuApkJ1xB2ZXKpnvBcsSt8RwEQAAEToZAIEqarWZvt9fb7aVjzc3NdXe6vd3eWmMtqi3vtbOzE/VyoqS+Vu/t9i5cuDA/Py9tzs3N7VygXlq7yCpKLBT00s20/62NVtSLn4YBLGwRvae7ylqtpm2urITfDLJdWdHhX4qDovf07c1rt+o2208Rwt3/4oKHc8DE470et4nCEvct2gpxTpMbfojM0Rbxkdp6ZdIMQirZz+hkLYqvkVfBnb1uRs4dWaBp9onlNG6mmfM58Ce8nTVRHn7ogiry1lqWnsvrbmm8NV0imy9du16XCxq3GfI5jduPT9hA5N7Ma6wP4Yw64Ynw0tPKZhoMOQs0BwEQAIHRCEyqKNm5sBNJGT3/ElHCb/clH6NtDA5BFooS2yyOZFKj2Dbmkd76r1ze05/mSSHp3RkdA1zkC5MEPvwH4apkFKUlwksyO+KVR/pR20drGZB8doQci4fzXpmp6UO1/EQCEQByipDFk0h7+OYhBPs53tZ7lzRS92V0HFzDmC0jdGb1yVsrSqx5eiy6rtu4tXDOmysxKGlyhHIoudhAkWPu9WOGIbZuvnJlM254nubF4zpmGuMSCIAACJwcgUCUDLsRo90atpfLlIy4fVO86VO6fVP2vkxv9MXhJNm+0XpCRrvysn2LjyKo+b6T8JMuXxQfVXX4p/+6Lx8LQohegyQCvX6rF33vlvvSzziqib7CMo9I0TonJvhODRePoxCeh0mjROkWr3vS13e5KHG3v0qxRUa8wEpN5q/ENGyrzHWpeIpeLbJNPF9revDH3HQyjrHBSJSET8te/AwtUORh38HdRUsQAAEQeFYCgSh5VmOD9XeiZLDmx9SK3t+joOgsl75lu1b9CvRW7j+b5lonPsh3f1cO4zH5JsN/9mQMBSo7tC9zgBT6xrgURTV6akOs76sFk/kuMiuq/JzYK33ElYRLAFAY9Nfd7KwNqvIpiiT6hhDiTIk1knzJCk+5OFNCwi4CImnwChbpSw2B3Q62V/hFlY5rkXpXhy8Jkr6zdNhfdYdC9CX2R7xs/ELILlwOFyLfPemECyAAAiBwMgRmRZQkQVHgFKkCcXW4YhDPigIShQohjMLkgfMwjMcUM0R0Ia+oZTiEvxJGo0GiWjAcuRQM57wSOGxgdj6E8xKD2ixL6FV2CnzM1sMJvIoirnAlTo3QQKmEch0ysZm8NSIj6FgQ+0MLbuKuwEMJAm7osrSQaxQW8l0KHBO6jWl7wUdGQ7fFMLS+WWLH8T+FGAdFEAABEBiIwIyIEhsdc0xycTfXruiajgH+nd3G7PSkQhC68iEnOpSqw0k/UcIj2q2WKBOQeh3ON3NqwXfhqQWjB1PQDWkiMgT6kGwb0xXPh9v7p+4EjE5RGF0yqCiJYieNGGgLPxcqydhsl0nKRNG6IPZLCyJPY2eqDXgCzmAoQN3lkgItk5N9ol3WMSZs5EWuY+i2tUYti3Hl7NieeAQBEACBkyEwE6KE37ILYhWFkyA3MDhnGwmy3U3MCySCD11xIBeDRvGDngayIP9tHDQ7iiKpEtKmOQWSpgRoChT5jLe2QdEWRrz3oU+cxIMyUmPKSiXfRtYmKQoXCDlehm7kpubaG4AZ46GRZPvGkc+MGGzTaLYpqIG2b4hzzn83elRgZ3zeSNamplxjV5DtC8p6IgX/U9g+bLBPG9sWjyAAAiBwDARmQZTQ+28gDgQ3G5XFpf5F/Vm/0KYwwG/9LhpZUULv9e6ibc0BIMgWcA1ZiEWJ7fLMj6Vpkr7WWQEUge3bu7xBcaZER1MnNcLITS6VBNGyV0K5P7Y2tGAXNDpvm7yohltE6l48i1SUqL2ef4XwopSLy2vXV+lATy4NY6fpH9mZELKvRAkEQAAEjpnALIiSY0YGcyAAAiAAAiAAAidBAKLkJKjCJgiAAAiAAAiAwNAEIEqGRoYOIAACIAACIAACJ0EAouQkqMImCIAACIAACIDA0AQgSoZGhg4gAAIgAAIgAAInQQCi5CSowiYIgAAIgAAIgMDQBCBKhkaGDiAAAiAAAiAAAidBAKLkJKjCJgiAAAiAAAiAwNAEZkmU/OWHX/7yT1++8Q9/naf0t7/75Z+oAf37/W/a+Ub5q1e/ee6Db17I14VXf/LZy3e/2uyGF4Nnb+/efdyvTdBhoCevPbh99PTGawO1HcNGW/ee3j367u7h/TH0zbh09Zvnfv3lj0b2j15C3z/3wfc/vDqyCXQEARAAgYknAFGil/Cnv3njT1++/rejrGf3yx+ksaT74Yt3H+/+JLF3VqLk4Mndoyd7iTtnf4Ec+27/IHLk7RuPAglyjKJEmxIj3t8/+u444Lzz/K+/H1GXZF9CERI8BQEQAIEZIDBLoqRkOdv/8MdhsyPG2kc//OD7H9x4J7Y9uiiJLT3jcxPOKe7yv7FLNrAmiLyivE6qVJ6RhOke6xtWRcchSpRSBS+Gfo7/6Ma3I6qZfpZRDwIgAAKTRQCihNeLdnaG3LLhfi/sF3w4Hg9RsndocgAUiaPAPzavU+ek84h1w0nldfYOv7t978G+zRvtHT69cfDgtn3qfBixQLsw3z5ftj2XMQxRkoGCSyAAAjNJYDZEiT5Nos+LZPdoRhQl9Mk4OgRQ+flXL9OhkOjfZ3X98qLtm8/qSh8coTZii8df5DbR6/Fnm7eFzdsfVqL6zFNKQty+97ZSiiMxFcI/vXNRkEThdEU+v2KyC3HqheTF4X3la6NTLLwpY3I2oirewQn2bmSmR88lmIJ08tGDLV2XP0BDk90/MCj2DjkT89qD248ebIXtWSRZJuytGZf8fLKnxCwyOo83cfY/Cpzs9wSipB8h1IMACMwKgdkQJWY104Mj8nCrO+U68OGSko/FZZkSf46VFUx87pUvWhFjX4f1Nx+/PJAQsR3oUYdPE0fFKQrdJoj9shuVWSh4EXDwxHUP0xiBERPOjTjgKicUlFdI1r7TJayNXIBnneGGs46F3fVVctIZIbVxVw+XtWCVh9FnB0/uHt7fuveU5mirtHrzWzlsR0LQEs1cyY6i1AgKY4QuFgseQQAEQGCqCASiZLW+2t3pttv5O082Nja6O93F84sRgHq93t3ptjZa0XX9dKPNvRZ9r5s3bzYaDaXU+fPnizputDe2u9sLCwupzUqlsnNhp2i4zmanu9NdXV1NOyqVihLbqjhTUq1WL/Uu9XZ758+ft63NY1ksKRMlQoXkmuVECadJ3kxTHZFH6VOO9/xxf6AwbwyEKiGwSlWBKZM/oEZeFnAXKV+o7AWKEUwu3rOaMfs1spcYORUlJHqcBWrptYV3kixruSPyHNzr/v7Rk/1D1jS+Y6CxjKpzaomFmph76hL7m5OqlaVKb7fX2+0tLS2JSekiJVcyx5KSdrgAAiAAAlNPIBAlnU6nt9u7eOliOu2FhQX9rtpYJz0h/3SvCxcvyIu67HqtNdZcrRMljfWGtjk/P+9qlVKLi4v6uuzlGqw313Xt3Nycu+gKWkBstDfcFVEYRZSs1lf1cJVKvGFSeKBEKZVTG+RJdPdNrllOlOiOvH0zdL5ER2uzHyGjOIf/eAuGnCzIAbgqs6djNmK+c+mKElHCsiPYEyEjmXgfyQK3eqkCoCuJJ1owOb2i27DcOXjCqshVKa+TxHylPIo5hIkZ51lcyImSarWqX0XValW0572e4c+gCAsoggAIgMBUEQhESX2Nch7r6+vpFOcX5pvNZrvTrtbkuyo11L1SsaKUWlhYaLaa7XZbvhc7UVKr1dqddrPZjETJwqLptVxdTj3Rvdab69k8SrPZ7O5063VzhCPsPoooqdVqnU6n3WkvL8fOnGKmxM6DRQwfWIn3d2yL3CMFXQrMrEL8fodpygkAiu4ukyGCdGyupKo0UxLpldis29wptJ8XJVJjSZs03OF9UhWH9/XxEStBvCgR7cm4ToF4oSZPk+imQ4iS+EtrlqvLHf6T/yNYB0Y5hmL74hEEQAAEpopAIEpOZ2ZOlJzOcGKUUUSJ6J4Uc5+JTaNcCoSqRs6UyMGLjMs2smySBKUpkCDipgrAmSup6rd9U3qHi1Yte/Qladn7btJxi3Iq5CppCz4yQlKDj48YmcLqR2zB6Hk5UeIKbr6iECAS18NimVQNW7pnI3RxfVEAARAAgWkiAFHCq1l8pqR0sUu+l4JvpUlPgRyLKImMsItvffqQ/j59K3VYR+j4FGfYjjMEXg3ohIEP3vFB1/BYiTUVpUNCmxTvfTLGdvGPLmHj9nR8nVIulSIvcpd8soR02FN7o+/9/aOnt80BlKzscBepkDdoDv8meSbpD5VHSXtAlMQU8RwEQGBWCcyEKPnrv/m9/f54d4tN+K0kI4oSRcdKir5g3m+1PPa3+EZ6QuY8gvbm7t8Xf/4zfmXKu4X9zTviRfvKnc9TUcI6QB68cBs09uCIOJPhFYkx61SCPPzBdVqy+L5WRpSKEiMsfC9x4wxbNd56JcRXyaacApWFq9JJKXp4G8idWdFG2LLTH2aWbmijRSKD0iZV9RMlJckzOWBYhigJeeAZCIDA7BKYCVFykstbkiw5yWGHsJ09RTFE/xlqmp5o4SuFuZMYzYgvBoiSGCSegwAIzCoBiJJnXnn6cDzOt3RmcwPPPOupNMBpkiBVk14pnDhv3Iz2m3z8Eoq+ha9wHFSAAAiAwPQSgCg5jrWloBLfcHEcdmHjtAnEO1N992ucg8/2K8GULMGvBDuYKIAACMwqAYiSWV15zBsEQAAEQAAExowARMmYLQjcAQEQAAEQAIFZJQBRMqsrj3mDAAiAAAiAwJgRgCgZswWBOyAAAiAAAiAwqwSmX5T8+Mc/Tn+2ZlaXG/MGARAAARAAgfElAFEyvmsDz0AABEAABEBgpghAlMzUcmOyIAACp0tgr/f6+1cubx/3oGS2txVZzV6M2uApCIw3AYiS8V4feAcCIHBWBLY3r8nAT09fej3zT2qO+tX3X7p2veJdTkTJyvUrUk/Q03c3V3SHwiFoXGG2cvld+dSMtnUrc9F7ghIITAIBiJJTXaX6m49fvv2heMdKR9c/c/PVZjeteoYr9HXp/X635RnMn3RX851m9kd2Tnq48bH/6r3fHh19fHT46vi4NJonH/3rn33/r38h+j7/5f/+s29+KS4cc5HEwdW9vNGtWy+9fquer5NXtyuXb73kBUSkUXRLuni8oiTJf9BAXoWwpgm1kdY0WUEzyDTllFEGgbMmAFFyMisQ/fCeHeTMRAl9Xbr4HTvrz9k/5r/HnX6vx/2cnlLqGEWJNiW+S17/EOBYwlGqUJS89sbXRx//4SC7gK/+4ehjkjL077e/ey3b5lQvvvPBn3//7//ho2jMX/6H7//9pHRJkH6Ixo1lRFQdP/UKZnxEiZAabqZbtyIR5nVMPCU8B4ExJgBRcjKLM7ooOWZ/4u9NH7tkA2uCyKv0h/GOj0qsb1gVjaliK5l1kSjh61/fu2y7Xv7do/d+ZZ+czSOJjz//MpfryYuVY/CyLB67KD70ONlUBO3mnHqmJBUlez2/B2QmVgZh6LmjAwicFgGIkpMhPR6iZO/wOx1uKRJHgf9k5j2CVeek68u64aRSF3uH392+92Df5o32Dp/eOHhw2z51Pox7oUCUcGblrFVIwO4vvvn3P/v2g+eDa/4JbeKE2zq+bvRS2XnPsm2dPiOOb6akd/XdKE0S7Pj0mReqQWCcCECUHPNq0AbN3eSfPUdCtW++rUiy6DafiZ1tfZokva49/NnmbWHWGiz1npIQt++9rZTiSEyF8E/vXHx394j/RaqF0xX5KpNdiHuRvDi8r3xtdIqFN2X0WPKAS7yDE+zdyEyPnkswBenkowfmZoT8ARqa7P6BQbF3SGX12oPbjx5she1ZJFkm7K0Zl/x8sqfELCJigWfBk18duv0Uv+eiL4qsht52MZLCbNzwLoxoYzd0/AaNtix7lW7ZsJoxmzvRUZWD9+ymT3CKhfw8fFX52sj+5d89crOLqpSiNEmycSPZFOVRfvHJw4cPH376lmw7YNlvuKQdyvRK2Jpa6qMb9pDHwKLEdgxPfgQnZK1NpYLMTXYI8sunPah9milRSm1vXhPXZZdwYngGAmNNAKLkZJanJFNy1511ZZ2RyIvKz796+a4UK+ThAIdR0ono8GniqDhFoVsGsT/uzELBi4CDJ657mMYIjJhwbsQBVzmhoLxCorHIvpMsrI1cgGed4YazjoXd9dXACKmNu3q4rAWrPIw+O3hy9/D+1r2nNEdbpdWb38phOxKClmjmSnYU66545Jjtwn+Y4WBdYgI5l9MkBykVKUqM5dCOGM4eKHEjijotLLy1g/fcqZQwxRL4rMXT0aM3eAeGq0xZKRW6R8Il0CV0vvV//8d3pA9xmVIpmROvI4sS3mQpOOJKoV1G9NiX9LkUMWw5Jzjk9k1igiwEDUhViJt6ElFSKGX03TfFoqR+Nbglx+uYxCdcAIHxJRCIkvpavbvTXW+up/7Oz883m812p12r1aJa02s902thYUH3qtaqrtfNmzcbjYZSqlqttjvtZrO5sLDgapVSple7Xa36Xq5BtZbvpRusr693d7r1NZ+AcN/oWq1WO51Ou9NeXl521kyvJveq+16uQbVmemWdWWusdXe6a401194USkSJUCFZ/ZG7yPLlzTTVEQ+bPOd4zx/3Bwrzpn+oEgKjVBWYMvkDauRlAXeR8oXKXqAoxfkGF+9ZzZj9GtlLjJyKEhI9zgK19NrCO0mWtdwxfrpe9/ePnuwfsjDyHQONpZ30215kQc49dUn464oUpwOpQTHeKwYb45Nwbg2EUd9eVYWihFoYGUHZFDk06xU/tLNltIUTKFQh3CZrXoXoVI1IzIgqpWg6XvQo2p0p3rvRDgy9g9NoNOh/urXkfzq2F8R4OUWdSwj1ga7X7wydTifz/3gsSnyGI7Jd+DQRJVHLwOEBMyVB0uUlf5okEGQkSgrEWeQCnoLAGBEIREm70+7t9i5eupg6OD8/39vt9XZ764n46Gx2inotLCzoXo11UiH6z4mSRqOha+fn520lPc4vmLEywV6pxrrpFUkZbeHipYu93V5ns+MMOlFSq9X0cKkoudS71NvttTtt18sVaium19LykrvoClvbW73d3s6FHXfFFI5ZlCi/4yM0TTxo0XP+TB98yueWHP7jLRiqKckBCFNmZ4cUj8l5lIgSlh3Bngh1d9kRH+8jWeCmlCoAuiJ8MGUWTFJ5mFM1lJshVeSq+I6eJLMi5VHMgZx02R3nWJ+C3IXxmyNBIDe5DRHLpc1RRInpb3ZqbOqiRMeYlm4XRhdECkc4LHMqQv2Ivl73lB8o0W4OLUouXLzQ2+1tbm1KTLacfE2IraB7uG6J+C2uV6tV/c4woCiJchWKZIcJ/1QlsiA0SEaUBOdaRhElYpsm6K43g4wDwShiuiiCwFgTCETJan21u9PNxmalVGuj1d3pvoB4OwAAIABJREFUnj9/PpqQ7rXR3oiu66cbGxvdne7i+UVX60TJ4uJid6eb7bjR5l6Lvpfrfv78eeq1UTAcd1ytr7r2TpQsLS/pt570p3A6nU53p7u66nu57svLy0W9lFJra6eTKbHudD98MXMYxdYWPZKSoDwEq5AkrLIgoOjuMhn9REmQKRGD9hElzr7oYotWcxQObRvYDiraD/LXqUSeHN4nVXF4Xx8fsakaL0pEDzKuJ+WFmjxNopuOLkpkukIMq4tOEPhYLts8gyghMyI70k+UBJkS4UJJpiSqEp10cdBMSb9sSmB4Xec1RTbUV8vEhr+qS4VBemnJvDMsLSUfPKRBm8ZY2a6Qvnn/yuXr+twJpU9Wtunrh85clOijJJwgKZxvDAbPQWCcCASi5HQcc6LkdIZzouR0hjOjHHumRHrP0mT3J/JSadkkCUpTIEHETRWAs19S1W/7pvQOFy1o9u499Uc63JhUSMctyqlQa9IWfGSEpAYfHzEyhe0kosqJElcIxjZPAkS5BtlrhfsyurUVDYWK4fhESXT+I/C2YBRuEykPmSmR5cCefTL6mRJrYajH4zniKofMiRKldLyn//qtE+41BqLEeQ9R4lCgMEkEIEpOZrVYN7z4859F1qPzqrnjIyp7MbCTUzxvfUo3K2TvVtAROj7FGVjUSRR/F65OGPjgHR90lUcrvKGSTIlWFT4Z4zvZkkvYuD0dW8OPqSjRp2XDYyWuC+mwp/ZG3/v7R09vmwMoWdnhLuZGkTbLt2+u3fmC1uCLO9dcH6WPWYRnO3wtb3+I8xnhKVFuVyQXrJrxxqj0q0O7WaM70xfC+it6L8lnROKDrv7OIGm1RJSYTIzY3JEdqVx0c41rV9RAH3T9/M4rrmXfAmUygiOloseopz6FKGHBoU+h+lH0RXd0Y8xEifdToEARBMaaAETJiS0PSQd7E689CFImSvzWjO1197GVNfJu4ccv302/hP6VO5+nooRCbHDqQm6gxKdDvCIxRJxKkIc/uC7a43BHQ0pFicl2CH+ijSTjrVdCPBbZjGYhMy7SyWQHKnDMbNA4/SHXXWiRyKC0SVWRz9KIUjqOxqLE6RJ/6oJlAR9xDb6VVV8RJzkK7vs1o7p9n+BAqzFrz68kO0eUubGehBtGWrKktaWixO4QOZtCA7GfdKyk+JtIig+U5BVeCDx8RoLA/YhMWEW3yxbqlaipfMq5EHtehI3kDrqK46XHIUpGvftGOl58qjdqhacgMG4EIErGbUWO3Z/sKYpjH2UqDKYnWvhKcI/PVEz0VCdRlAtRqvwbXTn5F6WdShwnASF+si5oWXTENWgUP7EGKVlSaDnqpBMnuduGY6kRJFeclrLHViKz8ktHMkO47qJbRh6JWhRBYGwJQJSM7dIcl2PZ3MBxGZ8uO5wmCVI16ZXpmvHpzIZOlqTfNE9iJfcNJdonnSkZ/MvTxD5LMqmRTlfs9cQ3mpiUSanayCVRElf4wkj+WFOkNgruvuHjt179ON1ju+IRBCaAAETJBCwSXDw1AvHOVPl+zam5NfkDDfMrwW/xl7k+/OIfhzhPMvmEMAMQAAEiAFGC1wEIgAAIgAAIgMBYEIAoGYtlgBMgAAIgAAIgAAIQJXgNgAAIgAAIgAAIjAUBiJKxWAY4AQIgAAIgAAIgMP2iBGsMAiAAAiAAAiAwEQQgSiZimeAkCIAACIAACEw/AYiS6V9jzBAEQAAEQAAEJoIARMlELBOcBAEQAAEQAIHpJzAboqT75Q8++P65D77/wY13pn9JMUMQAAEQAAEQmEwCsyFK9NqwNPnh1clcKHgNAiAAAiAAAtNOYJZEiVIv7H//3P5H076mmB8IgAAIgAAITCQBiJKJXDY4DQIgAAIgAALTRwCiZPrWFDMCARAAARAAgYkkAFEykcsGp0EABEAABEBg+ggEoqRer3d3uq1WKzvPdru93d2en5+Patcaa92d7traWnRdP2132ptbm+fmzrnamzdvNhoNpVStVuvudBvrVJZ/c3Nzm1ub7U5bXnTltTUerpEZrlKp9HZ7vd3e0vKSax8Urn7z3AffPt8NruEJCIAACIAACIDAOBAIRElns9Pb7V28dDH1bHFxUcf7+lo9qt3ubvd2e9vd7ei6Ump5eVn3qtVqrtaJEjPcxXi4Wq1Woi2GHc6Nawsf/ZBuD/7mBfscjyAAAiAAAiAAAuNAIBAlOgmRpi6UUouLi81Ws91uV6vVyO9Go0GZklzq4nzlfGujtdHeWFryqQsnSnRiRmdNpM2lpaWN9kZro3W+cl5e12U9XNpLKVWtVtuddqfTSZ3UfX9041vIkRQproAACIAACIDAOBAIRMnpOOREyekMJ0fBLcGSBsogAAIgAAIgMFYEIErGajngDAiAAAiAAAjMLgGIktlde8wcBEAABEAABMaKAETJWC0HnAEBEAABEACB2SUwU6KE7rvBb/LN7osdMwcBEAABEBhvArMhSuyvBOOHb8b71QjvQAAEQAAEZprAbIiSmV5iTB4EQAAEQAAEJoMARMlkrBO8BAEQAAEQAIGpJwBRMvVLjAmCAAiAAAiAwGQQgCiZjHWClyAAAiAAAiAw9QQgSqZ+iTFBEAABEAABEJgMAhAlk7FO8BIEQAAEQAAEpp4ARMnULzEmCAIgMFsEVq5fef1W/HPuMYLtzWvvX7mc+XF333Dr1kvXrlf8c6XIsui1deul19/dXJEthikP4Gfl8rsvXd0bxmh5273e6+/3trJtSqr0xJOZkv/JRWObrKWe03QKu2S9mr2LECWzt+aYMQiAwFQTWNnrXXv/pT66ZK9H0ZFj5+vvvyT++ZidiBKOqULunLwoUYo8zIsnGl16TvqgflVeEWWtbFa2K7pXRuiUiRIym3QpEUxZN65cvXUlcFi7d6seT+T9K5evk6bJ/7MyiAVi0IYVJK9R0DdPb2z/D5h5UfKTz16++9Vmt2SBfrZ5+/HLdx/v/qSkzfBVrz24ffT0xmvDdxyPHlv3nt49+u7u4f3xcOfMvbi+82//8lfm39+P/MHxzKcx6w7Qtyx++7x8N7j6zXO//vJHJ8al7KP2AJkM8iujKoJAFQQ2G8+UUhQIrbwociMWJYlLZETYVKQJWNNkvPJax+Gkca0PfDEby/PTcSmcxIgzX1igLmm+pECUJIrBcsvMUSeWbDqEGwgpU7n8LukDNpihQUvpYEpnxHW5UrKsFA3qRIkfNFmyQihjUzEzoqT74YtZYXFWouTgyd2jJ8eYlTy2VxQ59t3+QWTv7RuPAglyjKJEmxIj3t8/+m5M4Si18s9OfPzLf/rNf44wnf/NP/3Vv02sKDl47+jot79LhPKr9357dPRx8O/RG69GMx/hacFwI1g6pi7Zn6F45/lff39iuiT7+dvMRoqGsgnK6FXWjuWLi3mcUXChKxrLPY1EibvuxqEr3qb5jO7MumaKQmMmDCd6ogyItxaWEiNhddmzNKkQCCCtewogGIUhzBvnA0pWE9BFn+/hcQM1xmaE+GCtaYmJ61KIyDJEiViI4Ys3b95sNBrD93u2HqOLkmcbN+ltwjnFXf43dskG1gSRV5TXSZVKMreRLsT6hlXRWIoSTof88b+dt9M8/5t/2nnLPuHHqRQldoav/uHo4z/EatVWjvA4XqKExcf+R7l5ZMVKruGw18r0xMDh2RlxBeMGRb5AH0SxzcdIGsslHmQSJYjHFF9DgzrdYkSJDvA2jrqUiXZGD80WgsyN22UwEToz6yDG5wgPI0oSJtJgDNDUBRBshik3qHOeCvlpZq47YqFqJGcKjFgVSD6EbVymJLyO7Ru5zLnyLIuSvUOTA6BIHAX+HKszueacdKOzbjipvM7e4Xe37z3Yt3mjvcOnNw4e3LZPnQ9nXuAcSZ8sCETJEMs0TqLkRze+fe6Db14o8v7qN89F2zpFLYe4TgFSSgHZNfwQLGtKyzqSmQBfEoB11LSxKox/V/f8zo6Ix1pzFImS0CD7yCHTRNwiYZGEdhPXZfsYBXlrPXcDpVmHLKft+pY+q2HjetCKLAuJYOsEBLrEvvWuhj5wW+M872EFHlpLyWM0olCNz54pWdnmE8o2VZOMPb4Xpn/7pvLzr16+S4dCwn+fmbPptH3zWV29vWsbiLMj5jQJd0zPncjaxy/f/jA4pJ5fcUpC3L73Nm0EUySmQvindy4KkiicrsjnV0x2IU69kLw4vK98bXSKhTdlTM5GVMU7OMHejcz0ZKYgnXz0wJxyzx+gocnuHxgUe4eciXntwe1HD7bC9iySLBP21oxLfj7ZU2IWJ6jzKE2S7teEy6cKRMl/3vhjftNHbgaZIyn/fF3bZFO+F9WKJE00bviUUhrBbovYlPnVoa9yaQ950XeM92hymRISFu/9SvkRv753WThz+XeP/HBH1mD/4cis6/jer5zFPsMp9dobX7uOh+EWk7QZVSlKk5T+fnhRHuWVO58/fPjwizvXnIsDF8qiRZle6TuAjejFosSoEBM4qb0J0rEm8PGYpcC1KPWiI7T5sJ6Gc9YxZNlFa7p5RyZvikSJFDQcnn2MF97qwxkinXBrk+5tCZMH8qkZOpfyIaqRRLCgPQS+YvFS+1BT+mlSw5K0EHmY4kozJbaNECuxRLNOmkffkpzJ3f4TdRjHp9MvSgz1su2bx+6sKyuYRH/kzp3U3xxQiMhV1+HTxFFxikK3CWK/7EZlFgpeBBw8cd3DNEZgxIRzIw64ygkF5RWSte90CWsjF+BZZ7jhrGNhd32VnHRGSG3c1cNlLVjlYfTZwZO7h/e37j2lOdoqrd78Vg7bkRC0RDNXsqNYd5/18b/8t//0b/8SbdakNrOiZOWf/2njv9i2b/39XxXYob5FsoN69UnS2AFYH9igy8dB3DERlgi2Ssdvp0uoO4Vt19ja849FouRj1yscTpH4sELEm3GlouFee+Nr56Rin50RIyyMk9Fw7P/HXhUdvOdmxy2duAk5KKX4V8R/eNV5lilQKiVz4nV0USKDazweK4Dym3WjLj5S+oowRkbXr9v7gWWEtjrJWbPxWJvKqBxq+b7TNH4MWzKh0cXgQG3o+2yDJIf12XpCdqSHfJwzPBvLdylnjZi+XtBYrwoehxQlK9ub4S051nltnty2qiIaMKliLFJO9bbIGXlFlLWCLGmQ6xjqp8ih8XoaiJJ6vd7d6a4311MfFxYW1pvr7U67tlKLanWvZrMZXVdKZXu57ZtqtbrR3mi1WouLi7Lv/Py8HmtlJXMfw3J12fQ6H/TSFhqNRnenmzmzUiZKhArJNsuIEk6TvJmmOuQ8smWO9/xxf6Awb2yEKiEwTFWBKZM/oEZeFnAXKV+o7AWKUpxvcPGe1YzZr5G9xMipKCHR4yxQS68tvJNkWcsdkefgXvf3j57sH7Km8R0DjaWd9NteLNTE3GOXVlZWOp3ORntjaWnJe/7O//y/6d+XH/xX30JVKpXWRmtjQ3R8BlEiDCulCjIuZF9ol6APdemrh0wPThW4YBwoD4roLjBTcxINPvyPLEqEjglGT2J/MKm+w5nWgZ6IdEwwXKDGwqESORWhoN2Z4r0bbWv4HZz15np3p1tfy35fSBjAQnedJggvq2q12uG/5epyWFVZMfd0yABcMMT25rVbdY70Vy5vczLDRnT3Kdw5YETJXo91QCRKuG+ZImEfdey0Q+jtDxcgaURRxRsfeoeInLfNRDkQKIZBsREtaCSTAJtRVLkQ7gSB2cyK2jifaXbOfj3Y00mUhx+7qMrnOcK0jbju1shbMyVejnc3t7I3FiWtx/lCIEranXZvt3epdyn1eG5urrfb6+32UvHRblOv3m6vrFfLSxYnSur1uu54/rw7O0g2zp07p6+3Wq3U5mp9VddWKpkNk26329vtdbvyrj62kVUbSqlIcGSbRW20T3SRt4QG2rgJ58Gf6YNP+VzP4T/egqGakhyAMGV2dkjxmHRFiShh2RHsiVB3lx3x8T6SBW4isQJQnHoRPhjjLBqcXqFeJvNx8IRVkatSXieJ+Up5FHMgJ31ixnnmCo1GQ79UFhYW3MVBCsvVZd2xVrMS/FlECfe1NwzTjkyyDUT7O8lF4ylt8dg9nQGcD2KzjOhcdnsituCSEKNnSopEiZYdPJAcxc0hUhjuulZLbheGClZLRV2kKJFlYYqKXCX2g/Tcvdt9DpRoa8OLkouXLvZ2e51OJ3JHma8gK/kYHR/d0Baq1ap+WS4vR6LEjkDRzsZIWbb1/lHX7ulP8xT1X3//yjV7xiUWJaabFyUUGl2czp7PcCOZD/RissKxnJ4w/jsf9H0lWrvwuMIUj1JixGov540u5OQa+ym3llwfmy4yF4RjdIWeagJiXlRBT0V6Iy7Hs6AuQnyYwfRD0XVd6wZyUslcsa+EwNYEPAlEyerqanen29nM/F+klGq1WjsXdlIpMFCvJS8gnChZWFjY3t5ud9opp2aruXNhJ/iAaxvNL8xvbW9leyml1tbWujvdtcaabW4fs2rjWUSJNsxmWZ3YQyp2wLJHCrqUh2AVkoRVFgQU3V0mQwTp2GxJVWmmJNIrsVm3uVNoPy9KgkyJMErDHd4nVXF4Xx8fsRLEixLRnIzrFIgXavI0iW7aT5RUq1UdGBYWhxMlSqnOZmdza/PcuXPWq4IMh63Wj5ntG61IvKrI2DmmjRvtAucnfET3oVcKlNBr+ywK+fayfUzyDamOySoDrwmsttAWC4bjEycFbkdd5HCybD02jyVVusWgmZJ+2ZRw3Ha73d3prtZXw8tK3L2Z1BR8c6hut7S0ZD6PibdTCopxwCu7Is5VBEGL7cSCIIzHWpSYBIm240OymwpFdxdxufGtHokeFzI5kOvusZ4QcV3qDzsKWbPpEzdesn1DRqwDwqDvEKQ39GWRjPHtTCmE4E8B24Y2QRKNJd2wTfs8FomPzHWzCrz0wTqKIWSbDDfRcryKgSg5HdecKDmd4cwoJyRKtPUi40UzNEmC0hRIEHFTBeBMl1T1274pvcNFq5Y9+pK07H036bhFORVylbQFHxkhqcHHR4xMYfUjtmD0vJwocQU3X1EIEInr5cUBtm+yBka8+4aOg8h9mUSUlJwXKdvTyfqokxNh7HcNo4jurrtCnwajihJtP1UG+eHiTZ9AS0VdApvknj9Q4iZFhZIqbjf6mZJgmEGfRNEr6JaPu0GTQZ4Uf+43vRMfKPBb3eDKYTwm36JcgpUL3icpJnyZhsvExViUSEEjpIOxk/isR2Uj+ograRF66pI3oou77mZnnebgbefOGQ6rabhFCCEVJdaMGIsu8ZTL9WIssIT44CkXiUujQtI2bDDQIqWqxXo+Zo8zI0r0/TXpKZBoayYrL6I26RLmGrz16UP6+zT8IgvuqyN0fIozNMsZAq8GdMLAB+/4oGt4rMSaitIhoU2K9z4ZY7v4R5ewcXs6vk7pzZo4L8Jd4ou6F+mwp/ZG3/v7R09vmwMoWdnhLlIhb9Ac/k3yTIGTx/pE5zzEWdSBvqeEe9kTIaRIwu0bumJrI2/L9nSo6bU7X9ArLLz1IwrbgUmdRCmQLHaboyCum9DuT6toy9FwgUoIxs6couXG6XDyeKzdcrI+lw6nG3sP44OuJV+yUnRzjZtCUQN90PXhJ79wLfsXkqAousioLC4PV2RFYsNhwcfoKIIKBWDveqWjMGE8HkiUeJnCUdmJGKcJ5FzoolMD0blX7i7DdqEFShS5aZKTvpeYpsEeehXsvzjPEhreoN6vET67TrGaoYECceNbUin0U9f5hXPT4QohVqSREIgz6ArcVhCQfce5PDuiRCm/1fKYbwPmdYn0RCBK/H3C/nZiI2uiKnFU1qy2ebcKRQnrAN6GMGcv3AaNPTgizmR4RWJMOpUgD39wnZYsvq+VEaWixAgL3ys+n2G89UqIxyKbcgrujIj2UjopRQ9vA7kzK9oIW3b6w8ySH4QWiQxKm1R1iqKEPCu4uVfrFf9N84Hy4D0dc3PvzluB1MjcEmzvspG97HkUmXFR6hefsOwNRUnmQIbMH0SbO0mcpqgfHzexysBePxL31JSpBMpPeGvZ+3pyw+nEhun46I1Xqc1AooTWRxqUZ3iVimcR1vKxkvAL5uXrsfhASclnD2lAlHMHGmx1mV6xbUofKSDJG0EpblHMTqJjEKsKNy+GFyXsAMXsQpvS/3C+1NeJGNmMy6nBMPpyIzIoJ+unaRozEEeDbAbtvSzwQieEUJwpob7Oss6UiKfxfALn2e1g4YLmECUBjhN4cjbbNycwkVFNZk9RjGpsuvulJ1r4SmHuZLppDDA7Dr02hHN7vuKPaAxgYzabFOVClFKl3+iq81W5hGiWYxgUwyYUQUuictg4esZ9SX/kPsQbaeI2NYJ7ZTkw53oln+ZzosGN68+1UCQO1UboaxD4Rdi2Qd1FaJvsKdjFSHyOFQkNSz5bO70tlkoeUYHz2l2yxsQy/iRDZzIuGePOE1OQCRjJyErJuL2diHEsbcYG5ZS1hTDvIkcay/IsZUrGZQGyuYFxcW68/OA0SZCqSa+Ml8dn7A2fEg1ESXrljF0c2+H5ZMlz8TfNs1jJfEOJmQZnSuJkVfEUg8/HUTOKMVI3RNUFT03IHKAjxzArAihkUqyi7kmIFWFYxrOcKCnwavjLz2icI/EAEIZ3LNrDksR4UK/GJKvhMiUjeGXu4fJTJmecKPFyxy70aEOcSS+IkjPBjkEHJRDvTJ32fs2gfo5Nu3iDpuzry8bG6XFxZJhfCX7lH/lIz8NPMqfGxmU+8AMEJo8ARMnkrRk8BgEQAAEQAIGpJABRMpXLikmBAAiAAAiAwOQRgCiZvDWDxyAAAiAAAiAwlQQgSqZyWTEpEAABEAABEJg8AhAlk7dm8BgEQAAEQAAEppIARMlULismBQIgMCUEglt5p2ROmAYIFBKAKClEgwoQAAEQyBPY3rzmvyJCN6FvIfNfSGq/Cizffbir7isost30t2XIL8kIPTGdshezBnERBM6SAETJWdLH2CAAApNJgKVA8LVjYdQvFSWU/Aj65hgUfCXotesVzp24r/vUcqSysm2MUG0smJQq+Kry3MC4BgJnSWDmRUn02zeZtfjZ5u3HL999vPuTTN3ol+jr0k/5d1tGdzbtab7TzP7ITtoAVyaYAP3UyzcvFEwg/FnHgkbPdvmF/e9/cOOdZ7NR1jv7Naa6Qz6iZ42xaPCpEf4Kc/+0XJRs1+nrzwfRJbLNXk93KXQyo2OMZBHftu7UjP121+zscBEEzojAzIiS4Jf2BOyzEiX0denJT+4Jv86smP8ed/q9HvdzevRDD/ee0s/yHYco0abEd8nrHwIcSzglv4I74oIFX8Dqf+F2RGvH0Y2/bf2HVwtNDSVKop+ELDQaVbAPJ6VLyr54O8x2RF4lT0kc3Kr3/ZF6r1QCC4OMJTduuP31yor+Nd00F2J+0UZIDTdTq2bc+IWyxrVAAQTOiABEyWcv301/4/cEV8OEc/dDu8cR14/VXdYEkVfpD+Md35CxvmFVNKaK7ZhFCf+Orvi52l8dnvkv55X++Bwv+mmIEqVU8Q/zPuNLrywel6Y3+o0bioxBTA3YhvWH/K3awimQCklFSf0q/8yN9L/QgmyEMgicBQGIklMVJfTBkRMk9M4eBf6zWP7smM5JVztUHHK9BizsHX53+96DfZs32jt8euPgwW37dEAjp9TseEXJwXtHR2euQgJyL+x//1zxj8/ppkO9GEbMlPBIgzgTeD/Qk1A6BF1kWiKoGOxJaHkAwUHK4H39I2rpCPr4qttqkYXe5eypkYJMydVbmfMrECUpcVwZEwLTL0oqP//q5bt0KCT891ldrwBt33xWV2/v2gbi7Ig5TcId02yKrH388u0PK/2XlJIQt++9rZTiSEyF8E/vXHxHOyPp5ginK/JVJrsQ96KQcHhf+droFAtvypicjaiKd3CCvRuOScZDPZdgCtLJRw+2dF3+AA1Ndv/AoNg7pLJ67cHtRw+2wvYskiwT9taMS34+2VNiFgPrPP7t3I+Pjuif2DShzZSv711+9d5vddXRkfnFXXHF9OIG8vd45UaMlBrGpiIJovvaWr4iRg9A8hNpU46lFMsjY/DRG6+6rmTzvV8pzsHwcF/fu+wqlVIFE9dNKE2S37iRy0pLIDfXghet3YYLLpoXrX3x68HkC+mue6lIXws3kt765OHDh6P9El6JVnCbHdKHbJlaapVQfM9LyUDGJsuOd68EuY3scIpayj0grWb8D9lrZ97dXMlnSpQiCyKDUrIBlHcAV0Hg9AgEomSZ/5aWl7Lj12q1lZWVxcXFqHbYXjdv3mw0GkqphYWFlZWVWq0WGVRKFY1V3ksptbS0tLy8XK1WY5tlZ0oeux0cVjCJ/sidO6m/OaAQkY7o8GniqH37dg2C2O+umgILBS8CDp647uEn18CICefmHZ+r/Ls/hQ1p8K4/eMsRxQV4DkhuOOtY2F1fJSe9uPGfkrMWrPIw+uzgyd3D+1v3npJLtkqrNx8C2U7oM4kVcyU7inVXPHKkd5smQfLDigBTG2+vaCmQkxHU0of/IAVibVp9Q7LAyAhbJVWFd5RH91Wv/sH5HNhnneGasdBxCRjWUlYDqZKJ86hFOyahSE1eb16gcJV/AZjl8y85Pzd18MSvowpfb77VO8//OnvitUyU6HeA5eqyN+NLrAPk0VFfxT9Jnz2ooVS1Vq3WkreUWMQMmSkx3ckl/0Pzwh9RzIkS42rYvViUbN0KbslBpkTgRXG8CASipNls9nZ7vd1e6uO5c+e6O93ebq+xTnpC/g3by4mS1fpqb7d34eKF+fl5abBkLKWU67WwsCB76bL2f2NjI64qEyVChWSbZUQJp0neTFMd8bDJc37/5Y/7A4V507/oXfv/yzCqCkyZ/AH19LKA7chwQuUgWpBkcXGC1YwJNrKXmA6N69rz9cACXfHawjtJlrXcMX5GtBDCAAAKSklEQVS6Xvf3j57sH3JI8x1ZSDl5pJMi7mkYLDWK0CXhryuaXIJ7zkHdxPswbOu8gov3NKM3vg4yK8YIxX7ZjMO/1ShsU9SyUPBpD5GDceqBzHJKwzfz7gbG+TJ5ZfuGeiVwuGziZOdHN77N7d1ES6DPOHshIhzTKx68GqNXYNBYPClqNsIOjn4HaLVawrwtxjLCXqfHUFKImpWVFW2zthJ+fLLW6F4ekzgpKgRZCm2bemlhUZRToesZg+aW4EJREnVxuZxAkJEoKRBnYuoogsAZEIAoCc+UDCpKlCKlwltCA23chEvLn+l1TlsGUQ7/8RYM9SzJAQhTLknu0hXRe72UF1RlNm5EIRPv45hkZ5KKErqS2mTBJJWHTf4fPGFV5Ko42mmdJObLftoQKK6TGyRKgs/l1reyRyECxEaMEQ0jihK5J2L3aD4+KhA6Bc6ZDRebhok9Eb1MSz+Q3IQqFiWlEyfzBQrAC0rtg3wV0RWWhnLdpUSOXoFiFvy6ki+YQCKbhgUuCTNJsUSUeB2Q9OINkYx0UEr1FSXWWJi0KJIaujUJGrcjE3a05sQjNYi3b4ykCPsWZkrYmBi05KZoMS6KIHAGBAJRMuxGjPZ32F4uUzI22zcjZErsUrGIYXViD6nYmrJHCq4UaPn9PQmr7l3evU1HwViaLqkqzZQURwtt3WqOQvu2gXcmveLraLjD+6SuDu/r4yM0d5qgFyW+tUj/MCKvdaSGewZRks1AKBVtcAycKRE7MmISplgiL6LGMqdS0ivcKops9BElRRMnKwWZklJRwq9VvyjJq6XgZaYVidWayQvVzYlEyf5H7ukgheLtm8JcCB+5KNtDGWj7xiZOjJOloiSWR1FfO0+7yaJFSf2qvbNG3IkzjCjRR0lYzUCUWMZ4HDsCgSg5He+cKDmd4cwo2RSI0gmPZxAl2nqR8aIZmiRBaQokSAOUxPuSqn7bN8FxxdhXHU726PtIfPAQjdJxOdK4XItoar7XhI+M0MdoPj5iZIrQH6KHC4SuICpdMUDkrvYrRGE7aB5LgVhtlGzf2CMjgT16EttMGrgLUpSEJ0Vck74Go9lJh6OqwCY/yZ8piReaFs6+JOKsyaCiJGfTSXDvWNGZEt9iiFKJSijQBH2Mh71inVEyHFW5XRUzSNzd3EqjEyQmU2L3XKS6Gk6UuBlBlDgUKIwbgZkRJfr+mvQUSHReJCsvojbpGuYavPUp3SHw8NO30ub0Vs7BW76/R82it3udMPCJ8figa7CR70xpYWFugTGJGacwKDCEx0pcPy64hE1eZ8RxhfpEn5ulPdJhT+2Nvvf3j57eNkdYyI6fl+niLuZGcWb7ipJrd76gNfjizjXXx6qEvIaIBUQsSvRdLe7AqbcaHUr1FSWi5NV7v7WbNdyeRIO4FYj1hN0DUkpFB13FuVo5WqQ8pCjR8ig/cW0i/yUl8lXKZS9KgmQVK5K74Wry6zbJBYZng4zNVJT0ufsmWlZJIS2HwTusHzFCC1FCFiKdUSRKqFc2KxN7GKVDePumcvndK5ev9163KZM4x0PGxSaU8DCcMZ3q7Xe6NuqBpyBwSgRmR5Qo5bdaHvNtwIw40hOBKPH3CfvbiY2siapErsUs3Ct3Pk9FCYVYufseaAL7nm4bOPVgXwpOJSR3C2vJYjvak6RJVjwSOvpkqO8Vn88w3kaKwYYlORHhqnRSih49O6tvtBG27PSHnSY9Ci0SGZQ2+4qSX/Cto7EocbrEnymx4qCvKAnvxQ0CfHTUw548Lc2UhIdRXBeHQtoMd15YwfhjJe4gbZkoKZm4GZG2SzJfMO/Pf9BODWH3Ky5eD09vvJZZTdFAnIyWr3ZOoQX/L7A7xQdKzP9cX/zjK45Un0JxeC454lpqk9IV5ltGWGfIMx/UMStKuGWhGsjaIVsyNUJlYSGUMmRhEFES9iqdJypB4JQJzJIoOWW0hcNlT1EUtp7pCg5dgSriK/4Qw0zTOYnJ55MlJzFSH5v5vSTbieXm4KIkszliLZUccbVNkkdWD/4L5ge8jYVkitQTiVm7ZeM1B3fhe3Cs1Ih/Vy+UF9qx4J6deJ+IRi1UPzmXcA0ETpcARMnp8qbRMp8mT9+JyRiR0ySBKEmvTMZMJsdLUgPZbwc5xSn0+e0bnSn5JLMzmvdRZhqiFmFQjyoLn1Yu39pcsbW8dxPdiBs97W2xvIizKdZC+Mg5mAGFTtiT1YaVL0Z8WFHi9Q37Npr9aDg8BYETIABRcgJQYfL4CMQ7U/Ee0/GNBEuOAOmSwl8Jdq1OrlDyK8HmqNbndwbeuTk5N2EZBEDg+AlAlBw/U1gEARAAARAAARAYgQBEyQjQ0AUEQAAEQAAEQOD4CUCUHD9TWAQBEAABEAABEBiBwBmIkoPSvxHmgC4gAAIgAAIgAAJTQOBsRMnzleez/w4ODqaAKaYAAiAAAiAAAiAwAgGIkhGgoQsIgAAIgAAIgMDxE4AoOX6msAgCIAACIAACIDACgTMSJa3/8X9uPn5y8/H/efGa3MfB9s0IS4guIAACIAACIDAdBM5IlOgzJSxN/rXnz5dAlEzHqwqzAAEQAAEQAIERCJypKKk8/3c/ffzkp//dJUsgSkZYQnQBARAAARAAgekgAFEyHeuIWYAACIAACIDAxBOAKJn4JcQEQAAEQAAEQGA6CECUTMc6YhYgAAIgAAIgMPEEAlFSr9e7O91mq5mdVrvd3u5uz8/PR7WNRqO7011bW4uu66ftTntza/Pc3DlXe3Bw4A6RPN/7X09ufnWvZc664kyJo4QCCIAACIAACMwagUCUdDY7vd3exYsXUwqLi4u93V5vt1dfq0e1293t3m5vu7sdXVdKLS8v6161Ws3VBqKEbsP57/9Ktwf/r7+rPA9R4iihAAIgAAIgAAKzRiAQJWtra92dbmO9kVJYXFxstprtdrtarUa1JlPSyGRKzlfOtzZaG+2NpaUl10uKkv/64ldajujcCUSJo4QCCIAACIAACMwagUCUnM7kpSjBLcGnwxyjgAAIgAAIgMD4E4AoGf81gocgAAIgAAIgMBMEIEpmYpkxSRAAARAAARAYfwIQJeO/RvAQBEAABEAABGaCwNmKErrvRv4mHw66zsSLDpMEARAAARAAgRyBMxIl9leC5Q/fPI9bgnMrhGsgAAIgAAIgMCMEzkiU6F8JTv6LTMmMvOwwTRAAARAAARBICUCUpExwBQRAAARAAARA4AwIQJScAXQMCQIgAAIgAAIgkBI4G1FyUPyXuogrIAACIAACIAACs0DgDETJLGDFHEEABEAABEAABIYlAFEyLDG0BwEQAAEQAAEQOBECECUnghVGQQAEQAAEQAAEhiUAUTIsMbQHARAAARAAARA4EQIQJSeCFUZBAARAAARAAASGJQBRMiwxtAcBEAABEAABEDgRAhAlJ4IVRkEABEAABEAABIYlAFEyLDG0BwEQAAEQAAEQOBECECUnghVGQQAEQAAEQAAEhiUAUTIsMbQHARAAARAAARA4EQL/D3aqj0irGbalAAAAAElFTkSuQmCC;" parent="1" vertex="1">
          <mxGeometry x="1685" y="244" width="288.02" height="229" as="geometry" />
        </mxCell>
        <mxCell id="9KCve38od3s6Ke8yRSOH-27" value="因此，为了在doMutiPlayerWorld方法中，将主角创建出来。&lt;div&gt;则在SceneVieMgrImpl中的enterScene &amp;amp; reEnterScene方法中。均调用enterSceneCompete方法，并抛出事件：&lt;span style=&quot;color: rgb(79, 193, 255); background-color: rgb(31, 31, 31); font-family: Consolas, &amp;quot;Courier New&amp;quot;, monospace; font-size: 14px; white-space-collapse: preserve;&quot;&gt;SCENE_VIEW_ENTER_COMPLETE&lt;/span&gt;&lt;/div&gt;" style="text;html=1;align=left;verticalAlign=middle;resizable=0;points=[];autosize=1;strokeColor=none;fillColor=none;" parent="1" vertex="1">
          <mxGeometry x="1685" y="548" width="804" height="43" as="geometry" />
        </mxCell>
        <mxCell id="9KCve38od3s6Ke8yRSOH-29" value="" style="shape=image;verticalLabelPosition=bottom;labelBackgroundColor=default;verticalAlign=top;aspect=fixed;imageAspect=0;image=data:image/png,iVBORw0KGgoAAAANSUhEUgAAA1cAAADtCAIAAADcGRgpAAAgAElEQVR4Ae29f5CUx3XvTdV9q943dtX7OnVTJZc1Mz27s2glWIK82AgQAtmwVrxSJND1EmFJBK2R7horMpExBl2EWKMI4sUBR1aIEUhBG66QhGU5yA4rO8rFEo4cFhk7fnECm0S6TuLYMS7pv/xlve/p7nP69I9ndmZ2dndm51BbTE8/3adPf/uZfj5z+ulnZin5JwqIAqKAKCAKiAKigCjQegrMar0uS49FAVFAFBAFRAFRQBQQBZRQoJwEooAoIAqIAqKAKCAKtKICQoGtOOrSZ1GgoRTY/onZv3x89snlDeWUODO+Ah1ztz547w++vvPHx+596ra5c8avICVEAVGgwRQQCmywARF3RIEWUwAQcKj0xC2lNx+f/b96WqzzzdvdtltuW/PXx3b84Ctrti7sYOm25u2SeC4KtKICFVPgb21+9E8e/FjnJGq0aueRZ/ZtjBtYtfPIkZ2rovz33/nwgX33XhflT1/GvU/9zWvPb7l2+hzIbhm0fWIwFjG7xuQeef8djxz44sZGGrw697fRBK+pexv3PXNkcHVNVZVSlc0YBgG/NBda+cLvXfHLzzU+RGzc98wz++6tVZbGqJcx2VY4qc5ZuOypr2z98XD/F3o6WH861n+q/8zxrX/94LJbeDYrIcnxFFg9mL4KjldPjosCNStQMQWqzo89ePjowUkEwYyJSWVQoFLLNu47cqSRQHDRludev/D69IHgvfsi1JvYhRxOK7jmJegcZquJXAuv2/jFI0cqAcEPbvvQ/hd62d+H1t2g2hZdtf7ASsj8n9etv709ixzuBd/Nv9QXiZo/NVgxMWWvGnxiIrIopcBCNI52IKrpxcZ9iWFDzyt6TZw8kJX4SpY0N/6MwREQ0vtKBzQOJs15mfr0s0Ob+uroFa7lTWIcsyaoys2DhRRYw2esii9pqwafmACda3cz+1LBpNpx/fPHH/zrrR+4OtnxKz9w6CsP/mD/iol8xUuIn2yLMvUkZT/otX9vIXPZCdbQBD/mGW0kphResmpleGVJiwJJBSqnQKU0CB75062TFBHMmpgyKVBZEBy6eyIzTlKWmjM1CP7tsWmKCEaX7XsnTAJAgUeORFcdMxtOLCKiQXDonnEGr/Omro99et76Q70HX+rdumPexz4970PXdX7yhdV/+tzitZ+et3bPh7/80k2/vz4xYICABAirBncmwsyJWtVlRZPy6sEjVVzOk43BNf5IhJIaIConMEON1P1kQ+NmRqeT/k5QMQWOO2O0nX288+wt4AYg4KMdIQK2FU/+Yecvh0q7ZvuuwpXSYdDGnZMS5I6mo/qw15EnoliPIdoqTpv6eOI+HL665tt1mUm1Z82Zr+/48de3/vWD13/sSq/u1ddeDzHCr+/48fCa1EfSK1zmTfSxKlPWfE+lM3314OBkhWn1nEcNqVWD+ybhxBMKLDvWcnAyFJgFgQc7H8Bnb7zASefHth1IgiBEHuzHD+zgpcJNWOYypu3TDK4vMzshYHNk5ypv2jUz4zPwFXljekUY1Vh2z9ATRzLmrMdOvWH+/ej5zab8lud/hFlf26KzojKbn//RG6ceO2Cr/sgWU0pFJdEF/3XRlqOv/ygDBJ0INJu4eJXNisuATDs34uhQTYiS2gHDPF2SFn7dZMq1DWsxUoRDeDVC+IaBHQyGQLPOoBtx54n204yvN7i+RPTuunuGjhwZFwSVUot2feTgSx+5+wZTs2vrS6v3f/EqHQLsvP2Pl37y7nYySQnWL8qDxAQEV3Ra4iWUC2vIy5z5Xn5Qi5MiR1XrsP7I7AzwPRwFGkQmuAb2nYPwcYJBdLFAfVbofPtZx4gGnjbGW8ylD7IeQbci7OYHnDGoBn2iPaX1m8wZQyl1w3K4F/Ds52b/8rHOX+4rfWm+GnB/gIBvfqbtQLxMzAX0GiR/sAuB8krpEdy3Ec8BnKYw5g0fJ+wL1EWBzGljPxpcFmrR1HLTnYUTOyXasdCfKfjc8G8kcGwn//JANrWfuqweoEGcq10rLN8MOo4RfoqD/lLLZsQ98fibcpOq6llzZnjNPfM+8IWhzT/++uYXP/WB6zrUHHr76UW3fBQKJCgQGjX/UAB9ZgYzG3Wf4qOUg0Ojz/RBvHCAgCnyc82hGs6QjWfrobwXljXgH3oFAfm0qzS1crHAG/xHJrRl7SEYvtdNO+Sq33fsmnfWkWFzlN6SMq5pdiZ7vskbUWBcBWZh/Jyj28bBcos+dloPPxDuortx3xNHjpiPA83X/GrnTnR9WuMHh01M+iNkLj96Hh/nFDdz1ic+6PcWgO/UAZ4HOUh1jz0PeMfKGPhTSkHijTe+8xjUhLQhyFRJbttLGxB8ymCmOxKv2DJZVu0chGsDK6OnCZBZy2SnCUgbxVIleXV7AdDNO20TtTguHDnyhLFOVxpz1JUh1nGTL7OpZ082Z+HgOhHClAbBP+wPBi8s5VOgWrJj5Z++dMufvPDhzbu6Fl4VFrbvQarwzJmI4ObaY05L6rI7ma0w5gPlBE/UIm3Vqp37KM6Kepqjroy9Ju3biFzunSRMcHOekOJuyNjHTCftCaRPJX351EbwUgo9ohG0Zx0pTOekWbmmSxoVSCUyZgxd9Pae0sV9pSd6Sm8+3vnTR6/Av85fHr7yzc+0DSwpvfn4Fd+9MbCqWYc6ag+67igbEGLTiDde+AlyPQWDti9uQFmmFwQls6wA1nJjtHoQpkEzkeLcaI66MkSlNE/q+wFQVTdufJS18nZcWL7WxA4cpG3T4Bj2Vxs3+VAxFNAXOT2pQhlNgQbybPDv+P+A0ODnV643oUFWgNmkIWBi6h7avujxM3jMhOWCoMh2RiT/4UMdnqjQQYI/HS1mXSb7un0H93gOJFylQWc90kneEJt+3djZr53GWzb/8L7rMrqE6yM5iV9doDmWaVDViuDlhy7Ke1GgrAK4IuymobLF4aCe0w8+GFIgnb737jsCAQl9ekJ6VXDumqulnum8jxZ9SilhXPEmzaR3esLatzEEice+Q8ynq21+/kc/et4jswOn3nA5W+DwZkN+pzQDKoeJyZJJZyATKPDC68e8tmjGZ7Xwwk9Z/ocZLx4gE3G5naHSJcMrhJ0j9FdbSCdrUebGfU8MYoQP0nqILUwwH1yOHkSqbnpB+OINLvUwSmgK/GI0eEG5gAKVUrOvu2rtFz/8Ry+tPvjSyvU2RhhUMv01kWZzaAKCk4bOkrlkOZvs4kHnMCV0NScdfi4ozrpq0OdvVtFKih+ELME1b9J5Au/s8LOx88pQPmsL3MT8xAjiIV7MCFLm/4wZg9dYXHrzi6XtLqf4F3/Y+ebnShe/EiOgLaQvosQ3mozxbDcl/E6hGjRNQSFUkg0c/wTBtZlJiF+YUZZkLcxctfMIRfggjbQN4858sGNK0y9Wt51EB/y+0EfMOyd5GZdmbYFNtO8K2Jail4xJ1adAXavtC4/tHLmb3ZubpEDH2cYNLSw/ncg3Ny7MYd0SdRyHgLyGbrI4LoxswIVeFfwoeZnoDJ4VxrgdAjx/qEWb8Cywk4fnp9PYnDGEjdJ44Ujpw9QdLAa53CycCe4aYX2TF1GgIgWQAnG6Ga8STOhHDw+mbg20Z+rGffDxw//Ntys6ia15PGXD89jMuXg0KJzh2rJ7ho4czdgjAgG8N95AFjxwykb4yBIu+9pF4jd07JCCgrrYY9/RmcmSZMdLaAQ8l7FHBL4L0nfzUBYz/eHign7VKObNF/aCAdOB9w+/+OL87hlnmV4l83XZCm6QHf9n1z89YeOFikYH5kW4tnkNsbfe4HoKuTeAgEf3VbBZ2KPA67o++cdLbzdBuQXvH3xp9VB455hrAVJaK+hE4Coe4pJkCq6vuLwkhR9wvkZBdJMYawHlvX/64mQ+bqsHIWRO/9sRJCfxwoOfTVSeCpheurfeeQIXCYYwSIe8DKXx9LCyYUOJEaQquqg9CctefsrMGLY5eAkpUKm24sk/mB1FAVkVnQQW1Lqhz65AWnm6ymJ1OIftp9KNk4E2d6HFIcBKOIiuBqR0LSO7YXr63xIJOYmnCo4RfrgYd+qmsF1/gNyI8/x02u8vnGwoF54dTjGXKjep8ligqfHw/p0v3u0qxwXgWHK+8k4n9M18YO0QpIcmcWZCG5oF2Sgwn+Dj4P+DD4dnB0cnObV6JZldHEHMYiNrB91vxdmBFH4qXWSExivdcfCNnZxxj9APeRUFKlaAUaC9CJWpOs6Erj9FG809szbtwht07oL91EfFfa/l0xmLTKQcKztbYQVczPXiefpgzIV2FZhigcpRoFkjRqMZr2URkOpYbuAfaXPMze9UNlTAzpXpklDLzCNuSoU8lDSjli68cec+iHbYtI1emLFiQS836+EgBr2gaY4SvCs8XTEChvcFdsz5/W/A7pCPrZm99O4lQy+tfnhb4r5A3pRFosDVGGFtHW+CRiXxIuHZ1W9MT50yTPCs7+i68L373BXLRs09l/BDFDBE0Auns+e27TI4yPOTaTw9XPfRMbqSuUP80qVzA39sSf0yzozhisYUqDQIDl35y6GSeY6MK+yl7CkddMEMQeQqfjrQgj2HEbYw270aufBUN/mQB5+UjFq68MZ9msBtGqdWdwrhp8x6iOcYi4dBW9QpSmgP3KeY56fTRBXGd/SZFzZH3P/jTapRqK9CCgzPpeDMJEINKdB+l3EO+lzF82lQcIzcQRgKM4+5PP3JwBAvfVSdvKyk9yFi+UFDVJfnp9OQ6ygQK9J44UixtszkQFfSZI/84vJOFKhAAaRAOMnppEzeF1jBhA5ww+8IxLS92RY/hHSiRx9C+zmFAjhlQJoc8zs03mxFpXFpGLZ3+PcFQo5/72CwIowUqLeGhCWpAZuoDAEJ1HxZzH2BMDvjNYPMe/MFXjCSJXUVuCofoXuSTBYPTUX2zazK7wjEtJmoceDM11N8p69wYJ17Amk7dnzuo65QohoEVErp58XAM2LMv7ZFV9196Ab9+JiVW3dclfrNglUGak158Bz81u7ZDlQruMZrPC2pHzoBXfX3fkJDph1+MrtaMOmzOwJd2gtY6pOfzgdiiAzBgwuVu0jw8yeZZqNmAmPGdRpBx3m8OvUmmWluHclYN6CqmFhcejPeHTLU+ebvpXaHWHrWdUlerZUNk5j7AukQNgKvkGlPAHtyQzwbZj8MsfDSWo0njvAqDEHStWCY6NN3L9z3SRd7GkEDOvhJsV+98AYM8kSHr7Sz7nQC75AYzPmMveFlXFrLgg44h10Bv7uqkkn1N//kKw/qh0XbVWBGgeZR0g9+d+uCwK43S9Ax78zBmc2jwPTQ0Jmp1WB7dXUPAfYggROd2UVOh6h1NpSQR6MD4mBdV9hT0rXLG2IQzz1Mp6EinoquRXd+an/1jQTOB72sQSdqqkesrCRFgcoUIAq0HxwTYqbzzBm5ceuBg8mFYFfEn0w1i7jvOuYCbM3jdzL+8dAFcEaDj5P5l7lH+P39Q4czFoKNS3Y5GFZ7XRiP9vki/Jm9IGZJ2NwjmFwRpl0jvCTvOtzCcuz18g8LpE4R41ou0V3FeUfPDrb3ZiBAJlLSzZV6prMF6coBPsGcwpqwOahtbB8vg3ZY3JQExhxM8MuPPYCTFNlkW1a9wQ2kev8nhg5XshAcVKvuLTnlZlsUp0bB3WnpmTTkFA0BCp6s5YmMkKr7567xgch0lbLjpTvBBIehcucJGzien0yDM/vMFlR+cxWNoKNATVGm85Bp/1FP+QBVNGNghc627+6jrSFX/PRR2h3Snro1kDXNz3N9nTaq2ACP+8ThBdddZaFp+iaD/dK18ZOondNnkddBksUwJYpAtaAJ+rYA1Wk65SMIZwWZZR9q5kmwRxhnzaopEO49NV7S6aFHnAziKKhxJ1UsSQ+IhofFGArMeJQ01uAnLZxAeurgZyN0nDQ0A2feumElsGNDYO4dxEFwkpqrkcm3OsenjWeHj443d+Asx03yCdYVJv/1ZxGjjLwVl4aU2dEPTuKpwM/PRMftVIOQGveIyS1JUaAyBTgFVlZDSokC5RTg1FiunByrkwJ1EDyDCerkYC1miieHxtkdUovVZqvDuaRG3zlV1Ggis9qV7zcPizlzbOeZr9z7g+ObX/zU+9OPks400cIHNAWGeyxbWA/p+rQpIBQ4bdLPyIZ16COOMczIvjZEp+oieONRoFJzi/+rgt0hDTEGk+QEABzFFGttYzIpUPt0dc9HX3xi63eHPmofE1Oroy1XTyiw5Ya8UTssFNioI9M8fgFD0D+3JtI8HWg2T+sueCNSYLMNSp38dauLtGw6IcuTToET8q6VKwsFtvLoN1TfhQIbajjEGVFAFBAFRAFRQBQQBaZIAaHAKRJamhEFRAFRQBQQBUQBUaChFBAKbKjhEGdEAVFAFBAFRAFRQBSYIgVmtZc6pv3v+g99eNp9EAdEAVFAFBAFRAFRQBRoKQVmtbW3T/vf9R/60LT7IA6IAqKAKCAKiAKigCjQUgrMamtrn/a/66//0LT7IA6IAqKAKCAKiAKigCjQUgrMKjbAv+uvv74BvBAXRAFRQBQQBUQBUUAUaCEFhAJbaLClq6KAKCAKiAKigCggCpACs5QqTvvfwoXXTLsPze7Ary27/V0rP/nuj97/7t7PyF8DKfDR+7/6/Fe/+vxXm/0EE/9FAVFAFBAFZp4CDfGkmIULF3pboufkDx74v9/+m//jndFZ73zv134+fNmD3d5xeRMr8K6eT777xs/IXwMq8PzXvvr8174aD5nkiAKigCggCogC06tA41HgnMtPf/u/AP/xv1P/9dE50ytUo7f+7t77GxCAxKV33/gZocBG//CIf6KAKCAKtKoCDUeBDx94l8d/yIL/efjyVh2jivotvNWwCggFVnQGSyFRQBQQBUSBKVeg0Sjw8rOv+FFApMB3Xvmvj065Og3U4OIjvYdOzMt2qGEZqKkcO9r95ddvhr/XOj9et+X1iAJ3fXPTmT/vorHc9c1NJx6hd5UlHuk7f2HT+Qt9uyorLqVEAVFAFBAFRIGEArPucJl3HHx5FP+dOriODux4DnPh9eWDrAqVmVCC3Rf43ouEfWHiPccm1EgdKs974HzvPesnaKhGI5NBgQPfvvkLJ35jYncT5nYabNL/7zw6Ncz3G599TbPa6zd/+du5ifmfcvhod8UUmNv5+vLPPpoy4iDSp8D1f/6J86/f4J1Fd91w5sInjtxV+Ym1+MSF6sGxcvNSUhQQBUQBUaBFFOAUyLq887nR0ed22Iwdz7k0K1O/JKPAho4F1ghwvlA1GmlICgQamzBHlkeo+KjmToK/o931R89JpMAs4HukL0RD/6zx3oERiQJ6ksgbUUAUEAVEgVoUyKDAdQdPOfKbSgpUDz/27nrfF7hr+aET84Cizq85dH7N3iNXGKEsV+1aHuQrNe8BXRLyzyxcDKWvuOcM1OV/D+Bi3OoTmG8L4zigZWy0nBHlCnvhRmf8/JrxV4RpQZMFqAa+ffPOoxQ8s4Grj59Ybpc+KZLHuAoPuSgXlP927ka0b8nv0c4vsIaCmNzAtzFcx8ughS+7zN/47GvLP/soxRS7ByiKBvatEUI98CS9XEt9vPnLr6ORo91f/nanDhwu/+xRbc3UhfwciRCCbIICmXErFMuJnCShdDdZLDBYC8YzRSnVdeT1isN7QoFMOEmKAqKAKCAK1K5AmgLvOHBq9DiGAtXUUeCcuXOu7C69/M3/MwTBv7r8D7uv5L3s7Ozs1v94plIqlW8Ay9xUt37hXlzVtVxo0A3KLF8NxoDVkBQ1t7m78RJhPDCC8AfERoXBoMdz6GjCiGJeaRw0nihu3DIrWlGqu7t7/tXz6f27b+RMBrBlScjQmKEoSBPtfebdiRXhDCMWmAihrHFDQg4WCQShoZjV0sa5EUgjkwEXWvhzFXkBL0zIu+Za19C58yj0VAuCC7gGRo0UzjgajCiQGQ8cQINErp+JB8JR4OIT2Su/sFL8Tf2Vg8ZURaNsDgkFcokkLQqIAqKAKFCzAgEF0i2AWfcF8vyaGw0rmhXhjo6OD37wgws+sEBd996Lf8P3iLzn5TU6n9Xr7OxctnzZ0uuWsjxIpvJ3LSdQM5BnwniaAi1v6fifhjaHg9oy8FlUxrV5xT1nGOq5whwlXWmdSlDg4iO9yJ0WQ7WHXkmfAuNuvvvjJ5YjP737xs8ArBD5uXyfb2IKzDKiKRADbJ/x0CcRUYu5SkNShnHn6o2fgV5YTtXhOo6VuhcBhCG3hS2ih9hf7GmYr+17DkAO1sLWczsRqaOjaJBRYNRNosDy9BYvCsejbM6luGRwjslbUUAUEAVEAVGgEgUCCqQqgIPP7aS3mID7BesPgnRfIMQCr4SY37Hjs/7zm79+8divX/zmr73z/Hs/gvnoh5ozZw4Ew+a7YJg5lMqPKNAgl89VaNkrrHSUrgwFsrVju15sCkM+LRmjafPqsZ3J8pZ9tZ0KKDDovgl30SIsJGqgQB0zSxhxcMZwByFJoxhwGAYaWSSSl8kw7kEYNURwicvTJkZYhgIJUt99I3Eq8ty4FOhAOaZA0zVc9vV3ECcoMOomUSBs7M2+ny9mRBPY5ic5lNmUCBn6p5i8EwVEAVFAFBAFKlIgiwLVjuOjpw7Eu4F3PDeZFEguHzs+66Jh0J3veef4eym/poQHdhClc7FAWsAlw0Es0HsbA1ycYwy5VsgwJhJVVp+gNWgsBa9eyTSzuuKp5V1NbAhAmtWQigyceYfiwgz4CM441QVpKGNWgQGbOJPZiF3cnLaQTYFs8ZraAsYqv9bM12Sxv9g0Qhvmxw5AjnfUrPAmuqProkGmFbaFcUr31OiY89z4KVV5hK/ykty+pEUBUUAUEAVEgUCBDAqE3SGJmN+O45P9pBjr3rFj/+V/fx7SSz///9STAvkqcAZXQRgP12eDhd3gLfgHYTy8L5BLyxvi+f59h3gkfRMhaw4KsJsOsR571ezitlwQgvh06PON4zaCGAjjJe7zq4ACAebwpkOedp7oPROx8TQF6tsc8b5Acs8SHt07CL3WIU+vRSBFQ5DYXyQzhDbMt2vQAbOyo4SJ2DXWHfAK2vXiiAYiPQ0pFqjK3hd47HfPfr+r7c/z7Qfy7b9faPuoKtptTGyUTbI8TUbFJUMUEAVEAVFAFEgrMIs9ApBuChz1ln1hFRj/uS0jaXO15dKKMFVfu/3X/9M+L/D/uri9QPk1JQxCeSu2YCeDAk0QDrf9BsFCuPPPHqIFX289l5XXIGgLI1Zq/1NG2B7hNbhPxaxHawtnFi7WO52z+6/pxGx6sGuXNnyFAIQFvECahidTngJvKSNpCvRKInhZYmOWORJ5VYyHUNLuAuH3BSLw4Yoww0e+REtuayCzhamPyHMoAqNAt8Lr4nzhYi7Z4cZf97GPOUO9YHuEb/7y644C1a5vZqznluY++W/zey7lOvjfz3Mdf5sr7c+3f1gV+cgLBXI1JC0KiAKigChQswKN9tshNXekTEVvRbhMuaY+FMSo5G1ZBZAOdaivbEkehqwxzShQAcClHhB9dOVTnP/i9HfypfvzbXP1OSoU2NQfVXFeFBAFRIHGUUAosHHGonZPrlrU423pwPiZZCYV4Hf+JQvUN5NToFLp3w753x/5dEx+cc4buY77C21ti/8iiZK1n0BSUxQQBUQBUaAlFWgICrz++usnU/zWiAX23j/ZMa0ZZH/aYoH6PA+eHQ2/I/wnhWLMfFk5L+dLf3rjX8rvCE/mpCG2RQFRQBRoCQVagQJbYiDf1fPJGURpNa69NqYCfiww82zcUmj7mX9fYBYFXsp1/CxX2lton51pTA6IAqKAKCAKiALjKyAUOL5GTVHi15bdDiAoEcEpudWvCtzsvb9CClRKXV1Q9xSKewvtf5Ev/UOuVIYCzaGX8qWrJrh1qilObnFSFBAFRAFRYHIUmPkUuGnTpsmRTqyKApOrwPWq+Eih/e/K4uB3cqXf9HcQT65PYl0UEAVEAVFgBikgFDiDBlO6MhMVaFNqU6GtDAuO5EslAcGZOPTSJ1FAFBAFJlsBocDJVljsiwJ1UKBdqc8V2n6S9x4oSEvGf5Rvq0MbYkIUEAVEAVGgxRQQCmyxAZfuNrMCH1SZW4l/u+A9WbqZeym+iwKigCggCkyRAkKBkyJ0md8RVuZnQrxfE6nNh6e3j11YVVtVqTWOAg/n9r1z+a2uUH6799YdmPJUSamn84mNI8/nS1PuizQoCogCooAo0NwKzOpy/nf3DAzet8X8be5hB5RSXb2b7aGB2/wjrn7NqUl9XuCk7w5J/RLdJFPg09vHfnUI/7bvGU/4Da/ubXBe3DM0dnZb/3j9UEr1Dx/mJYO3FRioqEh++zuXbT/mFV18+n1Pvp1b7OVN15uSKn47tWVkuYQDp2tIpF1RQBQQBZpTAU6BrAdLBu7bMrAIMxatHbxvEuAPzasWo0Dqd20JQMC9w7vUnguHRp6uyIRQYEUyYaFbL1725MU8vnOvt168bN/pBnkwy8KC+pcIBA/l2523khIFRAFRQBQQBcZTIIMCu267iyiw67a7JhMBlWpeCty1/ND5Nd7fmYU6XGRigfMesEeXr7bjAPmm/AO7/KFhpsovFgPSvTWwQak9F4AF/X/XDL/lxwi9qKE+pOuqXQNnf3Xo7KvXmOp7Lhwa+9V4McUVR88+OzZm/oZ224o6hrdh2zmTP0LhPFbYZUIs76S18OyYyae6lD+GxlXCSBD8897uGUL3Dh/dgLqYKCO1Qs5Qzhh6YmuEa8FoSCmVPLTjudHR0eM7WLHakx1K7S20X8x1XMx1fDHf1lHW0h/l22h3iEn8e66ju2wVOSgKiAKigCggCnAF0hQI679re0w5nb6NFovv6q3/hYZigfOvnt/VlVhwjvPnzJnT3d09f/583hmlVJxvVoTjfKVUZ2dn0kh1+VkrwofO996zXikF5Gx8CLsAACAASURBVOeDXbxePO8BWzjoTuqtBrixt7aPvBVQoEbA1J2C6VggxhQVJCpCQEIocsuCl+Y24CqLX7tHCK2A5M4NrzA1do8Q4QEOnqS17NSKcNKIh318gZi1rsArbCjtIW8d0uShgpXfVCBQd6Aw8Ha4UqzqRoElpZ7Pt3Ow21soF9v7oCr+LAoHbi7IZmE6OyUhCogCooAoMI4CAQX29EX3BcJy8Ba8TRBihIN9S8YxWu1hQ4GdnZ3Lli9bet3SoHoyP5lpwC4wYigwWT6ZmTRiXEqXz6JAivZFBZIUGJBiIELwlmJ+DASzYS5NgUrp/IHht8ZfWeZcxV2BfAq8AfBpsOs/SRCmFDBZ6p6/3SOMvRJl0kaAAl3UUAcmtfH+4cOO5HQQ0SJmysMAJT0Pyy/7lj/Klaky3Q57PjwEvJTruJArHw1Ur0UPjjksi8JVKi/FRQFRQBRoZQUCCiQpAAcN7S1aO8jjf8FbqjCRRA2xQBOu6+4OA5NxPlFgt/4X+AmxwKvDgKJSqor8CPJs/K8aClRq/cK94fJx4Kr/dtfA2bcG9ry6d+xXluFopdgvB++yKFCpzPChbyTEJjqaoDel+GKrITaiQBuZsyvLjttiOxlGAk/oLQQOfTp0FEito9tQi8c1WesQ7Stz81/ZSCGar/q1Tak/ixCwEgr8dCFcFP6u7BSuWn6pIAqIAqJA6yqQRYGKaI+vDivl8uuoGVFgHW2SqenfIxxhYhwLJG8VFD5P9xG6/DBlHxMDGGdv73t6u7lfMCyZTYF7Lhw6++oqZyGuiTmMkzBLvybzAeBwQZaX1mBHq8DjxAIzjBD2GcP01rPGG015SLUCI/C2fLSv/FHebsXpolIHUgh4Kdexd7xnQX84enzgP48XPqzYLykoCogCooAoMPMVyKBAWPnlq8CpdP3EaW4K1M//C7jN47yqKDCytuP46Ojo6HM7fbk3vLoX4E/fI4g7hVeNsA0fXvHkYjFlghG2sqzUuoOnRkdHXz54hzPi3zxH+SnGUmZXBw+2mfIAdrh8rIOCLhbID1njemtIZCQT4LyVX/IvYz3a41F+j6Cq8b5ATyvW+njJolLxJg9za+A3cu2zx6seP0T6H3Ly1MDxVJPjooAoIAqIAqjALHgKoN0CTDcFshsBTTl4cEz6OYJoZ0KvTU6BSq0+gTuFvT3CVhRHgW7Z198pzDYI454SEjSkQL2flzYCB7f0AQgmnyPoapk9woCArq4+6kAwQYH+9l4K9aUpUFkQxCVaoj23bnt221F+X6DZ52HLUxyR7RHGDRyZFGhuQMQWvd0h0YowaKtB0Cwik3tac9gI/L6Bh0l/lkjuEb7j4Mujo6OnDq5jBStO3hst6RoE/HaudGUFPw3cH1X/gVBgxeJLQVFAFBAFRAH57ZDmPAcqf1hgc/ZvOr2u8nmBgOk1xQK7lfrnXOJ3gV/JleZU1v9j0VLySbkvsDLppJQoIAqIAqKAUkoosClPg2uGw8fENGU3GtXpSn87ZCc8K7A2BPz/t6LHm4Iv5Tpey5V+s4IooFLqA6knxWwr+3CZRtVb/BIFRAFRQBSYHgWEAqdHd2m1sRUIF3/r/jvC61S4vdesBb+/Yl3iQOC/5EqJh21WbFAKigKigCggCrSaAkKBrTbi0t/pV2COUj+OHvj881xHb2VRQKXUfysU+fOlTforEgic/rEVD0QBUUAUaCYFhAKbabTE15mhwN7ox98u5Tr+aLznwpi+F5X6vWhTiKHAFRVD5MyQUXohCogCooAoMEEFhAInKKBUFwWqU2C2Uv8YBQJ/kCt1VmDmQ6r4rXwpjgJeynWMyL6QCgSUIqKAKCAKiAJcAaFAroakRYFJV+Ce1GJuX6FYvuGlqvh8rj3+4WBDhD/NdXxkPAvl7ctRUUAUEAVEgRZUQCiwBQddujydCjwfPd7lUq7jA6nF3JJSqwvFvYX2v8mI/xkE/I9cxzpBwOkcUmlbFBAFRIFmVUAosFlHTvxuUgW+Hy0HG5j7Qa70jXzpTf0EwbGMMvFa8H/kOu4ttDWpFOK2KCAKiAKiwPQqIBQ4vfpL6y2nwPNlA3sx55XJeS1XulmigC13BkmHRQFRQBSomwL8d4S7ewbMz8R5vyC3aC1l2kTfkro1bww1/S/I1VkPMTeTFRjI2OFbhvbiQ/+SK20vtMlvBs/kE0X6JgqIAqLA5CvAKZC1Bj8cPLCIZdhk1213bdncU+9H0woFxkpLzkxVoKSKyVsDY9TLyjmeLy0szFR5pF+igCggCogCU6dABgUC7SUosKt3831re+runVBg3SUVg42sQEkV9+Tb/i31I8JZ5Hcp13EuV3os336LLAE38tCKb6KAKCAKNJUCaQrMoL2evkkIBCqlhAKb6pwRZ+ujwNWq+N8LbX+ab//b7L0gP811nMiXthbar0ttIq6PH2JFFBAFRAFRoFUVCCiwp2+LufkvseybgYZ1UE4osA4iiolmVmC+Kq4ptN1TKB7Pl/7ffMfhfPs61dZbKFbyKOlm7rf4LgqIAqKAKDCdCgQUSK4ADvq7QOIcKjzRhFDgRBWU+qKAKCAKiAKigCggClSpQBYFqkVrB+/q7SZrEAgcuK3e20KseaFA0lkSooAoIAqIAqKAKCAKTI0CGRQY7gWexECg3Bc4NSMtrYgCooAoIAqIAqKAKMAVmHXflkEM8tFNgd7zApWCuCCW4XXrlpZYYN2kFEOigCggCogCooAoIApUpoD8dkhlOkkpUUAUEAVEAVFAFBAFZpYC9aHAvYs+MBFZJBY4EfWkriggCogCooAoIAqIAjUoUB8K/M/VH50ICAoF1jByUkUUEAVEAVFAFBAFRIGJKFA3CpwICAoFTmQIpa4oIAqIAqKAKCAKiAI1KFBPCqwZBIUCaxg5qSIKiAKigCggCogCosBEFBAKnIh6UlcUEAVEAVFAFBAFRIFmVaCeFFjzrYESC2zW00f8bjAFbigUtxXa1xWKVzSYY+KOKCAKiAKiQAMqUDcKrBkB5anRDXhaiEvNokBJqXsLbV/Ply7mOi6xv4u5jh2F9qsKzdIP8VMUEAVEAVFgGhSoDwVOBAGFAqdh2KXJGaHADYXi6XyJw1+Q/udcx+5823xVnBHdlU6IAqKAKCAK1FmB+lDgBJ2aeSvCV9xzZs0DuzJk2bX80Pk1e49Mw5rdhm3nxoZ2Z7g1Rdngw7NjI/31bq7/5NizY/B3+OiGets2PoNxrt6Ko2efPTe8okxjhYG3L9t+jArkt79z+a30bqKJ7YW2n7PgX8B//O2/5Er78+0LhAUnKrnUFwVEAVFgpinAf0e4u2dgEH5QDv4293S5rnb1bsb8wbt6u92BOqWamwIXH+k9dGKeL0UzUyDAzck9fn/S76Dk2NltFuj2DI2NVVCxUgrUxi3YVU6N/SfHp8C4gyuOnq2AHUOGBjvlKPDWi5c9eTHPpVt8+n1Pvp1bzLNqTH+u0MY5r5L0T3KlOwptNbYn1UQBUUAUEAVmogKcAln/lgzct2VgkclYMuB+RLjrtrt8QGR1ak+2GAXWLtREa4Yck7QXQ1KymFIKkOvcWRse2z1y+Fyl+JhlkOdzNyDOV463XL1KKdC3NhkUeOzyJ1ORv1svXrbv9ATv1vvdQvEXlUUBAzr8Wa70WxIRdGeLpEQBUUAUaHUFMigQaM9SIAQC1/agTj19QoGohVJ6bffQ+TXu78xCHekxscB5D9hDy1fbOpBvCofrxczUOIvFHI9U//BhXF3tPzk2tJvWLilEp5TSUTq9WuqtaUJdfxV194hZVHX/O1pyRihsBi0eHT6sA4f9J0f6d48Qq4GT1jjzhOw7swq6cG54BR3CMCTvJqRdFepjYmU5QYGsmwSszBqMDKvluhnFNUOG5l6Z9Wi3XhysBbtTRj2c2xfT4Y7nRkdHj+9gxTKTNxSKP81AwH/NdXwnX/rrsncKjuZK03ArQmZv5IAoIAqIAqLAdCqQpkCP/IAI7ULworWDLi5YP7cpFjj/6vldXWwpGpuI8+fMmdPd3T1//nwsYl/j/E2bNiml4nylVGdnZ9JIdflZK8KHzvfes14pBeTng128XjzvAVs46E7qLcejgAIJ8higALsgt3GO2bDtJN7TBpzkWM2zbx3gRoCTDO4gd470qz1DJ/coosD+4SG8OY95gp2hYibDUJqBPOYJcwNaJyYD3kJSjGOEjOeMdeet1kp3Ex2gEKDuCJQHlrVusoo2h6sHWdS12I0k6lkzKUCsggKzIG9vob3DtqBWq7YXs1lwqNCOBeVVFBAFRAFRoKUVCCiwpy91X6BSeMugCwrWUzVDgZ2dncuWL1t63dLAdDI/mWnALjBiKDBZPpmZNGJcSpfPokCK9kUFkhQYkGIgAnvL8EgH0lgsEGmP5SPxaAMhx6BVL9+zb0qYcB2WxgK21oqjZ4dOjgAXem1haQA7QiudGRTzCjhPoJUgVAmY5gGrDnM6fvWjetgWIqM7aluEtkxQkCgQnYbXCCidb6YYeHhueFtqtfrY5WXu/5vAovCHVTFY5L2U6/hJvuPmQmIX8EdV8fkUC/5TrpQozbsuaVFAFBAFRIHWUCCgQOo04GDfEv1WxwJ12rAg3i9IZSecqCEWaMJ13d3hVpU4nyiwW/8LnIVY4NVhQFEpVUV+BHk2/lcNBSq1fuHecPk4cBXfIoTp9wyhPGohWvKQy+MYjlkURLQhLkZO0Awt1yKW6WgcWiMfHCxqwKLCNVOgdsPAlt2KS21ZNfYMsShmjG5BH+0OYmsE4pf9J89u69+w7RyipN9TR9XQHPbXNq1jgbqPfjGlVPldIHDU3zWCFsd93ZNPbArpLXur3yu5xKNkSmWrjOuGFBAFRAFRQBSYGQpkUaBatJatArsQIIBg3bcJEwVOhqaGAifDsrVZHwpEB8HaebqPEHP5a8UUqCNwWRQIuIPo4/ONZ9807BkhXxg8mTxENG+FFDOpWhgy9Ao40mJusMVZKExux6HBMIDHjLj2dQQR7mI08cvDR/dYCgTj7lkwHlVDbeebsQXGzw2v8GuZQ5MSCywq9f2892joS7mOk/kS7xmlu5T674W2l1KxwH/O0dIxFZeEKCAKiAKiQCsqkEGBbC+wdy+giwvWU6zmpkC9RyTgNm/NN8JE72goJGwT4dZ2HB8dHR19bieVs/AB7wGP6CkqjFp0KM7E8xg2AZwR5QAF2oVaMEj5NvLnr+HqhqKIV1kKtNFE7Qk2ZLsQMCV4SM050uIAx7rMuqYXbekeQWOciaAzUohm1pEPm/gfxC9HhihNiKmDgn6XnW+mLeeVh9RwsKb7Al8+eIcxnPH/RwqJ5eBluBY8W6mVqnh3oe3RQvs/5Eo/S4UAzWrydzLAMaNZyRYFRAFRQBSYsQrMggcBDtymd2TQTYHB8wLxpkB9y6BdJq6rIE1OgUqtPoHbhL09wlYkR4Fu2dffKcw2COOeEhI4okATlNL3zJ3dttshlIE8ey8dW9I1kGcWQ9kNcIbP9B7hk8PB06SdKbcz1xCn3VOsd4eEq7Fuq4pmL+MJbCJGyHNmzWKx2xEyDgUa3kUmY55nuOc9O5o5g+FP3Rdb11izDjgP9Q1/tkXPgiNpR4Fmpwh/YDVsAUk/ESYJiHccfHl0dPTUwXU07InEttRy8KVcxwv59nO50n9kbByO7yP8VF5uC0zIK1migCggCrSgAvLbITNm0MMw2IzpWHN2pLrnBQLrjxcLHMygwJjzyuQ8lm8XBmzOM0q8FgVEAVGg/goIBdZf02myKBQ4TcJnNVvhb4fshGcFjouASqnfSa0IlwG+4NDFXMe9hTZBwKzhknxRQBQQBVpQAaHAGTPoQoENN5TBowEn+DvCJVX8QfbdfgHz8bf/muvYW2i/aoK/WNJw6opDooAoIAqIAhNVQChwogpKfVFgyhRYXSj+rOL7//4xV/qzfPu6QrFzyvyThkQBUUAUEAWaSgGhwKYaLnF2pihQVOr3CvALH9/Nl17Llc7kSq/nS+dypR/mSuf9gN9f5kt/nm9/tNA+mG/7/ULbI/m21zJA8GKuYyRfOpBv31JoW63a5KGAM+VkkX6IAqKAKDBZCtSHAn/zz1aYv9rcbPo9wrV1W2q1sAK7Cu180bba9A9zpa8XSk/k2/fn2zcV2m4uFOe1sJjSdVFAFBAFRIHaFBAKrE03qSUK1K5AUak3M+J51eLgf+Q6ns63r5TfAql9NKSmKCAKiAKtq4BQYOuOvfR8uhSYrdTP60SBhhp/liv9fqFturoj7YoCooAoIAo0qQJCgU06cOJ2cyvwjdyEVoSTIcM/KMizAJv7rBDvRQFRQBSYYgWEAidF8HF/I27N3iNXTErLZY2Gv4FWtnD9DzbQs2z0D8TBr5u4Xx+xv8infxYls+/BDwQfu/zJi/nMwuUOXFNQ3/F3gSTBrtrMvYX2cq3KMVFAFBAFRAFRgCnAf0eY/1Lc5h79o3KmZFfvZvihOfgbWMQqU7Kld4e4H4gjPVQzUyD8MBr7ATrXqTjl/7RaeX5S+md/8VfgYlupnOAXh1NFdF5Mt9FvHCfrhvbhl+XK9AJ+/O19Aw9zU9m/FMdLpdNFpRYV1A2FYk+huEIVr1fF6wpqqSouVsWFBXWdKn5YFX+7UFyn2j5daNuZb/tSvv3vc6Wz+VIZNPxFruNG/GXhdKuSKwqIAqKAKCAKoAKcAjFPKbVkwAEfSwMO2h8dZoWVEgoMdmiWpUBPuil9E9NSovkqKRB/Ahiia2e39ScMUlbVscCQ0shSkIB++Xw5CRSYBXz57SEaBt7V/e18VVxXaLuYcWfhobyEA+suuRgUBUQBUWBmKpBBgV233WXDfhAgvKu3G3vf07fFCxOa/FalwF3LD51f4/2dWbgYJDEUOO8Be3T5aqsf5JvyD+xCSc0rMzXOYrFHaRCNsxzWf3JsaDfwECx0ekAGIS6dCf+7WBeL5FmEonVSKu8WTJ0Rx1usdQVpR4H9J6lFL/Pw0T0JD1m71jjzDT1H3NQxRcy0xiO+3DNEzjBTznMjekiZLBZoarnuq2AtmI3e4tPvi9eF1x08NTp66sAdrFz9kytUMY4L/mOuJE8KrL/WYlEUEAVEgZmoQJoCIea3tkf3Fyiwbwl1PXhr8+tFgfOvnt/VxZaisdk4v7Ozs1v/wyL2Nc7ftGmTUirONxW6u7vnXz0/MKKUqiI/a0X40Pnee9ZbIvTBLo4UznvAFo49iXLKUCBBHpSxBMPjZDwWuGHbyeEVxrgPcJ592zo3EqCShTOohTzKWlc836ChwVBXhreu2ctxakhp2ptUJlIghQD3DFlnMrsJtkJT2LXADSh668XL9p3O+A02WCm+/FYrlX2ZEgpUSq1MgeCtsijsj4a8EwVEAVFAFEgqEFBgT5+9/88F/PgqsLlBkEGhtVkXCuzs7Fy2fNnS65YGjibzk5mG9gIjRIFBfrKwabpy41A+iwIp2hcVSFJgxftFgJ/ovj3gFRcLdLEuyvdAh1MgV9nL9+ybUv3Dh1lUzBXQtGTDcq4AspRtwRlHVtMHoC5E8gANqTtKUyO99ZxHh1NLz9Yl7Y8WgSgQa8Gr88Tmhva150eHD/OIqSka/CIwt6qUmvpFYe5AHA78rDw1hgskaVFAFBAFRIEMBQIKpFKAg0h7btfIXb09PQMOEKl0XShQKRXH/EwTcf6cOXMgXDc/DOPF+YYC43wKEMZGTOCw0vwI8mhF2OoTFYgpUKn1C/eGy8ckr59wEAYbLspQoF4t9UDHwyCwQyu/jHs8+6ZptmJrqxhQo9YR6XRxthoL712jHgUqW8zPrIACDSkaz5EXrc+7R4Z27xk6N7yCYWtWN8E1Txy7R1h30K0+GwGA8y7bfsy+iV7KM2JUvM4Zr+U7AhDcJBRYZ43FnCggCogCM1OBLApUi9by2wGp8z19qW3C9aJAaqaOCUOBdTQYmoogryYKRKtg7TzdR4i5/NWjNOKwYAcu5Xug44AMAIjunGOgpoJonGnYM8J8oVbMvXqWyYJYoHvrAR/WDWKB3tusdq0L0B0bR9w98uzJPf0ngd76T57dthuDl9ndBBuhfesq+OBCm7qx8pw3vbHAk9Gu4Q1CgewslaQoIAqIAqJAlgIZFAi7Q+KYHw8QegZbmgIVbOwIuM2L9kWY6B31hFQqsrbj+Ojo6OhzO6kcUKBlFKAWuhuPMRbDI4Att4WCbhzUFMhv6WO7RoCcgmAYNOSWm8kVJDnICBpCimLewuIvGXG0x0GNGQlsUps84Rk5d9YsW684evbwyRG7hM36YoKC7qbDbAo08Uu+Tl3jfYGjx3dwdytMl1Txi/m2sXzHxVzH3nzbuFs9gkDgpVzH78h9gRVqLcVEAVFAFGhtBWbBUwDtw1/opsDB+zgCwpNizMMCYy604rU2BSq1+gTuFPb2CFt1HAW6ZV9/pzDbIIx7Sui0jCjQMgrwnw56IbEBEtEKLy6V2tiezj98dIPeR2xMa1I05U8ObzvHKJBvwkWYU7CA6+xbluIUaGpheeaMA0qWiTE84wuwmjXuURpf/E12E5vTUIuICV6R/XQ3PU/cs6NtLFA75RG2UrBHONoCYrxP7hFWO57T9F4DBu7Nt3Gw+2K+3E/D3V5IbBNeKj8rbIZG/hcFRAFRQBQoq4D8dkhZeZrpII+0NZPfzeJrlc8LvOPgy6M1xALblXrTfxDgxVxHlkRXKPWD6AdIzuZLWeUlXxQQBUQBUUAU4AoIBXI1mjotFDjZw1fpb4fcceAUxAFrWg7uiWJ7Y/lMCtztRw1NBPFh+RG5yT4RxL4oIAqIAjNFAaHAmTKS3l13M6ZTjdaR4NnRtf+OcFbHNhe85eBLuY6/zIjt/Y4KS17KdZzPd1wpy8FZ4kq+KCAKiAKigK+AUKCvh7wTBaZVgafy7fymwEu5jqFUbG9dBIum1u/KvpBpHT5pXBQQBUSB5lJAKLC5xku8neEKxA//+7K/O2SxKv4wuhfQIODX8u3FGS6PdE8UEAVEAVGgngrUhwIn6NH1118/QQtlqk/68wLLtC2HRIEqFTgRPfzvUq7j1Vzp0Xzb3+VKr2Tw36Vcx09zHUtkLbhKtaW4KCAKiAItroBQYIufANL9xlJgW2rDR7BGnHz7OXlSdGONpHgjCogCokATKCAU2ASDJC62jgJLVPHn/pNikszHM3+WK23zV41bRy7pqSggCogCosBEFBAKnIh6UlcUqL8CewvhBhHOfEH6fK7027IjpP6DIBZFAVFAFGgJBYQCW2KYpZNNpEBJqcejncIB/Jm3z+fbr5Z7AZtoaMVVUUAUEAUaTIHU7wibn4xb2+NcreBH5Fzh6lOyO6R6zaTGTFagqFR/oe37+Y4k/P0wV/rjQvvNEgKcyaeA9E0UEAVEgalQIKbAnr4tm/vWbr6PKLDrtrvwZ4W7ejfft2VgUb0dEwqst6JibyYoUFSqp1DcUGjbWmjfW2g/WGjfmW9bWZDo30wYXOmDKCAKiAKNoEBIgYvWDt63tgdoDynQ5KCvPX1bBvuW4Ls6vQoF1klIMSMKiAKigCggCogCokClCvgUCCu/EOpjFNjdM0DYB+n7tgze1dtdqfnKygkFVqaTlBIFRAFRQBQQBUQBUaBuCnAKdMAXUyBEBDX/sUN1c0IosG5SiiFRQBQQBUQBUUAUEAUqU8BRIMc7lg7jf4vWSiywMmmllCggCogCooAoIAqIAg2sAFGgpb37tkDMD/8293Qp/75AFy+sY6ckFlhHMcWUKCAKiAKigCggCogClShAFOgVZrFApfRjYuyOELxx0Cs94TdCgROWUAyIAqKAKCAKiAKigChQnQKzIOw3cFuXX8ujQGVBUAcI6/+YGKWUUKAvv7wTBUQBUUAUEAVEAVFg0hWQ3w6ZdImlAVFAFBAFRAFRQBQQBRpQAaHABhwUcUkUEAVEAVFAFBAFRIFJV0AocNIllgZEAVFAFBAFRAFRQBRoQAWEAhtwUMQlUUAUEAVEAVFAFBAFJl0BocBJl1gaEAVEAVFAFBAFRAFRoAEVEApswEERl0QBUUAUEAVEAVFAFJh0BYQCJ11iaUAUEAVEAVFAFBAFRIEGVEAosAEHRVwSBUQBUUAUEAVEAVFg0hUQCpx0iaUBUUAUEAVEAVFAFBAFGlABocAGHJT6utR/cuzZMfg7fHTDxC0/nNv3zuW3op2bbn/9S1tfv38pvm/+12t6X/nSVujUl7Yev6lBu3Pn+o2N7F51qjnBNz5+TXVVpbQooLKmoMWn37fvdEEEEgVEgfEUSP2OsP7h4PvW9vC68JtyWwbtrwnzA/VIN/MvyO0aOPur7XvqocLk2ug/WQ8KzG9/57Ltx3xP5z2+KwGCD91vKGrp8S811dUdoOT2h/weKqUeut+i4ZRQ79LjIYOCyESlE6RA3Rfso4awV9bPi3o8Xoa5+iIxv54SbTwT/HiF5wkoYxg94GCjiT7kdY0Ko4f6dHXeuna9If7SVtAE+ojWjLN4erDmtD+7eu/UBRJGlDd2utS8x3eV+1CkjCiDOzRS4AB8+zLdcZq8bjxXtrzrvvXQE5Cs8ZGI0q4KK8/axb4rB/TgDyvsRObGk90Mhf3S1teNfd+4Py7amei7aGqy4u1LWhQQBUCBmAJ7+rZs7lu7mVFgd8/A4F29t/UJBSbOmVaiwFsvXvbkxXxChETWQ/eb69zS48F1NFG2kbLwMs99gisTXer4gUlLwwWSX9VSXtXaOCDIK0ghd66HNLtgV2k15qQqDWDxNCjgUfMKF/ukq5onCNeWHjfSpUXTRnZtRKR27T50f2w8xHFkL+tXfGKkjMRuj0+BiW7edPvrMHAWNwNPEsAK5W1hJqPrr4E21IEV4UnNXuTMnetv1/Fa3iNI23MVChPdgnRYkTXKjKe0osOh8tpbGmIqVj7hL1yULytHRYFWVSCkwEVrB+9b2wORP4wFdvVu1iHAqf3SNAAAIABJREFUHqHA1EmSSYGrRn51aMz8vTXglmKf3m4z/UMbXt3r5V9YpRu7ZvgtNGJzlFKrRn61d3gXHaosEpmIBe4eMSvF/mLxhm3n7AqyOTq023a74ik1jBLxwICLK/iXqGS+vsCY2I9DIo2V+uIEcQ5+nXPt0qXIuu5TQmoYKS+BDvyaR+Uw4Rqla55SynUHL4QKeGv9PIp/sKtvqps+XbFLPlkO+hgbgRzWivFq4+PXaARZf7t2bN7j9/c+ZKNK0CNyz8SQjPPmag0+xAvlvp+647c/rku+sn4p8IHFAsM95Hx8OU+DAqqsXz3IYEfK5ccNaVnW9yJOuXaTUAKCuHMvlLQyCgRV6TTQfrtGWTdcMiqvD2mqe9yG2OF0Yo6ZyJ/f2XEpUJ+l/hnifDApv/t4NLBMHxl/IJg46f6mu2kbgVPF841aQS8qer314mXRuvAdB06Njp46uK4iA1JIFJjxCvgUCGvBA4uU4hSIEkwFBc6/en5XVxe26F7j/M7Ozm79zxXSqTh/06ZNSqk431Ts7u6ef/X8wIhSquL8NAUCop191dzmpHHNMhyg4cjT0JzGPgQ4MLJ3eBfk77lwaAypEdIMB9Gg5UtthzcU94LlhBTYP3x47Oy2fl0C0mOG9lYcPfvsueEV2pMh71bCxaffV3Eg0NAArKv6F4yMeR9mfP8yCe2zKxBcfbGAIQlzwWOXCn4FCtHEwI1/jdQdT4xy6mJjAAgd0DXNf9BQQGPKLNJhYechN8IukOW6iVfBED60vF67Sa0itc3FGIFsV++d1/QeXz8PnDGg43SDFgkywDje/ck9Bw1cFaOIHp37l5rly+M3EQBpg6gV85bETIBCNDqeEaoZukQHUkNpRkc7ZgR07UZyaUO8g5HBuOmkEcykEOA4AXIsTz1BT/SQvaIHy42aKcX9pBz+Hckac/3VY+SdRbaIe3Fnr8tTEYASTfLPoClmHWCNMkPpbtoCUdOR+MxSmeSxy598O7fYKyAU6Mkhb1peAU6BsPJr7vybFgrs7OxctnzZ0uvCrQbJ/GSmob3ACFFgkJ8sbM6Hyo0rlaRACPgh4SlWhucz8gMiRPJTrsyqEW7k6e1YBigQiVDTpAsTZp/PAQXClpGT7nZGgD94C4FA2kTil0l9q85uzl7ngmsVXP6jK1N8KdVm/Sulo0nvikIXEhNpQ39ibMIj7DU9ylkXG8jXMOT8h1aQ9pjdayjOBJmkACUg17WS1U1Gh64wteKJ4JjbHEetUBNUw9qxdR+6f+Px+2GBjxzjcMYHxRu1wJkQPtAx9AEHCH3wPaT+xFybHh2jpx4IUp67ygwakfWQeQOHntx0u8ZcdDiKgyKCOxwhoaiVuGnQyjSn/zdGbEWQzpww/qCTOUwkjeAXKouSoTPhQET3BdqIpsZ062HiexG6YF5d33k+jinloaTQQcRK3VmmIeZTpUzBM5rWBp227mPILCaSFa9gJOpKlijQEgo4CuTkx9MoQ2PFAufMmQOhgvlhGC/ONxQY51OAMDZiAoeV5WdRIFEdp0AozGKBVAbIj8UCDdXpwt4ysS1vVoRxXCp8jSmQaE8phRSogPxYLJCWg1Vh4O14bSXZdnAN0xM3XW/ggmGmcrxCMNzh5oJJ3y3+usu2iRcaGogbJfvcKk+nRxnaJW95cZM2/psC6WukCYO5yxWPotHaIrWS2U0XZguv9+CIJ0JwVz40ba6RBnSu6T1+/+3H18+DYpCPdRHUwGEKL9m+QzcJs6KrPpMlhI/QONZFUDBVw1pRjzB4H38GbdtGN3I7yQQkMvOXYoE6cftDpIaGEuoyrwGnFjTkd0GXSFJgbMSO4E23H79p6XETz0s6jK2iaPjevLLxeoVHcOlocN5Sec8MDhAF8LyjwZv0GR6dkGjTP5nZBxAL+ObT3bRloqbTo+lbTL3Lb3/nfQMPp45IniggCoACRIEQCLxvS/C3ucctz04FBU7GmBgKnAzL2mYWBQZhPPuW3SyI2AdWPODDIGLSMpSuEwXyWCCF/QAH9WNl4H8WLFSqqlggXoEyJ3p9wTDXieiionXNnPS9KwrZp4SuPIH/MttFm1DABDYSWACFsO9Ywb563aRWKBGUhrfmQphsxROBRRZ9Kxr7Hlq/8fhNcP/fnS765WMuOQxwhqEshinltA15Dh1Dm1jX7wUeZe5iRZZVPgl6GifBh0SoKUMW54mOlfbSHnZ0NWrW9DE1Us4HrJQ2opV/6H6QHXZN3eRFi7Gqe800YgcFQolw8yV9qUgszWedh07n2HnngU2BVl4rJj8YPlIGEqmBYKjNm0h305aoFwVKLJBLLmlRIKEAUaB3bLpigZ4TdXozHRQIoEaLtu7WPVj5Ta3e7rlAhXmn+Q2FPL8cBe58bnR0dPT4Dl5ep4NYoIKtIfy+QJPeM0SZoYWq7gvE8BI+LyY0hoij8+Hi4d8JDtkZVyD/iuIuJFkooFvQkUIffWKPTA5d0jIKwLUTgy48zYrDBSwzIBS2ktVNKAdu79qYik26a7m2l2FEU+DjCB/H7zd7gaPlSHtRByMsfuM65ER2eZiqhQKT+gQ9QvuZr7zLOu2wdfw9wtjNpcdBXgsu2d3UDu/yqUs7FoNU2ggobLf3AnrefzvuTUl3L9uI2yD8SuBPOBDjU6D3GUw7YgLS7qzAPcJ8BEF8e7Y3IgVm3Rc4+tzOrD5LvijQWgrMgvjfwG0u5Ke771GgeXwgCxPW/amBzf68QNzGC9t+MZKnQdCu5zry47HAQ7QK7McCuRENgrjXGO8FrI4C9wxRbC94djTbI0wrv14s0A8HwrfqCtdW4OqYWESDiwdFmzxO0iBoD7nLub66YxUs7+GCd72ECyHZ95hvYhTouU0IaOYJDYK2UfTQhvHImUTI02PNZDe1edOjMORDfaQduAjN2H30RHtuqmtT4InXNLbigmrMOA6EJ7Lptg0+scKWjHF0MFyEdbP7aA1iRbIfJ7zxDWJU3D4OPT+pQBmTDyWRAjVnMwqkIfMfd2eKuVr2dk9UG2oxrRJGtOd2UIxXfEyjnurT1WlrK6KkUDw2Ak1gx43BQC7roadzxtcY3yFmB88r7wx3meBVVizQdYcCt+lu2sbh1KVhcl12mvud9V1275IrGJlflV09SYkCM0CBolK9qvh8rv0b+dKGQtuijKeoy2+HTOFYB7FA2hQSxALZ1uApdE43FcQCgSAJEPWicBXbhKfa9/q0B1eyyi4w9Wmvcax4eGRise4CP1E3A+OxOY9O4sOSIwpUr0DGcvC6g6dGJRZYvZxSo6kUuKFQvJTrCP5O5EuLVTHoh1BgIMhkvvXxjhZ83ZKxbpyvJk+mNwnb/PExSnmrxqb0zH8cf+tSoB990dEmLxiTOF8qzxIKrFwrKVkfBVKT1R0HX4ZbZmQ5uD4Si5VGVaAvhYCGCH+S7/hUoY2ToFDglA6jvyJMK8Xe7pDkPYJT5aW/Iow3DrLWM75esxLNndT0Yxb16sdATSIJW/sLfp9twh3IpkAneHIxccItN6qBYD0U15GnIQ7N72pAN/jNBo2qYHm/5HeEy+sjR2euAn2F4r9FUcAgKHiw0E4gKBQ4c88F6ZkoIAqIAqKAKCAKtIwCS1XxJ7lSwHzJt58ttBlVhAJb5uyQjooCooAoIAqIAqLAzFXgq/mKEPBSrmMsV5qjdagbBc7a+qNZW39Um7bNvEe4th5LLVFAFBAFRAFRQBQQBeqmwC3ZtwMmw4F78hAOrA8FTgQBlVJCgXU7C8SQKCAKiAKigCggCrSYAkWl/ioVCFynV36TW4b/KVcq1ZECgSglFthip510VxQQBUQBUUAUEAWmXYEPq8SjYb5SaCfH/lsqUthTKNYnFmgQUCiQ5JaEKCAKiAKigCggCogCU6PAg4W2eNl3rt/2xWjv8O8V2upDgbIi7Est70SB6hUIfueg5kddBI/+3rDt3NizYyP91TtUxxrwBCLvZ6nraLt2U4mfF6vdmNRkCjz85Lve+cZ7WYYkRQFRoEYFHn7yXW8/mYsr57e/c/mtLvub+faAAl/Kl9xhnXouKvPZQlvqd4TNT8at7aH6i9YOwg/NpX5rzpQxUcDWjAXOfuypm7/3gv371oOzSbVJS8x9BpvT7a58zI1UPdrsWfCtF5b4P0Ts9fF7Ty24sx7t1G4jhRThD+WxnzypqiFgplrrVtVQUBh+pvnt3GIvN/XYW69A+s3UUWBqINI+ZZWEfP4Lh3UmxXKjWcUvIqb7VFXunQ+upFliaj5BO/a7eel7L9xc76lp7jMvZM48j7znnR+/5xjTx5tA6u0Ja8clp36SdG2HqWPXnnrnFvy7dps7PHv/25h/0cZsPn56JZbUh0z+wwtefOeWU1hGHbv21NsLPg525g47y7ecemfl/oeddT8Fbb142rs8bbuoc4xxZweNhPngua3CTG+7eMswH2p2CJIpI9Zt2wVTRsviCWWU0flpI+CM04qsBQ74b10VXp61a/uiWyS5dK2Eh6zjIC97a1tNjyZrDv0v102w9d6LP5518RG/L0opdtW4UhX/PYrz/XaBnglo674QUeCGFAX29G3Z3Ld2831EgUsGMN3dMzCI6dChiYQDm3h3CEy1+4OgayhNvd+Xm3/r0FYGBeLcDRM6puvQWi0mspBCqeAn72owXo4bajBXYZUsIqnpGd0BBVboQi3FsgcitJZVMis/rF/j++zRLAy8fdm+0xm/q1lja9nV7l7yvfCbVXbhOh3ZsX9SP6fZs1B0xWqNSTJj2IAnkKu8IhrgGNgZhgBuoEwqr428+LZmBaV8Ckwap5ouAZY5+gBBsrqxn5CDLaIZ4CHfvQooMDSiKXDli29j62FDEbCGBaw3DEk1T/uOocv0qsuQAg8vGDZMDEyGHkJaewWcvfJFa3Du8NsrrRS8MHhF5JdNgZleVdpN04H+33jb/2Zl+4UrSLdH9/y9kesoRT8W90r0KMHVhWIYC4Sw39qerl5GgaSiUpA/cFsXyzHJiSBgU+8Rhm+cz9wd6WEyYOqPYoTAWDbTVbx7yff2z6VoAWMs9h3asWZy/g3gzHvrogIujDf7sadWPtZD35hN8I/eUhTBfN33rIGf1hnIp16wfKVYN7FwhkqQvXvECwidG16hCwMi2EARLmgGJcfGnsXCukZEgf3Dh88Nr6BaLNTUf3IMjdufSGE59tDhoxus1/DbemHmiqNnDx/dQLW8CCIr71ZCWaZXWOEn2TbGX8oc4sWUYsafHcMffaGOeyopg8u2+3QoWys2EJFllIUPBGlCnhjao3zqfpICIZO8Uoq/hXRwSijVf3JsaDcAnz5UwWgqFa8Fr1+498zCxbuWHzq/Bv5OzCN5V5/QOefXHDqz0ARrV59Ys/fIFVRAqSvuObPmgV0sw0+Ww6DkJ4Vl0udLZc4SKvUBh0w2k1iHAk/425SR5CwBn3qa2UzCOaniteByk6RrlEcW3czpwo079t/8zN3UtMtXijL5F/LUJAmqsore25SRngXfemrBneSMnfSyJkl/yPFdxF72QLn8mBs0Bu0/vdJGp7xYILIUtpj5CkZYYWdE1wiO2jAe4hEajSA1TT9YnMX5XJYJYa7cf/paC5S6d0GIlOJwUC8sYG0xCtRxwVg33igHOJcf+m9tHrv21MUF+w12H7t2+BgSs2+EMXFox7QQyeUaVqo6ClTq2DdmpdaFbaTgkXx4U+BPej/Em1MKkDBYMr6U61gWUiCsBQ8sMrRHsUBmqQwF1mWP8Pyr53d1xZCp4vw5c+Z0d3fPnz+feQfJOH/Tpk3JfKVUZ2dn0kgV+WYWY5Mg+gNzB5txbDabEPkcZCYaM8tA2i7IsjkaJimc01MTnFIAYQ7yXBmeHxhED7lxA3CJFWFsHQpjf3laO5CiQ1Qk89Whm77Gc+Czac4BymAB4zlm2JmymYaNDFJAmkEM4wxmIRk92rDtpAVTDVvWiCESQ4qeh7pRAh00znzjniil8tvfed9A1lJOzCtokL8y4xAQxW6aIrtHOFQpjU0OcMkM14pHVfuHh5CGvW5mDASgXqRtllaQHw+lr0//yTHrLUBt4pQwcGkEh7QzmBxNpVLYvX7hXuI8SPfesx6UWXykl8OfoUPIZJjoU2Bq9uAfcNJb2S9L+GmiA9XNEhkf8DQFAkri9GL4ybSeYQQ+4OlZQrkZhvyGRO70a9HSVdYkCfluykIz4cTIJkP8ys3mMU3AbNrBaSrpnj/R3b2EWmcGWRnwBD3kXtmBCyZJ9D94BYK5xQ/CqQQBYK00N1gMmjtsQlkO4JBOsHrZVw87OEJBLWiCMWIGe5F7GAKcvZ9Cesm20wBn3J5tMSss4/mJvoU8qrzlaQiseuAYOcOIjR8LBYQOvr3g40CBcz9+euXwMbXt4rXbKG46nRSoHnnPO6/9RnydgGWN7ccOR0u9b64ObxXrufKqgAJ/keu4SnmxQFjw7VsCEqVjgV233bXFFuA6mvREwoFmRbizs3PZ8mVLr1saGE/mJzMN2AVGDAUmyyczk0aMSxnlzRT/Av8myqYS3hv9bZ4y3Jd1Nh8pN73OfcbN1wqmbztjBl9GaTJiE59ryHybxzZhLjPlwUO6/MA1wM6kmRTovv1TSf0tPGUEjDuD2HjGK7u0c8bSAR6q4pFNGh2gLIchXRd4ArFSMSaARn1Usk2xMtS4l3AFPDdYQz6IYOXdI4xOIHxFHFZ+2bf8UWPd86QyCoxBTYtPWnkeYh9MxNGV8dvVpXyAo4peSaYV5FM0ccxpwvTZM4QjmHVKsMI6ruwY1A0WeQIJM296WQrIb/lqm0exvSvuOWNxEI5QmV3LDQViUHDeA0iN+rtlMAUZo/SxpQ8sJxjmjPvwQuZ4s0TWB1wbx2WH7yE/cfKDgL2dUrKMZM8SbppinpsbmN51OrETKZ4kA65CM3c+uBJJDmiJpimngwomQ6fn+JOkm0VBH5y7MmZaN1t6noCn3iF0PfMVsEbfAUaYFYEO1gUKcbfoIdkgJ1n28iiQ3RtHK5toLXi1iAO5If1kUCAz7gEoLWdXQoGREWz94ya6ib1DbyNxoEBsxLsvML4nD63Z1zQFhk3b1faHzLr8wwtevHjtMIQYUS5OgZD2BjT2IT2a1qNKu0kdKbso/BfRkwL78QfiyMBnSlcEFHhabx9xK8Kc/HgaTfT0bRm8q7cb33qvE0FAviIcx/xMM3G++cLd3R36E+cTBXbrf57fSkEs8OowoKiqz4fPFWzaYKCGU4xrEWCLzcvulm02NzkKhInGX3lxxuMoI7RCE6U/wflGaqVAmprZN3g3RysTjHSASNe8tKtOFLOUaQI5wAT2Eg7Xb84HHNo8pGCWqqBAE8cy/OFCR0pxUmSWA1hx3lJdRzbgOREe2QgsPMuI59jlT3pbvaiOSZSNFJoiviAeMUOBKBZoumnkdTFL1wWoxFg2GIuyFMiZ3jin//c8ZA15+ay889nRc+DGGJ0SVVNgatsNER54QRQ47wGzQOz+16Rolo/VvAdOLH8AgoLzHnAEWWb2ANPw8bGrBPDxoY8Vdb66WcJMO95EYamIZgOybBL0lY/xFn1aaa4Y77tiBgXChSpJgdYJNkl6UUnno9aH3ICEmUi97tCEWfUkSV+VGfllGfFQz5vrqqRA2zvDBJoVIgJAAaBMvLJJsAJcMre2+wKhBbCjwcVxJDZMhzAjvQ5rKsJNdXN1JG/ucHn0JM/JLCQQqpSOboZlInHCAtYWhTPThOe1mLVkTJ7Y0kZ/HAXwBMcLdXM8Sghog7tpCoxH0zZVaTddP957Mfnhgj0iF78X3fB3Y7Q15JVCR0CBj8LTBOcRBeqdH2YjsPt/c49dngUEzNoXQmvBrblH2I0RW23xpwwsQvMvZuArTWqQgfOUNwdhSV6A55m0tcMmOLIWFvY89BxLtOtfrlyBbCPUHMz144AgBPAQ+Cg+B5d8ByhkTicy0aHyWKAzqNmCYC5JgV7g0DnmucHIxoMSbMgrjJnmtXy0r/xRY8E3XgkFogfgNurMusBXjQEHKbrml/Hb1Tb9AtiMvrePRGZlEhZsHdsLFv9zypNZk/AE95A3o0rlsUAe5OOtauzbtXzvkStWn1i+2kIhL1AmDSSUIBus4X0YMRNek7NE5gfcfSfkNiBtP788/odzTli0zAc8o0rGhcoZJvhz04g7yL/KernsKy7kkxQZRtwsGlghOzzgmmXEy/ekQA0j6+NkuAs/gAvtVGC1kD9Ylrc4q2Nvp/keYc4ifq3EO+sA8ZMrUiEFPrzgxbcXbDt97f6HlV4wnSAFApwNnw62oTiVrHvjUaCjW9efMAXCJoAV2uL0ZpSxQUpnA4vxWKA7OkUUWDYWeDEfEt6H/K0h81PPlP7dQlGtWkYU6HXJjwWOg4Cm5kTCgU28R5jLxoJk+iY5vp5rysG0QssQrCpNapBH0yvMO6l1VSrALNik5r+7l/AAA/eKVfAmNf/C465SWB4Kk00wGN+IY1Z8XCwQq0KXPQrc+dzo6OjocXoUTRYHQD4uBaIxfM0IOFUVC0RbPOgFeSwGhkVYc9ori02e54xs9GYXwlk0AgWQtzDPvpaN9iXuC9xxHCR8bqcz4zzUUBssdntg5CrpFFtDz+gCE8QYd7FA3VP2FizqMgR82FqWVl4+Fjavmv/2DBGA2vBt0ByUzabA1GhCjcSem3QsUMHWENwUwvwDCrznyPJ71sONgw+csAvErEB2kn8v4mmqUd0soYOLdpWATEDCC555RzT/3b3gW+zTWv0s4c0JznzqvkB31IRC3TI0zSSsSFKToDtuwqx+ktT8t2M/n5QyjJShQJilUzO5ij+brGtAM8gcOu1uZYMtCFByPAqEJcsX36bdvmEoizWWToJ92PEasWPlFPjOSrtbGW6eu3ZisUAdnqQduNbl6ilQ3yOYiKF6GtAqts7FPcIeHSLkNSYFlr0v8AdRLPCHhz9/BxPgC9GNg7/IdcxXV6z4Qt+s5FMAOQVC2kUH4amB5t5BZh9+O67mQCBfEeY265U2K8L1subb0fO1W+T152JAK1ypIYTSXyJpvQNnIjepcQq0N6NERvSqCloOIm26UTSLzsIUT+UZwNGatU+B+qu2LW9M6VmSLPBukgJPLdhBNxdSpq5CrRh3Qgr09qtCUNDxk0EuGyZkNGBZzUQQbT4PKEJk0cYROdmwOB+QDQUgfcvcH1zYNfSjq5wcpiClRzBeQ/6uZ0IiDYLYruumhpInL+ZxuLzXBK8krzTUI71b1hqnTF9DTyvsY8YuY9Da7Y8eOsrvswRHXRNORiYXjmaWVt4Qj/GNHbZd556WxSuPLZahwNRogqF4FT6DApXSIEgrwnZTCCwZWzqEisGWYW8EvU2s8InwP57m65P5cBGWeZ8gLJ85S5hVZvyMoxHvUx88L1A3GnwwvfKVzBLMSWYK9gh797CzYjAL8dmDb+/lsnBN8Lu0B7WeFN7shDNtmUlSl/fcyJhpwXO66RBqsW7Gk6QZ9JACIebn1hARAU1ZDYL2KK4baihhVUw+lKTtEZpmbBxRp539iO2CM9GGFf0wJHcDTKGRMF87YDKtt9yTuCWdkzTiVoRtFM2P0iUpkGmCUngRTd0Qj+qlHGJysUAs09yK7FkGQxXFAuOBZpa1/zjK2rdKu4kdKb9H+Bu58JHRY/9j28F1tvI8pX4SBQufz7WrRQvXfWVZ3X47hNaF0ecqXmdILLCKHktRUsDjAxPvwas7lZnxCVj2TW0TrmQ5uG7iBCBbN7sNaWhqnxfYkBJMllPR8wInqyGxKwq0jAJll4MLSn2lEFLgpVwH/bzD7ug5MpdyHb+litds7Vt39xX1oUD5HeGWORnr3lEIJlG0LGM9se6NNp5B9hR4ci61iYEO1j/RUhSoVBZ511/YlrMY/XZIyykgHRYF6qlAxjcrdtXYlPoR4Zv0BpGPRA+UvpTr+Fq+nRysDwW26oowySiJCSjgLVAyIpyAyaasGiz+1vw7wrV2vsUo0KwLh7/aV6t4Us9TIH52tHdY3kyaArDOyJcmbZotgNa/abidLtHoeOuz9XdE7z5OeDLeLYOT4UkdbVbyO8LzlHoj+gW5DYW2D6niWLQWfCnX0cv2jtSNAmVFuI6jLqZEAVFAFBAFRAFRQBSoUIH7o3Dg09FDBM2TYv5CPyaQzNaHAmVFmASVhCggCogCooAoIAqIAlOpQFGpR1P3/wXPCPy5viOQO1Y3CuRGq03L7pBqFZPyooAoIAqIAqKAKCAKcAWuU8XXUkvAxIL3R78pIhTIBZS0KCAKiAKigCggCogCzapA8kZAQ4GfjRAQFnIboaMSC2yEURAfRAFRQBQQBUQBUaCpFfiH6AnSBgG3wu/FJf4JBSZEkSxRQBQQBUQBUUAUEAWaToG90bMDz+VK61JRQNM1ocCmG2JxWBQQBUQBUUAUEAVEgYQCHUr9Ub5tLN/x97nSU/n2WwvFYqKUy0r9jvCSAfjJuLU9tlTXbXfRL8gN3Nbl6tYtJSvCdZNSDIkCooAoIAqIAqKAKFCZAjEF9vRt2dy3drOjQGZo0VpGhyx/gkmhwAkKKNVFAVFAFBAFRAFRQBSoVoGQAg3ndfWmKTArv9pWg/JCgYEg8lYUEAVEAVFAFBAFRIHJVsCnQFgLHlikVAbtdfcMDPYtqb9LQoH111QsigKigCggCogCooAoUFYBToEO8kIKNHcKbhm8T+4LLKumHBQFRAFRQBQQBUQBUaBZFHAUyMmPp72eYLDQy5zwG4kFTlhCMSAKiAKigCggCogCokB1ChAFQiAQtgZ7f5t7wi3BsHckyqyuybi0UGCsieSIAqKAKCAKiAKigCgwqQoQBXqtZMUCIX8SFoWFAj315Y0oIAqIAqJABQp0KrVUFeco1VZBYSkiCogCsQKzIPgXgZ1HgXRTYKpkbLGGHKHAGkSTKqKAKCAKtKAC3UrdXWh7LN9ufhef7BEJAAAR+0lEQVSL/v+XXOlCruP7+Y4X86UHC2094z0stwWlky6LArEC8tshsSaSIwqIAqKAKNBwCnxQFY/m2/8j10HkVz5xMdcxnG//VL74AVX+1xMarqfikCgwZQoIBU6Z1NKQKCAKiAKiQI0K3FYo/iRfKf/FdHgmV3o037a2UGyvsX2pJgrMTAWEAmfmuEqvRAFRQBSYMQrcWij+tOIQYIyAPOdsvnR3oSj3Ec6Yc0M6MkEFhAInKKBUFwVEAVFAFJhEBWYrdX4CUUCOgJT+br60rCDLxJM4amK6WRQQCmyWkRI/RQFRQBRoRQUGCm1Eb3VMvJHr6BMQbMUTSvrsKSAU6Mkhb0QBUUAUEAUaSoHHo+3Al3IdL+TbNxbalqiiCeiVlJqn1KKCWlcoPlxo/3au9LNcaVxk/Pdcx2/JxpGGGmxxZsoVEAqccsmlQVFAFBAFRIGKFfizFAVeVxin/hyl1qm2P8m3f7/savJ3ciVZGB5HSjk8oxUQCpzRwyudEwVEAVGgyRV4qBA+GtAE+R7Lt8+prGuLCupovv2HGdHBW2RduDIZpdSMVEAocEYOq3RKFBAFRIEZosAHVPHnGRuE38x17C20d1fW0ZIqfj51i+HnC7JjuDIFpdRMVEAocCaOqvRJFJg6BR7O7Xvn8lvLt7d+4d7zy1dnlFl8pPfQ+TUP7Mo4XHH2hlf3nn31moqLN1bBDa/uHbuwqqxPq0Z+dWgM/vYOT1irsg1N4sE9Fw65MTp2+ZMX85U1tjNfboPIT3MdB/PtSyu7wy++WfAPCvIMwcqGQUrNRAVSvyNsfjJubU/Q30VrB+/bMti3JMiuw9um/gW52Y89dfP3XrB/33pwdh30qMDEjv3Y6FML7tTldc7Kx+yogVfP3D2OoR37b67C4RVHzz47Nqb/RvrLWd6w7dzYs2NUZs/Q2NltWKH/pLHgCrAcPHRyj1KKNafzzw2voEb7hw9bT8aGdptc0yhaGKN8qhMkvPKHj26gw6xd3gVn+VnbncxuMgu6lu4O2U8l9gxhd7gnTBn0ZPfIs65r2gEtCyvphIWGQCis6xr2+k4GfSPMc90oDv3Ys3wglFL57e9ctv2YM66UWn1izd4jV3hZk0yBgFCWkA6NvTXgRtNzYtLfaDcI0TS0jQN2zqUKKNAUXjXSsBT49HY3CjAc2+GD7P/zKFAVBt6+bN/p8W7wAwttSj2VujuQI90v9M/HrSu0dfht8nc3FIq/iMKK90oskGsk6RZTIKbAnr4tm/vWbr4voMAlA/cNDPQNCAX6Jwiw1/65ft5kv9PcifCnehY8o9ETkO6plUh19aZAjQjEE3uGypENQMbhc2eRzxwFghGsCGnOE8ArDhZJQiAqXkwp5ZGQ6j9pvIJGsUWqnZngnvBCGd10XWCFM7sJPmM3WfmMpCZagr8VR0cMMXMPSasVR88ePnfWFu4fhjRRILaoGRRHKpsCM7WKB2L3SDgEriu3XrwsDudUS4HOXE0pzV7b96hrht8iAqvJ0IQrAeK8tXfkaW3o6e1n3xo3vOeanAkUaHoDLJjgP3PQp0DzLeJ9Aw87HbJTRaW2Ftr/PWI4DoIm/c+5jsfz7esKbSXfWlGpb+XCWwz/I9chvy/n6yTvWkuBkAIh4Le2p6s3oMCePogCdvcIBfqnx9xnXsgOud29JBEj7FnwLQwculjd3Uu+t3/unQ+uNOWR5JRSLNBIrAlml+zw/VBK6cDegmfsIY8C48AhtUUelmXZmAyi5lmGBrKjwwZQlEKECokE803NjCYiCtTsxUJ32G5VFAixtwQGZfjguoCN6deMbpooJjKZVyP1htOeO56hFVDg0eEhTX7Ai7ttqM83wnoX2jEtlNUqFiGbAqO1YLO2e+j8Gvd3Yh40amKBu5bbfJMJB+Y9YAv33rPe9d8EFNFIeMgrp9SeC4f0Wuo1w2+F8AGHkquoLGrlFih3DZzFgKIlOW185Olrht+Kl2Ip07QOTu25cGjk1YGzOv6358L2PU9vp8CkRlXrDBk3VdBDZ0elPMFeVx4LZB76WJaUxWW6YKoBa1qJZvKW8TBBgdwTtiKsu7T49PviLxLrDp4aHT114A7stHv9SKH4V/nxHwFjcPBfcx0n86VH8m0fKxQ7ldqdWlY+KMvBTl1JtaICPgXCWvDAIqUCCjRoqNSkU+D8q+d3dXXF4xDnz5kzp7u7e/78+UHhOH/Tpk1KqThfKdXZ2Zk0UkW+ASzHc+QOsBqtz1Iuo0bAQSxgeNFwHoM8FmgEqjN0yDLJLCTM8u6dD67UzjgKBODDwGFQt9IV4QjFvIajNxYy+k+a2B7SXggTUIxiYHrtsoJYYMwotvmyZBO5CNgUgWB2N7ELnp2MblZHgYzYuPEMrTQFbtDCbth2cngFQt40UWDy+p29Irzm0JmFiy0RBmA374Hzfs6u5bYwVyUrbZDuwvYRn3UUgzCvKpSPo4bAOpbPAHFsAcNGJh/SuMLL0oA4BiWBAgEZt+9Rq0YurHIOcDBirQMaInKxWGDaE+xCpRTIDGJV/QqeY6N0gHsSdA21ct1UqqyHvLPUItPNYbdpPvouoZTKpkBTZ5Uqfm28BeI4RhjnvJnruLqSBWkSShKiwIxTgFOggzyPArtuu0uj4WRTYGdn57Lly5ZetzQQOZmfzDRgFxgxFJgsn8xMGjEuZZQ3DPcCXxp20OZ1Rsf8KMdB2N1LCNSUmvuMpcO5GNjTNbBMQHKhtZ4F3wLmIwqc/dhTyJpKKUBPF0d0DpCVZCIbj5LFEch2j+iFUYtQYMSPkPWfrDMFunvXUovLoa90uxt6ld1Nd98euy0y3c34jkZHuqEHEApKRiWztLKK7R45fHJk6OgGuu2PUyCkaQ0dMdFvGTzP1CrmbBLK3LyIcil168X0TV3jrQhfcc+ZYC9IigIDLvS7EL1LxasYb7HynGZY9tPbifBMiI7AzlGLw8pVHnHafLA88rTa8OrekQvbARxZvjOiQ4b6rcdzDtoyPEFfvVqYmXgFgwEWK6WjjDEB+4vpAMEm7Gd7ZKxX6mFAgc4amIlWhKtaFA66uUIVn8q3V/J06Jj/TM6pfOmDle0pCZqWt6LAjFHAUSAnP5Z2aDjZFKiUimN+Rug434TrurvDRwTE+USB3fpfMHIQC7w6DCgqparNV5rebkaYYzE/1mC8DmsXf5HwdFmkQLZ2bNdtdUhvHAqEoODKx3qIAsETt+wL6SmjQLVh27mRfloRTsW33LJsDB9ajJDMMoopaCu1yMvUz0hqwrNrrNE9iLZOuVigbpp1c9JigUO7FXIz+bNnSG/+MKFNC3aEgGV3hzjlA11ihcOBwwqZt/bXgQKVcovLbvkYW06+aniCOBaG8ZQCILPrrRiL8uJYzI4riYvC5SiQrYda+xBdQ2Yi7tk1cJbnY3NIQh7PEWNleYK1vVqYmX7VasAytGPQANFsPWJoWkAvR4HjeBg0QWrotrDv3GE4kYINRvzweOlrCurRfNu/VnC/YBYLns2XPikbRMbTWY7PVAWIAoH27tsS/G3uuea2u8LMwfsGbkus2k5AoabeI8z67RZzCcLYUaWAAun2Pn4kkwIdsVFxjZKJfBfYg4jjAtwjjExJ9VnCVWGZqSREgxLLtamicOklILP3sZm6gBe4awFqEspoMzF86OyQAnXwLBVdc41meJWdDb3TjmV203fVWnItet2sjgLBSBAiBfMZWvWfDEjXOsZjgV4/QzvmoPPcK2zexAORRYGTGQt0jkHg8FAFIIiPiWGLlc4I8BmG+pDV3FFIEYT52X7simKBPtlgFT+iZgNvZtsK4zANi2VigVmeYCtVUCCrgg6kPc+y6WlFjlEC7fuvVVNgfvs7FW4Q8Rvy3s1R6lP54ov5UtaTBbMQkPJ/V54d7Skqb1pFAaJAr8MsFsjzeVyQ5080PUMoEKJ0eAdemtV0eC99EyFWZCvCgJIpatThPaJJvkfYPqcGVoG/hU+K4V4FAwVOunbdwZ3PjY6Ojh5nO1A0rLgg0/h7hDHUtGfo3Fnc/OsRTwguMXxofyIKNE+QcUha2x5h11cFATZcQs3q5jgUCETruqk9dMumvKlUWq+3olwK9wintWowCsy6LxDCeOYWQOqw96SYClaEqaJ+7gynQH3H2OjLB8ONA/qePL0Iy2KBZIbd62YChGyjgykEeIT3BVK1YAWTKFCTHGIllc6iQL9FB0nAWDZKB5nIqRmeYDNJYttxHD6yz+3EQv4rayjtud5hE90sqCi6qc05+Cvvoeug8cJxOVjggUlzPPO+QG8K8ntU5t3VBbUt47dGCPiSiRP5YEtxmUbkkCgwcxSYBfG/KLYnFFjZCAeLtj5RaRCMniPoVcE79pKxQHBBgyAu6bK9w2ydFxvlgT3TNOEmgCAa8bGS2SesVCqmQBvhw5vJeEgvVgoIhrBGL1YStGm4CW8v0xYiCgT+w6foQcIxqPcoQWyIWda1MD92z0Ta2I1xzLIJZGK71M3gvkDTncxuhp6PS4QaBE2jLMzJemQteC3qjlUSC2Q9tbFYZjnWKhoI82ge1MQbCLh+J6M4OoBnNv/yPcJ2MBgF0q5hf6fw6hNsl7EPlBEFAuK4bbYMAWk9FI76iGNwxNRyq6UabtCU2x3iCjgKVIaQsLCBuYjPwKDFTdYiuy2PWnxrYAO/HZDyYXkayxtSxAVrlw+qxhToy+IWxAPP0bjmXeoOAi4YoR3NjgJtmJNkRyOhh4jalH9hFYZs3ecy/V1ih/4m+hz7JupqjJv6YmovcJL8eOZfCgWOq6wUmIkKyG+HzMRRlT6JAlOjQPJ5gVPTtN9KFIfzD8u7RlUgYzn4joMv+8sR1fj/Dxm/F8yZL05/Wm4NrEZkKTtjFBAKnDFDKR0RBaZBgcRvh0yDF/DsEow8TUfz0mZNCiQ3GN1x4FR4R0qVxi9k7BT5ca70W3pH8DUF9clC28F8+2iu9Itcxz/lSp8vtBWrbEWKiwIzQwGhwJkxjtPQC7aO6ZYLo4fwTYNj1GTjeNg4npA49Uuk7uuqn3WxNHMVqOJ3hKsSIV4R/mmu4w/zbVemHgpTVKncqtqTwqJAMysgFNjMoye+iwKigCggCvgKlJTam2/7+1zp33Idf5crHSy0Xyuk50sk70QBUkAokKSQhCggCogCooAoIAqIAi2kwMynwBYaTOmqKCAKiAKigCggCogCFSsgFFixVFJQFBAFRAFRQBQQBUSBGaSAUOAMGkzpiiggCogCooAoIAqIAhUrIBRYsVRSUBQQBUQBUUAUEAVEgRmkQEtQ4CN95y9sOn+hb9cMGjjpiiggCogCooAoIAqIAhNSIPU7wksG4Gfl1vag4Z6+LYOQY/6in5vDYrW/TurvCKNb6//8E+e/uRjfyasoIAqIAqKAKCAKiAKtrUBMgT19Wzb3rd3sU+DAosmUaUooUN11w5nXb1g/mf0Q26KAKCAKiAKigCggCjSNAiEFLloLUcCuXqHAphlCcVQUEAVEAVFAFBAFRIEaFPApENaCIew3XRQ4/+r5XV1dcTfi/M7Ozm79Lyicla+UxAIDqeStKCAKiAKigCggCrS0ApwCu3sGBvuWgBwRBeJNgVs29yQgbaIKmhXhzs7OZcuXLb1uaWAumZ/MVEpl5YPNxScufOLIXYF1eSsKiAKigCggCogCokBLKuAokJMfT3uyQLCw/iBI9wXGMT/Tepw/Z86c7u7u+fPne+4plZVviy0+cWHTebk7MBBN3ooCooAoIAqIAqJACypAFAiBQLcR2O4IjoEP9o7UPRxIFDipA3DXDWfkYTGTqrAYFwVEAVFAFBAFRIEmUoAo0PM5KxYIe0ea9Ukxcl+gN8TyRhQQBUQBUUAUEAVaXIFZEP+LwM6jQPP4QBMddA8RrKduUxYLlLXgeg6b2BIFRAFRQBQQBUSBZlagJX47xAyQPC+wmU9U8V0UEAVEAVFAFBAF6qxA61Cg/HZInU8dMScKiAKigCggCogCTa1AS1Cg/R1heUxMU5+q4rwoIAqIAqKAKCAK1FWBlqDAuiomxkQBUUAUEAVEAVFAFJgJCggFzoRRlD6IAqKAKCAKiAKigChQrQJCgdUqJuVFAVFAFBAFRAFRQBSYCQoIBc6EUZQ+iAKigCggCogCooAoUK0C/x9WfnuWpIUmNwAAAABJRU5ErkJggg==;" parent="1" vertex="1">
          <mxGeometry x="1685" y="597" width="465.36" height="129" as="geometry" />
        </mxCell>
        <mxCell id="9KCve38od3s6Ke8yRSOH-30" value="1. 刷新创建主角&lt;div&gt;2. 更新主角的walk行为&lt;/div&gt;&lt;div&gt;3. 更新机器人的walk行为&lt;/div&gt;&lt;div&gt;4. 抛出事件，表示场景完全切换完成，并进入了对应sceneView了，比如可以创建出其他玩家，假人，npc等。&lt;/div&gt;" style="text;html=1;align=left;verticalAlign=middle;resizable=0;points=[];autosize=1;strokeColor=none;fillColor=none;" parent="1" vertex="1">
          <mxGeometry x="1685" y="732" width="601" height="70" as="geometry" />
        </mxCell>
        <mxCell id="9KCve38od3s6Ke8yRSOH-32" value="" style="shape=image;verticalLabelPosition=bottom;labelBackgroundColor=default;verticalAlign=top;aspect=fixed;imageAspect=0;image=data:image/png,iVBORw0KGgoAAAANSUhEUgAAA8wAAAAWCAIAAACaB4LtAAAVkklEQVR4Ae2dT2seR/LH910Eko3n5DVEhCwRLNja3+YQ5bJgC+fgg0mWxdiL34KCYoxjSMAL0cVaCBLLShhkZw9B64NDYOEx6GBWAZuAL3rehF6Bf1RVV9W3erqfP8oT67HTwaB+eqqrq2qmZz5TUzP5Tdf+axFoEWgRaBFoEWgRaBFoEWgRaBGYaQR+M1NtTVmLQItAi0CLQItAi0CLQItAi0CLQNcgux0ELQItAi0CLQItAi0CLQItAi0CM45Ag+wZB7SpaxFoEWgRaBFoEWgRaBFoEWgRaJDdjoEWgRaBFoEWgRaBX28Ezq9cbP9aBOYzAq/6smyQ/arvwWZ/i0CLQItAi0CLwPEjMJ901axqETi/cvH4h/V8jGyQPR/7oVnRItAi0CLQItAicBIRaDDXIjC3ETiJBTHLORtkzzKaTVeLQItAi0CLQIvAqxWBuQWsZliLwKu1lPrWNsjux6T1zDoCHx++8fX+KdN6dv9N/Gn9x2x8eO/HB4++6g2+uvp0eOfLXvc8dFzZ2RoOSzbPg3Fuw+5b/zz67Vn/3VotAi0CJxiB3/3tf5c++6JiwBcfbD6/9Pd//a6yeXR3I7npI7A2GD4YPrtzs5WzpwhwQIYPhsPtvVuzLPEffehOvnVWy+fU9aM3r9+efN5RkH367vaFJ9+lfz98fnpyrceVXLiv0/G8y3c/Oq6m4riPFn/47tyNsCn4+GR78dOw9aX/KPHiV3eGdODav+OC40lB59n9N3us9vbaizfWdmcU3lLQuq5Df7MY/rh6ZUZzi5ovv3/wdOfDTCWR9PfleaaB7Ip32WSz/3n7t1+/iKeSa+fsbPAkX0ezn7/ruk8/X4YZLzxZX5jtNDfWL0x+Wru8vzx4sZL+HS1eNlNuLz7U/p10SC/saA/LL6/zGXn1cGXwIrW77vT60YrIB80vVgaHdTd3lwYvllZt6q7raHbqYeVqHijJ+h/un+66hR03Q3Qt7GRqcYqeclbSidnqMhnA/eSXB4rjgPK+KbkZ5Uf4biYVAt5JPLO9wxZawHmnsP4YcBPout2lAe7ZNGNxb0azx7tp1k/aOPuvP2/+590oPStKiFrp19SIeevOT35JejAcbmzOljW3Nkr8ahhHV8PB1ixJrhCBrY3cL/LaPP3ZkE367bI+Aa+H2Y/v+829bZ3XfDm+tl7c1gaTQvb1vWcT7cT+4TpBz1//8PfnH8Ry7tktn923/vnirY8nsIJF6pB9Y332V7VxVi3c/27WYI1TViBbL7QE3NrGYS+xXScqwsTj4rU4gND58lzqs5rMTf2TH6Yj7a0EDf396s5w1mCNJk0L2Th2XLvi3bhhP3P7qetH4eFDR2vnl1ybJXsJsmcN1jjPFJDdp1tRRP2JlTuCUSHgPsWSNGHo0bIQZw7Zk8Al6SDgM67tOiZdGEtIDT/TpATW+F+uhNVGdkdxsTxXwlMfLT/U6RSydWQvYoS2KqxCCY7VIzJM4wMi2CwHnJBXBzL+8kQS8KR8d+nhUTKALDGYJoXK2VXIVgG0RNqTutkfOaZnasgeo2/05h4qjaOuGQFfdd4CZBOT/bR3vTpktpRP2gijEeUJTx+vzcyAgo8jwz6LmG8+xjuitcEM3fF89oSZ7LmC7NHro7eVUoeHb/e6ix1VyKak8v1rxTFdBzktp1K6DKe0tw+8du7J+oJlpFy4gxSyX0eLkJ2xb/hJdwIyqSehT9/dXr77kSXFJXVtP1U+EUPQBhd16jcvoL9j2lAlbnklUN2X38Ot6tDynURO6W5Sk52Z5NCFWXcPsq/sbD3d+dBGQb3ElUd2f5zIEnrSpq17V5PJklVlY6zzw3s/bt27aqMC3IO8FzxAZxDuskIRDNOITSjWdaDcLOy6zsyjSLr7IWmtxhQhOwtp+OnKLUVdDDjYlu9Q2qQ7FxwyzehL13VwSOjdlO1cTTzY8dN17qbrKVrIU4NyMyndhKg94SakVyhCS8CXGLhDTVosmnL2J0WFtfnR4g/bi5/a2QOXj3UCyod1Z3OSpM/C5yL9WToF3Vi/cP+aWZjuE0iznqxSA42xubTRh1fegmynovS3Dtn7i5ozprHCfxX6RIXejpa4EpGIW6kvZ1/qy0dZOtynia2SEuH7xfWjBKC5zKT0icZQW1k5WpB+VQQyOIbs/s7+otwG0P2PigXI5mikSVUgzl3em0lmUjejytG/uPBj8/kl//e/P3DVlqTi3v0sbbJEHfWLcFZMcvE/puTPf/vriFkZHCFP7FUQa4PhxibhHZ/frL8IfFnqN/x05Q7KWxvDx2uWWE39NpddxSR5TP01eiNc05OkZ2dNMySkr+892967Zca4sCC1KDELCUkdQx0KXbNvFT42zXo/0A+UsbU1wu1B0UJXq256KNwYz7Jf3HxMBtimdKtQjyHDt8RQNdPeucOB3d7b4gMg7f3KIVGHbDPDdgRMl3acxfy8J/iTJSOO2+ImWyDZwT/18ulgJfYKsd5ey570ki03/n1wcPBtrJboHLLff//9937/nhst10gDTd9AF7l+TgugHJNecu2UCxhcHSFNjphbhGx+auwXeJfBC3+mUC1E5cLHej1O/qAAtdVfbLMB6Roc+j0mlZZzG1OO8g3BU2pTv2GckJbzImp1ValX8E7GUlshqZhVpTGY2TXNV1cfaZ0DKBEmE3oLFvKkSq6mBGwDJbS5eCDquB7J6Ybwt26hxo0sTEEjHxU60d8iZDOmW7TJ8sJOIQYVGfY97azMzWLMQWFwiH9ceWR2ym+fPRMG72wLupkFX+/N0MLy8UZKHgyTGe4mTVK4/xF+9WVottCK6Oeby2sTleBZAttwlihDdgenGikpSWsT+kEhnsfgLEH2T5nJzpPEzKbFHGcZywRDL+8vM1s7XE4F2VTSYKUdSpO2M6aEbK0Sub340DK7pgsaOUDzpmT27pIQai6DdqI8qOWmx4HjGfL0uSz5Wwh4L4ApVb96uLKze3r9aGm1W9g5XLBqkDmD7DNnzrzP/wV3a5nszeeCy0QM8cIvDAFKvvhgM9E5dJab51cwT8zMmvBR8E5glNqAa0iojpiW+iW0SkpQOSgRnBKZQOQXibQM6BO9sVUFzkZrIRMMCsmSpA2VoFXYzixUN3u4DA7KvEUlvfIJc80aOWRbWTMqvHi+ZwDdGpXdJMgmHOfYmvvWyJLx2E9tgXXeO4MtUbWxSXl9oV48JKKF5IiJ6b6oWCiHnB0tySS8DdCB5UMWenN2pU2VcpEplk/37mdprcFU0CxcJUdC9pkzZ/70wZ/++H9/BB0dZKw9zUPXVEhIqzxnrPUHXL2unYMEmPHxwv0sF5Uu3lm+2YDYBrJJzrvA+nRZFfnAweE67TJmKSOC5bSimwrcOWT3kcLUxQbADadjPa8MnBr4r0RUohNYSjoCwwFQ0qQK3MEckAn99sMFghkwUUQxHfjl98q41IP4OLomZPRW1Y5/zcJK0ALsmnCHeV8+9ejdDrgmyXue7OrqUwigyViDhFB5R88rlPjd3CDv3dLCKFEPCWsCO8qGfZEG80MMFXOBMKNbeOURarbQkYDvOHSBakVKFfO2WGDdAROrQZLbBhlbd9YgUV+nn36+DKeU0I/5ZpOBRS2PrXjmyikokHQ4HcFpCkyvNwnduOpXKysqzCdFHV58rEycMDQRrcMlMR/UcI9M5YaKkR5ccmV2LMkg7AblkjtPlhAHM9ROANl9JTp7IvWJIBssUTcpDqq8ANBhd1QCnk+dUvUpwnRXc7hEjmuiGiGbg687VAXCpFyioxau+B2OCBXvJQpuRpXhV/niW4Nsy1X3BEqQPZISwApkNcId57nATJIfVYGUgySYUyAmRHOw1pzorTs/qcD5lYsuEygzTFSCbII2RkCaNyY+lYOBVjcf6/1AID+CQgM7t6RmIVSMuLDOkveUlUhm2kPqo5hiNTNtKfOKhWGnKL+uEAGbOwi4BNkWc92bNLV1qhe9qhg1QPeO7nTbQdbQPZL2uFgVtp6vW1iE7Jt7275n+cZvsBULq+GglWZ5+dQge4rlQ5Cd3ceGySeuGEmZbLmZfu89yGSDPmZf4GCjT5Ohy56hKjfSFTFc1ZSV6Vprz5e54crh2mzaIefED39lQ0bkF/Qhsl+k07tThs7hGi9KSNgu3pToSpbUlXAijZ0tmwpWAzkRCSUOY7jxpTVEJnZgAjXcnBiysfDA0rSkwqkLddOMYIzQfzDD0Y00aJ7YdWQaLDnadd2Y9wNG5rltgkw/W2ikSFJuLZJi8DfIm2aICYI1hRpjkh47eBx6wQzzqvogr536N4fsjkld5o287t7p2LwGyaplwoy2u2vHmwmYXm2MeS1VFrucBKidloyOpr+VtRkWoC8xSTbjCcSV2+JF9aZH6k94U+0UNDvIThYwtjIOVphvZLkIlUevHi6v346QHckYfe23NV3tGkxGN1lHsVwkdV7eX1rf5WqK3aVStfQYJQrZVDeys9ubqEifBTfNC2ooefvUoVUJuFmiwvIkQTXTKMZovZdgsDayV8Km81Xtxcc6/U/qpppW+PvOO+9QKi67+PYYuuu6gNE9gbBV5iEZqS3J36HM7MihVrEMuU2AKTGQCzjwKXwz8iJxZjSpGdY4aYQzJbyU4HQi5Olo9jxNGyWJFONpXIhfCZIVVnlXlYvLfNsQBspcPlzMq7gpHHxzb2PweGPvFt0npBiWfQwThSkKMa+5mcpFYkz4FqUM2Xo7RI6oAWreeMgOOuN+ZG2lHQETwc7tl5FMAtmF5TMLyJZ0uNScWGkWLJzJHsV3UC4Cg/tNz1f5pRGl6ApXvBxWIduy1KhGKRz7pJ30YAq8JhwsDIbZtdn1k7BBNtdbj0uH21iKyRjORlyz5GgdbpAXbZrUmAKydSjTlXN2ad6Q9naBAHaAbgU0HGVzNzpXPXpr8qJsYYBmtzbArrvDmWyLv4aH/6axUs2ctgTlLg1xADrn7WFeHRHktVP/FiMpG+lxAXC2e6djy4nzlA7XJL3fY2AcTEXvPgG31DLZJgOrJixwE6iszbAAfZ0GDjYdoRQEeqmZxmIKPKx0EA/Ko7VhEwwZ17QXB2sv6o0qFyHlBLWLx6vJTsNfLK0aO4K5E0L25f3lh/sL64eLlynpy8XKBfx1vb1UMW1ytGV4XU9fF9FRk9KnorCERbP+qiX7Wwl4BscpMqetXjxp0YiR5cXymExPGlbem2njpG5mjoz/2WPo40C2TkP83ftWiW6kv3kmW5/UTw3ZimiOklLSEDhMuVwxjlkwwlnYpPJAY56ULUsqKcIQniX0O8KWlfC8EooC4EJKXmapKOFQrO09o9L2wd51zz2X5SsWljPZQRiRWsk4ho58QZ6WrVAeQ47oTzVPVdkOsgYN9ximUIetjuz5jqhCNmSyk/F4oE7crpSLTJPJ9rn4ZjXn7Gkz2a6u2IIUr3xXq4fIdPm0gmbQEa5qdumla2QJyk0ANKQm4/W1cw7EnN4uZdH84p1nsmM1JysmYdMJJZvQTzBdspZcDpB989uDg4ODf1vVewGPeE7q1/Lf3FGsMAnbjgHZseZY3hR05mbtMB1bleoKguUIiwF51T4SwIIE7T9GTTa/N3Dw7U1XUbaQwDHl1ElAyx7IkgTThKpuVYWbBUyf7ly59yMU8HDcAHOTMRgHR1jeCPO65UHeu6U1ArIp+Dg7REC10MHQf6TANSd9yJZXKq1fdWQuWDc1StVmIBAWOyWtbQWZEJ4xrBNuYh2UaWvlfrXGzbKuf/h84e42nIiCVT5nIOlwOspe9vAhf/lmcHBw8N9vPvEubBFXpdQm50Q9zTn+6yLpGx3Efw+P9eIjG8Ksqd/KQNMmh+yBfhiECpcPf1YmW3LzD7M89KT0CZCN7yCiV9CuB9yy4JYRnz/I/uSb/x4cHAy++Qt4VG3SS1fZdT3kqnsUHrZmaukNSExm55YIWinfELppOzCT8pYXPyDYSduZ0rmKuE0VAvYpxvHAMBHXq/Rx0MaShVqXUlZO8AcvAqqdgUoBEMtK1LAHPz2zMhizociXBTc5IHf4Ox5rg2cbA3rzkpUE901tzULAXw8s21Bws5zJFuSFipH0dRGsLaGYyB2Rmqc73XaQNeQwwHqVQk12ZUeQvzRvKDWREnONj7qpx3J+0Gp/+S8VexhSs0hYIFMtH34DMluMxaskA0y+wP3Fx2gpX7H8AW58IkwXP6338OtrGKL0Ga5qyNDM2bmS7CmzKmHTeNLQI68umSVK7SMgG6rMEx8HMwKymzvbizcsT2+dbHlWNpNDdq8U2JOpQrTpeRYSFX40I/VjOhzAMTCcZysFLoua0R5FNBqYhB/t2P+9pQrZWNVgaKslxUmPYi7vtY8P36h96aZEcn3IZhbsW+ifHJFPrOjNgwVWvo6i6JzF0HcE2U44njNoCKMorwRc1o3N66pIXmNLDZkisySxMgw3SV+QbowfKkFPcrNuYdCflPgx4zNpq1fnk1V0xCMfl61Tbxgij7lo+ZhAWKf4wSKt+5L7eagrC8/KeNLQE7/8ozfAIyA7fBcFVPUgm7gNqnKdqlNCV2twpeK5V5Od5DEfzLAIXxdRDTTLyKSy7CGC6fgtP+lxI1VJ1i/1GDg7pdXHfTivqkRnKSgpQnbBTYRszvHrDYwei/lfMV481YCnUnXp1JqTXgZ6kkw2Wpiy3XRL44HNzJvUTfHik3/Q7RsmEXLv8Ld/GyR8XSSJOCVQ0s4+pEANYQsf/vxS/gZkzitGk+mU5egDRMVUlFhZCjb8/IZV0QSsOTxxftTOh6mMWDFOZw90xXAmZ35WnhVjuIWJPlW5WwIarEB5DMKqkgCOUsMApc+M+O47Osu+6yZ3U18YZVVqYeZRSvaPsFAYVGLisSq5WYPslD9WN9US4d1ktnbq3ilBtl7r1S/ag5k7kDIvWqg7Panye7Cgh4yxNTHd8oFvg/i7wobdY5cPDL+kr0uaJbUEolg4+EfIz9QgG7W19vEiQGSj8JdKhx2Sjqfy1RtFNSHx/2kiPkxUK/Lqufu6WNz7Tvbr4ljzo0XgBCNAiZg80XWC5tjUTDyWTG2NFoEREQj3XS/hyLGjtJuf5VOrFSlZ2CDb9+CsW5SAdMjmnLH/nPVk86uPDsf8/8495tW6+XXm12NZ7e7o1xOB5mmLwAwjcIOrCeeRsI/zf3zUR/kvgbHaFHMWgROB7LlaPr0nvXSeqFrYIHuGp9GeqvBMH4C7J/iad2SVIWf33/x6/9Rr7vNr4N6kb0+/Bq7OmwtZiYKWK1h5xi9gL5ZhVKsjfoF5+yrnx5K+ba9pz5xh3Ig0att04hE4Ecieo4V36vpR6eF81cIG2dXQtA0tAi0CLQItAi0Cr30EGmS3CMxtBF711ff/tIxCdEwxAPYAAAAASUVORK5CYII=;" parent="1" vertex="1">
          <mxGeometry x="1695" y="802" width="662" height="14.98" as="geometry" />
        </mxCell>
        <mxCell id="9KCve38od3s6Ke8yRSOH-35" value="" style="shape=image;verticalLabelPosition=bottom;labelBackgroundColor=default;verticalAlign=top;aspect=fixed;imageAspect=0;image=data:image/png,iVBORw0KGgoAAAANSUhEUgAAA+AAAADwCAIAAAAPe5ksAAAgAElEQVR4Ae29349d1bXvWc95ykMiooScaVeV6/fvvcv2Lhe7yAXfHPlGBHKOCWCcGIegknXabSHkBNr88ClkkHALI10SCZw4jqGxwWpx5YBiIUUhYN0gG3cejhzFrpe+L/12G/4B3D3G/DXmXHOt/aPW3vXra5Vca80fY475mavW+q6xx1q7R8088erbF37z7L8Oqkb//u3VCxdePcStDvnN+4//9sLZFw4d/+0F8++3x+/Ps9TsWGTT/Xv137w5Gtf+c+Wy0DqolPDWu2xNpbv4cfTW9BP/+9sX3mgGTdxzRfsPHD9r58i/DXNt8/4XfOXZFyxpmqz7Z9uTnbPHH3C+6JVqqcuhVwMLctcj1KtvnCnALub16r9R99QKvnoocruZqbFlZ42Xnmi8+m/Ke3nhgsflkJiNNhd6blAtTsqfrX9+deh/Pr117+TWz18f+n9+sXVfPBDtS5cuxF7JSruOKvhzsLMIV1MpOjDcn55AfUGsIEPXf8HkCXVxg4S73o/fHj/kLRcM6nsEx4NSSjhz9oX7Qx+amlqGYtPrdey9a3964yD1/89P/x8fX/vkved2Z4w1LJAHpJiLOxmSgaA8/qOjY9EsDc/enoXkyB6LPODdgpqmHjL/tZuBfF/dTPwNitPFq4d8ecE60nHhT7+/PX5/ulehBUEjs+Jy0tgGARAAARDIJdCj1OB/+eF/aazOcy20VNHNsVpyLN148L/c3zU0aQ82YanUQ92aflkLPTfX93+/Ofg/38xV592a0NodJ1aTbXna7Hr966sffvbxe6eW/uv/+d/bVOfkXixG23KZO3mx276Nbvdcsc+lrHi3Z43xQAAEQGC1CfSstgMYHwQCAkEkOKhZHzv77tr69g+3JGPn62MCnfWS1VoqhNyhYf/z//rG+3/67x//tzf+lzZi586nFYtUtlSe0HeOdX5jxfK62yveeSQYAQRAAAS6QQACvRuUMUYBgUOvipQAUkI+9aWgF6rWB4EHjp/1WTScOxGnbayPeZDMXJnnK7fQFVL3H/+tWDBKqBN/ns14sFFWvJm5og0IgAAIdI4ABHrn2MJyUwREmqxJHG+qGxqtDwKkS/2/lWnc9THjde5luGAtqnOae2gAK77Ojwe4DwIgsFoEINBXizzGBQEQAAEQAAEQAAEQAIEEAQj0BBQUgQAIgAAIgAAIgAAIgMBqEYBAXy3yGBcEQAAEQAAEQAAEQAAEEgR6evv6u/lz9/f+0/DIaDdHnDx69V9PvDHc3Wl2c4KpsX73i//r//2vOT+/WOrqiqfcK8OBpevRBFc+r51v/o/Q5v/4+cEyXN1cx976Iva//f7jv/z54798eOrRTh2oWH0QAAEQAAEQaJ1AT29vXzd/vve9/zQ0NNzNETEWCIAACIAACIAACIAACKwjAj1be3u7+XP39743ODTUzRExFgiAAAiAAAiAAAiAAAisIwI9W7Zu7eaPFujdHBFjgQAIgAAIgAAIgAAIgMA6ItCjtmzp5s/d3/vewOBgN0fEWCAAAiAAAiAAAiAAAiCwjgj0bOnuv7vvvntwcLC7Y2I0EAABEAABEAABEAABEFg3BLodQV+4+25E0NfRDRxcBQEQAAEQAAEQAAEQ6DKBbr8H/e677x4YGEi87xFFIAACIAACIAACIAACIAACSkGg4ygAARAAARAAARAAARAAgTVEAAI9ZzFqZ/ecvrHwQLp24ImrD56+oX/2PHEg0eiBS1R78uy6/bBgafHzr04vf3Xs5cTkWi56+ebp5S8WH2+538o6vHNs+auOjDt29vqRq2+Nrcw7pXac++I0eUg/J88trdTcCvqPXnj/vo+e3bYCC5muuysfvX/fZ/rn95X9mfrSC2hRLp1o2yx1v3HzyI3r30/9ObdtFh1BAARAAARAoC0CPYePHjc/iw+tWHI0dmHdpLgUCnQ7z6WF0zfWtEBvahZ2NsHvNgX6/ZeN4gxE54YS6Esflizj6EZiwwl0ezA9d+q+z7oi0JU6sffGzTY1eulraqeP3yAAAiAAAiDQFoGe3UaV79579Pjhh3e3ZaSFTptFoLeApJNN2xfobXjFEevPP91hu+4494UJwK+OQLd+lPn7wFs/u3Fzb7nRbgj0slao3dWpXWpX2ZflOeyAAAiAAAiAQEDAp7iM7Xnq8NHFnUFt+TsQ6OUzLbDYRYHOsfOb9yed2SgC/bHvX+2AkoNATx40bRVypsqHtRb7QqC3CAzNQQAEQAAEOk0gEuhP2YB6p8btvkAff+bGg88sKZ0UTonjV7e76zcVil0pZ2n76vbage0nTa45GYn/pVJc/EA8btxFCU9y0mOyXZSSWe+Bzyow6JwM29spnL40njIelpnkFs6NTiSOy8xpkeFdqDJJoN+8X3GInVOuw9R2OaJM9qDyk+eWxIjBDYAot3k1l9/hufiBeFwxv8c/PUnZ8GJE08W0kSk6mexwCtBmcpTZVMKIc1WMlU5lSaAjN8LPIsKJSJvZNfrpmSv/8R//8dmZx8TECzcpB/3CzxWloySzxn8+Z8rfz+SryFzz9+eeywyTl+Lix+KhZT9Z9dmpUVdF5adGlXfm3tcTn/hRosvPzjY9dbYOge4gYwMEQAAEQGBtEPACfefDxzdkBJ0EOulyo0151+rUBgKdOprnRKV29yuXEuimlpV9RtNr3eyePR144pK/W/BmM1uRn6KeDdrpqMygabdF/4LNZNg7WaiUIuGb/0Qp9fLPa7Kw9rLy/st+W3FLK9+tDJWy20rh0Agrclvl5sRtnFDmYvbTP/waDKeCDwG4ZZAanhOdDT1Riu9DXMf82Tk3WxXoYfvEirQl0D/zz4kGz4zuf/bez953Unjb67+/7zMnxFkrX/i5mQkLa9dSFMY56GzEKW+W+M7I/mfvdduKq9zTq0a4G2tsJLZMg7ahttvo4lYPGyAAAiAAAiDQAQJWoM8tHj56/LE9Mx0YIjDpIujj4+O1udrU9FRQzTu9vb1T01PV2erIyEhUW9Crr6/P9BoNegWKnK7f4vUskfCVVXKbnTCR+MChFgU620w/VMpmh4aHqrPV2dnZaOKhCpcekANO7lMFzcjp9XCysh9vE+cp4jw66sOUvlVC+ekXj4SSV3doLNCFCi9qLNVnHJyWcWW5rRRraxFy1k7lCXR7AxCJ6Wi4aLdA+UmfFd9jiMl6oNFwriLszsXR7OREaDuYKfnp7gec0eTG4OBgpVKZqcxE30UQKHKlFIlyo33jKi2aWUOHOpsGzDRWHJWPZDTJ+iDWbkLjCZeDIaiZMMV3DoEdbSDnPsrPfTB+tRIF3Ut+riAxFxSBAAiAAAiAQPMEWKCPPfTY0eOHu/sWl+pstb5Qv6t+V9bXrb1b6wv1+kI9K9+Lem01vaanp6VNEtbB6w6Fqm5FoJNKDuwopYQpOSRtZ4LZRj2LjJq4ixocHNQTHx2LFDMNxJ8DhN1Z8eu3PYr/RZvMbYYcc8uWLXq4mUrqxiwl0HV4WIbDjcEizZ3RrFFj3tX5JGFWSSyRpWwN49YJjavMewzD24lo6Dja/ZXPJIlbqoIEdOkYbctYfu7s3FIknJcGo4lQlX05o9+QIzrDmY2RkRG94kNDQ7IyI6ydhqYYdhQUJ9HMUW3q5aPdbC8rtSNVbdS/ewOj2/DKm8z6jJr3Oa3FGffN+C4iFPp6SjkCfXh42Mx92M+dX/xyo+WcdckO2yAAAiAAAiDQAQI9Sqvzzj8eqp13EfSxsbHaXG12djY5qZnKzNyuuSjOp5Qyvbbn9JpJ9EoKdBN1bkWgZ+yUL9C3bduW1E8WkU+IL0y8sc2jjwtEsducnpnetWvX4OCgK/EbaYGu61k6B9nkCZWZa0pqX61fvb6UdooEuk6GKVaoMvBsnJFDU5EcLngxefCaSN25IBGCzOqoORn0Efqi2Tk8gQ+6tIFADyLozk7jjS1bt2zfsT37RxcLdB+c7pRAT0S+2X1W516FtxtBT7ylfsuWLdu3b59NnTraSVtvDBstQAAEQAAEQKB9Aj30dsVuqXOllBPo7bvcYs9YWFNQ2caYWxDoqYh4qxH0wnh209OSnhSE8NneSkYsEuja2UBAc2Q3DFe7KUWmpEqOqgLFHNgP81ioqmFeR4sCPdTWznm3kROa5Xrrz8s3g/yTotk5u60J9MSknKV2N2KBLsLecVVJKS5RVN46HuajK9WOQC+4j7LDxL/b6BKbwD4IgAAIgAAIlEmgp5vqfA0IdM4Vcc9uSv3K23lPhXIWuJX1nn+BPpYy2neguwV3e0DvZmnuIVFvIA7bs2NhGnqmsXu1S1DTcCcWl9kOobLU0WIR3M19D7oU6HKb1bkIXTcQ6EEmSda7llNcwukkDBa9Zpt08+efLl4ObxuKZucGSIwrVThvi9wbTUlwdobsRlsPibpnMfVrUlzuCol1n+XCitlGuDnQ7rNcuGUcGhda37qnZXcqOyXMYuexWk5xaSccDoHu1gYbIAACIAACa4OA+CZR/ZWiHf6uotWJoJsEbkrjjp7R1ALXvuaFBLd95pKlvO8onrxUinW2Tgp3/5sGwqCrCpS9bBA5k3dIRMNFvaRBmoi7/dDm7I2HnWPeIK6c9KJPHdHbNgUlSoDOxLBZUtvuvjbS+oFsDRJLjr1sQ9HkToFAN++NCf208Xu2H1ZZ3RwOHaW4xGkzy8G7DpXSaeiJ9Almp7lZHyxOK68JaTg7/dKYCLXrLkhefocdc1UmM0dMMHomtWWBbqWwSf6Ow9taiJu8cPf2FT1D/9LD4AlO8TJEn1DuRL8JjYtcc18lDH707DbS93bESOv7PBzLmnLgzl4/0npOOQS6QIhNEAABEACBtUDAvsWlW76sjkCPH+7s1mwxTqcIZKPOrI/tjUQ7w8ba3dwD+NsMMloURG9nUPQpk0C7qwOBXuYqwBYIgAAIgEAJBCDQS4AIE90mwGI6kM7ZklZ9ojC/eL5T6ZfPhCU2Rou38rVKtwvt+ZUsl060MRLH3TNfQdWGIXQBARAAARAAgXIIQKCXwxFWuk2A9bRI88go6dYdkukobDlKHbEWSc/lJbrYNvjdZQK0KG2pc+0nBdFv3DyS/abYLk8Dw4EACIAACIAAEdj4Ah3rDAIgAAIgAAIgAAIgAALriAAE+jpaLLgKAiAAAiAAAiAAAiCw8QlAoG/8NcYMQQAEQAAEQAAEQAAE1hEBCPR1tFhwFQRAAARAAARAAARAYOMT2OACvftvddz4hwxmCAIgAAIgAAIgAAIg0EkCEOidpAvbIAACIAACIAACIAACINAiAQj0FoGhOQiAAAiAAAiAAAiAAAh0kgAEeifpwjYIgAAIgAAIgAAIgAAItEgAAr1FYCtp/sClB09f3V4rMHFg+8kbD56+sfBAQZsOV2W/8b6jA3Z5ODOXpcXPv4q/N7Sj0+yScTOvom9Z6pInGAYEQAAEQAAEQKB9Aj2Hjx43Pw/vbt9M0z27/NRml4czGGpn9yRF9voX6PdfJl0b/Fx+p9nFl9/9+fmnO3Q3CPRm8bXSjlDnfA1qK2bQFgRAAARAAARAYFUIuAj67r1Hjx/uvEbvsmLu8nBmCdsX6KtyDISDNqOYqU1r+o+Vvejy+KcntbJvZrjQQew1JgCB3pgRWoAACIAACIDA2iXgBLoa2/PU4aOLOzvsapcVc5eHM/Ag0KOjiGPnx16OSnkXAj1FZaVlEOgrJYj+IAACIAACILCaBEKBvvjQWIed6bJi7vJwA09cffA0JZGHP5fGNVVKcbk0rpYWbAORa26yz7ljNk9d1t548OTZgYbLRBLt5v2sjGlDvXOMUlNEDDvPgomOi2zmbBJLXgTdDGdyYJwip/C5y2mJxs0Md/Lckmyy49wXPqNGGCGbl99RfsRwaqz7fUea+837ya6YV0yDqk6eWxIj6i7GHVFuk3yyZKTrbW+z844em+Hl88Pp1Yw5+wEJSwhET9xbUPGiSGKCs7X53HvXrl279t5zdh+/QQAEQAAEQAAEOkfACvSxhx47enzvXOcGMpadYh7if4NDg8khR0ZGRkdH+/v7o9pWe7nh+vr6RkdHR0ZGIoNKqbyxlFKm12iil1JqcHBQ+xPbLIqg33DPibKaz2jxVJ76+DPNiXLph1aupLTeObb8xcnPv1h8nLWpkGiyud+2Qs0IxIRYVIoKI/2nC78KZaW2WjhuNBy77Y28fFPo9UCkcs6M0/08hJOVbNN15JaB1Ca38iTsMut+ahEMx+rcTTmo0pMcHBwcGR0ZGh7Suy39P8r/RJdwOrG3S4uf++mEjlkbebMTqx8I9LB9UGVMQqBbtvgNAiAAAiAAAp0n0EOp5/qn8wnoSimnmKdnpusL9fpCPTvHLVu21OZq9YX65NRkVDs93bjX1NSU6+WGGx0brS/U5++a7+vrc7VKKRqrRmNNTftersHoKPXaNb8r6qUbaP+r1aprbzaKBLpQ5MlmCYHO4fNngrhyPGJ23ytdpyYLhbKzkFHkJNeEsKOGSYEeijxnzwStIwuuOh6OvHXa2rXSG1I4ym2lFOtUK1sjT6JdbStRGPORQ8htpTLhZ6UmJyf18TA4KO45X/xv/5H9d+XMT8XEBgcHEx1D96LRRe+c+6KwO7cvmB1VBcyT6xuMih0QAAEQAAEQAIEOErARdKV2Pny8mznoEOiqWYGuFKl2TptpJrlFHy1eojnJG0u09GEVK2bWvi44rfukBRzb53e8+BA4tS8cNx7OeatH8jZNvor1JNKsgUBnm05xRi3NrD0fU5D1U3YMA9WRk2QhLdCd7fyNtEDn+L2dAg0XICXnbZpNAnj+5wPiNknMjuxHBjfiOyjz1wA1IAACIAACILDGCHiBrhS9yOWxPTMd9dCFtFtNVtFetdrLDbdmUlzaiKDbBWFBz0rdJrXbmsRvL0CdmiwUys5ErJgT0eJ0BN1aIOXHgs/qy5QF25hNSfXpvLXK3uSOUwehKYPtOIJuEu6d6LSRdTdonDSiK2I+cjiR7M5mhdLVnUtNcSGTdEug70ZoKcUUWJ07thmA7I5ffe2dhSncFrOTzF17bIAACIAACIAACKwagVigdzoN3Snm7sy4y8OZSSVD40oHwlcg0LX1POMRUC/RnPyKBWjUw+zGAj3Vi9q4hOy0GaH/dEBXqnDRJR7OeWuywL0SbVqge2krxok3PR9XE89UTIGqpCeuT4ONJlJcci1YyPdfDoYOPisw6UYZtq3PLs5iynULFSAAAiAAAiAAAh0n4AT6zO7F44fxFpdygPN7WrJZ41F+eVJqR22y/qQaPHeRXrFx7aJ4x4aXaE7yxgI0a5tKQsUcpnbYHlY72v3s72gs3pWaPvc96M7bOOhLcnnZPRVaFEGPJWzWu5Yj6NF0khZLL6RBT5779JjkFnnOi5VIR/Gr770S9xtMT8DUnw8U3oHoh0Q/fuMn3iC2QAAEQAAEQAAEOkTAf5Nop5Nb9AS6HNLu8nB+kXw6yg1+tSLXRNo6EOj+3Yv+FY1G4kdVIgZvxnv0jT+VJ9AL80OMSpYpyzZrgmWxyyrJPFdqnuO0DWwqeXQ/oN+d4pWiFaAkzS+/Q0PYjlJuZlJc9P2AHSvI0qYbgDjf2kwhVuHBENITY0GknfiFL3WLdHaCpFiFLxYfpxnZDPWC2dn30rDz5m2SFiY5rcdycGQVVZtj7ONfP1rqDGEMBEAABEAABEAgQcBF0BN1nSjqsmLu8nCdIAabrRIIhDV3ZkW7Ej0t4/raHZbC9uakVQ/XZfsX6E3oEOjrcu3gNAiAAAiAwHojAIG+3lYM/jYgwIHwIACcLWlgIq7m8LmP69tEoKAk7rPB9nUEHV9UtMGWFdMBARAAARBYowQg0NfownTOLZEgkZfs0bnBu2M5k+mx8lB3lAHis0q6M6PVHMU84fCnN5DdsprLgLFBAARAAAQ2EwEI9M202pgrCIAACIAACIAACIDAmicAgb7mlwgOggAIgAAIgAAIgAAIbCYCEOibabUxVxAAARAAARAAARAAgTVPoCmBPvG7e/TPyqfT5deqdHm4lfOBBRAAARAAARAAARAAgU1OAAJ9kx8AmD4IgAAIgAAIgAAIgMDaIgCBvrbWA96AAAiAAAiAAAiAAAhscgIQ6Jv8AMD0QQAEQAAEQAAEQAAE1hYBCPTOrMc/n71y4s9Xnn7t4bT5X7x94s/UgH4+fL2abpQu/dGtO87c+m66rvlS+abwlXzFZjDid4/d/vbii0FRKzvfPXb7jjO3y5hdK6OiLQiAAAiAAAiAAAisMQJaoO/ee/T44aPH986lvcNDomkuBaVFAv2h15/+85VDvyjonVtVu/LtM7e/86Pc+lYrdpz74vRyaQJdsXvtafR/WvwS0rzV5UN7EAABEAABEACBDUmABPrYnqcOQ6B3bXmrr33UatTc+Hb+O2dWFKLOTrFkga6UogD/l3fWskMVl7x456slT614PNSCAAiAAAiAAAiAwJol0KPGHnqMYucUREcEvRvrRMH1FtNa2C3KAHn1yj+V6mL5Al2ptvyEQC91XWEMBEAABEAABEBgPRPo2fnw8cOLD40pCPSSllEnt+j88mQeS5sCncLncXLL45+eXP7q2MvSc04uv/yOLZK55lFLapIQ6LFNsnDy3JI1qNTLN08vf2V+/EC+Xie6xK6K+tQmBHqKCspAAARAAARAAAQ2JYGew0ef2j2mFAR6ycufTTSXD4a6J0SbTkZPp44sLX7+1enPP93hnCf1/MXi43p/afFzn1/OWtxVmQ6tCvSwPY+e0OhtqO02urg5YwMEQAAEQAAEQAAENhSBnsMP7+YJdTuCPjY+VpurVSqVJM5KtVKbq/X390e14xPjtbna1PRUVK53q9XqztrOvr4+V+u+SXRgYGBu19zMzIyrchvV2eqOnTt6e3tdidsYGhraNb9renralbiNvr6+uV1z83fNj4yOuEKxkRXotjI/gj48Mjx/13x9oS6noLvRM5TJ/JZAkav7L4d63Y5Jv+PQOJWFgptbx81kBJ22g4A9je7vAdxoySyXgYGB+kK9vlAfHBx0Lc0GPV3aRuZ6bAb7IAACIAACIAACILABCPTsNJPotkCvzlbrC/X5+fksxN7eXq3kJiYnotrt27fXF+q75ndF5Uqp/v5+02vC93ICfXpmWtdu3bpV9t02sE2Xj43T5wjRv0qlomujcqXU1q1bdVVSvivVjkCfnJzUNrN3C0nJy141FNA2HYXzUgJ53apAZ+3u81tMoksclVc5aejDw8N6dsMjw54nv/glfe/hG2ELBEAABEAABEAABDYRAfce9G4LdBMLn0rEwvv6+qanp6vV6vCwUHK8KBMTE7W52uTkZHaJ+vv7p2eo19DQkKt1An1kdKQ6W52anurtCyLl/dv6Z2ZmKtXK0LDv5bqPjo1Sr6mprGIeGBiYmZmZnZ0dG0so+/YE+ujY6OzsbKVaycaYcyPoWmTrLJconk27In08Do3TLFuLoKcsOFZyg24njp2XJUqpoeGh6mx1dnY2u6xtpa1H5rELAiAAAiAAAiAAAhuEQI9+waL8P/suF7wHvfXVbieCXjRKOgede5BupjD2/ZeFHM+K75S8bk2gKxmtL3C2jYTyNroUOIAqEAABEAABEAABEFjHBFYtgt4dZi6C3p3hxChlC3RV8BJ0eljz5LlPj/nHQ9kRmZ7O6vx0lEGeFfHUT6pw2pZheBb0YRq6mLPZbOfblCDQsxxRAgIgAAIgAAIgsEkJQKCXvPAPP/LhFf2ORf9/+Nbz/IdEi12hvJEzt76bbMTZLKczL1ShZ0Z9pjipbZODbvW6rQ1UuHiR4heLj2v171+zqDW675gZND9dPum6LoRAL4CDKhAAARAAARAAgc1FwAn0omkjxaWITvfqCoLo3XOiwUgFqThFPSHQi+igDgRAAARAAARAYFMRgEBfV8tN8vf2txdfXKNOc3JLe+4VfT6wRmcLt0AABEAABEAABECgIwQg0DuCtYNGSaPnJLp0cNSmTH/32EpuHiiIfseZ/DSeplxAIxAAARAAARAAARBY9wQg0Nf9EmICIAACIAACIAACIAACG4kABPpGWk3MBQRAAARAAARAAARAYN0TgEBf90uICYAACIAACIAACIAACGwkAhDoG2k1MRcQAAEQAAEQAAEQAIF1TwACvcwlPHLkyOTkZJkWYQsEQAAEQAAEQAAEQGCTEYBAL3PBIdDLpAlbIAACIAACIAACILApCUCgl7nsEOhl0oQtEAABEAABEAABENiUBCDQy1x2CPQyacIWCIAACIAACIAACGxKAhDoZS47BHrrNO95+/N3l5f1z2/efrx1Aw163Hnlrz1fnrnTthp/c+mX11/75fUn523JJvq9/8Ahmjv/fHJgfBPNvLtTff5JA/n6a7+8+IPujo3R1g2B4nMRnbhunVg3k4GjIAACpRPoOXz0uP9ZfGgsNcLE7+7RP6nK1sruvvvugYGB1vqsoHWXh1sFgf74pyeXv1gsX9euAHp7XV9+ZXm5fIF+/oOe23/9xouxS/MXX/vl9aU9++NypXbs+cSUU5sNpq5IoCdnrZTU7qt39xKvi/Zq3d5LtHoI8fTNHdShN3eER+eOPZ/Ym6vrr+173lYGC6cbmJtPbU3aEf78YJ+7VTMbOQeGHUf8TnpChXIs/lMK/4KMq+FA+mZGLjGVyPvnYDg/RP7EhavpzSRnK5c9ZH2X5UdUSplbL+le9LcT3PzLgfw9m1w+pbhNyMR4feLrt/8OjZ5eQpSCwGYg0LN3rvE0IdAbM+IWEOhNgko064BAf/HM127//evnE4PlF/1gn5GwWcGR32m91JCmSUkBlh1e86kf7JOCqYuz04LGSSKjmVbJmZXPm6bT7D0ey1Ax0/E3l/yKaDEqTM1ftOvIVb6lcJpG/2TpkLAp/CGB7jiLTo02cz3J/r3wjITPtJoXD8Q6no69pUP2rpiGlwI9d/lR/AQAACAASURBVDgji5MTL5xDIWfdkwa1eENb8xdfO/TmgX2hwuabW9ee7Qc3GGxCTiq0WbTXzhmsyB7qQAAE1hMBCPQyVwsCvX2apQv0g9/4so340w/2mYtrVnC0P7e10jNHebCSWwsZL8R835sHrKbcseeTJ+eff/KXQmKuFZLN+SEEcaMOrERz5GasKQNb+R31su656MPtwp/2BHqBJ9m/F27sBbppQDJdLigL9D1vPunvZLyWjSwE89af+eQQC1vKvXxcvlXOn4lSBG3f8xzz9vPStwpOoOsbDLGr7fpJ+XGa2aJEl9sffKuZpmgDAiCwwQhAoJe5oGtOoL988/TyV+bn80+Dz8wpN8ZWmY2b9xsY7xyLq0QWjbR5+R2Pj8pv3q+WFj+3ZmWtb5ezlSPQD577jc1Qf3f58kHZOajSWeyiAQWfEskt0kC4nf3QX3/Y7a61YQN5hSZDolbqD/+xOFsTvYxSYcWgP/4O1Qark/z0AxJbUSQvnE9iL0d5sKnwU/uoM8kL89F/FHY1QW6uFVVCjZmOkX2By4cbqde+522W0fMs2kJlo2dtnPEwGw0nIMepTUGVnqN3NWd2yqpMPwsxd89OCGJfmN5iN5JGGihR7hgeOWYEGv2TA+MaI5cJf8jz9HBp/7g0fyyd0BIa5APYrRH15T8lt6EHovVd2rPf3RiLCLqpynGoyJmcLsrE3UM/M40jD129OxTdhq6K2ifdjro4m403KNHla1eCMx93euG9a9euXbv4XGMLaAECILA+CYgc9JwEdKUUUlyaXNw1JdB3nPvitE9P17rZSnBW5yfPLel53X/5K9bWeo/VudXWoRHFu9aI1uK2pbLC3ZjlIY693CQ5pVIC/aXL7y4vv/KSsXHwj8vvLn/+tL5UsTp3OetcJdS5Um1Gntx1NLroUm56froCawUfAtx/YJ9NIGaF5wRfYMSKP1PL0tO1DPVT6pLP7X1wtCnO8aRsJ+1/jmLTfjoJOP7mky5330hAY0b6zDP1j0iykA20mvdcIKJe+54n+XvozR3zOvTrVkRRuXNDy1artAqHCzN2As48cWtEZwO7JeBdf68lZ8cCnW88jD+pBVI6vdjN2sLO+60XNEy/5rY5xo0dnoLHIqzb1bE3PIE/wXREp8LNIk9oCRxJtsKLYqdPq2xghi2tTb3o1JFKaBXEgZHyKn/iqda+LJeza0KW3W25K5WBc6LnmQft+VD3h43tbidl91v4/a1byU8CIdBbYIimILAuCbi3uMzsXjx++OjiztQsOiHQxyfGa3O1qemp7IC9vb3T09PV2erIyEhUa3pNJXr19fXpXsMjw66Xe0h0eHi4Oludnp7u6+tztUop06taHR72vVyD4ZF0L91gamqqNlcbn/Bvw3ACfXh4eHZ2tjpbHRoactZMr2nuNe57uQbDI6ZX0pmJyYnaXG1icsK1p43ch0RJZzsJblt+ZRQziekoKG53I2Ed7JLNQHObqDl7xAJd1GYcCPzO7GQF+uNP/2353T9KiS/akHa3Yl0pFe0qlXNVywwbFbiEiuCiawLkof5wPVmIZC/JVB9eyIX4UFn9YZWKqQoMhprGjZzcGBoaqlars7OzI6Pxn088KdmfZ6Gj3XJo6hIJL9srYy0SYf6ORUtDa5YUktVtbMtRshv7Dxz65Ml9n7BWzlU27LCxI7fJpNWm1lX5W3BmLSikmKwqmp3WjqIjU/KKzQ6XmalS+swwOzub/BsnB8wnFd6a9Mpa9r95aNeLNiRn3nbaV/jDOtKOxd39nYk3Hm0VeSKOH2lWLJD78wlWx9mkRec8KyohZ6iZ/XSFxbomY7HnTzzyOrFLQ2Q4u3aZpecae3DSTni8hZ64aTp7tGEnFRQ2t9NmrKE542gFAiCwdgk4ga7U2EOPHT2efGa0EwK9OlutL9Tn70q87a63t7e+UK8v1KcyQnx2+2xer76+Pt1rcmrS8XYCfXJyUtf29va6WqVUb58ZKxa+3GhyyvSKZL22MH/XfH2hPrt91hl0An1kZEQPlxXod9Xvqi/Uq7NV18ttjIyaXoNDg67QbezYuaO+UJ/bFT7VmyfQE+UURJfhbSffKYLuE2CyEXQbMmex7nNmTBqMVfaR6Hd+N7khxLfpQSUufK7LKFKuJXs2gv63c/f4odpLQGfhFaoEZ9JLhEBcFmr38MptNYFRGHGA0CkVI02MgLC9IlHr/Mps9Pf362NvYiK8l8sky2a6UoHRLlauCa/i5qZl5KfuGCqYQDGnlRzLGq+BvJQMHMjISqH/pOgPJKC5F5J+BiLPKaqgV9HsGgV3LSk/C1tCAl2vTlKgm2YGkXEsIOAM2Q0+xryat8XBXQq1sZLXECOSbuKiU+FmkSfkc2hQHAORk9KO36b2NBEqIW/jPxCToBKsXXLihXOQlSFnV0Pe2lFcofeTigLffHtt0P7tuL4Q6BIFtkEABJokEAv0x/bMZHt2QqCPjY/V5mpJnaqUmqnM1OZq27Zti5zRvSrVSlSudyuVSm2u1r+t39U6gd7f31+bqyU7Vqrcq9/3ct23bdtGvSo5w3HHsXH/akon0AeHBvVlOPtOydnZ2dpcbWzM93LDDQ0N5fWiRKOJViLoxQJdsQr3ieZWgpMrIomcGlj9baL1YQTdua4Up7iIxrKqme0WBTqnxLgXqMfp6a1H0L3+tqE1o4wjOU7XaZZ6Nk6pw+ShNLHzjXSJLda/g2u8uYQbWRAoxbBX4z0t0O+q35W9OfRKotAMu91YHYaSJbQoxBlXiBnFVaKjF+i+0PvM6txjl3bkNnUVw2ktJRISArcjxS+kVdDMu6O34rWL681+QqAPDpozw+Bg4iZc2KG+On5ceBQVZKhLCDpfSPjTlkAv8oSWIPwr8IuS/ONKHGDRUwfZJfAHQ9tvcRGIedNzdjVyFFvIzeQ9Hm2b2wPZnhGFHNgEzUUcXdZsM78pgi6+yaGZLmgDAiCwEQgIgT63ePjoU7sTuhE56M2utBPozXZYebuEENdGMxkmHP/WKSiUSu5D5qETMmslrFEs613cPa4sPYJelOJCX28UhMxjb9r7XJhfo0bP0pKk8FowNh6mRnghkmlXJINikSfkSFyVsdtmgVQSBSakyODtdJyyoCrKAQgVsxSOgRdJ91xhPJzELrfJpBxCblNdxDlvlePhAk+bXCAaOrrBC8wU7VBfI+l4dq37GUycta/wp+jIzHerwBOqCoWpWxS34Q1738Ry8L0uv7fHTDzjpDsY7OOe6SPTj9N4S3C2jeUopizjiTzCw/YJgyuLoLeZrWdng98gAALrlYAV6Jzfcvjh3cl5dCKCnhyo9EIXQS/dctLgWhLoih/9dCFtjotbUR4+6xlOpVBnc8ecIHphRxrjJ298TO8d+PiNn4Qj6r1sBF3pLxl1WS7ySVCuCp4KjW228wphLzKElIkNxx9wm6uvUCfxQ6I20hZaikVerFR8MnHYz+yxDkhbTranwlBJ2Gb8NkO7Y9StiPbxQP4T//gh0WwyAJmKNRkZcRKT3Egp16R7vlCKJLbvjRQNF3AmyP47qoIqQUBvRhOX9cUdXUuy0KRAf/7JQN0yIl+i3Rammn4Punt7Jq3yPu+PhOn8bWIj1xP/t2OtuEWhsSIlzQD5oAoOe7ox3nfRB5u5WfCX5ZNPGFFk1g6d/7uYs+7nDzlrJ1uibwL1n0lUy4j82mkbVNheBL34LS5/euNR6yR+gwAIbDAC7i0u6di5ni0EepOrvkoC3b7W0KSs+HwVradN1rh73QpNJspjIQvu+U5W9oFNGTUPbC5/ddqZbSjQ9WsHYoHOslu/JNH9L5Q3v8jFpLIEIXOOr/s3MFJfJ+V5uTgNvbWPhklS6Et+LK1YDfh08Oy1VjZwSpT90CLD97UyKxZ5oVLRmTO+V0YHs3yMdU+D4zRSEr41SSg/Vui/vSExDSLlod1wfW2tE2dmDGomzUpcNDRrl6R73NLoMJY+eiz9mhcrf4uH41ozwSfng1FklZmg1Hw5swtTkD3GeIu62+WO6zL70XEi3eC2wRr52pikhRl+jOAX0fgTWGOk/h4s41pUEPS1nhBJu/q6vV2U+MDmWnab2ke1ZjpCy0YTdEdRVO6OosjZzG4jzon72PhPVdvko5GmT55Iejxx56dvLCaV8SqvIP+TwOJ4R549lIMACKwfAjaCXugxBHohHl+5CgLdD97CVvhUKHVkUU7KPhtc5xIXiW9hlE42JVkf6HUl4+tm5HaC6J10etVtx0pi1R1aZQfi2wYZFi3DtZYEehkDwsbGIlB8BnvuYv4HkhuLA2YDApuTAAR6meu+TgR6kO7C8/clTqk7LtkSV7VqGxw+DwR6toSc4/jT379+ftUcXVsDQ6AH65GNdGZLgg6t7kCgt0oM7QUBSm7puXVClMhNHUHHFxVJJtgGgY1FAAK9zPVcJwJd6cc9gxcmukyVbPaLzVwvk9TKbVHOuniLi339YsYw3oHgkcisgOgjeN9oU20F2RqU6dF0RkoRJpGKU47BosFKrZOey6ynphNISvWmHWN0UxR7bktKWdx2nGqnD524ctT5c/wlotc+/jXyz9shiz4gsF4IQKCXuVLrR6CXOWvYAgEQAAEQAAEQAAEQKJEABHqJMBUEepk0YQsEQAAEQAAEQAAENiUBCPQylx0CvUyasAUCIAACIAACIAACm5IABHqZyw6BXiZN2AIBEAABEAABEACBTUlgFQT6+Pj4ULf+3X333d0c7siRI9u3b+/W5DAOCIAACIAACIBAyQQWa9/Bz2YjUPIxVIY5CPQyKFobEOiWBH6DAAiAAAiAwLoksNm0Kea7WPvOGjxSV0egd+3DirvvvntgYKBrwyHFpWuoMRAIgAAIgAAIdILAwco38bPZCHTiQFqhTQj0FQIMukOgBziwAwIgAAIgAALrjcBm06aY78HKN9fgQQqBXuaiQKCXSRO2NgMB+rrE4Ktez3/Q8+WZO1c29YN/XH43+KJZpQ6e+w19s9Xlgyuz3LHe9MVbv3n78Y7Z74Dh8x/03P7gWx0wDJOlEDjw1s9uXP/+gVJsbTYjEKybkAAd5LVLN3929rHk4X7wG1+Gl6pkq3ILe5R69I0/XbP/3nsuZX7id/fon1Rla2X6qc3W+qyg9WZIcdn2+u/v++x983Ph5yugtbKuz53ybmh/Pnp228pMNui9/9l7P3t/LnvIxp78vrK/gaVVq86RZUZNyq9K/fzplUvLly6/u1yGndJw0Skv83WJXLgyjb7aAj1nWYu4FXW55+3Pgy/NXc793tyiEVqp4xELb2ZePPO16M6qFfvltMWpr4Djib03MlJjd+Uje6VInjkLzJVaFSycvlh0+Mo1euH9+1q5Hhl5+u//+OHHt83Ph3/5aZT3kq59/pEPbRfb98f/zgkzT/zlX6jkH/udHSr54pEnuFZa0x2zI7qO0YaxrMe19qVx3Z6bGWe45Ke/+oJmFw60/x2y8y+/et5pdCp55y23ezAYzvpf+aaxZmdNlmWvyOdg960f+17OYIIkr4VrQNy0t9FAptDa9HPJQtZt2E8+xum2NvOHY45+Ckl0V6P3fHyt8TcGQ6A3eXbqfgSdzjufnRp1/j136t7Xd7u9rm6QLO6uFC4S6N6TGFFXoTQarEiWKaVIaP7x5UZGmq5fYwL9W7f+nhMsp7D61660f0eSEOhNQyqjYYNlTQ1R1KWxXE5ZXElZoxFXukAr8c30jf+uceoTUB/7/tWbRy6dECVK/Xzus/fvEzp49II/SQYNO7/DAl1ctjo/YhsCneWm0IJP/OVfhNxkCZisZVkpWka69l8+/MJLZKmhSTsKg4F+LUqI17LY26y89WMtuKVxbS0W6OTqj38lbhK4GU3twy/+Rah2KrEzyh3OCHR7e9C0/1ruew1def6RD2MjNKjwxyOtvPXjj7945Ff/CG57tGq3Dh9kUS7sa5h0SyCgUaE9DJc+PJL30dOdV/7a1Y8Nez7+9aPWrdzfEOi5aMKKrgt0OueumiIP567WqkBXeTo+8n9Vdotk2QYX6BSN+Os3XszBXlyb08kVQ6A7FO1tFAv0/Dur9kZrpxdOfakPDzXJsbPXj9z4sBZi7f75ORxf7q0HgZ6vsyvf1JovkndWNeZ31Pr4V3/x2ldq6PYEOtvMqE/WoNJ4UqCbBuSwtMAC/S+PvOP1qxfoPFzOxHUEPdbWFkvuPQYr/ga9cgU6QfvHfpLp3lsTVncCnRS/v8Gw/sRdhEDnRJcjV98ak8es3U5+6msrS//dk00QyI4BgZ5lkixZFYEugyJZrzjOpD/WjOIl8uNOUUVy9veV/aJWBF3IvkwgkVW5FwA2JVsqFUW/hJPyqkMd7319t/g81ARdRIn/xNZ/khB5YmbEbGKxHl/mQ8sCS5asLHn86b/JdBTafuUl24Di1rbWhcNloavN5J8kIujU8fJBRcpem40Sl6mLrXIp12GhbSCztIOkGpEG02g4JTyJ077lHN3ELRUSebfCEJ+t4t+tnwflcMsiB11OTU7ZDOdJEjfvJ5W/8hJ/iKF5hn1ZwmZIRj6YhRA8lVKijVi7zHDeE5Uvl6mXMKKU4kPRuyqPTOlGZjjTRba3swuwKKUyjw0wyQPbT97Y88SBgSeuPnj6Bv9cGpcrWju7x5TfePDkWfNqLSq8uj2Skmpp4fSNhQdk5+x2HA/OthBnlegPWZzc5Id+G+DUxxQofJ7No+XzdiIh0IOTWMLwNp82TQajTBQhm6dGdWyeM1WiaJFYAnliV7kCPTp1K6XDK95sy57wceJSQO2GN+inH2wd1KouHbXltIqcKtPRq0MhTI26ff6RD22kXGrotgR6kbqVxlMC3alet6HFqxboP/33f7iouRPopionOl7kTE6XgybuboHkNIs8tCKbF4JROw/9FPwStC7QFSe67F0Kjgm7kxc8evTXH19rIiHFmmnqd89zbFTnoL/3QroPBHqaS6a06wJdn+nez8kt0Sdcd6rdXbngksJDYSpPi/YMaE7l4Wk9PLGyfae8pZGQDPeS10g5emiER7dXEXvBMENkLslBYzFk4AkbcReVuIv0RN97SD+FzYLNUBKx/HLqPJRW3FIIL61uQ4EVDJQj0JddKjnb98IrHC4wRTvkm28sql9+xUs6LUlt/rFRk6ZXNJx58tLN6OC5V+xjjqEn2Yk3zpGgDxObzkSPHCNuYkZ6pqnCrGOOCklYIdl51830pcti1cIqMkAlooGzqaW2v3m75+3L9tECM5zpxTcVzkII01szn7HIJ1+5oz38QjeC1S8aTqmCWwKlcq5PJNBJlz+jr2oksu22Ug9celAI8fFnrEZn1R5r8bRqD6atFE59geQVdPK0hT2dupOh6GMSYHzVz+dyTuykuV0zvjq4q094ni84secL9EweTnDFCU7sHOVpyhOaZ+B2MPH0Duk8To34YRiaZf2XFHxOiOfXuvCz075SQ7cl0IsUszSeEOjkpwmchy2tTX8jYeVv/tTYfnsC/SDHv4sT1nMEuoiCm1C6WQXrMO2yV0F8nRdR9LV3BfJQSN/l6hbpCIXqiED3KS4vvHft2rWkRu+EQB8bG6vN1WZnZyUUtz1TmZmbm9u2LX7IcGycelWrVddSbsxUZmpzNdnLPSTa399fq9Uq1Ypsr7crlUptrtbf35+tol5z6V5KKT3c+LiPEzmBPjg4WF+o1xfqA4PxW9grVRpubDzx8YnvlXp3+/jEeG2uNjU1FftpJfV9YbpLeLoMOlGVO7VRDZ1MTVChSMKSnLXqmQ3SGdPeAJiTtQhpu1M8n3Z90EKeZ6UFNklnUtMxPMVnT7Kxq3aOsSfWQxuPEVMIBHpwMbDGGv8OZVAgzqjKqiU2RCLJal8qiPrGg+UIdCGyA0HG2jojTL3RQKL54nhLNpPbpAfpXSh2RuGdSWCl0cTpEcP8/BZtKkcIBuOYnRhjSosn4cQdhXGqEgH1Is2aGS7HbCi7xVjZIyG4c2CBLuLZUv0HKxI4Sb2Cg4FsWtEfeRgMVyzQ826cWKAbdU5T8ypcmeC6n7CX4D5YTu11d1LzPvruzoqDg4Pegt7CqS8mopSiDNo4v8U241Nc4gNVDnWL86RtH1waPHMbxZBn8ujsWnRidzdX/mLhrg7hSVheAsRFqiVPuHE7Ap10G8k4fjBR5kgU61Sudb1ow4aHnUAns5zUIZWxvR8wwzX3hKUV0+72QGzwcN6adckkqMiheZouy8XZ/OmvvtCFVu8yDROZFtO0HyZoKSxHdDZ1YLvgfxrCeJhId0kLdCnKPVsiIKyFT+VaLa5XNsrV8Ue9fp3LGshy6REZ6Pw6l4uJnJdOCPTqbLW+UL+rflcAhXd6e3u1up2ajsXo7OxsfaE+f9d8Qa/JqUlX6wT6xOSEttnX1+dqlVJ9fX26fHLS93INJicndW1vb68rdBu75nfVF+ryHsMJ9OHhYd1xeHjYtdcb83fNU6/tiTuTkZER3WtoeCjqpZTavmN7faG+a9eubJUu4ZOsU7dFMQPT0n7eF7wBJla9QsKKy6F4YUvOyTr0Up4fadtqd3HB8Cdre/Mgz85kThqh/dhVO2R42dBDGFEedxGzo960y1Ozk7Imi36HOlUqWhZPIuFEaywhr8sW6PZlgjnvE5S+hTPKSEDrZNQlkIORyBMWG068GfHdTBs9Jg1nHeaSjGKm0mShn7iLjpt5ZGYXoOBF96lEUcA+01fbDCyYYeyvqEugmNlJeV9nO9Fv2ZK2rQTXn4QEsj76QMC1DI2Q0YIR8xLQCwQ6R9Ndfovd4MC50+66DevyBy75HBil3Lk0eVbUJMwJzZ5V4hOFwGVabtRTn1IqmYAuCPCmOdHZUEV8phXN3SlRnJ9dmCY808oTcuGJvSCCHp7V6XTtTsVteqLnUnBIiMn6zUhKGulplGgTAt3nV8SKWYvC/e9w9Fqq5O5G0HlGXgo7UW7UrZ4puUdtrEBPTFxK58hmxLCpXdbZ/pbG6mk5irMjfY4yi6zD5mOQ1H1Cgwg6vW9xjQl09dzFa9f+9IaQ7OZ47YRAHx/neHBGgiulent7p6anqrPVkZER/xfDW7lRZO41PT0d9XICfXh4uFqtTs9MZwW67jU8EitpxdeG6mx1ejrupb2ampqqzdXGJxIR9OHh4dnZ2epsNXtRyfZyc/S9hhICfWJiojZXS95IOAt8WjRntIJTUkGVPMmyWTot5gTX3bC8EZ2sw0o2qx0jg/bCUHim5ri+k/JtC3QdBDJ2Ggh07TRfrvgS7vyMZhPukvITWs0GmKN4c9jH7EWyLG5DliPhGIm8QDG77mSWXQpka16Kixap3m05hNyOI+j5zqe9cu4p1WwEvbnXbK9AoBufaJpMzIecM7OjNlola3XuFXNG+mf66mEimIJH5rMUKbuL5DLZcI6FHDJeyfEiD4PhigV6GxF0Et97nki/kNsEzmtn9zyzNP4MpZ5TFrtLUueT8Cz/y55L5YRw6rM0iiLoto351DQvFCKaifO/KDWb0TlfnF15OZIheepaXEuXJ77Xomb+k942PdGuFl3ysvNSyqlAv8ERbievc14q8s1IKfrulW/q15X4APaHf/npigV6kSaWxrXSZfnLDoj4t42sO1kshe9+flTU6V1ZpacmpXORM1ZqB0DShTJOb25v5CjWgvhww0/B3HI4h2003d+KyO5mLawbwYFAAj16D5Ktp+ejVvKSMWunid/yIdGuRtCb8K2EJk6gl2CrCRMugt5E2440kVepgpNgQVWRQI8yVaIZRCfrqNZl0Tx3Spxzi9O+47hOfJIV14NgtNgTspNzj1Fw0o9HD4YQO6EqEhXZvIWwkvYinRQ3aFegazsZ4zkCMVZyspncjgV6rOqE95mhRR1vlpqDHt8PsGNeapux42nGLkU5+vEU6DbG2IyrMpbjBtYDmSAUDR91CdgWxLPZCvV95SXW8eJ2rrBX0XDFAr0wBz0/xcXno4cTJzn+zNLAE1cpoP7ApQdZpuc1DrsGezj1WRx5Oei23vzm85uVv/Gp1bctPA1GZ1p5Qo6qvEHaKroAmfcQnBrlS4YIkbTrCQ+dP8HQM7tnZZyIfwuBvqK3uOh3otNDqF888u/iFYdtRdAz7ygUDhcIdK/UXXvSuz6hxWat0Ezfecvr3YyTUjp3VaBnPJH3P95he1+UCaI3iKC3kYNuj50yf/dcszktnOH+8Rs/SVjvRAQ9MUwHija4QN//7L32U12GR3JThJx5156CKZAcPiQaCGUHX55kqTCQsHxi9fFv14k2Cs/I5qT80bOVC1Yrm8582nWJ7IHF+IycOclG87WdQ0/klTucDnd3nw/Y3vZ3MHFdqJ8CiT5litWh7c+/4+B0UGnzEzJS0rVakUDPOsYlIrHBjBMoOVLk/iHUOOge2eTG3mD8kKjLVncT8ht5mRK2Rd5bXH7yBj0qfy08U0lFztvyLS7OYurJUVtJvwMO0b0Tz9R+yBCoZ1qjeDjpjxxBp534jzWih0Q9ySBxJXIsMKh3+Dg59/TfIuCkwu1NRdSrgUDndY+sOQvpm6uCFBf9kGhOEJ0SWq7uMUnnSwunr+7ht8G40dIbOPUFp/oAUuol6KSJhdg1L+PyJXzaD64d7spCp9PopG2HC8+0YXCn4MTeSKDzRWfu9Wfvja4LbXpC3oZXAeu//U25A9euOS1EkQj3NnETXuWQs5Ot+h0vLrlcq0CZnN0oxYVuAP79H//yzj/CLyqy2eo2ppu4T8hUkRgNnmRt4j3opG6joLKfIBkMZvqPH/v3oOvQu/dz5QJ9/zvemn2mMygxhd4luqmQ41pKPvQeCHSzWNF8iwV60V1uXu6lkQdWUduDa0W/e+jJUPMv/TWiSikI9CYZr0IEnc9ZLiPcPWpjHdZnyWRetZGntq9N9SsU6PZMJ/IRw/O4tcYN/L2BdkePmP3cUzpJHe1lo6FANwmLdlBrOWTiH2PVMtYROAAAIABJREFUXvha8zZJB41uAERyqiu3MDkH7Fo2DUyrcJMjoTMl4kCmyIERVWyYVVSUkcI6ODDocqwbhrSNKRrRCko3geAdf0K6WVFLfS8fpNGtiCwajs1KV8M7jRhLNHE6zeV/K1veSVDxs+yxQDefRWhiJpbsnGFtHcK0ZKTzeu4elVwXcceiG8iOf3yZZuqGMxZkdwuTqyQWociLFLPsYiYSwdT+xD4EWLij86RoOD2DYNBwOLq5uh1nHxUKdGU0un0Do32LCz2Mxa9ftKF3ynhp/I5F9tD/IdOfbeavVZ5V7MnNrM3GPfXpCXIa+vXvxzlF4fktYiKfwAm//C56te5n0VtchJ342iGXQJ7YtVwOTrbi3oDmoCNBmTU19xX+LO0uMXQwFHhCNuX0Q8v2y9SFtCLNx2Fm++SifEjURJ05YGwfbfTyMZE94tNaIiVNuRlWjJJottb0hrfp4tw5G0Ffq0TzI+ihBJfTIWeiWjNNccsRTNzG3a22DqcgelkZnZ1CRMz6L25FMnKcu2SMk+dB0rwdi/mECS2FAr29BHRzbcoV0ub008qvnmYaQ6A3Q0kptQoCvUnP0KxjBCIJa190nRDHHXNhnRrOD6KnY7TdnWYkYbs7+FofbS0s0FpntJr+JYPoq+nQehs7X01azSfkIxpvDAL2IG37m0T1nR4EugXZ8PcGT3FpOH806DgBDjS6wCQNly3puBPrdQDSeZmXnXNyS9NvQO/Y1CHQC9HyByBdelKq0BFUJgnwZ/R5T7kle6BQENgYihOzaIkArz//4WS/54vrij/11Z/u+heXi8Op7U1E0NtGl+iICHoCysYvMlnIPrfEv99j409+pTMkjf7188LK+Q8ykl3Udm8TAr0Ra7pcxYkujfqgvnsESGpkE126N/56HqklYdfRxpy2EeaNuEyYTI5HRz1p1zinhjufw40w7WSVP52gA7Z2KfEtvPpIpshRcKnyB7h5Mir9PUK+WetbEOitM8vvAYGezwY1IAACIAACILAOCLQrRldZYsLtlRBYg8clBHqZiwKBXiZN2AIBEAABEACBrhNYic5D33VKoOtHWeMBV0egD3Xr39133z0+Pt6t0YaOHDmyffv2rg2HgUAABEAABEAABMolsFj7Dn42G4FyD6FSrEGgl4LRGIFAL5MmbIEACIAACIBA1wlsNm2K+S7WvtP1o6zxgKsg0AcGBhpH9ktq0eW3uJTkNcyAAAiAAAiAAAiAAAhsXgIQ6Jt37TFzEAABEAABEAABEACBNUgAAn0NLgpcAgEQAAEQAAEQAAEQ2LwEINA379pj5iAAAiAAAiAAAiAAAmuQAAR62YtSu/LtM7fvOHP724svlmX64Uc+vHLiz/rno0ceKstsQzvfPUYTuePMre82bIoGIAACIAACIAACIAACJRHoOXz0ePDz8O6s5Ynf3aN/slWtlnT5qc0uD+dpsEz/zo98QRlbv3j7xJ+7JtD/afFLSPMyVg02QAAEQAAEQAAEQKA1AjKCvnvv0eOP7ZnJGoBAzzJpWELh52PyK8wb9mjYoJsC/cU7Xy3zQ4CGc0MDEAABEAABEAABEAABTcAL9LE9Tx0+urgzBQYCPUWlQRkEegNAqAYBEAABEAABEAABEEgRcAI9N3yulIJAT6FrUNaGQH/mkEk0v3Liz2//c9Z+TgT9n8+6DPW4Y/W1j2zy+pWnX3s4azK3BBH0XDSoAAEQAAEQAAEQAIGOEjACncPnT+0eS48FgZ7mUljaokB/6PWn/3zl0C+MSRbWGY2eEujplmyGhPuHr1eNSVL/LWh0CPTC1UUlCIAACIAACIAACHSMgBboM7sXjx9OPR6qx+2EQB+fGK/N1aamprJT6+vrm56ers5Wh4eHo9qJiYnaXG1yajIqV0pRr5npajXo5R4SHRkZqc5Wp6anent7Zd/+/n7da2hoSJbr7ZFR06uvry9bOz09XZurjY+PZ6uo5Ee37jjz5Z21oHLbwDYabrY6Nh7eDJGYPvuMaEt62ul1U54S6KEKFwZI8QdPlJKU93pdKTUwMDBTmalUKoODg6Ijb9JDrrHzcRvsgwAIgAAIgAAIgAAIdIAAC/S5xcNHc8PnHUpxqc5W6wv1+fn57KR6e3vrC/X6Qn1yMhbis9tn83r19fVlezmBPjU9pWuzAl2XT0xMZD2Znp7WtVu3bs3W6qpKtZKtsiXnvxO+pnDLli2610wleBhXvkjR56vEAe+UQFcceuc8ljDiTo29Kbst2wwPD2tnhkfEjZB+TeSrV/7JzgG/QQAEQAAEQAAEQAAEukmgR6kG4fMOCfTxcYqgVyppdVupVGpztf7+/oiF7jU9Mx2V691KtbKztlNGu51A37Zt29zcXCSLda9qtRr1csYHBgbmds3NzARi2tVu37G9NlcbHRt1JXIj+ZrC3t7enbWdu+Z3jY4GvVigBxF0acpuJwW6qXT56zZqXtTYGlSz22e379i+ZcsWV2I2OvKayHgQ7IMACIAACIAACIAACGQJ9CgKnx/fO5et8iWdSHHx1ju55QR6JwdJ224tBz03U0Uab6y5RaJ5mNQuzTS1jRz0pjChEQiAAAiAAAiAAAiUTqCHss8XHwoTouNRINBjIk3stybQTaZKcRC9oUAPRTmJ/jANvQm3bRMIdEsCv0EABEAABEAABECguwTom0SLw+cdSnHpzjTXTQSdcPhscp077vLFXfqKyCk3Uj5OXo+eK2WN7nvFSe0FiwCBXgAHVSAAAiAAAiAAAiDQQQLuPehFYyCCXkQnp67FCHqOlVUrhkBfNfQYGARAAARAAARAYJMTgEDv0AFA72/59uKLHbLeBbN0g3Hm1ne7MBKGAAEQAAEQAAEQAAEQEAQg0AWMUjb1awrP3L7j2PlS7K2eEQqi3xG+JnL1nMHIIAACIAACIAACILBZCECgb5aVxjxBAARAAARAAARAAATWBQEI9HWxTHASBEAABEAABEAABEBgsxCAQN8sK415ggAIgAAIgAAIgAAIrAsCEOjrYpngJAiAAAiAAAiAAAiAwGYhAIFe5kqv4mvXy5wGbIEACIAACIAACIAACKweAQj0MtlDoJdJE7ZAAARAAARAAARAYFMSgEAvc9kh0MukCVsgAAIgAAIgAAIgsCkJQKCXuewQ6GXShC0QAAEQAAEQAAEQ2JQEINDLXHYI9NZp3vP25+8uL+uf37z9eOsGGvS488pfe748c6dtNf7m0i+vv/bL60/O25JN9Hv/gUM0d/755MD4Jpp5d6f6/JMG8vXXfnnxB90dG6N1n8AP9vHf1KE3d6TGPvH123/9xjr+TunUnFAGAiDQBQI9e48eP2x/9s6lR5z43T36J13dSmmXJezGHo7AP/7pyeUvFsvXta0sailtX35lebl8gX7+g57U1XH+4mu/vL60Z3/W8x17PjHl1GaDqSsS6MlZKyW1++rdvcTror1at/cSrR5CPH1zB5VRezv2fGJvrq6/tu95e+gGC6cbmJtPbU3aEf4YTelvJPIODDuO+J30hArlWEpxM/kXZFwNj0B9MyOXmErk/XMwnB8if+LC1cSmhKynb2wag2JoKtHeBj788no0Ux5Fd5fztYNTjCB1FrL1+A0CIAACKQI9j+2ZMeVzi4ePHk9qdAj0FLpEWZfvB8gDCPTEOpiiF8987fbfv34+v0Gi5gf7xCXZq4FEy3VY5AVH6DyLJK/51A/2ScEUtu3oXqQpzccdq+TMymcqBHFDYywBxUzH31zyK5IRf/MXrczlKt9SjEOjf7J0SNgU/pBAb+fwzvWE/A8N8oyEYKXVvHggbkbH3tIhe1dM7kuBnjucuaVMTlwwSGwyltTHRzzWoU8i7F6gi9nx7Y0AmxgmLPrWrb/Lz/HCSuyBAAiAQIpAz05funvv0eNer/tyBYEuYBRtQqAX0SmuKz2CfvAbX/6959aJ4lEztT/YZ6J3WcGRabvuCkiCWGEnnM+VLKJNVzaJ+b43D1hNuWPPJ0/OP//kL1tRQl3xs9lBhCBu1IXVYY7cZKWbByG/o17WPRd9uF34055AL/Ak+/fCjb1ANw1Ipsu5sEDf8+aT/tMqL9AjCyHD/ImH7eK93KNdG/SHn74HSAp0c3sgJHs8Smb/xNdv//1rVw5mylEAAiAAAjkEenaP2Zqxhx5DBN3CaO/3mhPoL988vfyV+fn80yBDkkLvtsps3LzfTPudY3GVyKKRNi+/40FR+c371dLi59asrPXtcrZyBPrBc7+xGervLl8Orm9Blc5iFw0ofN5S6mf2Q3+dMOAUbdjAKw89IVEr9YeJCNrkBNHLKBWWBfqj9lCfsToxKePOBw+PdIZMdfA1+Vs0Vp4p8cl+1gBpJjOFSJSYIHecgyvUmOkY2Re4fD4D9dr3vM0yep5Fm5dr5JaetXHGw2w0nIAcpzYFVXqO3tWc2SmrMv0sIiwaoRDEWaZhCbuRNKKzj8JjQ/Tljslao0Q1Ru4h/CHP08MJ2/Fm/lg6oSU0yAewWyPqy8ee29DWtUDf726MRQTdVMVemP0iZ3K6cLHBkm1iDNrDTxUKdJ3AE/2lZ22KEk50+eBbokRvPvrGn65du/bxGz/J1KAABEBgcxPosWktFD4/vPiQk+sSSyci6EP8b3BoUA7ktkdGRkZHR/v7+12J3hgapm7N93KKua+/b3R0dGRkJDKolNJj9fX3Zav6+/vzeimlBocGyZvhIdfRDafNDg8Puyq3YXoN+V6uamBgYGRkJNlLKTU8TJMfHAyJ5ae47Dj3xWmfnq51s5XgrM5PnlvSQ99/+SvW1nqP1bnV1qERxbvWiNbitqWywt2Y5SGOvewm12gjJdBfuvzu8vIrL5muB/+4/O7y509rkc7q3OWsc5VQ50rlXQ4buOHkYCQjsgm10hBf2n0IcP+BffZxMVZ4TvAFksWKP1NLusFL1VA/pZQKt/fBUekOHSojoyMDgwNBqRQcYYX2P0exaT+dBBx/80mXux9qHekzz9Q/IslCNtBq3nOBiHrte57k76E3d8zr0K9bEUXlzg0tW60iLBwuzNgJOPPErRGt/t1i8a5XYHJ2LND5xsP4k1ogczvhZu2QD48MD49kzwx6QcUxYDvkGDfVPAWPxXYyo5P/XnHSEMafYDqiU+FmkSe0BI4kW+FFsdOnVTYww5bWpl506kgltAriwEh5lT/xVGtfFh60vtzfCLlbGhpC39CGPnOn4EASZnI3c0IGEOi5xFABApucQM/Ynqf0Q6LJ5BZNpxMCfXpmur5Qry/UswuwdevW2lytvlCfmJyIaot7ze2aqy/UJycnXS+nmCcmJuoL9bldc729va5WKdXb26t7TUzEYymlJicnda+tW7fKXnpb+z89M+2q3HCjY6O6NntLYHpN+16u+9jYmK5NXb9VpVrRta49beQKdNLZToLbll8ZxUxiOgqK291IWAe7ZDPQ3CZqzh6xQBe1GQcCvzM7WYH++NN/W373j1Liizak3a1YV0pFu0pR0mfL+S0sDrSM8Ndm7WmBoGEh4pWcnBn1CsSTFR8qqz+sUjFVgcGEPpDDBNtDw0P6OBmfiN/TEk9K9uNZ6Gi3HJplUCi8bK+MtUiEWS1I7aUqEjJRm3KU7Mb+A4c+eXLfJ6yVBTE7sP7NDhv9J7fj4cJeWv/ZjxEEc2omd4tmp7WjNWJCreFC86iZmSo1MjqiV2dkNBEsIAfMJxX+sJFexZMxuRauF23Y5XPMnfYV/hDqoJe/OcyOYUuKPBHHj7QsFsgdRc4xsuts0qJzajiV0NJTM+sVi3XtsMXOR2YwBTtx6276N5sN5m5Qs0HetuF8fwzQ7Jz/2q50Lz1SXIosl5gI9kEABIoI9Bw+ukhp6JzfYrYz7SHQ159ATwh3CqLL8LaT7xRB9wkw2Qi6DZmzWPc5MyYNxir7SPRnjqIGBUJ8m5ZU4sLnuowi5VqyZyPofzt3jx+ivQR0Fl6hSnAmvUSwQUFbRVonunibqqyGIO1iFEYcIHRKJUrkcHInHteOH/1uU6BbK+SGF0ZeP9l6/9u0DLSOVVQFijmt5BigFeiagJ6vwKJURlYK/Zd3P2DvhaSfgchza5cRjrKL3jbx9XjtPJRgiwxGq1Ys0E1vg8g4FhAI7NOOl5VxlZ8OtbGS1/iTf9DGZsR+kSdZCSuOgchJacdvU3vSx1RC3iYgk51g7fxtjHCzeNNjidoJJ+cv8l+0Hy47u+CeM7KUswuBngMGxSAAAkkC8UOihx/enW3XCYHe5RSXgmSVjZniUizQFatwn2huJTitvUgipwZWf5tofRhBl8dKdwW6IvnuXqAep6e3HkH3+tsJYr0RCSxSD6zVfLguX+uIS74kpbdj/eGVShvX/tB8qykuYe8ge0R4FbUq0u6ZjCChioRuiy16ge5rvEhide6xSztym7qK4bTOE+HtYEZs06+40d9kImjm3dFb8drF9Waf3IiOH8pVS6e4RDaor44fFx5FTQl0BrLvecayEoFe5ElWwvpFSf5xJW4/oqcOskvgD4aiO5OIZLQrj42gSs5Oh/P9cEWzC4wU7ZBAb/GlUkXmUAcCILDBCfSIpPOZ3YvHuybQu8PV5ZxsyOFoUgkhrueayTDh+LdOQaFUch8yD9nIrJWwRrGsd3H3uLJ0gV6U4kJfbxSEzGNv2stBN5EzHb3zWjA2Hqo3L0Qy7fK1ezZAKORIk/ovM1yjAi84CluyUjH6SaqWqFNBVZFAD9RzYDLpniuMh5PY5TaZlCJMblNdxDlvlePhAk+bXCAaOivQA0u5O9TXJHjw7Fr3M5g4a1/hT9GRmeuTXta0J+Sk+yyCLbhFcRvesPdNLAd/QsLv7TETzzjpDobCjw78MKktP3RUG6w4J+4/7wL2mdmR2+KuLzKV3M3JQU+2RSEIgAAIKLwHvcyDoMv3A+R6rkBX/Oini39zXNyK8vBZz5BAoc7mjjlB9MKONMZP3vj4Wv77CrIpLkp/yajLcpFPgnJV8FRoOAul2nkJur8MCykTG7YpE1G0VaiT+CHR9IU8FnmxUvHJxAkPtAZtVSJIfeON8tsM/S6rW6OQqJRQuLwCuq8IHxIVVcJGrMkCVcRKKKFck+75QinX2L5/CLVouIAz6yo3naBKeK83o4nL+uKOrmXxUeSa0cbzTwbqlhH5Eu220PpNvwfdvfCbVnmfv2GQMANHGuzkeuL/dqwFtyg0VpSLwgA5WSU47Onjjn0X/RcVcbPgL6s7KS5mRS4+aYcLZ5eBYKdc9DsvZKAfEr323gtFnVEHAiCwCQnQW1zcT/JbipTCe9CbPTBWSaDb1xqalBWfr6L1tMkad69bodlEeSxkwT3fyco+sCmj5oHN5a9OO7MNBfoL75E+j18oxrJbJqssB/kq/CIXk8oShMw5vh5kuUQJ65yG/uWZO5tdPKVfFaeVRCyttKZM5kJo+7JBGGLUIsM/zWZlVizyQqWSybe2qbd2OiwfY91jK3N+e7EbNSAJ5T0M/bc3JKaBV41sQ7vh+tpaJ87MQNRMmpW4aGi+20m6xy2NvNPCiF3Vr3mxKr94OK41E3xyPhhFVpkJSimZM7tUenRE1MGxy52qD8qi40S6we2CNfK1MUkLM/wYwS+i8SewxssXH2CBc8FO0Nd6QiTt6uvWdlHiA5tr2W1qH9Wa6Yi732iC7iiKyt1RFLia2InW1H8tKBu001H2D1BjiY6T5lk5B/IT0J+7yOfFi8+5ttgAARAAAaVUTzMUOpGD3sy4K2/TZcXc5eHa5hM+FUpmWJSTss8G17nEReLbHrPcjiTrA72uZHzdjNVOEL1cN9eYNZIgbWiLNTaL8tyJbxvMxwVCHa5sLLLftEBf2VDovaYJFH6TqP5oEQJ9Ta8gnAOBVSAAgV4m9HUi0IN0F56/L3FK3XHJlriqVdvg8Hkg0LMl5Bx/rIwHs+w6QaBbEvybw6IuIktF2ZKgQ6s7EOitEtuQ7fkslP+laRxBxxcVbcilx6RAYEUEINBXhC/qvE4E+v//JUvRW1xEpko2+8VmrkeTXeXd6C0u9vWLGa/o6thaokvGxIYpkFkBgTDdMDNsdSJBtgZlepQS8BapOOUYbHVabbeXnpukIJf7VNoHC21710zHbAaLy79apbU48fW8rzR+9Nf8VM6195Dd0szSog0IbDYCEOhlrvj6Eehlzhq2QAAEQAAEQAAEQAAESiQAgV4iTAWBXiZN2AIBEAABEAABEACBTUkAAr3MZYdAL5MmbIEACIAACIAACIDApiQAgV7mskOgl0kTtkAABEAABEAABEBgUxKAQC9z2SHQy6QJWyAAAiAAAiAAAiCwKQlAoJe57BDoZdKELRAAARAAARAAARDYlAQg0Mtcdgj0MmnCFgiAAAiAAAiAAAhsSgIQ6GUuOwR6mTRhazMQoK9A//p5MdPzH6z8vfXZL5pVB8/9Znn53eXLB8VQa2mT3uv/m7cfX0suNfLl/Ac9tz/4VqNWqF8tAgfe+tmN698/sFrDY1wQWEUCJ/bmH/z5X02wig4nh+7Ze/T4Yf2z+NBYsolSE7+7R//k1LdQ3GUJu7GH09y3vf77+z573/xc+HkLi1Fu0+dOeTe0Px89u63cISJr+5+997P357Jf8hF78vvK/qjnmtnNkWVGTS6/S5pS/3z+9Mql5UuX310uw05p+A5+48u/99w6EdrjwpV9t9RqC/ScZQ3nGe4Vdbnn7c/tYWCPhz++HHYveY9HLLyZefHM16I7q5JdaMIcTn0FkE7svXHzZ2cfC1rsrnxkrxTJM2fQuIM7wcLpi0WHr1yjF96/r43r0dO3fvjxbfPzhyvx5Sxd+2LlD7aL7bvraYb5yJV7qeTWqENLJV9WHuF9aU13zI7oOkYbxrIe19qXxnV7bmac4ZJtp76k2YUDjZ4jO/eeetENQiXnRBQlGM76r5SxZmdNlmUvZy7eOL9LdqFtY9MYFEaoRHsb+OC7eNtjZ68fydPoDb7c1xtZ7a2evXPahZndi8cP52h0CPQml6nL9wNKKTrvfHbK/8E/d+re13c36W3JzUgWd1cKFwl070mMqORpr8xckSxTSpHQLFGKrTGB/q1bf88JllNY/WtX2r8jSQj0la1Ti70bLGvKWlGXxnI5ZXElZY1GXOkCrcQ30zf+u8apT0B97PtXbx65FN75/nzus/fvEzp49II/SYqu3dhkgS4uW50fsw2BzurQq0/1yJV7hVJkFZusZYEuWvrJsaa89w9feolMJdYICXS77fs03tIq1ttU53d5CRsaZAdES3J11ynhA49GU/vDl/cK1S4Feu5wRqDb24PGjrsWJNDl/YCr0Etw7x+8TSpJzo5vb2IjtUs3j1x9Kx14zr/6uOHXwIZIcRl76LGjx61eD1yDQA9w5O90XaDTOXfVFHnEYa0KdJWn4yP/V2W3SJZtcIFOCRJ//YaP0oT8i2vDttk9CPQsk5ZKigX6Wri24dSX+vBQLzLHDj+shSve/fNzOL7cWw8CPV9nK6VYDgqlKyeX31Hr41NXvPZduUBnm7Ew1e5I477ktnfbNCCHpQUW6Fcq53xLL9B5OG9BzrtTAv1W5dSXzr1cgW5GD29IlEp9jmSdXgNRButK7m8h0NXuvUePP7ZnJtsWAj3LJFmyKgJdBkWyXnGcSX+sGcVL5Medoork7O8r+0WtCLqQfZlAIqtyLwBsSrbMBP6Fk/KqQx3vfX23+DzUBF1Eif/E1n+SEHliZsRsYrEeX+ZDywJLlqwsefzpv9ncA5uU8spLtgHFrW2tC4fLQlebyT9JRNCp4+WDipS9NhslLlMXW+VSrsNC2+Bv5+6xPtoUbV0l0mAaDaeEJ+9Kg0opOUc3cTsiibw4ucXW0e9k9otskNmWwy0ve2dkvlDkIdnwJImb95PKX3mJP8TQPMO+LGEzJCMfzEIIniEWsXaZ4bwnKl8uUy9hRCnFh6J3VR6Z0o3McKaLbG9nF2BRSmUeG+ClOLD95I09TxwYeOLqg6dv8M+lcblGtbN7TPmNB0+eHdBVVHh1eyQl1dLC6RsLD8jO2e04HpxtIc4q0R+yOLnJD/02wKmPKVD4PE5uMeftREKgByexhOFtPm2aDEaZKEJn2lOjiteCM1WiaJFYAnliV7kCPTp1K6XDK95sy55432QGpjfopx9tsc4WUWRZrSVsnPFiWjQS6E+/WPmD1ZFSQ7cVQecYsw8wSycp5B+F5EN57cSu29DdzeyevuUSVJxAL5y4TnHJcSbwLNopjqDfGn3E39J4V3Nm56S8GSN5s2rqONEl8RTNo2/86dq1ax+/8ZPIz1XYlQKdslwg0FeyCF0X6PpM935Obok+4bpT7e7KBZcUHgpTeVq0Z0BzKqcqf24NT6xs3ylvaSSEyL3kNVKOHhrh0e1VxF4wzBB8qnXD2XO3bSyGDDxhI+6iEthXii8t/mQddBQGizdDScQSzanzUFpxSyG8tDoMBVYwVo5AX3ap5GzfC69wuMAU7ZBvvrGofvkVL+m0JLX5x0Zxml7RcEbWuxkdPPeKfcwx9CQ78cbRCzp7Np2JHjlG3MSM9ExThVnHHBWSsEKy866b6UuXxaqFVWSASkQDZ1NLbdL9+t89b1+2jxaY4UwvvqlwFkKY3pr5jEU++codrf3QjWD1i4ZTquCWQKmcDzdIoJMuf2aJHSSRbbeVeuDSg0KIjz9jNTqr9liLp1V7MG2lcOrzp+UQDT0benOvXgVZY0+n7mQoK7XI9lU/n3Nn2vCsSJrbNaMqf/UJz/MFJ/Z8ga7dcEObVbaXsDY9oXkGbgcTz9/hMPkPP/aBZNs0X4JTi/xap4+d9pUqsy2BXqSYpXHtunPA+mnkbNjS2vQ3Elag50+N7RfdLWgH0v83EuhKjdpwfpFAV5zLHicXFT0qTQ/SJD7FXUsCfbdN0Bnb89ThLkbQx8bGanO12dnZ5JLNVGbm5ua2bYvvUcfGqVe1Ws2y5UR0AAATKUlEQVTrVZuryV5OMff399dqtUq1ku1YqVRqc7X+/v5sFfWaS/dSSs1UZmpztfFxHydyww0ODtYX6vWF+sCgCRU545UqDTc2brm7CqV8r4G4l1JqfGK8NlebmpoSPXjTSur7wnSX8HQZdKIqd5KlGjqZGp1aJGFJIgeCmM6Y8uwp49ky31Eqch3LsXpdWmAf6UxqTtDhKT57ko1dtXM0lw3njPUwoekDx5iYaGztNfgdyqBAnFGVVUtshUSS1b5UEPWNR8oR6EJkB4KMtXVGmHqjgUTzxfGWbCa3SQ/Su1DsjMI7k8BKo4nnnBkDGzlCMGhjdmKMKS2ehBN3FMapSgTUizRrZrgcs6HsFmNlj4TgzoEFuohnS/UfrEjgJPUKDgayaUV/5GEwXLFAz7txYoFu1DlNzatwZYLrfsJegvtgObXX3UnN++i7OysODg56C3oLp76YiFJq6cMjN+L8FtuMT3GJD1Q51J089YlLg2cuz952Ozq7Fp3Y3c2VO0Xbq0+kyPnCJC8HPphihrOj03B2O/KE3W5HoFNH1nz6EUav/Ip1KtcGTz3KeLmW++d36UdFpTK29wP+sVQ/ol2/zG8rpjMVSnEEPX5c1d9vyKF5mi727Gxus7klVqBLBSymaT9nYIEejOhspvxzZQKy4WbC8F7x21ua1gX6+s5y6TGvcCFpvrubEfTqbLW+UL+rfpdbJbfR29ur1e3UdCxGZ2dn6wv1+bvmXWO34XpNTk26QqeYJyYntM2+vj5Xq5Tq6+vT5ZOTvpdrMDk5qWt7e3tdodvYNb+rvlCX9xhuuOHhYd1xeHjYtdcb83fNU6/tiTuTkZER3WtoeCjqpZTavmN7faG+a9eubJUu4ZOsU7dFMQPTUj8+7/7XsjhWvULCisuh+LjQnhajU2TopTw/0raNkYgLhj9Z25uHlQh065WNtJn7ioLZkcM0WRkTCieRsxfqVKloWTyJhBOtsYS8Llugi0wVeRtgHZe+2TL9OyMBrZNRl0AORiJPWGw48WbEdzNt9Jg0nHWYSzKKmUqThX7iLjpu5pGZXYCCF92nEkUB+0xfbTOwYIaxv6IugWJmJ1MLSp1lS9q2Elx/EhLI+ugDAdcyNEJGC0bMS0AvEOgcTXf5LXaDA+dOu+s2rMsfuORzYJRy59LkWVHjw6nPHkZKFX2m71qZE52NtsRnWtdOnBLF+dmFaaJzvji7Fp7YCyLoJqdFnK7dmdydnFvzxB8hQUxKTLGJTSM9jRJtQqAntbUIYI+e47RvqZK7G0H32pen70Q5fdpAD4nyK2vIPdLKVqAnJu4Vc8dy0PkdGOd3cbqOH06iMytIQj97S7Cu09BligvloHftIdHxcY4HZyS4Uqq3t3dqeqo6Wx0ZGYn+dnKjyNxreno66iUVc7VanZ6Zzgp03Wt4JFbSiq8N1dnq9HTcS3s1NTVFEfSJRAR9eHh4dna2OlvNXlSyvdwcfa+hhECfmJiozdWSNxLOAp8WzRlNamLXQG8UVGUeqYwFuj2nRybDuHimks1qx8igM8IOJyM3Jq7vpHziY0pxPQgGjC4bMgwTdxGz8yb4csVK3fnpKxNbpPyEVrMB5ijenOhYegTdjkFqj10KZGteiosWqd5tqSPldhxBjzSlHTxuJsrdZrMR9ESCoLPhN1Yg0I0RmiYT8yHnzOyojVbJWp17xZyR/pm+epgIpp9AMxF0P1zQz2QucW3IIeOV7Bd5KFU+NSsQ6G1E0El873ki/UJuEzivnd3zzNL4M5R6TlnsLkmdT8Kz/C97LpUTwqnP0iiKoNs29uxqNGsDgR7ErYUJfh7JCehAWxee2AsFuv6klCM4ZMSr6uS52noTnfPj83xRuMqaaPSbI9z6+UgvYROdEirWtBICncLbf7iyTarMtgR6pLMDd6RxXeEdEPFvH+w3kX45O51bYgW60O52JK+YOyvQKcH93lMv+uGKZmed498k0BMZX7ou/haOoOca2PECnVJc8JrFlS2Jux9YmZn2e8urVMEpsqCqSKBHGduRm9EpMqp1WTTPnRLn3GJZH1824vuKzFnYjBl7QnaaSOCJPI5Hj6rdbqiKXDFvRDIorKS9Bg1IY0WR3Ujk0egu5ySynzEe9bXNYyUnm8ntWHnHqs7aazwv/aBh8YsU84SgGMVuxhDYMS+1TbN4mra3/x1MNqZHmtXYjKsyluMG1oPmFytgWyCX2TIN98pLrKrF0VLYK/IwGK5YoBfmoOenuPh8dM+btkiOP7M08MRVCqg/cOlBlul5jcOuwR5OfRZHXg66rTe/+fxm5W98avVtC0+D0ZlWnpCjKm+QtoouQOY9BKdG+ZIhQiTtesJD508w9KxgTwj0Fb3FRb8TnVLVv6w8LZ7jbEug6zyWbNiY5lEgYb1SdxP24Wcp0Gmm5847gc4Ttxk73NUr5g4LdH1LM5r3mkUd5pfvmDczayMH3TFZ/Q0j0Hc+fPzw0adcPnrkF97iEgHJ2+22QN//7L02V4RdohiDCDnzrj0FU6J5+JBoIJTdlORJlgqDuAWfWH3823WijcIzsjkpf/Rs5YLVyqYzn3ZdIntgMT4jZ06y0Xxt59ATeeUOp8Pdw8R9ayKeuC5/9NcfX7t27dqf3nhUtIvVoagykcg8AW3zEzJS0plYkUDPOsYlIrHBjBMoORKp/iHUOOge2eTG3mD8kGjBxFVepoSde95bXH7yBq9B+Ii9VOS8Ld/i4iymnhy1lfQ74BDdO/FM7YcMgZylNYqHk/7IEXTaif9YI3pI1JMMElcixwKDeoePk3NP/y0CTirc3lREvRoIdP0GHjvfqG/6Ad+CFBf9kGhOEJ0SWq7uMUnnSwunr+7ht8FEY8a7OPUFp/oAT+ol6KSJhdjVp2txJufTfnDtcFcWOp1GJ207XHimDYM7BSf2RgKdLzpzrz97b3RdaNMT8ja8Clj/7e/nLtJ5/dpF+aV39m3ipg2HnG2ytXkSVL4jxb8lvbkIOr+r8d5zt/yLVtoT6EaYyidZrecFAp3Gil634icYCHS6kbi1y39RkQ69e43ePYFOM/1y17n0e9DJ58TjvMUZXxQDSn0Xsn5I9Np7L9jjY/V+2xz0h4u+3QYCvckF6rZAj156mDiN6rNkMq/ayFObTW4/qSwU6PZMJ7IAw/O4tcYN/L2B5qdHzCa0SCepo72QNBTo5kNVO6i1zOdxWxh+kVNAzLxN0n2ASzcALiM/AVOZ83go0K0KNzkSOlMiDmSKHBhRxVhYRUUZKayDA4MuxzqI8kZZNFabGmuRXOPRjP6ONKXsePkgjW5FZNFwbFC6Gt5psN7NnzilmP/96+Lr6fRBYv7PTUB/4T2+loYC3cTsNTETS3bOyClHZKTzVCXTSOS6iDsW7Z/s+MeXaaZuODMB2d3C5CqJRSjyIsUsu5ijIjqKtD+xDwEW7ug8KRpOzyAYNByObq4yF7ZCga6MRrdvYLRvcVFK8YtcXMicMl4av2ORPQz/zN1fseGvE9vSj5Rs3FOfnnzOdyiG5zd7wre8wnRzey7VtSFqH9mhcmEnvnbkndi1XA5OtuLegIbUkaDMmpr7Cn+WdpeYBp6QTTn90LIRZKFAzzxkmUkrJ23q8kNi7R48K2leHB7HrfXDkVbscoTeG8x8wadfqOxW0Ncq73yBHkpwY46nQ85EtWaaYvrBxEXad1Re0jeJ2unY18+L/HgB2fMP6LSXgJ66YQvMdm3Hp7gUDAmBXgBHVq2CQJfDY3s1CEQS1r7oOif6uBoertUx84Po6Rhtd+cRSdjuDr7WR1sLC7TWGa2mf8kg+mo6hLFBoPsE2v4mUf05bfCJSve9pxEh0MvkDoFeJs31YYsDjS4wST5nS9bHTFbBS9J5mZedc3JL029A75jXEOiFaPkDkOKnCAr7o7KzBDgT/cilE50dBdZBYK0SyPkcid3l5JbEG9DNXDiCnvmQdjUmCoFeJnUI9DJprhtbJgvZpk+EmRLrZhar5Chp9CDR5fwHGcm+Kq5BoDfCThq9udfsNLKE+k4QKHo8rhPjwWYnCOjs6iD1xeXViLSTTgxdks3sa859aopJ/ilpJGnmxN4b17+ffnMUfRdyjjo3j5lde08+jiDNdnkbAr1M4BDoZdKELRAAARAAARAAARDYlAQg0Mtcdgj0MmnCFgiAAAiAAAiAAAhsSgIQ6GUuOwR6mTRhCwRAAARAAARAAAQ2JQEI9DKXHQK9TJqwBQIgAAIgAAIgAAKbkgAE+qZcdkwaBEAABEAABEAABEBgrRKAQF+rKwO/QAAEQAAEQAAEQAAENiUBCPRNueyYNAiAAAiAAAiAAAiAwFolAIG+VlcGfoEACIAACIAACIAACGxKAhDoZS977cq3z9y+48ztby++WLZp2AMBEAABEAABEAABENj4BHp2Lx4/fFT/LO7Mme/E7+7RPzn1LRR3+T0nXR7Og2CZ/p0f+QJsgQAIgAAIgAAIgAAIgEAzBHoOP7xbt9v58PHDR9MaHQK9GZRRm+8eu33HsfNRIXZBAARAAARAAARAAARAoJhAj4ia79579Phje2ayHSDQs0walkCgN0SEBiAAAiAAAiAAAiAAAlkCIgd9bpFyXRYfGsu0gkDPIGlcAIHemBFagAAIgAAIgAAIgAAIZAgYgT6256nDiw/t3PNUMssFAj3DrXEBBHpjRmgBAiAAAiAAAiAAAiCQIUACnbLPOROdZHoqDb0TAn1iYqI2V5ucmsy4pPr7+6dnpqvV6vDwcFQ7OTlZm6tNTE5E5UqpbQPbZiozlWplcHDQ1bqHRMfHx2m4yXi4waHBSrUyU5nZNrDN9XIbE5PsZKaXUmp4eLg6W52dnc06abr/6NYdZ768s+aMYQMEQAAEQAAEQAAEQAAEGhOgt7i4vHMdR+9Oisvs9tn6Qn3+rvmsj/39/fWFen2hPj4xHtXurO2sL9R31kTmvG0xNDSke42MjNgy5QS6GW4+Hm5kZET3Ghzyst51b3U419FunP8OvXLx1nftPn6DAAiAAAiAAAiAAAiAQDGBnr1zvgGF0ruVg65D2jMziWdSlVLVanVnbWdvb693jrdMBH0iEUFXSs3Ozm7fsX3L1i2ulxPoIyMjyYD91q1bt+/YXp2tui5yQ4f5kwH7gYGBAmWvlPqnxS8hzSVMbIMACIAACIAACIAACDRDAG9xaYZSO22Qg94ONfQBARAAARAAARAAgU1PAO9B79QhAIHeKbKwCwIgAAIgAAIgAAIbmkDPXvM1ounkFj33Tjwk2h2qLsWlO8PJUSDQJQ1sgwAIgAAIgAAIgAAINElAvAc9vwcEej6b3BoI9Fw0qAABEAABEAABEAABEMgnAIGez2ZFNfT+lm8vvrgiG+gMAiAAAiAAAiAAAiCw+QhAoJe95rUr36ZXK96+49j5sk3DHgiAAAiAAAiAAAiAwMYnAIG+8dcYMwQBEAABEAABEAABEFhHBCDQ19FiwVUQAAEQAAEQAAEQAIGNTwACfeOvMWYIAiAAAiAAAiAAAiCwjghAoK+jxYKrIAACIAACIAACIAACG59AUwK9RAyr+GLyEmcBUyAAAiAAAiAAAiAAAiDQIQIQ6B0CC7MgAAIgAAIgAAIgAAIg0A4BCPR2qKEPCIAACIAACIAACIAACHSIAAR6h8DCLAiAAAiAAAiAAAiAAAi0Q2ATCPSxs9eP3Lh55Mb17x9ohxD6gAAIgAAIgAAIgAAIgEAXCfQotXvv0eOHjz61e6wbw67aQ6Is0z+sdWOOGAMEQAAEQAAEQAAEQAAE2ibQc/jo4u49T218ga7Uib03bu5dapsUOoIACIAACIAACIAACIBAFwhQissYBHoXSGMIEAABEAABEAABEAABEGiCAAR6E5DQBARAAARAAARAAARAAAS6RQACvVukMQ4IgAAIgAAIgAAIgAAINEFg1QT6+Ph4ba42PTOddLJare6s7ezt7Y1qJycna3O1iYmJqFzvVmer23ds37J1S7JW1S7dPHL1ra48C5t2AKUgAAIgAAIgAAIgAAIg0IjAqgn02e2z9YX6/Px81sP+/v76Qr2+UB+fGI9qd9Z21hfqO2s7o3Kl1NDQkO41MjKSrbUlSx/SKxcvnbD7+A0CIAACIAACIAACIAACa4rAqgn0iYmJ2lxtcmoyi6O/v396ZrparQ4PD0e1JoI+mYigbxvYNlOZqVQrg4ODUS+9+9j3r0KaJ8mgEARAAARAAARAAARAYO0QWDWB3n0EeM1i95ljRBAAARAAARAAARAAgVYJQKC3SgztQQAEQAAEQAAEQAAEQKCDBHoO09eIip+Hd3dwNKVW7ZtE8UVFHV1XGAcBEAABEAABEAABECiJAEXQu/kPAr2btDEWCIAACIAACIAACIDAuiOweQQ6vb/l+vcPrLsVgsMgAAIgAAIgAAIgAAKbisAmEOhjZ6/TqxVv3Ny7tKmWFpMFARAAARAAARAAARBYjwQ2gUBfj8sCn0EABEAABEAABEAABDYrAQj0zbrymDcIgAAIgAAIgAAIgMCaJACBviaXBU6BAAiAAAiAAAiAAAhsVgL/H7IxF8yfVKmQAAAAAElFTkSuQmCC;" parent="1" vertex="1">
          <mxGeometry x="1695" y="852" width="673.71" height="163" as="geometry" />
        </mxCell>
      </root>
    </mxGraphModel>
  </diagram>
</mxfile>
